<?xml version="1.0" encoding="utf-8"?>
<!-- Generator: Adobe Illustrator 23.0.4, SVG Export Plug-In . SVG Version: 6.00 Build 0)  -->
<svg version="1.1" id="Capa_1" xmlns="http://www.w3.org/2000/svg" xmlns:xlink="http://www.w3.org/1999/xlink" x="0px" y="0px"
	 viewBox="0 0 300 300" style="enable-background:new 0 0 300 300;" xml:space="preserve">
<style type="text/css">
	.st0{fill:#3AA5F7;}
	.st1{display:none;}
	.st2{display:inline;fill:#133B52;}
	.st3{display:inline;fill:#EE5455;}
	.st4{display:inline;fill:#FACF48;}
	.st5{display:inline;fill:#6AEAB8;}
	.st6{display:inline;fill:#3AA5F7;}
	.st7{display:inline;fill:#F39843;}
	.st8{display:inline;fill:#EF6769;}
	.st9{display:inline;fill:#8D49DD;}
	.st10{display:inline;fill:#0D427A;}
	.st11{fill:#FFFFFF;}
	.st12{enable-background:new    ;}
</style>
<g>
	<path class="st0" d="M253.9,56.8L177,12.3c-16.7-9.7-37.2-9.7-53.9,0L45.8,56.8C29.1,66.6,19,84.3,19,103.5v89.1
		c0,19.1,10.4,36.9,26.8,46.6l77.2,44.5c16.7,9.7,37.2,9.7,53.9,0l77.2-44.5c16.7-9.7,26.8-27.5,26.8-46.6v-89.1
		C281,84.3,270.6,66.2,253.9,56.8z"/>
</g>
<g class="st1">
	<path class="st2" d="M253.9,56.8L177,12.3c-16.7-9.7-37.2-9.7-53.9,0L45.8,56.8C29.1,66.6,19,84.3,19,103.5v89.1
		c0,19.1,10.4,36.9,26.8,46.6l77.2,44.5c16.7,9.7,37.2,9.7,53.9,0l77.2-44.5c16.7-9.7,26.8-27.5,26.8-46.6v-89.1
		C281,84.3,270.6,66.2,253.9,56.8z"/>
</g>
<g id="Capa_3" class="st1">
	<path class="st3" d="M253.9,56.8L177,12.3c-16.7-9.7-37.2-9.7-53.9,0L45.8,56.8C29.1,66.6,19,84.3,19,103.5v89.1
		c0,19.1,10.4,36.9,26.8,46.6l77.2,44.5c16.7,9.7,37.2,9.7,53.9,0l77.2-44.5c16.7-9.7,26.8-27.5,26.8-46.6v-89.1
		C281,84.3,270.6,66.2,253.9,56.8z"/>
</g>
<g id="Capa_4" class="st1">
	<path class="st4" d="M253.9,56.8L177,12.3c-16.7-9.7-37.2-9.7-53.9,0L45.8,56.8C29.1,66.6,19,84.3,19,103.5v89.1
		c0,19.1,10.4,36.9,26.8,46.6l77.2,44.5c16.7,9.7,37.2,9.7,53.9,0l77.2-44.5c16.7-9.7,26.8-27.5,26.8-46.6v-89.1
		C281,84.3,270.6,66.2,253.9,56.8z"/>
</g>
<g id="Capa_5" class="st1">
	<path class="st5" d="M253.9,56.8L177,12.3c-16.7-9.7-37.2-9.7-53.9,0L45.8,56.8C29.1,66.6,19,84.3,19,103.5v89.1
		c0,19.1,10.4,36.9,26.8,46.6l77.2,44.5c16.7,9.7,37.2,9.7,53.9,0l77.2-44.5c16.7-9.7,26.8-27.5,26.8-46.6v-89.1
		C281,84.3,270.6,66.2,253.9,56.8z"/>
</g>
<g id="Capa_6" class="st1">
	<path class="st6" d="M253.9,56.8L177,12.3c-16.7-9.7-37.2-9.7-53.9,0L45.8,56.8C29.1,66.6,19,84.3,19,103.5v89.1
		c0,19.1,10.4,36.9,26.8,46.6l77.2,44.5c16.7,9.7,37.2,9.7,53.9,0l77.2-44.5c16.7-9.7,26.8-27.5,26.8-46.6v-89.1
		C281,84.3,270.6,66.2,253.9,56.8z"/>
</g>
<g id="Capa_7" class="st1">
	<path class="st7" d="M253.9,56.8L177,12.3c-16.7-9.7-37.2-9.7-53.9,0L45.8,56.8C29.1,66.6,19,84.3,19,103.5v89.1
		c0,19.1,10.4,36.9,26.8,46.6l77.2,44.5c16.7,9.7,37.2,9.7,53.9,0l77.2-44.5c16.7-9.7,26.8-27.5,26.8-46.6v-89.1
		C281,84.3,270.6,66.2,253.9,56.8z"/>
</g>
<g id="Capa_8" class="st1">
	<path class="st8" d="M253.9,56.8L177,12.3c-16.7-9.7-37.2-9.7-53.9,0L45.8,56.8C29.1,66.6,19,84.3,19,103.5v89.1
		c0,19.1,10.4,36.9,26.8,46.6l77.2,44.5c16.7,9.7,37.2,9.7,53.9,0l77.2-44.5c16.7-9.7,26.8-27.5,26.8-46.6v-89.1
		C281,84.3,270.6,66.2,253.9,56.8z"/>
</g>
<g id="Capa_9" class="st1">
	<path class="st9" d="M253.9,56.8L177,12.3c-16.7-9.7-37.2-9.7-53.9,0L45.8,56.8C29.1,66.6,19,84.3,19,103.5v89.1
		c0,19.1,10.4,36.9,26.8,46.6l77.2,44.5c16.7,9.7,37.2,9.7,53.9,0l77.2-44.5c16.7-9.7,26.8-27.5,26.8-46.6v-89.1
		C281,84.3,270.6,66.2,253.9,56.8z"/>
</g>
<g id="Capa_10" class="st1">
	<path class="st10" d="M253.9,56.8L177,12.3c-16.7-9.7-37.2-9.7-53.9,0L45.8,56.8C29.1,66.6,19,84.3,19,103.5v89.1
		c0,19.1,10.4,36.9,26.8,46.6l77.2,44.5c16.7,9.7,37.2,9.7,53.9,0l77.2-44.5c16.7-9.7,26.8-27.5,26.8-46.6v-89.1
		C281,84.3,270.6,66.2,253.9,56.8z"/>
</g>
<g>
	<g>
		<g>
			<path class="st11" d="M177.9,46.2h-55.8c-7,0-12.7,5.7-12.7,12.7v2.8v0.7v2v5.9v101.3c0,7,5.7,12.7,12.7,12.7h9.5h36.8h9.5
				c7,0,12.7-5.7,12.7-12.7V70.4v-5.9v-2v-0.7V59C190.6,51.9,184.9,46.2,177.9,46.2z M122.1,50.3h55.8c4.5,0,8.2,3.6,8.6,8h-8.7
				h-55.5h-8.7C113.8,53.8,117.5,50.3,122.1,50.3z M113.5,70.4v-5.9v-2l0,0h8.8h55.5h8.8l0,0v2v5.9v91.3h-73V70.4H113.5z
				 M186.5,171.7c0,4.7-3.9,8.6-8.6,8.6h-9.5h-36.8h-9.5c-4.7,0-8.6-3.9-8.6-8.6v-5.9h73V171.7z"/>
		</g>
	</g>
</g>
<g>
	<g>
		<g>
			<path class="st11" d="M161.7,55.6h-17.2c-0.7,0-1.3-0.6-1.3-1.3s0.6-1.3,1.3-1.3h17.2c0.7,0,1.3,0.6,1.3,1.3
				S162.4,55.6,161.7,55.6z"/>
		</g>
	</g>
	<g>
		<g>
			<path class="st11" d="M140.8,55.6h-2.5c-0.7,0-1.3-0.6-1.3-1.3s0.6-1.3,1.3-1.3h2.5c0.7,0,1.3,0.6,1.3,1.3S141.5,55.6,140.8,55.6
				z"/>
		</g>
	</g>
</g>
<g>
	<path class="st11" d="M158.8,175.5h-17.6c-0.5,0-0.9-0.4-0.9-0.9v-2.9c0-0.5,0.4-0.9,0.9-0.9h17.6c0.5,0,0.9,0.4,0.9,0.9v2.9
		C159.7,175.1,159.3,175.5,158.8,175.5z"/>
</g>
<g>
	<path class="st11" d="M137.8,130.7v-17h-17v17H137.8z M124.9,126.6v-8.8h8.8v8.8C133.7,126.6,124.9,126.6,124.9,126.6z"/>
</g>
<g>
	<path class="st11" d="M120.8,92v17h17V92H120.8z M133.7,96.1v8.8h-8.8v-8.8H133.7z"/>
</g>
<g>
	<path class="st11" d="M120.8,70.3v17h17v-17H120.8z M133.7,74.4v8.8h-8.8v-8.8H133.7z"/>
</g>
<g>
	<path class="st11" d="M120.8,135.2v17h17v-17H120.8z M133.7,139.3v8.8h-8.8v-8.8H133.7z"/>
</g>
<g class="st12">
	<path class="st11" d="M69.1,210.3L69.1,210.3l-5.6,15.3h-2.8l-5.5-15.3l-0.1,0l0.4,9.1v3.3l2.2,0.4v2.5h-8.6v-2.5l2.2-0.4v-14.8
		l-2.2-0.4V205h2.2h5.4l5.3,15.2h0.1l5.3-15.2h7.6v2.5l-2.2,0.4v14.8l2.2,0.4v2.5h-8.6v-2.5l2.2-0.4v-3.3L69.1,210.3z"/>
	<path class="st11" d="M84.9,205v2.5l-2.2,0.4v10.8c0,1.4,0.4,2.4,1.1,3.1c0.7,0.7,1.7,1,3,1c1.3,0,2.3-0.3,3.1-1
		c0.7-0.7,1.1-1.7,1.1-3.1v-10.8l-2.2-0.4V205h8.6v2.5l-2.2,0.4v10.8c0,2.3-0.8,4.1-2.3,5.4c-1.5,1.3-3.5,1.9-6,1.9
		c-2.5,0-4.5-0.6-6-1.9s-2.3-3-2.3-5.4v-10.8l-2.2-0.4V205h2.2h4.1H84.9z"/>
	<path class="st11" d="M114.2,211.6h-3.1l-0.5-2.8c-0.4-0.2-0.9-0.4-1.6-0.6c-0.7-0.2-1.4-0.3-2.2-0.3c-1.1,0-2,0.2-2.6,0.7
		c-0.6,0.5-0.9,1.1-0.9,1.9c0,0.7,0.3,1.3,1,1.7c0.6,0.4,1.8,0.9,3.4,1.4c2.3,0.6,4,1.5,5.2,2.5c1.2,1,1.8,2.4,1.8,4.1
		c0,1.8-0.7,3.2-2.1,4.2c-1.4,1-3.2,1.5-5.5,1.5c-1.6,0-3.1-0.3-4.4-0.8c-1.3-0.5-2.4-1.2-3.3-2.2v-4.3h3.2l0.4,2.9
		c0.4,0.3,1,0.6,1.7,0.8c0.7,0.2,1.5,0.3,2.4,0.3c1.1,0,2-0.2,2.6-0.7s0.9-1.1,0.9-1.9c0-0.8-0.3-1.4-0.8-1.9s-1.6-0.9-3-1.4
		c-2.5-0.7-4.3-1.6-5.6-2.5c-1.3-1-1.9-2.3-1.9-4c0-1.7,0.7-3,2.1-4.1c1.4-1.1,3.2-1.6,5.4-1.6c1.6,0,3,0.2,4.3,0.7
		c1.3,0.5,2.4,1.1,3.3,1.9V211.6z"/>
	<path class="st11" d="M129.5,216.6h-7v5.9h6.7l0.2-2.5h3.2v5.7h-16.4v-2.5l2.2-0.4v-14.8l-2.2-0.4V205h2.2h14.1v5.7h-3.2l-0.2-2.5
		h-6.6v5.2h7V216.6z"/>
	<path class="st11" d="M153.7,215.5c0,3-0.9,5.5-2.6,7.5c-1.7,2-4,3-6.8,3c-2.8,0-5-1-6.8-3c-1.7-2-2.6-4.5-2.6-7.5v-0.3
		c0-3,0.9-5.5,2.6-7.5c1.7-2,4-3,6.8-3c2.8,0,5.1,1,6.8,3c1.7,2,2.6,4.5,2.6,7.5V215.5z M149.5,215.1c0-2.1-0.4-3.9-1.3-5.2
		c-0.9-1.3-2.2-2-3.9-2c-1.7,0-3,0.7-3.9,2s-1.3,3.1-1.3,5.2v0.3c0,2.2,0.4,3.9,1.3,5.3c0.9,1.3,2.2,2,3.9,2c1.8,0,3.1-0.7,3.9-2
		c0.9-1.3,1.3-3.1,1.3-5.3V215.1z"/>
	<path class="st11" d="M182.4,210.3L182.4,210.3l-5.6,15.3H174l-5.5-15.3l-0.1,0l0.4,9.1v3.3l2.2,0.4v2.5h-8.6v-2.5l2.2-0.4v-14.8
		l-2.2-0.4V205h2.2h5.4l5.3,15.2h0.1l5.3-15.2h7.6v2.5l-2.2,0.4v14.8l2.2,0.4v2.5h-8.6v-2.5l2.2-0.4v-3.3L182.4,210.3z"/>
	<path class="st11" d="M211,205v2.5l-2.2,0.4v17.8h-4.1l-8.4-13.9l-0.1,0v11l2.2,0.4v2.5h-8.6v-2.5l2.2-0.4v-14.8l-2.2-0.4V205h2.2
		h4.1l8.4,13.9l0.1,0v-11l-2.2-0.4V205h6.3H211z"/>
	<path class="st11" d="M221.5,205c2.4,0,4.3,0.5,5.7,1.4c1.4,0.9,2,2.4,2,4.2c0,1-0.3,1.8-0.8,2.6s-1.2,1.3-2.2,1.7
		c1.2,0.3,2.2,0.8,2.8,1.7c0.6,0.9,0.9,1.9,0.9,3c0,2-0.7,3.5-2,4.5c-1.3,1-3.2,1.5-5.6,1.5h-10.2v-2.5l2.2-0.4v-14.8l-2.2-0.4V205
		h2.2H221.5z M218.7,213.6h3c1.1,0,2-0.2,2.6-0.7c0.6-0.5,0.9-1.1,0.9-2c0-1-0.3-1.7-0.9-2.1c-0.6-0.5-1.5-0.7-2.7-0.7h-2.8V213.6z
		 M218.7,216.5v6h3.8c1.1,0,1.9-0.2,2.5-0.7c0.6-0.5,0.9-1.2,0.9-2.1c0-1-0.2-1.8-0.7-2.3c-0.5-0.5-1.3-0.8-2.3-0.8H218.7z"/>
	<path class="st11" d="M231.3,223.2l1.5-0.2l6.3-18h4.2l6.2,18l1.5,0.2v2.5h-7v-2.5l1.4-0.3l-0.9-2.8h-6.7l-0.9,2.8l1.4,0.3v2.5h-7
		V223.2z M238.8,217h4.7l-2.3-7.3h-0.1L238.8,217z"/>
</g>
<g>
	<g>
		<rect x="148" y="72.4" class="st11" width="28.1" height="4"/>
	</g>
	<g>
		<rect x="148" y="81.3" class="st11" width="16.7" height="4"/>
	</g>
</g>
<g>
	<g>
		<rect x="148" y="94.1" class="st11" width="28.1" height="4"/>
	</g>
	<g>
		<rect x="148" y="103" class="st11" width="16.7" height="4"/>
	</g>
</g>
<g>
	<g>
		<rect x="148" y="115.8" class="st11" width="28.1" height="4"/>
	</g>
	<g>
		<rect x="148" y="124.7" class="st11" width="16.7" height="4"/>
	</g>
</g>
<g>
	<g>
		<rect x="148" y="137.2" class="st11" width="28.1" height="4"/>
	</g>
	<g>
		<rect x="148" y="146.1" class="st11" width="16.7" height="4"/>
	</g>
</g>
</svg>
