<?xml version="1.0" encoding="utf-8"?>
<!-- Generator: Adobe Illustrator 23.0.4, SVG Export Plug-In . SVG Version: 6.00 Build 0)  -->
<svg version="1.1" id="Capa_1" xmlns="http://www.w3.org/2000/svg" xmlns:xlink="http://www.w3.org/1999/xlink" x="0px" y="0px"
	 viewBox="0 0 300 300" style="enable-background:new 0 0 300 300;" xml:space="preserve">
<style type="text/css">
	.st0{fill:#51C2D1;}
	.st1{display:none;}
	.st2{display:inline;fill:#133B52;}
	.st3{display:inline;fill:#EE5455;}
	.st4{display:inline;fill:#FACF48;}
	.st5{display:inline;fill:#6AEAB8;}
	.st6{display:inline;fill:#3AA5F7;}
	.st7{display:inline;fill:#F39843;}
	.st8{display:inline;fill:#EF6769;}
	.st9{display:inline;fill:#8D49DD;}
	.st10{display:inline;fill:#0D427A;}
	.st11{fill:#FFFFFF;}
	.st12{enable-background:new    ;}
</style>
<g>
	<path class="st0" d="M253.9,56.8L177,12.3c-16.7-9.7-37.2-9.7-53.9,0L45.8,56.8C29.1,66.6,19,84.3,19,103.5v89.1
		c0,19.1,10.4,36.9,26.8,46.6l77.2,44.5c16.7,9.7,37.2,9.7,53.9,0l77.2-44.5c16.7-9.7,26.8-27.5,26.8-46.6v-89.1
		C281,84.3,270.6,66.2,253.9,56.8z"/>
</g>
<g class="st1">
	<path class="st2" d="M253.9,56.8L177,12.3c-16.7-9.7-37.2-9.7-53.9,0L45.8,56.8C29.1,66.6,19,84.3,19,103.5v89.1
		c0,19.1,10.4,36.9,26.8,46.6l77.2,44.5c16.7,9.7,37.2,9.7,53.9,0l77.2-44.5c16.7-9.7,26.8-27.5,26.8-46.6v-89.1
		C281,84.3,270.6,66.2,253.9,56.8z"/>
</g>
<g id="Capa_3" class="st1">
	<path class="st3" d="M253.9,56.8L177,12.3c-16.7-9.7-37.2-9.7-53.9,0L45.8,56.8C29.1,66.6,19,84.3,19,103.5v89.1
		c0,19.1,10.4,36.9,26.8,46.6l77.2,44.5c16.7,9.7,37.2,9.7,53.9,0l77.2-44.5c16.7-9.7,26.8-27.5,26.8-46.6v-89.1
		C281,84.3,270.6,66.2,253.9,56.8z"/>
</g>
<g id="Capa_4" class="st1">
	<path class="st4" d="M253.9,56.8L177,12.3c-16.7-9.7-37.2-9.7-53.9,0L45.8,56.8C29.1,66.6,19,84.3,19,103.5v89.1
		c0,19.1,10.4,36.9,26.8,46.6l77.2,44.5c16.7,9.7,37.2,9.7,53.9,0l77.2-44.5c16.7-9.7,26.8-27.5,26.8-46.6v-89.1
		C281,84.3,270.6,66.2,253.9,56.8z"/>
</g>
<g id="Capa_5" class="st1">
	<path class="st5" d="M253.9,56.8L177,12.3c-16.7-9.7-37.2-9.7-53.9,0L45.8,56.8C29.1,66.6,19,84.3,19,103.5v89.1
		c0,19.1,10.4,36.9,26.8,46.6l77.2,44.5c16.7,9.7,37.2,9.7,53.9,0l77.2-44.5c16.7-9.7,26.8-27.5,26.8-46.6v-89.1
		C281,84.3,270.6,66.2,253.9,56.8z"/>
</g>
<g id="Capa_6" class="st1">
	<path class="st6" d="M253.9,56.8L177,12.3c-16.7-9.7-37.2-9.7-53.9,0L45.8,56.8C29.1,66.6,19,84.3,19,103.5v89.1
		c0,19.1,10.4,36.9,26.8,46.6l77.2,44.5c16.7,9.7,37.2,9.7,53.9,0l77.2-44.5c16.7-9.7,26.8-27.5,26.8-46.6v-89.1
		C281,84.3,270.6,66.2,253.9,56.8z"/>
</g>
<g id="Capa_7" class="st1">
	<path class="st7" d="M253.9,56.8L177,12.3c-16.7-9.7-37.2-9.7-53.9,0L45.8,56.8C29.1,66.6,19,84.3,19,103.5v89.1
		c0,19.1,10.4,36.9,26.8,46.6l77.2,44.5c16.7,9.7,37.2,9.7,53.9,0l77.2-44.5c16.7-9.7,26.8-27.5,26.8-46.6v-89.1
		C281,84.3,270.6,66.2,253.9,56.8z"/>
</g>
<g id="Capa_8" class="st1">
	<path class="st8" d="M253.9,56.8L177,12.3c-16.7-9.7-37.2-9.7-53.9,0L45.8,56.8C29.1,66.6,19,84.3,19,103.5v89.1
		c0,19.1,10.4,36.9,26.8,46.6l77.2,44.5c16.7,9.7,37.2,9.7,53.9,0l77.2-44.5c16.7-9.7,26.8-27.5,26.8-46.6v-89.1
		C281,84.3,270.6,66.2,253.9,56.8z"/>
</g>
<g id="Capa_9" class="st1">
	<path class="st9" d="M253.9,56.8L177,12.3c-16.7-9.7-37.2-9.7-53.9,0L45.8,56.8C29.1,66.6,19,84.3,19,103.5v89.1
		c0,19.1,10.4,36.9,26.8,46.6l77.2,44.5c16.7,9.7,37.2,9.7,53.9,0l77.2-44.5c16.7-9.7,26.8-27.5,26.8-46.6v-89.1
		C281,84.3,270.6,66.2,253.9,56.8z"/>
</g>
<g id="Capa_10" class="st1">
	<path class="st10" d="M253.9,56.8L177,12.3c-16.7-9.7-37.2-9.7-53.9,0L45.8,56.8C29.1,66.6,19,84.3,19,103.5v89.1
		c0,19.1,10.4,36.9,26.8,46.6l77.2,44.5c16.7,9.7,37.2,9.7,53.9,0l77.2-44.5c16.7-9.7,26.8-27.5,26.8-46.6v-89.1
		C281,84.3,270.6,66.2,253.9,56.8z"/>
</g>
<g>
	<g>
		<g>
			<path class="st11" d="M177.9,46.2h-55.8c-7,0-12.7,5.7-12.7,12.7v2.8v0.7v2v5.9v101.3c0,7,5.7,12.7,12.7,12.7h9.5h36.8h9.5
				c7,0,12.7-5.7,12.7-12.7V70.4v-5.9v-2v-0.7V59C190.6,51.9,184.9,46.2,177.9,46.2z M122.1,50.3h55.8c4.5,0,8.2,3.6,8.6,8h-8.7
				h-55.5h-8.7C113.8,53.8,117.5,50.3,122.1,50.3z M113.5,70.4v-5.9v-2l0,0h8.8h55.5h8.8l0,0v2v5.9v91.3h-73V70.4H113.5z
				 M186.5,171.7c0,4.7-3.9,8.6-8.6,8.6h-9.5h-36.8h-9.5c-4.7,0-8.6-3.9-8.6-8.6v-5.9h73V171.7z"/>
		</g>
	</g>
	<g>
		<g>
			<path class="st11" d="M161.7,55.6h-17.2c-0.7,0-1.3-0.6-1.3-1.3s0.6-1.3,1.3-1.3h17.2c0.7,0,1.3,0.6,1.3,1.3
				S162.4,55.6,161.7,55.6z"/>
		</g>
		<g>
			<path class="st11" d="M140.8,55.6h-2.5c-0.7,0-1.3-0.6-1.3-1.3s0.6-1.3,1.3-1.3h2.5c0.7,0,1.3,0.6,1.3,1.3S141.5,55.6,140.8,55.6
				z"/>
		</g>
	</g>
	<path class="st11" d="M158.8,175.5h-17.6c-0.5,0-0.9-0.4-0.9-0.9v-2.9c0-0.5,0.4-0.9,0.9-0.9h17.6c0.5,0,0.9,0.4,0.9,0.9v2.9
		C159.7,175.1,159.3,175.5,158.8,175.5z"/>
</g>
<g class="st12">
	<path class="st11" d="M89.5,212L89.5,212l-5,13.7h-2.5L77,212l-0.1,0l0.4,8.1v2.9l2,0.4v2.2h-7.7v-2.2l2-0.4v-13.3l-2-0.4v-2.2h2
		h4.8l4.7,13.6h0.1l4.7-13.6h6.8v2.2l-2,0.4V223l2,0.4v2.2h-7.7v-2.2l2-0.4v-2.9L89.5,212z"/>
	<path class="st11" d="M96.1,209.4v-2.2h7.7v2.2l-2,0.4V223l2,0.4v2.2h-7.7v-2.2l2-0.4v-13.3L96.1,209.4z"/>
	<path class="st11" d="M111.3,223.4l1.3-0.2l5.6-16.1h3.8l5.6,16.1l1.3,0.2v2.2h-6.3v-2.2l1.3-0.2l-0.8-2.5h-6l-0.8,2.5l1.3,0.2v2.2
		h-6.3V223.4z M118.1,217.9h4.2l-2.1-6.5h-0.1L118.1,217.9z"/>
	<path class="st11" d="M136.9,207.2v2.2l-2,0.4v9.6c0,1.2,0.3,2.1,1,2.7c0.7,0.6,1.6,0.9,2.7,0.9c1.2,0,2.1-0.3,2.7-0.9s1-1.5,1-2.7
		v-9.6l-2-0.4v-2.2h7.7v2.2l-2,0.4v9.6c0,2.1-0.7,3.7-2.1,4.8s-3.2,1.7-5.4,1.7c-2.2,0-4-0.6-5.4-1.7s-2-2.7-2-4.8v-9.6l-2-0.4v-2.2
		h2h3.7H136.9z"/>
	<path class="st11" d="M165.4,207.2v4.9h-2.8l-0.2-2.1H159v13l2,0.4v2.2h-7.7v-2.2l2-0.4v-13h-3.4l-0.2,2.1h-2.8v-4.9H165.4z"/>
	<path class="st11" d="M183.1,216.5c0,2.7-0.8,4.9-2.3,6.7s-3.6,2.7-6.1,2.7c-2.5,0-4.5-0.9-6-2.7s-2.3-4-2.3-6.7v-0.3
		c0-2.7,0.8-4.9,2.3-6.7c1.5-1.8,3.5-2.7,6-2.7c2.5,0,4.5,0.9,6.1,2.7c1.6,1.8,2.3,4,2.3,6.7V216.5z M179.4,216.2
		c0-1.9-0.4-3.5-1.2-4.7c-0.8-1.2-2-1.8-3.5-1.8c-1.6,0-2.7,0.6-3.5,1.8c-0.8,1.2-1.1,2.7-1.1,4.7v0.3c0,1.9,0.4,3.5,1.2,4.7
		c0.8,1.2,1.9,1.8,3.5,1.8c1.6,0,2.7-0.6,3.5-1.8c0.8-1.2,1.2-2.8,1.2-4.7V216.2z"/>
	<path class="st11" d="M184.6,223.4l2-0.4v-13.3l-2-0.4v-2.2h14.7v5.1h-2.8l-0.2-2.2h-6v5.1h6.5v2.9h-6.5v5.1l2,0.4v2.2h-7.7V223.4z
		"/>
	<path class="st11" d="M200.6,209.4v-2.2h7.7v2.2l-2,0.4V223l2,0.4v2.2h-7.7v-2.2l2-0.4v-13.3L200.6,209.4z"/>
	<path class="st11" d="M228.6,207.2v2.2l-2,0.4v15.9h-3.7l-7.5-12.4l-0.1,0v9.8l2,0.4v2.2h-7.7v-2.2l2-0.4v-13.3l-2-0.4v-2.2h2h3.7
		l7.5,12.4l0.1,0v-9.8l-2-0.4v-2.2h5.7H228.6z"/>
</g>
<g>
	<path class="st11" d="M176.7,73c0.3,0,0.6,0.3,0.6,0.6v31.9h-4c-2.3-8-8.6-14.3-16.6-16.6V73H176.7 M176.7,69h-24.1v23.1
		c9,1.2,16.2,8.3,17.4,17.4h11.3V73.6C181.2,71.1,179.2,69,176.7,69L176.7,69z"/>
	<path class="st11" d="M143.4,73v15.9c-8,2.3-14.3,8.6-16.6,16.6h-4V73.6c0-0.3,0.3-0.6,0.6-0.6H143.4 M147.4,69h-24.1
		c-2.5,0-4.6,2.1-4.6,4.6v35.9H130c1.2-9,8.3-16.2,17.4-17.4V69L147.4,69z"/>
	<path class="st11" d="M177.2,118.7v31.9c0,0.3-0.3,0.6-0.6,0.6h-20.1v-15.9c8-2.3,14.3-8.6,16.6-16.6H177.2 M181.2,114.7H170
		c-1.2,9-8.3,16.2-17.4,17.4v23.1h24.1c2.5,0,4.6-2.1,4.6-4.6V114.7L181.2,114.7z"/>
	<path class="st11" d="M126.8,118.7c2.3,8,8.6,14.3,16.6,16.6v15.9h-20.1c-0.3,0-0.6-0.3-0.6-0.6v-31.9H126.8 M130,114.7h-11.3v35.9
		c0,2.5,2.1,4.6,4.6,4.6h24.1v-23.1C138.4,130.9,131.2,123.8,130,114.7L130,114.7z"/>
</g>
<path class="st11" d="M150,100c6.7,0,12.1,5.4,12.1,12.1s-5.4,12.1-12.1,12.1s-12.1-5.4-12.1-12.1S143.3,100,150,100 M150,96
	c-8.9,0-16.1,7.2-16.1,16.1c0,8.9,7.2,16.1,16.1,16.1c8.9,0,16.1-7.2,16.1-16.1C166.1,103.2,158.9,96,150,96L150,96z"/>
</svg>
