<?xml version="1.0" encoding="utf-8"?>
<!-- Generator: Adobe Illustrator 23.0.4, SVG Export Plug-In . SVG Version: 6.00 Build 0)  -->
<svg version="1.1" id="Capa_1" xmlns="http://www.w3.org/2000/svg" xmlns:xlink="http://www.w3.org/1999/xlink" x="0px" y="0px"
	 viewBox="0 0 300 300" style="enable-background:new 0 0 300 300;" xml:space="preserve">
<style type="text/css">
	.st0{fill:#8D49DD;}
	.st1{display:none;}
	.st2{display:inline;fill:#133B52;}
	.st3{display:inline;fill:#EE5455;}
	.st4{display:inline;fill:#FACF48;}
	.st5{display:inline;fill:#6AEAB8;}
	.st6{display:inline;fill:#3AA5F7;}
	.st7{display:inline;fill:#F39843;}
	.st8{display:inline;fill:#EF6769;}
	.st9{display:inline;fill:#8D49DD;}
	.st10{display:inline;fill:#0D427A;}
	.st11{enable-background:new    ;}
	.st12{fill:#FFFFFF;}
</style>
<g>
	<path class="st0" d="M253.9,56.8L177,12.3c-16.7-9.7-37.2-9.7-53.9,0L45.8,56.8C29.1,66.6,19,84.3,19,103.5v89.1
		c0,19.1,10.4,36.9,26.8,46.6l77.2,44.5c16.7,9.7,37.2,9.7,53.9,0l77.2-44.5c16.7-9.7,26.8-27.5,26.8-46.6v-89.1
		C281,84.3,270.6,66.2,253.9,56.8z"/>
</g>
<g class="st1">
	<path class="st2" d="M253.9,56.8L177,12.3c-16.7-9.7-37.2-9.7-53.9,0L45.8,56.8C29.1,66.6,19,84.3,19,103.5v89.1
		c0,19.1,10.4,36.9,26.8,46.6l77.2,44.5c16.7,9.7,37.2,9.7,53.9,0l77.2-44.5c16.7-9.7,26.8-27.5,26.8-46.6v-89.1
		C281,84.3,270.6,66.2,253.9,56.8z"/>
</g>
<g id="Capa_3" class="st1">
	<path class="st3" d="M253.9,56.8L177,12.3c-16.7-9.7-37.2-9.7-53.9,0L45.8,56.8C29.1,66.6,19,84.3,19,103.5v89.1
		c0,19.1,10.4,36.9,26.8,46.6l77.2,44.5c16.7,9.7,37.2,9.7,53.9,0l77.2-44.5c16.7-9.7,26.8-27.5,26.8-46.6v-89.1
		C281,84.3,270.6,66.2,253.9,56.8z"/>
</g>
<g id="Capa_4" class="st1">
	<path class="st4" d="M253.9,56.8L177,12.3c-16.7-9.7-37.2-9.7-53.9,0L45.8,56.8C29.1,66.6,19,84.3,19,103.5v89.1
		c0,19.1,10.4,36.9,26.8,46.6l77.2,44.5c16.7,9.7,37.2,9.7,53.9,0l77.2-44.5c16.7-9.7,26.8-27.5,26.8-46.6v-89.1
		C281,84.3,270.6,66.2,253.9,56.8z"/>
</g>
<g id="Capa_5" class="st1">
	<path class="st5" d="M253.9,56.8L177,12.3c-16.7-9.7-37.2-9.7-53.9,0L45.8,56.8C29.1,66.6,19,84.3,19,103.5v89.1
		c0,19.1,10.4,36.9,26.8,46.6l77.2,44.5c16.7,9.7,37.2,9.7,53.9,0l77.2-44.5c16.7-9.7,26.8-27.5,26.8-46.6v-89.1
		C281,84.3,270.6,66.2,253.9,56.8z"/>
</g>
<g id="Capa_6" class="st1">
	<path class="st6" d="M253.9,56.8L177,12.3c-16.7-9.7-37.2-9.7-53.9,0L45.8,56.8C29.1,66.6,19,84.3,19,103.5v89.1
		c0,19.1,10.4,36.9,26.8,46.6l77.2,44.5c16.7,9.7,37.2,9.7,53.9,0l77.2-44.5c16.7-9.7,26.8-27.5,26.8-46.6v-89.1
		C281,84.3,270.6,66.2,253.9,56.8z"/>
</g>
<g id="Capa_7" class="st1">
	<path class="st7" d="M253.9,56.8L177,12.3c-16.7-9.7-37.2-9.7-53.9,0L45.8,56.8C29.1,66.6,19,84.3,19,103.5v89.1
		c0,19.1,10.4,36.9,26.8,46.6l77.2,44.5c16.7,9.7,37.2,9.7,53.9,0l77.2-44.5c16.7-9.7,26.8-27.5,26.8-46.6v-89.1
		C281,84.3,270.6,66.2,253.9,56.8z"/>
</g>
<g id="Capa_8" class="st1">
	<path class="st8" d="M253.9,56.8L177,12.3c-16.7-9.7-37.2-9.7-53.9,0L45.8,56.8C29.1,66.6,19,84.3,19,103.5v89.1
		c0,19.1,10.4,36.9,26.8,46.6l77.2,44.5c16.7,9.7,37.2,9.7,53.9,0l77.2-44.5c16.7-9.7,26.8-27.5,26.8-46.6v-89.1
		C281,84.3,270.6,66.2,253.9,56.8z"/>
</g>
<g id="Capa_9" class="st1">
	<path class="st9" d="M253.9,56.8L177,12.3c-16.7-9.7-37.2-9.7-53.9,0L45.8,56.8C29.1,66.6,19,84.3,19,103.5v89.1
		c0,19.1,10.4,36.9,26.8,46.6l77.2,44.5c16.7,9.7,37.2,9.7,53.9,0l77.2-44.5c16.7-9.7,26.8-27.5,26.8-46.6v-89.1
		C281,84.3,270.6,66.2,253.9,56.8z"/>
</g>
<g id="Capa_10" class="st1">
	<path class="st10" d="M253.9,56.8L177,12.3c-16.7-9.7-37.2-9.7-53.9,0L45.8,56.8C29.1,66.6,19,84.3,19,103.5v89.1
		c0,19.1,10.4,36.9,26.8,46.6l77.2,44.5c16.7,9.7,37.2,9.7,53.9,0l77.2-44.5c16.7-9.7,26.8-27.5,26.8-46.6v-89.1
		C281,84.3,270.6,66.2,253.9,56.8z"/>
</g>
<g class="st11">
	<path class="st12" d="M89.2,212L89.2,212l-5,13.7h-2.5L76.8,212l-0.1,0l0.4,8.1v2.9l2,0.4v2.2h-7.7v-2.2l2-0.4v-13.3l-2-0.4v-2.2h2
		h4.8l4.7,13.6H83l4.7-13.6h6.8v2.2l-2,0.4V223l2,0.4v2.2h-7.7v-2.2l2-0.4v-2.9L89.2,212z"/>
	<path class="st12" d="M95.7,223.4l1.3-0.2l5.6-16.1h3.8l5.6,16.1l1.3,0.2v2.2h-6.3v-2.2l1.3-0.2l-0.8-2.5h-6l-0.8,2.5l1.3,0.2v2.2
		h-6.3V223.4z M102.4,217.9h4.2l-2.1-6.5h-0.1L102.4,217.9z"/>
	<path class="st12" d="M114.6,225.6v-2.2l2-0.4v-13.3l-2-0.4v-2.2h2h3.7h2v2.2l-2,0.4v13h5.2l0.2-2.3h2.8v5.2H114.6z"/>
	<path class="st12" d="M129.8,225.6v-2.2l2-0.4v-13.3l-2-0.4v-2.2h2h3.7h2v2.2l-2,0.4v13h5.2l0.2-2.3h2.8v5.2H129.8z"/>
	<path class="st12" d="M153.8,207.2c2.1,0,3.8,0.5,5,1.6c1.2,1.1,1.8,2.5,1.8,4.3c0,1.8-0.6,3.2-1.8,4.3c-1.2,1.1-2.9,1.6-5,1.6
		h-3.1v4.1l2,0.4v2.2H145v-2.2l2-0.4v-13.3l-2-0.4v-2.2h2H153.8z M150.7,216.1h3.1c1,0,1.8-0.3,2.3-0.8c0.5-0.6,0.8-1.3,0.8-2.2
		c0-0.9-0.3-1.6-0.8-2.2c-0.5-0.6-1.3-0.9-2.3-0.9h-3.1V216.1z"/>
	<path class="st12" d="M161.9,225.6v-2.2l2-0.4v-13.3l-2-0.4v-2.2h2h3.7h2v2.2l-2,0.4v13h5.2l0.2-2.3h2.8v5.2H161.9z"/>
	<path class="st12" d="M176.9,223.4l1.3-0.2l5.6-16.1h3.8l5.6,16.1l1.3,0.2v2.2h-6.3v-2.2l1.3-0.2l-0.8-2.5h-6l-0.8,2.5l1.3,0.2v2.2
		h-6.3V223.4z M183.6,217.9h4.2l-2.1-6.5h-0.1L183.6,217.9z"/>
	<path class="st12" d="M209.6,207.2v1.9l-9.1,13.8h6.4l0.3-2.2h2.8l-0.3,5.1H196v-1.9l9-13.7h-5.9l-0.3,2.2H196l0.3-5.1H209.6z"/>
	<path class="st12" d="M211.1,223.4l1.3-0.2l5.6-16.1h3.8l5.6,16.1l1.3,0.2v2.2h-6.3v-2.2l1.3-0.2l-0.8-2.5h-6l-0.8,2.5l1.3,0.2v2.2
		h-6.3V223.4z M217.8,217.9h4.2l-2.1-6.5h-0.1L217.8,217.9z"/>
	<path class="st12" d="M104.7,240.6l-1.4,0.3l3.3,11.1l0.2,1h0.1l0.2-1l3.3-11.1l-1.4-0.3v-2.2h6.8v2.2l-1.5,0.2l-5.4,16h-3.8
		l-5.5-16l-1.5-0.2v-2.2h6.8V240.6z"/>
	<path class="st12" d="M128.8,248.7h-6.3v5.3h6l0.2-2.2h2.8v5.1h-14.6v-2.2l2-0.4V241l-2-0.4v-2.2h2h12.6v5.1h-2.8l-0.2-2.2h-5.9
		v4.6h6.3V248.7z"/>
	<path class="st12" d="M152.4,238.4v2.2l-2,0.4v15.9h-3.7l-7.5-12.4l-0.1,0v9.8l2,0.4v2.2h-7.7v-2.2l2-0.4V241l-2-0.4v-2.2h2h3.7
		l7.5,12.4l0.1,0V241l-2-0.4v-2.2h5.7H152.4z"/>
	<path class="st12" d="M169.8,238.4v4.9H167l-0.2-2.1h-3.4v13l2,0.4v2.2h-7.7v-2.2l2-0.4v-13h-3.4l-0.2,2.1h-2.8v-4.9H169.8z"/>
	<path class="st12" d="M168.6,254.6l1.3-0.2l5.6-16.1h3.8l5.6,16.1l1.3,0.2v2.2h-6.3v-2.2l1.3-0.2l-0.8-2.5h-6l-0.8,2.5l1.3,0.2v2.2
		h-6.3V254.6z M175.3,249.1h4.2l-2.1-6.5h-0.1L175.3,249.1z"/>
	<path class="st12" d="M201.5,244.3h-2.8l-0.5-2.5c-0.3-0.2-0.8-0.4-1.4-0.5c-0.6-0.2-1.3-0.2-2-0.2c-1,0-1.8,0.2-2.4,0.6
		c-0.6,0.4-0.8,1-0.8,1.7c0,0.6,0.3,1.1,0.9,1.5c0.6,0.4,1.6,0.8,3,1.3c2,0.6,3.6,1.3,4.6,2.2s1.6,2.2,1.6,3.7
		c0,1.6-0.6,2.8-1.9,3.7c-1.3,0.9-2.9,1.4-5,1.4c-1.5,0-2.8-0.2-4-0.7s-2.2-1.1-3-1.9v-3.9h2.9l0.4,2.6c0.4,0.3,0.9,0.6,1.5,0.8
		c0.6,0.2,1.4,0.3,2.1,0.3c1,0,1.8-0.2,2.3-0.6c0.5-0.4,0.8-1,0.8-1.7c0-0.7-0.3-1.3-0.8-1.7c-0.5-0.4-1.4-0.8-2.6-1.2
		c-2.2-0.6-3.9-1.4-5-2.3c-1.1-0.9-1.7-2.1-1.7-3.6c0-1.5,0.6-2.7,1.9-3.7c1.3-1,2.9-1.4,4.8-1.5c1.4,0,2.7,0.2,3.9,0.6
		s2.1,1,2.9,1.7V244.3z"/>
</g>
<g>
	<g>
		<g>
			<path class="st12" d="M177.9,46.2h-55.8c-7,0-12.7,5.7-12.7,12.7v2.8v0.7v2v5.9v101.3c0,7,5.7,12.7,12.7,12.7h9.5h36.8h9.5
				c7,0,12.7-5.7,12.7-12.7V70.4v-5.9v-2v-0.7V59C190.6,51.9,184.9,46.2,177.9,46.2z M122.1,50.3h55.8c4.5,0,8.2,3.6,8.6,8h-8.7
				h-55.5h-8.7C113.8,53.8,117.5,50.3,122.1,50.3z M113.5,70.4v-5.9v-2l0,0h8.8h55.5h8.8l0,0v2v5.9v91.3h-73V70.4H113.5z
				 M186.5,171.7c0,4.7-3.9,8.6-8.6,8.6h-9.5h-36.8h-9.5c-4.7,0-8.6-3.9-8.6-8.6v-5.9h73V171.7z"/>
		</g>
	</g>
	<g>
		<g>
			<path class="st12" d="M161.7,55.6h-17.2c-0.7,0-1.3-0.6-1.3-1.3s0.6-1.3,1.3-1.3h17.2c0.7,0,1.3,0.6,1.3,1.3
				S162.4,55.6,161.7,55.6z"/>
		</g>
		<g>
			<path class="st12" d="M140.8,55.6h-2.5c-0.7,0-1.3-0.6-1.3-1.3s0.6-1.3,1.3-1.3h2.5c0.7,0,1.3,0.6,1.3,1.3S141.5,55.6,140.8,55.6
				z"/>
		</g>
	</g>
	<path class="st12" d="M158.8,175.5h-17.6c-0.5,0-0.9-0.4-0.9-0.9v-2.9c0-0.5,0.4-0.9,0.9-0.9h17.6c0.5,0,0.9,0.4,0.9,0.9v2.9
		C159.7,175.1,159.3,175.5,158.8,175.5z"/>
	<g>
		<path class="st12" d="M119.8,88.6h17v-17h-17V88.6z M123.9,75.7h8.8v8.8h-8.8C123.9,84.5,123.9,75.7,123.9,75.7z"/>
		<path class="st12" d="M180.1,71.6h-38.6v17h38.6V71.6z M176,84.5h-30.4v-8.8H176V84.5z"/>
	</g>
	<g>
		<path class="st12" d="M119.8,109.7h17v-17h-17V109.7z M123.9,96.8h8.8v8.8h-8.8C123.9,105.6,123.9,96.8,123.9,96.8z"/>
		<path class="st12" d="M180.1,92.7h-38.6v17h38.6V92.7z M176,105.6h-30.4v-8.8H176V105.6z"/>
	</g>
	<g>
		<path class="st12" d="M119.8,130.7h17v-17h-17V130.7z M123.9,117.8h8.8v8.8h-8.8C123.9,126.6,123.9,117.8,123.9,117.8z"/>
		<path class="st12" d="M180.1,113.7h-38.6v17h38.6V113.7z M176,126.6h-30.4v-8.8H176V126.6z"/>
	</g>
	<g>
		<path class="st12" d="M119.8,151.8h17v-17h-17V151.8z M123.9,138.9h8.8v8.8h-8.8C123.9,147.7,123.9,138.9,123.9,138.9z"/>
		<path class="st12" d="M180.1,134.8h-38.6v17h38.6V134.8z M176,147.7h-30.4v-8.8H176V147.7z"/>
	</g>
</g>
</svg>
