<?xml version="1.0" encoding="utf-8"?>
<!-- Generator: Adobe Illustrator 23.0.4, SVG Export Plug-In . SVG Version: 6.00 Build 0)  -->
<svg version="1.1" id="Capa_1" xmlns="http://www.w3.org/2000/svg" xmlns:xlink="http://www.w3.org/1999/xlink" x="0px" y="0px"
	 viewBox="0 0 300 300" style="enable-background:new 0 0 300 300;" xml:space="preserve">
<style type="text/css">
	.st0{fill:#133B52;}
	.st1{display:none;}
	.st2{display:inline;fill:#133B52;}
	.st3{display:inline;fill:#EE5455;}
	.st4{display:inline;fill:#FACF48;}
	.st5{display:inline;fill:#6AEAB8;}
	.st6{display:inline;fill:#3AA5F7;}
	.st7{display:inline;fill:#F39843;}
	.st8{display:inline;fill:#EF6769;}
	.st9{display:inline;fill:#8D49DD;}
	.st10{display:inline;fill:#0D427A;}
	.st11{enable-background:new    ;}
	.st12{fill:#FFFFFF;}
</style>
<g>
	<path class="st0" d="M248.5,57.5L171.6,13c-16.7-9.7-37.2-9.7-53.9,0L40.4,57.5C23.7,67.3,13.6,85,13.6,104.2v89.1
		c0,19.1,10.4,36.9,26.8,46.6l77.2,44.5c16.7,9.7,37.2,9.7,53.9,0l77.2-44.5c16.7-9.7,26.8-27.5,26.8-46.6v-89.1
		C275.6,85,265.2,66.9,248.5,57.5z"/>
</g>
<g class="st1">
	<path class="st2" d="M253.9,56.8L177,12.3c-16.7-9.7-37.2-9.7-53.9,0L45.8,56.8C29.1,66.6,19,84.3,19,103.5v89.1
		c0,19.1,10.4,36.9,26.8,46.6l77.2,44.5c16.7,9.7,37.2,9.7,53.9,0l77.2-44.5c16.7-9.7,26.8-27.5,26.8-46.6v-89.1
		C281,84.3,270.6,66.2,253.9,56.8z"/>
</g>
<g id="Capa_3" class="st1">
	<path class="st3" d="M253.9,56.8L177,12.3c-16.7-9.7-37.2-9.7-53.9,0L45.8,56.8C29.1,66.6,19,84.3,19,103.5v89.1
		c0,19.1,10.4,36.9,26.8,46.6l77.2,44.5c16.7,9.7,37.2,9.7,53.9,0l77.2-44.5c16.7-9.7,26.8-27.5,26.8-46.6v-89.1
		C281,84.3,270.6,66.2,253.9,56.8z"/>
</g>
<g id="Capa_4" class="st1">
	<path class="st4" d="M253.9,56.8L177,12.3c-16.7-9.7-37.2-9.7-53.9,0L45.8,56.8C29.1,66.6,19,84.3,19,103.5v89.1
		c0,19.1,10.4,36.9,26.8,46.6l77.2,44.5c16.7,9.7,37.2,9.7,53.9,0l77.2-44.5c16.7-9.7,26.8-27.5,26.8-46.6v-89.1
		C281,84.3,270.6,66.2,253.9,56.8z"/>
</g>
<g id="Capa_5" class="st1">
	<path class="st5" d="M253.9,56.8L177,12.3c-16.7-9.7-37.2-9.7-53.9,0L45.8,56.8C29.1,66.6,19,84.3,19,103.5v89.1
		c0,19.1,10.4,36.9,26.8,46.6l77.2,44.5c16.7,9.7,37.2,9.7,53.9,0l77.2-44.5c16.7-9.7,26.8-27.5,26.8-46.6v-89.1
		C281,84.3,270.6,66.2,253.9,56.8z"/>
</g>
<g id="Capa_6" class="st1">
	<path class="st6" d="M253.9,56.8L177,12.3c-16.7-9.7-37.2-9.7-53.9,0L45.8,56.8C29.1,66.6,19,84.3,19,103.5v89.1
		c0,19.1,10.4,36.9,26.8,46.6l77.2,44.5c16.7,9.7,37.2,9.7,53.9,0l77.2-44.5c16.7-9.7,26.8-27.5,26.8-46.6v-89.1
		C281,84.3,270.6,66.2,253.9,56.8z"/>
</g>
<g id="Capa_7" class="st1">
	<path class="st7" d="M253.9,56.8L177,12.3c-16.7-9.7-37.2-9.7-53.9,0L45.8,56.8C29.1,66.6,19,84.3,19,103.5v89.1
		c0,19.1,10.4,36.9,26.8,46.6l77.2,44.5c16.7,9.7,37.2,9.7,53.9,0l77.2-44.5c16.7-9.7,26.8-27.5,26.8-46.6v-89.1
		C281,84.3,270.6,66.2,253.9,56.8z"/>
</g>
<g id="Capa_8" class="st1">
	<path class="st8" d="M253.9,56.8L177,12.3c-16.7-9.7-37.2-9.7-53.9,0L45.8,56.8C29.1,66.6,19,84.3,19,103.5v89.1
		c0,19.1,10.4,36.9,26.8,46.6l77.2,44.5c16.7,9.7,37.2,9.7,53.9,0l77.2-44.5c16.7-9.7,26.8-27.5,26.8-46.6v-89.1
		C281,84.3,270.6,66.2,253.9,56.8z"/>
</g>
<g id="Capa_9" class="st1">
	<path class="st9" d="M253.9,56.8L177,12.3c-16.7-9.7-37.2-9.7-53.9,0L45.8,56.8C29.1,66.6,19,84.3,19,103.5v89.1
		c0,19.1,10.4,36.9,26.8,46.6l77.2,44.5c16.7,9.7,37.2,9.7,53.9,0l77.2-44.5c16.7-9.7,26.8-27.5,26.8-46.6v-89.1
		C281,84.3,270.6,66.2,253.9,56.8z"/>
</g>
<g id="Capa_10" class="st1">
	<path class="st10" d="M253.9,56.8L177,12.3c-16.7-9.7-37.2-9.7-53.9,0L45.8,56.8C29.1,66.6,19,84.3,19,103.5v89.1
		c0,19.1,10.4,36.9,26.8,46.6l77.2,44.5c16.7,9.7,37.2,9.7,53.9,0l77.2-44.5c16.7-9.7,26.8-27.5,26.8-46.6v-89.1
		C281,84.3,270.6,66.2,253.9,56.8z"/>
</g>
<g class="st11">
	<path class="st12" d="M58.8,207.2c2.2,0,3.9,0.4,5.1,1.3s1.8,2.1,1.8,3.8c0,0.9-0.2,1.6-0.7,2.3c-0.5,0.7-1.1,1.2-2,1.5
		c1.1,0.2,1.9,0.7,2.5,1.5s0.8,1.7,0.8,2.7c0,1.8-0.6,3.1-1.8,4c-1.2,0.9-2.8,1.4-5,1.4h-9.1v-2.2l2-0.4v-13.3l-2-0.4v-2.2h2H58.8z
		 M56.3,214.9H59c1,0,1.8-0.2,2.3-0.6s0.8-1,0.8-1.8c0-0.9-0.3-1.5-0.8-1.9s-1.3-0.6-2.4-0.6h-2.5V214.9z M56.3,217.5v5.3h3.4
		c1,0,1.7-0.2,2.2-0.6c0.5-0.4,0.8-1.1,0.8-1.9c0-0.9-0.2-1.6-0.7-2.1c-0.4-0.5-1.1-0.7-2.1-0.7H56.3z"/>
	<path class="st12" d="M75.3,207.2v2.2l-2,0.4v9.6c0,1.2,0.3,2.1,1,2.7c0.7,0.6,1.6,0.9,2.7,0.9c1.2,0,2.1-0.3,2.7-0.9s1-1.5,1-2.7
		v-9.6l-2-0.4v-2.2h7.7v2.2l-2,0.4v9.6c0,2.1-0.7,3.7-2.1,4.8s-3.2,1.7-5.4,1.7c-2.2,0-4-0.6-5.4-1.7s-2-2.7-2-4.8v-9.6l-2-0.4v-2.2
		h2h3.7H75.3z"/>
	<path class="st12" d="M87.5,209.4v-2.2h7.7v2.2l-2,0.4v5.3h7.5v-5.3l-2-0.4v-2.2h2h3.7h2v2.2l-2,0.4V223l2,0.4v2.2h-7.7v-2.2l2-0.4
		V218h-7.5v5.1l2,0.4v2.2h-7.7v-2.2l2-0.4v-13.3L87.5,209.4z"/>
	<path class="st12" d="M124.7,216.5c0,2.7-0.8,4.9-2.3,6.7s-3.6,2.7-6.1,2.7c-2.5,0-4.5-0.9-6-2.7s-2.3-4-2.3-6.7v-0.3
		c0-2.7,0.8-4.9,2.3-6.7s3.5-2.7,6-2.7c2.5,0,4.5,0.9,6.1,2.7s2.3,4,2.3,6.7V216.5z M121,216.2c0-1.9-0.4-3.5-1.2-4.7
		s-2-1.8-3.5-1.8s-2.7,0.6-3.5,1.8s-1.1,2.7-1.1,4.7v0.3c0,1.9,0.4,3.5,1.2,4.7c0.8,1.2,1.9,1.8,3.5,1.8c1.6,0,2.7-0.6,3.5-1.8
		c0.8-1.2,1.2-2.8,1.2-4.7V216.2z"/>
	<path class="st12" d="M132.3,223.4l1.3-0.2l5.6-16.1h3.8l5.6,16.1l1.3,0.2v2.2h-6.3v-2.2l1.3-0.2l-0.8-2.5h-6l-0.8,2.5l1.3,0.2v2.2
		h-6.3V223.4z M139.1,217.9h4.2l-2.1-6.5h-0.1L139.1,217.9z"/>
	<path class="st12" d="M157.9,207.2v2.2l-2,0.4v9.6c0,1.2,0.3,2.1,1,2.7c0.7,0.6,1.6,0.9,2.7,0.9c1.2,0,2.1-0.3,2.7-0.9s1-1.5,1-2.7
		v-9.6l-2-0.4v-2.2h7.7v2.2l-2,0.4v9.6c0,2.1-0.7,3.7-2,4.8c-1.4,1.1-3.2,1.7-5.4,1.7c-2.2,0-4-0.6-5.4-1.7s-2-2.7-2-4.8v-9.6
		l-2-0.4v-2.2h2h3.7H157.9z"/>
	<path class="st12" d="M186.4,207.2v4.9h-2.8l-0.2-2.1H180v13l2,0.4v2.2h-7.7v-2.2l2-0.4v-13h-3.4l-0.2,2.1h-2.8v-4.9H186.4z"/>
	<path class="st12" d="M204.1,216.5c0,2.7-0.8,4.9-2.3,6.7s-3.6,2.7-6.1,2.7c-2.5,0-4.5-0.9-6-2.7s-2.3-4-2.3-6.7v-0.3
		c0-2.7,0.8-4.9,2.3-6.7c1.5-1.8,3.5-2.7,6-2.7c2.5,0,4.5,0.9,6.1,2.7c1.6,1.8,2.3,4,2.3,6.7V216.5z M200.4,216.2
		c0-1.9-0.4-3.5-1.2-4.7c-0.8-1.2-2-1.8-3.5-1.8c-1.6,0-2.7,0.6-3.5,1.8c-0.8,1.2-1.1,2.7-1.1,4.7v0.3c0,1.9,0.4,3.5,1.2,4.7
		c0.8,1.2,1.9,1.8,3.5,1.8c1.6,0,2.7-0.6,3.5-1.8c0.8-1.2,1.2-2.8,1.2-4.7V216.2z"/>
	<path class="st12" d="M205.6,223.4l2-0.4v-13.3l-2-0.4v-2.2h14.7v5.1h-2.8l-0.2-2.2h-6v5.1h6.5v2.9h-6.5v5.1l2,0.4v2.2h-7.7V223.4z
		"/>
	<path class="st12" d="M221.6,209.4v-2.2h7.7v2.2l-2,0.4V223l2,0.4v2.2h-7.7v-2.2l2-0.4v-13.3L221.6,209.4z"/>
	<path class="st12" d="M249.6,207.2v2.2l-2,0.4v15.9h-3.7l-7.5-12.4l-0.1,0v9.8l2,0.4v2.2h-7.7v-2.2l2-0.4v-13.3l-2-0.4v-2.2h2h3.7
		l7.5,12.4l0.1,0v-9.8l-2-0.4v-2.2h5.7H249.6z"/>
</g>
<g>
	<g>
		<g>
			<path class="st12" d="M177.9,46.2h-55.8c-7,0-12.7,5.7-12.7,12.7v2.8v0.7v2v5.9v101.3c0,7,5.7,12.7,12.7,12.7h9.5h36.8h9.5
				c7,0,12.7-5.7,12.7-12.7V70.4v-5.9v-2v-0.7V59C190.6,51.9,184.9,46.2,177.9,46.2z M122.1,50.3h55.8c4.5,0,8.2,3.6,8.6,8h-8.7
				h-55.5h-8.7C113.8,53.8,117.5,50.3,122.1,50.3z M113.5,70.4v-5.9v-2l0,0h8.8h55.5h8.8l0,0v2v5.9v91.3h-73V70.4H113.5z
				 M186.5,171.7c0,4.7-3.9,8.6-8.6,8.6h-9.5h-36.8h-9.5c-4.7,0-8.6-3.9-8.6-8.6v-5.9h73V171.7z"/>
		</g>
	</g>
	<g>
		<g>
			<path class="st12" d="M161.7,55.6h-17.2c-0.7,0-1.3-0.6-1.3-1.3s0.6-1.3,1.3-1.3h17.2c0.7,0,1.3,0.6,1.3,1.3
				S162.4,55.6,161.7,55.6z"/>
		</g>
		<g>
			<path class="st12" d="M140.8,55.6h-2.5c-0.7,0-1.3-0.6-1.3-1.3s0.6-1.3,1.3-1.3h2.5c0.7,0,1.3,0.6,1.3,1.3S141.5,55.6,140.8,55.6
				z"/>
		</g>
	</g>
	<path class="st12" d="M158.8,175.5h-17.6c-0.5,0-0.9-0.4-0.9-0.9v-2.9c0-0.5,0.4-0.9,0.9-0.9h17.6c0.5,0,0.9,0.4,0.9,0.9v2.9
		C159.7,175.1,159.3,175.5,158.8,175.5z"/>
	<path class="st12" d="M172,145c0.2,0,0.4,0.2,0.4,0.4v7.1c0,0.2-0.2,0.4-0.4,0.4H128c-0.2,0-0.4-0.2-0.4-0.4v-7.1
		c0-0.2,0.2-0.4,0.4-0.4H172 M172,142H128c-1.9,0-3.4,1.5-3.4,3.4v7.1c0,1.9,1.5,3.4,3.4,3.4H172c1.9,0,3.4-1.5,3.4-3.4v-7.1
		C175.3,143.5,173.8,142,172,142L172,142z"/>
	<g>
		<path class="st12" d="M157.1,75.6c0.3,0,0.5,0.2,0.5,0.5v13.4c0,0.3-0.2,0.5-0.5,0.5h-32.9c-0.3,0-0.5-0.2-0.5-0.5V76.1
			c0-0.3,0.2-0.5,0.5-0.5H157.1 M157.1,72.6h-32.9c-1.9,0-3.5,1.6-3.5,3.5v13.4c0,1.9,1.6,3.5,3.5,3.5h32.9c1.9,0,3.5-1.6,3.5-3.5
			V76.1C160.6,74.2,159,72.6,157.1,72.6L157.1,72.6z"/>
		<path class="st12" d="M171.8,78.3c2.4,0,4.4,2,4.4,4.4s-2,4.4-4.4,4.4s-4.4-2-4.4-4.4S169.4,78.3,171.8,78.3 M171.8,75.3
			c-4.1,0-7.4,3.3-7.4,7.4c0,4.1,3.3,7.4,7.4,7.4c4.1,0,7.4-3.3,7.4-7.4C179.3,78.6,176,75.3,171.8,75.3L171.8,75.3z"/>
	</g>
	<path class="st12" d="M150,107.5c3.1,0,5.7,2.6,5.7,5.7c0,3.1-2.6,5.7-5.7,5.7s-5.7-2.6-5.7-5.7C144.3,110.1,146.9,107.5,150,107.5
		 M150,104.5c-4.8,0-8.7,3.9-8.7,8.7c0,4.8,3.9,8.7,8.7,8.7s8.7-3.9,8.7-8.7C158.7,108.4,154.8,104.5,150,104.5L150,104.5z"/>
</g>
</svg>
