<?xml version="1.0" encoding="utf-8"?>
<!-- Generator: Adobe Illustrator 23.0.4, SVG Export Plug-In . SVG Version: 6.00 Build 0)  -->
<svg version="1.1" id="Capa_1" xmlns="http://www.w3.org/2000/svg" xmlns:xlink="http://www.w3.org/1999/xlink" x="0px" y="0px"
	 viewBox="0 0 300 300" style="enable-background:new 0 0 300 300;" xml:space="preserve">
<style type="text/css">
	.st0{fill:#EE5455;}
	.st1{display:none;}
	.st2{display:inline;fill:#133B52;}
	.st3{display:inline;fill:#EE5455;}
	.st4{display:inline;fill:#FACF48;}
	.st5{display:inline;fill:#6AEAB8;}
	.st6{display:inline;fill:#3AA5F7;}
	.st7{display:inline;fill:#F39843;}
	.st8{display:inline;fill:#EF6769;}
	.st9{display:inline;fill:#8D49DD;}
	.st10{display:inline;fill:#0D427A;}
	.st11{fill:#FFFFFF;}
	.st12{enable-background:new    ;}
</style>
<g>
	<path class="st0" d="M253.9,56.8L177,12.3c-16.7-9.7-37.2-9.7-53.9,0L45.8,56.8C29.1,66.6,19,84.3,19,103.5v89.1
		c0,19.1,10.4,36.9,26.8,46.6l77.2,44.5c16.7,9.7,37.2,9.7,53.9,0l77.2-44.5c16.7-9.7,26.8-27.5,26.8-46.6v-89.1
		C281,84.3,270.6,66.2,253.9,56.8z"/>
</g>
<g class="st1">
	<path class="st2" d="M253.9,56.8L177,12.3c-16.7-9.7-37.2-9.7-53.9,0L45.8,56.8C29.1,66.6,19,84.3,19,103.5v89.1
		c0,19.1,10.4,36.9,26.8,46.6l77.2,44.5c16.7,9.7,37.2,9.7,53.9,0l77.2-44.5c16.7-9.7,26.8-27.5,26.8-46.6v-89.1
		C281,84.3,270.6,66.2,253.9,56.8z"/>
</g>
<g id="Capa_3" class="st1">
	<path class="st3" d="M253.9,56.8L177,12.3c-16.7-9.7-37.2-9.7-53.9,0L45.8,56.8C29.1,66.6,19,84.3,19,103.5v89.1
		c0,19.1,10.4,36.9,26.8,46.6l77.2,44.5c16.7,9.7,37.2,9.7,53.9,0l77.2-44.5c16.7-9.7,26.8-27.5,26.8-46.6v-89.1
		C281,84.3,270.6,66.2,253.9,56.8z"/>
</g>
<g id="Capa_4" class="st1">
	<path class="st4" d="M253.9,56.8L177,12.3c-16.7-9.7-37.2-9.7-53.9,0L45.8,56.8C29.1,66.6,19,84.3,19,103.5v89.1
		c0,19.1,10.4,36.9,26.8,46.6l77.2,44.5c16.7,9.7,37.2,9.7,53.9,0l77.2-44.5c16.7-9.7,26.8-27.5,26.8-46.6v-89.1
		C281,84.3,270.6,66.2,253.9,56.8z"/>
</g>
<g id="Capa_5" class="st1">
	<path class="st5" d="M253.9,56.8L177,12.3c-16.7-9.7-37.2-9.7-53.9,0L45.8,56.8C29.1,66.6,19,84.3,19,103.5v89.1
		c0,19.1,10.4,36.9,26.8,46.6l77.2,44.5c16.7,9.7,37.2,9.7,53.9,0l77.2-44.5c16.7-9.7,26.8-27.5,26.8-46.6v-89.1
		C281,84.3,270.6,66.2,253.9,56.8z"/>
</g>
<g id="Capa_6" class="st1">
	<path class="st6" d="M253.9,56.8L177,12.3c-16.7-9.7-37.2-9.7-53.9,0L45.8,56.8C29.1,66.6,19,84.3,19,103.5v89.1
		c0,19.1,10.4,36.9,26.8,46.6l77.2,44.5c16.7,9.7,37.2,9.7,53.9,0l77.2-44.5c16.7-9.7,26.8-27.5,26.8-46.6v-89.1
		C281,84.3,270.6,66.2,253.9,56.8z"/>
</g>
<g id="Capa_7" class="st1">
	<path class="st7" d="M253.9,56.8L177,12.3c-16.7-9.7-37.2-9.7-53.9,0L45.8,56.8C29.1,66.6,19,84.3,19,103.5v89.1
		c0,19.1,10.4,36.9,26.8,46.6l77.2,44.5c16.7,9.7,37.2,9.7,53.9,0l77.2-44.5c16.7-9.7,26.8-27.5,26.8-46.6v-89.1
		C281,84.3,270.6,66.2,253.9,56.8z"/>
</g>
<g id="Capa_8" class="st1">
	<path class="st8" d="M253.9,56.8L177,12.3c-16.7-9.7-37.2-9.7-53.9,0L45.8,56.8C29.1,66.6,19,84.3,19,103.5v89.1
		c0,19.1,10.4,36.9,26.8,46.6l77.2,44.5c16.7,9.7,37.2,9.7,53.9,0l77.2-44.5c16.7-9.7,26.8-27.5,26.8-46.6v-89.1
		C281,84.3,270.6,66.2,253.9,56.8z"/>
</g>
<g id="Capa_9" class="st1">
	<path class="st9" d="M253.9,56.8L177,12.3c-16.7-9.7-37.2-9.7-53.9,0L45.8,56.8C29.1,66.6,19,84.3,19,103.5v89.1
		c0,19.1,10.4,36.9,26.8,46.6l77.2,44.5c16.7,9.7,37.2,9.7,53.9,0l77.2-44.5c16.7-9.7,26.8-27.5,26.8-46.6v-89.1
		C281,84.3,270.6,66.2,253.9,56.8z"/>
</g>
<g id="Capa_10" class="st1">
	<path class="st10" d="M253.9,56.8L177,12.3c-16.7-9.7-37.2-9.7-53.9,0L45.8,56.8C29.1,66.6,19,84.3,19,103.5v89.1
		c0,19.1,10.4,36.9,26.8,46.6l77.2,44.5c16.7,9.7,37.2,9.7,53.9,0l77.2-44.5c16.7-9.7,26.8-27.5,26.8-46.6v-89.1
		C281,84.3,270.6,66.2,253.9,56.8z"/>
</g>
<g>
	<g>
		<g>
			<path class="st11" d="M177.9,46.2h-55.8c-7,0-12.7,5.7-12.7,12.7v2.8v0.7v2v5.9v101.3c0,7,5.7,12.7,12.7,12.7h9.5h36.8h9.5
				c7,0,12.7-5.7,12.7-12.7V70.4v-5.9v-2v-0.7V59C190.6,51.9,184.9,46.2,177.9,46.2z M122.1,50.3h55.8c4.5,0,8.2,3.6,8.6,8h-8.7
				h-55.5h-8.7C113.8,53.8,117.5,50.3,122.1,50.3z M113.5,70.4v-5.9v-2l0,0h8.8h55.5h8.8l0,0v2v5.9v91.3h-73V70.4H113.5z
				 M186.5,171.7c0,4.7-3.9,8.6-8.6,8.6h-9.5h-36.8h-9.5c-4.7,0-8.6-3.9-8.6-8.6v-5.9h73V171.7z"/>
		</g>
	</g>
	<g>
		<g>
			<path class="st11" d="M161.7,55.6h-17.2c-0.7,0-1.3-0.6-1.3-1.3s0.6-1.3,1.3-1.3h17.2c0.7,0,1.3,0.6,1.3,1.3
				S162.4,55.6,161.7,55.6z"/>
		</g>
		<g>
			<path class="st11" d="M140.8,55.6h-2.5c-0.7,0-1.3-0.6-1.3-1.3s0.6-1.3,1.3-1.3h2.5c0.7,0,1.3,0.6,1.3,1.3S141.5,55.6,140.8,55.6
				z"/>
		</g>
	</g>
	<path class="st11" d="M158.8,175.5h-17.6c-0.5,0-0.9-0.4-0.9-0.9v-2.9c0-0.5,0.4-0.9,0.9-0.9h17.6c0.5,0,0.9,0.4,0.9,0.9v2.9
		C159.7,175.1,159.3,175.5,158.8,175.5z"/>
	<g>
		<path class="st11" d="M119.8,88.6h17v-17h-17V88.6z M123.9,75.7h8.8v8.8h-8.8C123.9,84.5,123.9,75.7,123.9,75.7z"/>
		<path class="st11" d="M180.1,71.6h-38.6v17h38.6V71.6z M176,84.5h-30.4v-8.8H176V84.5z"/>
	</g>
	<g>
		<path class="st11" d="M119.8,109.7h17v-17h-17V109.7z M123.9,96.8h8.8v8.8h-8.8C123.9,105.6,123.9,96.8,123.9,96.8z"/>
		<path class="st11" d="M180.1,92.7h-38.6v17h38.6V92.7z M176,105.6h-30.4v-8.8H176V105.6z"/>
	</g>
	<g>
		<path class="st11" d="M119.8,130.7h17v-17h-17V130.7z M123.9,117.8h8.8v8.8h-8.8C123.9,126.6,123.9,117.8,123.9,117.8z"/>
		<path class="st11" d="M180.1,113.7h-38.6v17h38.6V113.7z M176,126.6h-30.4v-8.8H176V126.6z"/>
	</g>
	<g>
		<path class="st11" d="M119.8,151.8h17v-17h-17V151.8z M123.9,138.9h8.8v8.8h-8.8C123.9,147.7,123.9,138.9,123.9,138.9z"/>
		<path class="st11" d="M180.1,134.8h-38.6v17h38.6V134.8z M176,147.7h-30.4v-8.8H176V147.7z"/>
	</g>
</g>
<g class="st12">
	<path class="st11" d="M107.1,205c2.4,0,4.3,0.5,5.7,1.4c1.4,0.9,2,2.4,2,4.2c0,1-0.3,1.8-0.8,2.6c-0.5,0.8-1.2,1.3-2.2,1.7
		c1.2,0.3,2.2,0.8,2.8,1.7c0.6,0.9,0.9,1.9,0.9,3c0,2-0.7,3.5-2,4.5c-1.3,1-3.2,1.5-5.6,1.5H97.9v-2.5l2.2-0.4v-14.8l-2.2-0.4V205
		h2.2H107.1z M104.3,213.6h3c1.1,0,2-0.2,2.6-0.7c0.6-0.5,0.9-1.1,0.9-2c0-1-0.3-1.7-0.9-2.1c-0.6-0.5-1.5-0.7-2.7-0.7h-2.8V213.6z
		 M104.3,216.5v6h3.8c1.1,0,1.9-0.2,2.5-0.7c0.6-0.5,0.9-1.2,0.9-2.1c0-1-0.2-1.8-0.7-2.3c-0.5-0.5-1.3-0.8-2.3-0.8H104.3z"/>
	<path class="st11" d="M117.2,223.2l2.2-0.4v-14.8l-2.2-0.4V205h8.5v2.5l-2.1,0.4v5.5h1.8l4-5.8l-1.2-0.2V205h8.2v2.5l-2.2,0.4
		l-5.1,6.8l5.7,8.2l2.1,0.4v2.5h-8.2v-2.5l1.3-0.2l-4-6h-2.3v5.7l2.1,0.4v2.5h-8.5V223.2z"/>
	<path class="st11" d="M144.9,223.2l1.5-0.2l6.3-18h4.2l6.2,18l1.5,0.2v2.5h-7v-2.5l1.4-0.3l-0.9-2.8h-6.7l-0.9,2.8l1.4,0.3v2.5h-7
		V223.2z M152.4,217h4.7l-2.3-7.3h-0.1L152.4,217z"/>
	<path class="st11" d="M175.8,205c2.4,0,4.2,0.6,5.6,1.8s2.1,2.8,2.1,4.8c0,2-0.7,3.6-2.1,4.8c-1.4,1.2-3.2,1.8-5.6,1.8h-3.5v4.6
		l2.2,0.4v2.5H166v-2.5l2.2-0.4v-14.8l-2.2-0.4V205h2.2H175.8z M172.4,215h3.5c1.2,0,2-0.3,2.6-0.9c0.6-0.6,0.9-1.4,0.9-2.4
		c0-1-0.3-1.8-0.9-2.5c-0.6-0.6-1.5-1-2.6-1h-3.5V215z"/>
	<path class="st11" d="M194.7,205c2.4,0,4.2,0.6,5.6,1.8c1.4,1.2,2.1,2.8,2.1,4.8c0,2-0.7,3.6-2.1,4.8c-1.4,1.2-3.2,1.8-5.6,1.8
		h-3.5v4.6l2.2,0.4v2.5h-8.6v-2.5l2.2-0.4v-14.8l-2.2-0.4V205h2.2H194.7z M191.2,215h3.5c1.2,0,2-0.3,2.6-0.9
		c0.6-0.6,0.9-1.4,0.9-2.4c0-1-0.3-1.8-0.9-2.5c-0.6-0.6-1.5-1-2.6-1h-3.5V215z"/>
</g>
</svg>
