<?xml version="1.0" encoding="utf-8"?>
<!-- Generator: Adobe Illustrator 23.0.4, SVG Export Plug-In . SVG Version: 6.00 Build 0)  -->
<svg version="1.1" id="Capa_1" xmlns="http://www.w3.org/2000/svg" xmlns:xlink="http://www.w3.org/1999/xlink" x="0px" y="0px"
	 viewBox="0 0 300 300" style="enable-background:new 0 0 300 300;" xml:space="preserve">
<style type="text/css">
	.st0{fill:#F39843;}
	.st1{display:none;}
	.st2{display:inline;fill:#133B52;}
	.st3{display:inline;fill:#EE5455;}
	.st4{display:inline;fill:#FACF48;}
	.st5{display:inline;fill:#6AEAB8;}
	.st6{display:inline;fill:#3AA5F7;}
	.st7{display:inline;fill:#F39843;}
	.st8{display:inline;fill:#EF6769;}
	.st9{display:inline;fill:#8D49DD;}
	.st10{display:inline;fill:#0D427A;}
	.st11{fill:#FFFFFF;}
	.st12{enable-background:new    ;}
</style>
<g>
	<path class="st0" d="M253.9,56.8L177,12.3c-16.7-9.7-37.2-9.7-53.9,0L45.8,56.8C29.1,66.6,19,84.3,19,103.5v89.1
		c0,19.1,10.4,36.9,26.8,46.6l77.2,44.5c16.7,9.7,37.2,9.7,53.9,0l77.2-44.5c16.7-9.7,26.8-27.5,26.8-46.6v-89.1
		C281,84.3,270.6,66.2,253.9,56.8z"/>
</g>
<g class="st1">
	<path class="st2" d="M253.9,56.8L177,12.3c-16.7-9.7-37.2-9.7-53.9,0L45.8,56.8C29.1,66.6,19,84.3,19,103.5v89.1
		c0,19.1,10.4,36.9,26.8,46.6l77.2,44.5c16.7,9.7,37.2,9.7,53.9,0l77.2-44.5c16.7-9.7,26.8-27.5,26.8-46.6v-89.1
		C281,84.3,270.6,66.2,253.9,56.8z"/>
</g>
<g id="Capa_3" class="st1">
	<path class="st3" d="M253.9,56.8L177,12.3c-16.7-9.7-37.2-9.7-53.9,0L45.8,56.8C29.1,66.6,19,84.3,19,103.5v89.1
		c0,19.1,10.4,36.9,26.8,46.6l77.2,44.5c16.7,9.7,37.2,9.7,53.9,0l77.2-44.5c16.7-9.7,26.8-27.5,26.8-46.6v-89.1
		C281,84.3,270.6,66.2,253.9,56.8z"/>
</g>
<g id="Capa_4" class="st1">
	<path class="st4" d="M253.9,56.8L177,12.3c-16.7-9.7-37.2-9.7-53.9,0L45.8,56.8C29.1,66.6,19,84.3,19,103.5v89.1
		c0,19.1,10.4,36.9,26.8,46.6l77.2,44.5c16.7,9.7,37.2,9.7,53.9,0l77.2-44.5c16.7-9.7,26.8-27.5,26.8-46.6v-89.1
		C281,84.3,270.6,66.2,253.9,56.8z"/>
</g>
<g id="Capa_5" class="st1">
	<path class="st5" d="M253.9,56.8L177,12.3c-16.7-9.7-37.2-9.7-53.9,0L45.8,56.8C29.1,66.6,19,84.3,19,103.5v89.1
		c0,19.1,10.4,36.9,26.8,46.6l77.2,44.5c16.7,9.7,37.2,9.7,53.9,0l77.2-44.5c16.7-9.7,26.8-27.5,26.8-46.6v-89.1
		C281,84.3,270.6,66.2,253.9,56.8z"/>
</g>
<g id="Capa_6" class="st1">
	<path class="st6" d="M253.9,56.8L177,12.3c-16.7-9.7-37.2-9.7-53.9,0L45.8,56.8C29.1,66.6,19,84.3,19,103.5v89.1
		c0,19.1,10.4,36.9,26.8,46.6l77.2,44.5c16.7,9.7,37.2,9.7,53.9,0l77.2-44.5c16.7-9.7,26.8-27.5,26.8-46.6v-89.1
		C281,84.3,270.6,66.2,253.9,56.8z"/>
</g>
<g id="Capa_7" class="st1">
	<path class="st7" d="M253.9,56.8L177,12.3c-16.7-9.7-37.2-9.7-53.9,0L45.8,56.8C29.1,66.6,19,84.3,19,103.5v89.1
		c0,19.1,10.4,36.9,26.8,46.6l77.2,44.5c16.7,9.7,37.2,9.7,53.9,0l77.2-44.5c16.7-9.7,26.8-27.5,26.8-46.6v-89.1
		C281,84.3,270.6,66.2,253.9,56.8z"/>
</g>
<g id="Capa_8" class="st1">
	<path class="st8" d="M253.9,56.8L177,12.3c-16.7-9.7-37.2-9.7-53.9,0L45.8,56.8C29.1,66.6,19,84.3,19,103.5v89.1
		c0,19.1,10.4,36.9,26.8,46.6l77.2,44.5c16.7,9.7,37.2,9.7,53.9,0l77.2-44.5c16.7-9.7,26.8-27.5,26.8-46.6v-89.1
		C281,84.3,270.6,66.2,253.9,56.8z"/>
</g>
<g id="Capa_9" class="st1">
	<path class="st9" d="M253.9,56.8L177,12.3c-16.7-9.7-37.2-9.7-53.9,0L45.8,56.8C29.1,66.6,19,84.3,19,103.5v89.1
		c0,19.1,10.4,36.9,26.8,46.6l77.2,44.5c16.7,9.7,37.2,9.7,53.9,0l77.2-44.5c16.7-9.7,26.8-27.5,26.8-46.6v-89.1
		C281,84.3,270.6,66.2,253.9,56.8z"/>
</g>
<g id="Capa_10" class="st1">
	<path class="st10" d="M253.9,56.8L177,12.3c-16.7-9.7-37.2-9.7-53.9,0L45.8,56.8C29.1,66.6,19,84.3,19,103.5v89.1
		c0,19.1,10.4,36.9,26.8,46.6l77.2,44.5c16.7,9.7,37.2,9.7,53.9,0l77.2-44.5c16.7-9.7,26.8-27.5,26.8-46.6v-89.1
		C281,84.3,270.6,66.2,253.9,56.8z"/>
</g>
<g>
	<g>
		<g>
			<path class="st11" d="M177.9,46.2h-55.8c-7,0-12.7,5.7-12.7,12.7v2.8v0.7v2v5.9v101.3c0,7,5.7,12.7,12.7,12.7h9.5h36.8h9.5
				c7,0,12.7-5.7,12.7-12.7V70.4v-5.9v-2v-0.7V59C190.6,51.9,184.9,46.2,177.9,46.2z M122.1,50.3h55.8c4.5,0,8.2,3.6,8.6,8h-8.7
				h-55.5h-8.7C113.8,53.8,117.5,50.3,122.1,50.3z M113.5,70.4v-5.9v-2l0,0h8.8h55.5h8.8l0,0v2v5.9v91.3h-73V70.4H113.5z
				 M186.5,171.7c0,4.7-3.9,8.6-8.6,8.6h-9.5h-36.8h-9.5c-4.7,0-8.6-3.9-8.6-8.6v-5.9h73V171.7z"/>
		</g>
	</g>
	<g>
		<g>
			<path class="st11" d="M161.7,55.6h-17.2c-0.7,0-1.3-0.6-1.3-1.3s0.6-1.3,1.3-1.3h17.2c0.7,0,1.3,0.6,1.3,1.3
				S162.4,55.6,161.7,55.6z"/>
		</g>
		<g>
			<path class="st11" d="M140.8,55.6h-2.5c-0.7,0-1.3-0.6-1.3-1.3s0.6-1.3,1.3-1.3h2.5c0.7,0,1.3,0.6,1.3,1.3S141.5,55.6,140.8,55.6
				z"/>
		</g>
	</g>
	<path class="st11" d="M158.8,175.5h-17.6c-0.5,0-0.9-0.4-0.9-0.9v-2.9c0-0.5,0.4-0.9,0.9-0.9h17.6c0.5,0,0.9,0.4,0.9,0.9v2.9
		C159.7,175.1,159.3,175.5,158.8,175.5z"/>
	<g>
		<path class="st11" d="M181.4,87.6l-13.6,13.6l-9.2-9.2c-1-1-2.7-1-3.8,0c-0.5,0.5-0.8,1.2-0.8,1.9c0,0.7,0.3,1.4,0.8,1.9
			l18.7,18.7l-15.2,15.2l-12.2-12.3c-1-1-2.7-1-3.8,0c-0.5,0.5-0.8,1.2-0.8,1.9s0.3,1.4,0.8,1.9l6.6,6.6l-25.4,25.4v3.4h4.1l4.3-4.3
			l4.3,4.3h7.5l-8.1-8.1l17-17l13.7,13.7l-11.4,11.4h7.5l7.6-7.6l7.6,7.6h3.7v-3.8l-19.2-19.4l15.2-15.2l4.1,4.1v-7.5l-9.8-9.8
			l9.8-9.8V87.6z"/>
		<path class="st11" d="M134.9,111.2c1.6,0,3-0.8,3.9-2.1l0,0l0.2-0.4c0.3-0.5,0.7-1.2,1.6-2.8c4.1-6.8,8.5-14.2,8.7-14.5
			c1.2-2.3,1.8-4.8,1.8-7.3c0-1.1-0.1-2.3-0.5-3.7c-0.6-2.2-1.4-4.1-2.5-5.7l-0.3-0.4c-0.3-0.4-0.6-0.8-0.9-1.1l-0.1-0.1
			c-0.2-0.2-0.4-0.4-0.6-0.6c-3-3-7.1-4.7-11.4-4.7h-0.2c-8.8,0.1-15.9,7.3-16,16.1c0,2.5,0.6,5.1,1.7,7.4l10.6,17.8
			C131.9,110.4,133.3,111.2,134.9,111.2z M123,83.9c0-6.4,5.3-11.7,11.7-11.8h0.1c3.1,0,6.1,1.2,8.3,3.4c0.8,0.8,1.4,1.6,2,2.6
			l0.1,0.1c1,1.8,1.5,3.8,1.5,5.8c0,1.9-0.4,3.7-1.3,5.3L134.8,107l-10.6-17.7C123.5,87.6,123,85.8,123,83.9z"/>
		<path class="st11" d="M134.9,90c3.4,0,6.1-2.7,6.1-6.1s-2.7-6.1-6.1-6.1s-6.1,2.7-6.1,6.1C128.8,87.2,131.5,90,134.9,90z
			 M132.4,83.9c0-1.4,1.1-2.5,2.5-2.5s2.5,1.1,2.5,2.5s-1.1,2.5-2.5,2.5S132.4,85.2,132.4,83.9z"/>
	</g>
</g>
<g class="st12">
	<path class="st11" d="M69.7,207.2c2.2,0,3.9,0.4,5.1,1.3s1.8,2.1,1.8,3.8c0,0.9-0.2,1.6-0.7,2.3c-0.5,0.7-1.1,1.2-2,1.5
		c1.1,0.2,1.9,0.7,2.5,1.5s0.8,1.7,0.8,2.7c0,1.8-0.6,3.1-1.8,4c-1.2,0.9-2.8,1.4-5,1.4h-9.1v-2.2l2-0.4v-13.3l-2-0.4v-2.2h2H69.7z
		 M67.2,214.9h2.7c1,0,1.8-0.2,2.3-0.6s0.8-1,0.8-1.8c0-0.9-0.3-1.5-0.8-1.9s-1.3-0.6-2.4-0.6h-2.5V214.9z M67.2,217.5v5.3h3.4
		c1,0,1.7-0.2,2.2-0.6c0.5-0.4,0.8-1.1,0.8-1.9c0-0.9-0.2-1.6-0.7-2.1c-0.4-0.5-1.1-0.7-2.1-0.7H67.2z"/>
	<path class="st11" d="M78.7,225.6v-2.2l2-0.4v-13.3l-2-0.4v-2.2h2h3.7h2v2.2l-2,0.4v13h5.2l0.2-2.3h2.8v5.2H78.7z"/>
	<path class="st11" d="M110.5,216.5c0,2.7-0.8,4.9-2.3,6.7s-3.6,2.7-6.1,2.7c-2.5,0-4.5-0.9-6-2.7s-2.3-4-2.3-6.7v-0.3
		c0-2.7,0.8-4.9,2.3-6.7s3.5-2.7,6-2.7c2.5,0,4.5,0.9,6.1,2.7s2.3,4,2.3,6.7V216.5z M106.8,216.2c0-1.9-0.4-3.5-1.2-4.7
		s-2-1.8-3.5-1.8s-2.7,0.6-3.5,1.8s-1.1,2.7-1.1,4.7v0.3c0,1.9,0.4,3.5,1.2,4.7c0.8,1.2,1.9,1.8,3.5,1.8c1.6,0,2.7-0.6,3.5-1.8
		c0.8-1.2,1.2-2.8,1.2-4.7V216.2z"/>
	<path class="st11" d="M127.1,213.4h-2.8l-0.4-2.5c-0.4-0.4-0.8-0.7-1.4-0.9s-1.2-0.3-2-0.3c-1.6,0-2.8,0.6-3.7,1.8
		s-1.3,2.7-1.3,4.6v0.6c0,1.9,0.4,3.4,1.3,4.6s2.1,1.8,3.7,1.8c0.7,0,1.4-0.1,2-0.3s1.1-0.5,1.4-0.9l0.4-2.5h2.8v3.7
		c-0.7,0.9-1.7,1.6-2.9,2.1c-1.2,0.5-2.4,0.8-3.9,0.8c-2.5,0-4.5-0.9-6.1-2.6s-2.4-3.9-2.4-6.6v-0.6c0-2.7,0.8-4.9,2.4-6.6
		s3.6-2.6,6.1-2.6c1.4,0,2.7,0.3,3.9,0.8c1.2,0.5,2.1,1.2,2.9,2.1V213.4z"/>
	<path class="st11" d="M128.8,223.4l2-0.4v-13.3l-2-0.4v-2.2h7.6v2.2l-1.9,0.4v4.9h1.6l3.6-5.2l-1.1-0.2v-2.2h7.3v2.2l-2,0.3
		l-4.5,6.1l5.1,7.3l1.9,0.3v2.2H139v-2.2l1.1-0.2l-3.6-5.3h-2.1v5.1l1.9,0.4v2.2h-7.6V223.4z"/>
	<path class="st11" d="M147.2,223.4l1.3-0.2l5.6-16.1h3.8l5.6,16.1l1.3,0.2v2.2h-6.3v-2.2l1.3-0.2l-0.8-2.5h-6l-0.8,2.5l1.3,0.2v2.2
		h-6.3V223.4z M153.9,217.9h4.2l-2.1-6.5H156L153.9,217.9z"/>
	<path class="st11" d="M180.1,213.1h-2.8l-0.5-2.5c-0.3-0.2-0.8-0.4-1.4-0.5c-0.6-0.2-1.3-0.2-2-0.2c-1,0-1.8,0.2-2.4,0.6
		c-0.6,0.4-0.8,1-0.8,1.7c0,0.6,0.3,1.1,0.9,1.5c0.6,0.4,1.6,0.8,3,1.3c2,0.6,3.6,1.3,4.6,2.2s1.6,2.2,1.6,3.7
		c0,1.6-0.6,2.8-1.9,3.7c-1.3,0.9-2.9,1.4-5,1.4c-1.5,0-2.8-0.2-4-0.7s-2.2-1.1-3-1.9v-3.9h2.9l0.4,2.6c0.4,0.3,0.9,0.6,1.5,0.8
		c0.6,0.2,1.4,0.3,2.1,0.3c1,0,1.8-0.2,2.3-0.6c0.5-0.4,0.8-1,0.8-1.7c0-0.7-0.3-1.3-0.8-1.7c-0.5-0.4-1.4-0.8-2.6-1.2
		c-2.2-0.6-3.9-1.4-5-2.3c-1.1-0.9-1.7-2.1-1.7-3.6c0-1.5,0.6-2.7,1.9-3.7c1.3-1,2.9-1.4,4.8-1.5c1.4,0,2.7,0.2,3.9,0.6
		s2.1,1,2.9,1.7V213.1z"/>
	<path class="st11" d="M195.9,213.1h-2.8l-0.5-2.5c-0.3-0.2-0.8-0.4-1.4-0.5c-0.6-0.2-1.3-0.2-2-0.2c-1,0-1.8,0.2-2.4,0.6
		c-0.6,0.4-0.8,1-0.8,1.7c0,0.6,0.3,1.1,0.9,1.5c0.6,0.4,1.6,0.8,3,1.3c2,0.6,3.6,1.3,4.6,2.2s1.6,2.2,1.6,3.7
		c0,1.6-0.6,2.8-1.9,3.7c-1.3,0.9-2.9,1.4-5,1.4c-1.5,0-2.8-0.2-4-0.7s-2.2-1.1-3-1.9v-3.9h2.9l0.4,2.6c0.4,0.3,0.9,0.6,1.5,0.8
		c0.6,0.2,1.4,0.3,2.1,0.3c1,0,1.8-0.2,2.3-0.6c0.5-0.4,0.8-1,0.8-1.7c0-0.7-0.3-1.3-0.8-1.7c-0.5-0.4-1.4-0.8-2.6-1.2
		c-2.2-0.6-3.9-1.4-5-2.3c-1.1-0.9-1.7-2.1-1.7-3.6c0-1.5,0.6-2.7,1.9-3.7c1.3-1,2.9-1.4,4.8-1.5c1.4,0,2.7,0.2,3.9,0.6
		s2.1,1,2.9,1.7V213.1z"/>
	<path class="st11" d="M197.6,209.4v-2.2h7.7v2.2l-2,0.4V223l2,0.4v2.2h-7.7v-2.2l2-0.4v-13.3L197.6,209.4z"/>
	<path class="st11" d="M220.7,213.1h-2.8l-0.5-2.5c-0.3-0.2-0.8-0.4-1.4-0.5c-0.6-0.2-1.3-0.2-2-0.2c-1,0-1.8,0.2-2.4,0.6
		c-0.6,0.4-0.8,1-0.8,1.7c0,0.6,0.3,1.1,0.9,1.5c0.6,0.4,1.6,0.8,3,1.3c2,0.6,3.6,1.3,4.6,2.2s1.6,2.2,1.6,3.7
		c0,1.6-0.6,2.8-1.9,3.7c-1.3,0.9-2.9,1.4-5,1.4c-1.5,0-2.8-0.2-4-0.7s-2.2-1.1-3-1.9v-3.9h2.9l0.4,2.6c0.4,0.3,0.9,0.6,1.5,0.8
		c0.6,0.2,1.4,0.3,2.1,0.3c1,0,1.8-0.2,2.3-0.6c0.5-0.4,0.8-1,0.8-1.7c0-0.7-0.3-1.3-0.8-1.7c-0.5-0.4-1.4-0.8-2.6-1.2
		c-2.2-0.6-3.9-1.4-5-2.3c-1.1-0.9-1.7-2.1-1.7-3.6c0-1.5,0.6-2.7,1.9-3.7c1.3-1,2.9-1.4,4.8-1.5c1.4,0,2.7,0.2,3.9,0.6
		s2.1,1,2.9,1.7V213.1z"/>
	<path class="st11" d="M238.7,207.2v4.9h-2.8l-0.2-2.1h-3.4v13l2,0.4v2.2h-7.7v-2.2l2-0.4v-13h-3.4l-0.2,2.1h-2.8v-4.9H238.7z"/>
</g>
</svg>
