<?xml version="1.0" encoding="utf-8"?>
<!-- Generator: Adobe Illustrator 23.0.4, SVG Export Plug-In . SVG Version: 6.00 Build 0)  -->
<svg version="1.1" id="Capa_1" xmlns="http://www.w3.org/2000/svg" xmlns:xlink="http://www.w3.org/1999/xlink" x="0px" y="0px"
	 viewBox="0 0 300 300" style="enable-background:new 0 0 300 300;" xml:space="preserve">
<style type="text/css">
	.st0{fill:#6AEAB8;}
	.st1{display:none;}
	.st2{display:inline;fill:#133B52;}
	.st3{display:inline;fill:#EE5455;}
	.st4{display:inline;fill:#FACF48;}
	.st5{display:inline;fill:#6AEAB8;}
	.st6{display:inline;fill:#3AA5F7;}
	.st7{display:inline;fill:#F39843;}
	.st8{display:inline;fill:#EF6769;}
	.st9{display:inline;fill:#8D49DD;}
	.st10{display:inline;fill:#0D427A;}
	.st11{fill:#FFFFFF;}
	.st12{enable-background:new    ;}
</style>
<g>
	<path class="st0" d="M253.9,56.8L177,12.3c-16.7-9.7-37.2-9.7-53.9,0L45.8,56.8C29.1,66.6,19,84.3,19,103.5v89.1
		c0,19.1,10.4,36.9,26.8,46.6l77.2,44.5c16.7,9.7,37.2,9.7,53.9,0l77.2-44.5c16.7-9.7,26.8-27.5,26.8-46.6v-89.1
		C281,84.3,270.6,66.2,253.9,56.8z"/>
</g>
<g class="st1">
	<path class="st2" d="M253.9,56.8L177,12.3c-16.7-9.7-37.2-9.7-53.9,0L45.8,56.8C29.1,66.6,19,84.3,19,103.5v89.1
		c0,19.1,10.4,36.9,26.8,46.6l77.2,44.5c16.7,9.7,37.2,9.7,53.9,0l77.2-44.5c16.7-9.7,26.8-27.5,26.8-46.6v-89.1
		C281,84.3,270.6,66.2,253.9,56.8z"/>
</g>
<g id="Capa_3" class="st1">
	<path class="st3" d="M253.9,56.8L177,12.3c-16.7-9.7-37.2-9.7-53.9,0L45.8,56.8C29.1,66.6,19,84.3,19,103.5v89.1
		c0,19.1,10.4,36.9,26.8,46.6l77.2,44.5c16.7,9.7,37.2,9.7,53.9,0l77.2-44.5c16.7-9.7,26.8-27.5,26.8-46.6v-89.1
		C281,84.3,270.6,66.2,253.9,56.8z"/>
</g>
<g id="Capa_4" class="st1">
	<path class="st4" d="M253.9,56.8L177,12.3c-16.7-9.7-37.2-9.7-53.9,0L45.8,56.8C29.1,66.6,19,84.3,19,103.5v89.1
		c0,19.1,10.4,36.9,26.8,46.6l77.2,44.5c16.7,9.7,37.2,9.7,53.9,0l77.2-44.5c16.7-9.7,26.8-27.5,26.8-46.6v-89.1
		C281,84.3,270.6,66.2,253.9,56.8z"/>
</g>
<g id="Capa_5" class="st1">
	<path class="st5" d="M253.9,56.8L177,12.3c-16.7-9.7-37.2-9.7-53.9,0L45.8,56.8C29.1,66.6,19,84.3,19,103.5v89.1
		c0,19.1,10.4,36.9,26.8,46.6l77.2,44.5c16.7,9.7,37.2,9.7,53.9,0l77.2-44.5c16.7-9.7,26.8-27.5,26.8-46.6v-89.1
		C281,84.3,270.6,66.2,253.9,56.8z"/>
</g>
<g id="Capa_6" class="st1">
	<path class="st6" d="M253.9,56.8L177,12.3c-16.7-9.7-37.2-9.7-53.9,0L45.8,56.8C29.1,66.6,19,84.3,19,103.5v89.1
		c0,19.1,10.4,36.9,26.8,46.6l77.2,44.5c16.7,9.7,37.2,9.7,53.9,0l77.2-44.5c16.7-9.7,26.8-27.5,26.8-46.6v-89.1
		C281,84.3,270.6,66.2,253.9,56.8z"/>
</g>
<g id="Capa_7" class="st1">
	<path class="st7" d="M253.9,56.8L177,12.3c-16.7-9.7-37.2-9.7-53.9,0L45.8,56.8C29.1,66.6,19,84.3,19,103.5v89.1
		c0,19.1,10.4,36.9,26.8,46.6l77.2,44.5c16.7,9.7,37.2,9.7,53.9,0l77.2-44.5c16.7-9.7,26.8-27.5,26.8-46.6v-89.1
		C281,84.3,270.6,66.2,253.9,56.8z"/>
</g>
<g id="Capa_8" class="st1">
	<path class="st8" d="M253.9,56.8L177,12.3c-16.7-9.7-37.2-9.7-53.9,0L45.8,56.8C29.1,66.6,19,84.3,19,103.5v89.1
		c0,19.1,10.4,36.9,26.8,46.6l77.2,44.5c16.7,9.7,37.2,9.7,53.9,0l77.2-44.5c16.7-9.7,26.8-27.5,26.8-46.6v-89.1
		C281,84.3,270.6,66.2,253.9,56.8z"/>
</g>
<g id="Capa_9" class="st1">
	<path class="st9" d="M253.9,56.8L177,12.3c-16.7-9.7-37.2-9.7-53.9,0L45.8,56.8C29.1,66.6,19,84.3,19,103.5v89.1
		c0,19.1,10.4,36.9,26.8,46.6l77.2,44.5c16.7,9.7,37.2,9.7,53.9,0l77.2-44.5c16.7-9.7,26.8-27.5,26.8-46.6v-89.1
		C281,84.3,270.6,66.2,253.9,56.8z"/>
</g>
<g id="Capa_10" class="st1">
	<path class="st10" d="M253.9,56.8L177,12.3c-16.7-9.7-37.2-9.7-53.9,0L45.8,56.8C29.1,66.6,19,84.3,19,103.5v89.1
		c0,19.1,10.4,36.9,26.8,46.6l77.2,44.5c16.7,9.7,37.2,9.7,53.9,0l77.2-44.5c16.7-9.7,26.8-27.5,26.8-46.6v-89.1
		C281,84.3,270.6,66.2,253.9,56.8z"/>
</g>
<g>
	<g>
		<g>
			<path class="st11" d="M177.9,46.2h-55.8c-7,0-12.7,5.7-12.7,12.7v2.8v0.7v2v5.9v101.3c0,7,5.7,12.7,12.7,12.7h9.5h36.8h9.5
				c7,0,12.7-5.7,12.7-12.7V70.4v-5.9v-2v-0.7V59C190.6,51.9,184.9,46.2,177.9,46.2z M122.1,50.3h55.8c4.5,0,8.2,3.6,8.6,8h-8.7
				h-55.5h-8.7C113.8,53.8,117.5,50.3,122.1,50.3z M113.5,70.4v-5.9v-2l0,0h8.8h55.5h8.8l0,0v2v5.9v91.3h-73V70.4H113.5z
				 M186.5,171.7c0,4.7-3.9,8.6-8.6,8.6h-9.5h-36.8h-9.5c-4.7,0-8.6-3.9-8.6-8.6v-5.9h73V171.7z"/>
		</g>
	</g>
	<g>
		<g>
			<path class="st11" d="M161.7,55.6h-17.2c-0.7,0-1.3-0.6-1.3-1.3s0.6-1.3,1.3-1.3h17.2c0.7,0,1.3,0.6,1.3,1.3
				S162.4,55.6,161.7,55.6z"/>
		</g>
		<g>
			<path class="st11" d="M140.8,55.6h-2.5c-0.7,0-1.3-0.6-1.3-1.3s0.6-1.3,1.3-1.3h2.5c0.7,0,1.3,0.6,1.3,1.3S141.5,55.6,140.8,55.6
				z"/>
		</g>
	</g>
	<path class="st11" d="M158.8,175.5h-17.6c-0.5,0-0.9-0.4-0.9-0.9v-2.9c0-0.5,0.4-0.9,0.9-0.9h17.6c0.5,0,0.9,0.4,0.9,0.9v2.9
		C159.7,175.1,159.3,175.5,158.8,175.5z"/>
	<g>
		<path class="st11" d="M138.9,143.2v-17h-17v17H138.9z M126,139.1v-8.8h8.8v8.8C134.8,139.1,126,139.1,126,139.1z"/>
		<path class="st11" d="M121.9,104.5v17h17v-17H121.9z M134.8,108.6v8.8H126v-8.8H134.8z"/>
		<path class="st11" d="M121.9,82.8v17h17v-17H121.9z M134.8,86.9v8.8H126v-8.8H134.8z"/>
		<g>
			<rect x="121.9" y="72.3" class="st11" width="55.7" height="4.5"/>
		</g>
	</g>
</g>
<g class="st12">
	<path class="st11" d="M82,210.3L82,210.3l-5.6,15.3h-2.8l-5.5-15.3l-0.1,0l0.4,9.1v3.3l2.2,0.4v2.5h-8.6v-2.5l2.2-0.4v-14.8
		l-2.2-0.4V205h2.2h5.4l5.3,15.2H75l5.3-15.2H88v2.5l-2.2,0.4v14.8l2.2,0.4v2.5h-8.6v-2.5l2.2-0.4v-3.3L82,210.3z"/>
	<path class="st11" d="M89.3,223.2l1.5-0.2l6.3-18h4.2l6.2,18l1.5,0.2v2.5h-7v-2.5l1.4-0.3l-0.9-2.8h-6.7l-0.9,2.8l1.4,0.3v2.5h-7
		V223.2z M96.8,217h4.7l-2.3-7.3h-0.1L96.8,217z"/>
	<path class="st11" d="M110.4,225.6v-2.5l2.2-0.4v-14.8l-2.2-0.4V205h2.2h4.1h2.2v2.5l-2.2,0.4v14.6h5.8l0.2-2.6h3.2v5.8H110.4z"/>
	<path class="st11" d="M127.4,225.6v-2.5l2.2-0.4v-14.8l-2.2-0.4V205h2.2h4.1h2.2v2.5l-2.2,0.4v14.6h5.8l0.2-2.6h3.2v5.8H127.4z"/>
	<path class="st11" d="M154.3,205c2.4,0,4.2,0.6,5.6,1.8s2.1,2.8,2.1,4.8c0,2-0.7,3.6-2.1,4.8c-1.4,1.2-3.2,1.8-5.6,1.8h-3.5v4.6
		l2.2,0.4v2.5h-8.6v-2.5l2.2-0.4v-14.8l-2.2-0.4V205h2.2H154.3z M150.8,215h3.5c1.2,0,2-0.3,2.6-0.9c0.6-0.6,0.9-1.4,0.9-2.4
		c0-1-0.3-1.8-0.9-2.5c-0.6-0.6-1.5-1-2.6-1h-3.5V215z"/>
	<path class="st11" d="M163.3,225.6v-2.5l2.2-0.4v-14.8l-2.2-0.4V205h2.2h4.1h2.2v2.5l-2.2,0.4v14.6h5.8l0.2-2.6h3.2v5.8H163.3z"/>
	<path class="st11" d="M180.1,223.2l1.5-0.2l6.3-18h4.2l6.2,18l1.5,0.2v2.5h-7v-2.5l1.4-0.3l-0.9-2.8h-6.7l-0.9,2.8l1.4,0.3v2.5h-7
		V223.2z M187.6,217h4.7l-2.3-7.3h-0.1L187.6,217z"/>
	<path class="st11" d="M216.7,205v2.1l-10.1,15.4h7.2l0.3-2.5h3.2l-0.3,5.7h-15.4v-2.2l10.1-15.3H205l-0.3,2.5h-3.2l0.3-5.7H216.7z"
		/>
	<path class="st11" d="M218.4,223.2l1.5-0.2l6.3-18h4.2l6.2,18l1.5,0.2v2.5h-7v-2.5l1.4-0.3l-0.9-2.8h-6.7l-0.9,2.8l1.4,0.3v2.5h-7
		V223.2z M225.9,217h4.7l-2.3-7.3h-0.1L225.9,217z"/>
</g>
</svg>
