<?xml version="1.0" encoding="utf-8"?>
<!-- Generator: Adobe Illustrator 23.0.4, SVG Export Plug-In . SVG Version: 6.00 Build 0)  -->
<svg version="1.1" id="Capa_1" xmlns="http://www.w3.org/2000/svg" xmlns:xlink="http://www.w3.org/1999/xlink" x="0px" y="0px"
	 viewBox="0 0 300 300" style="enable-background:new 0 0 300 300;" xml:space="preserve">
<style type="text/css">
	.st0{fill:#0D427A;}
	.st1{display:none;}
	.st2{display:inline;fill:#133B52;}
	.st3{display:inline;fill:#EE5455;}
	.st4{display:inline;fill:#FACF48;}
	.st5{display:inline;fill:#6AEAB8;}
	.st6{display:inline;fill:#3AA5F7;}
	.st7{display:inline;fill:#F39843;}
	.st8{display:inline;fill:#EF6769;}
	.st9{display:inline;fill:#8D49DD;}
	.st10{display:inline;fill:#0D427A;}
	.st11{fill:#FFFFFF;}
</style>
<g>
	<path class="st0" d="M253.9,56.8L177,12.3c-16.7-9.7-37.2-9.7-53.9,0L45.8,56.8C29.1,66.6,19,84.3,19,103.5v89.1
		c0,19.1,10.4,36.9,26.8,46.6l77.2,44.5c16.7,9.7,37.2,9.7,53.9,0l77.2-44.5c16.7-9.7,26.8-27.5,26.8-46.6v-89.1
		C281,84.3,270.6,66.2,253.9,56.8z"/>
</g>
<g class="st1">
	<path class="st2" d="M253.9,56.8L177,12.3c-16.7-9.7-37.2-9.7-53.9,0L45.8,56.8C29.1,66.6,19,84.3,19,103.5v89.1
		c0,19.1,10.4,36.9,26.8,46.6l77.2,44.5c16.7,9.7,37.2,9.7,53.9,0l77.2-44.5c16.7-9.7,26.8-27.5,26.8-46.6v-89.1
		C281,84.3,270.6,66.2,253.9,56.8z"/>
</g>
<g id="Capa_3" class="st1">
	<path class="st3" d="M253.9,56.8L177,12.3c-16.7-9.7-37.2-9.7-53.9,0L45.8,56.8C29.1,66.6,19,84.3,19,103.5v89.1
		c0,19.1,10.4,36.9,26.8,46.6l77.2,44.5c16.7,9.7,37.2,9.7,53.9,0l77.2-44.5c16.7-9.7,26.8-27.5,26.8-46.6v-89.1
		C281,84.3,270.6,66.2,253.9,56.8z"/>
</g>
<g id="Capa_4" class="st1">
	<path class="st4" d="M253.9,56.8L177,12.3c-16.7-9.7-37.2-9.7-53.9,0L45.8,56.8C29.1,66.6,19,84.3,19,103.5v89.1
		c0,19.1,10.4,36.9,26.8,46.6l77.2,44.5c16.7,9.7,37.2,9.7,53.9,0l77.2-44.5c16.7-9.7,26.8-27.5,26.8-46.6v-89.1
		C281,84.3,270.6,66.2,253.9,56.8z"/>
</g>
<g id="Capa_5" class="st1">
	<path class="st5" d="M253.9,56.8L177,12.3c-16.7-9.7-37.2-9.7-53.9,0L45.8,56.8C29.1,66.6,19,84.3,19,103.5v89.1
		c0,19.1,10.4,36.9,26.8,46.6l77.2,44.5c16.7,9.7,37.2,9.7,53.9,0l77.2-44.5c16.7-9.7,26.8-27.5,26.8-46.6v-89.1
		C281,84.3,270.6,66.2,253.9,56.8z"/>
</g>
<g id="Capa_6" class="st1">
	<path class="st6" d="M253.9,56.8L177,12.3c-16.7-9.7-37.2-9.7-53.9,0L45.8,56.8C29.1,66.6,19,84.3,19,103.5v89.1
		c0,19.1,10.4,36.9,26.8,46.6l77.2,44.5c16.7,9.7,37.2,9.7,53.9,0l77.2-44.5c16.7-9.7,26.8-27.5,26.8-46.6v-89.1
		C281,84.3,270.6,66.2,253.9,56.8z"/>
</g>
<g id="Capa_7" class="st1">
	<path class="st7" d="M253.9,56.8L177,12.3c-16.7-9.7-37.2-9.7-53.9,0L45.8,56.8C29.1,66.6,19,84.3,19,103.5v89.1
		c0,19.1,10.4,36.9,26.8,46.6l77.2,44.5c16.7,9.7,37.2,9.7,53.9,0l77.2-44.5c16.7-9.7,26.8-27.5,26.8-46.6v-89.1
		C281,84.3,270.6,66.2,253.9,56.8z"/>
</g>
<g id="Capa_8" class="st1">
	<path class="st8" d="M253.9,56.8L177,12.3c-16.7-9.7-37.2-9.7-53.9,0L45.8,56.8C29.1,66.6,19,84.3,19,103.5v89.1
		c0,19.1,10.4,36.9,26.8,46.6l77.2,44.5c16.7,9.7,37.2,9.7,53.9,0l77.2-44.5c16.7-9.7,26.8-27.5,26.8-46.6v-89.1
		C281,84.3,270.6,66.2,253.9,56.8z"/>
</g>
<g id="Capa_9" class="st1">
	<path class="st9" d="M253.9,56.8L177,12.3c-16.7-9.7-37.2-9.7-53.9,0L45.8,56.8C29.1,66.6,19,84.3,19,103.5v89.1
		c0,19.1,10.4,36.9,26.8,46.6l77.2,44.5c16.7,9.7,37.2,9.7,53.9,0l77.2-44.5c16.7-9.7,26.8-27.5,26.8-46.6v-89.1
		C281,84.3,270.6,66.2,253.9,56.8z"/>
</g>
<g id="Capa_10" class="st1">
	<path class="st10" d="M253.9,56.8L177,12.3c-16.7-9.7-37.2-9.7-53.9,0L45.8,56.8C29.1,66.6,19,84.3,19,103.5v89.1
		c0,19.1,10.4,36.9,26.8,46.6l77.2,44.5c16.7,9.7,37.2,9.7,53.9,0l77.2-44.5c16.7-9.7,26.8-27.5,26.8-46.6v-89.1
		C281,84.3,270.6,66.2,253.9,56.8z"/>
</g>
<g>
	<path class="st11" d="M78.9,205c2.3,0,4.2,0.5,5.5,1.6c1.3,1.1,2,2.6,2,4.5c0,1-0.3,1.9-0.8,2.7c-0.6,0.8-1.4,1.4-2.5,1.9
		c1.2,0.4,2.1,1,2.6,1.8s0.8,1.9,0.8,3.1v1.1c0,0.5,0.1,0.8,0.3,1.1c0.2,0.3,0.5,0.4,0.9,0.4l0.5,0.1v2.5h-2.1
		c-1.4,0-2.3-0.4-2.9-1.1c-0.5-0.7-0.8-1.7-0.8-2.8v-1.2c0-1-0.3-1.8-0.8-2.4c-0.5-0.6-1.3-0.9-2.3-0.9H76v5.5l2.2,0.4v2.5h-8.6
		v-2.5l2.2-0.4v-14.8l-2.2-0.4V205h2.2H78.9z M76,214.1h2.9c1.2,0,2-0.2,2.6-0.7c0.6-0.5,0.9-1.2,0.9-2.1c0-0.9-0.3-1.7-0.9-2.2
		c-0.6-0.6-1.4-0.8-2.5-0.8H76V214.1z"/>
	<path class="st11" d="M103,216.6h-7v5.9h6.7l0.2-2.5h3.2v5.7H89.6v-2.5l2.2-0.4v-14.8l-2.2-0.4V205h2.2H106v5.7h-3.2l-0.2-2.5H96
		v5.2h7V216.6z"/>
	<path class="st11" d="M117.5,205c2.5,0,4.6,0.8,6.2,2.4c1.6,1.6,2.5,3.7,2.5,6.2v3.4c0,2.5-0.8,4.6-2.5,6.2
		c-1.6,1.6-3.7,2.4-6.2,2.4h-9.3v-2.5l2.2-0.4v-14.8l-2.2-0.4V205h2.2H117.5z M114.6,208.2v14.3h2.7c1.5,0,2.7-0.5,3.5-1.5
		c0.8-1,1.3-2.3,1.3-3.9v-3.5c0-1.6-0.4-2.9-1.3-3.9c-0.8-1-2-1.5-3.5-1.5H114.6z"/>
	<path class="st11" d="M151.1,211.6H148l-0.5-2.8c-0.4-0.2-0.9-0.4-1.6-0.6c-0.7-0.2-1.4-0.3-2.2-0.3c-1.1,0-2,0.2-2.6,0.7
		c-0.6,0.5-0.9,1.1-0.9,1.9c0,0.7,0.3,1.3,1,1.7c0.6,0.4,1.8,0.9,3.4,1.4c2.3,0.6,4,1.5,5.2,2.5c1.2,1,1.8,2.4,1.8,4.1
		c0,1.8-0.7,3.2-2.1,4.2c-1.4,1-3.2,1.5-5.5,1.5c-1.6,0-3.1-0.3-4.4-0.8c-1.3-0.5-2.4-1.2-3.3-2.2v-4.3h3.2l0.4,2.9
		c0.4,0.3,1,0.6,1.7,0.8c0.7,0.2,1.5,0.3,2.4,0.3c1.1,0,2-0.2,2.6-0.7s0.9-1.1,0.9-1.9c0-0.8-0.3-1.4-0.8-1.9s-1.6-0.9-3-1.4
		c-2.5-0.7-4.3-1.6-5.6-2.5c-1.3-1-1.9-2.3-1.9-4c0-1.7,0.7-3,2.1-4.1c1.4-1.1,3.2-1.6,5.4-1.6c1.6,0,3,0.2,4.3,0.7
		c1.3,0.5,2.4,1.1,3.3,1.9V211.6z"/>
	<path class="st11" d="M152.8,223.2l1.5-0.2l6.3-18h4.2l6.2,18l1.5,0.2v2.5h-7v-2.5l1.4-0.3l-0.9-2.8h-6.7l-0.9,2.8l1.4,0.3v2.5h-7
		V223.2z M160.3,217h4.7l-2.3-7.3h-0.1L160.3,217z"/>
	<path class="st11" d="M173.9,225.6v-2.5l2.2-0.4v-14.8l-2.2-0.4V205h2.2h4.1h2.2v2.5l-2.2,0.4v14.6h5.8l0.2-2.6h3.2v5.8H173.9z"/>
	<path class="st11" d="M198.3,205v2.5l-2.2,0.4v10.8c0,1.4,0.4,2.4,1.1,3.1c0.7,0.7,1.7,1,3,1c1.3,0,2.3-0.3,3.1-1
		c0.7-0.7,1.1-1.7,1.1-3.1v-10.8l-2.2-0.4V205h8.6v2.5l-2.2,0.4v10.8c0,2.3-0.8,4.1-2.3,5.4s-3.5,1.9-6,1.9c-2.5,0-4.5-0.6-6-1.9
		c-1.5-1.3-2.3-3-2.3-5.4v-10.8l-2.2-0.4V205h2.2h4.1H198.3z"/>
	<path class="st11" d="M221.2,205c2.5,0,4.6,0.8,6.2,2.4c1.6,1.6,2.5,3.7,2.5,6.2v3.4c0,2.5-0.8,4.6-2.5,6.2
		c-1.6,1.6-3.7,2.4-6.2,2.4h-9.3v-2.5l2.2-0.4v-14.8l-2.2-0.4V205h2.2H221.2z M218.3,208.2v14.3h2.7c1.5,0,2.7-0.5,3.5-1.5
		c0.8-1,1.3-2.3,1.3-3.9v-3.5c0-1.6-0.4-2.9-1.3-3.9c-0.8-1-2-1.5-3.5-1.5H218.3z"/>
</g>
<g>
	<g>
		<g>
			<path class="st11" d="M177.9,46.3h-55.8c-7,0-12.7,5.7-12.7,12.7v2.8v0.7v2v5.9v101.3c0,7,5.7,12.7,12.7,12.7h9.5h36.8h9.5
				c7,0,12.7-5.7,12.7-12.7V70.5v-5.9v-2v-0.7v-2.8C190.6,52,184.9,46.3,177.9,46.3z M122.1,50.4h55.8c4.5,0,8.2,3.6,8.6,8h-8.7
				h-55.5h-8.7C113.8,53.9,117.5,50.4,122.1,50.4z M113.5,70.5v-5.9v-2l0,0h8.8h55.5h8.8l0,0v2v5.9v91.3h-73V70.5H113.5z
				 M186.5,171.8c0,4.7-3.9,8.6-8.6,8.6h-9.5h-36.8h-9.5c-4.7,0-8.6-3.9-8.6-8.6v-5.9h73V171.8z"/>
		</g>
	</g>
	<g>
		<g>
			<path class="st11" d="M161.7,55.7h-17.2c-0.7,0-1.3-0.6-1.3-1.3s0.6-1.3,1.3-1.3h17.2c0.7,0,1.3,0.6,1.3,1.3
				S162.4,55.7,161.7,55.7z"/>
		</g>
		<g>
			<path class="st11" d="M140.8,55.7h-2.5c-0.7,0-1.3-0.6-1.3-1.3s0.6-1.3,1.3-1.3h2.5c0.7,0,1.3,0.6,1.3,1.3S141.5,55.7,140.8,55.7
				z"/>
		</g>
	</g>
	<path class="st11" d="M158.8,175.6h-17.6c-0.5,0-0.9-0.4-0.9-0.9v-2.9c0-0.5,0.4-0.9,0.9-0.9h17.6c0.5,0,0.9,0.4,0.9,0.9v2.9
		C159.7,175.2,159.3,175.6,158.8,175.6z"/>
	<g>
		<path class="st11" d="M119.8,88.7h17v-17h-17V88.7z M123.9,75.8h8.8v8.8h-8.8C123.9,84.6,123.9,75.8,123.9,75.8z"/>
		<path class="st11" d="M180.1,71.7h-38.6v17h38.6V71.7z M176,84.6h-30.4v-8.8H176V84.6z"/>
	</g>
	<g>
		<path class="st11" d="M119.8,109.8h17v-17h-17V109.8z M123.9,96.9h8.8v8.8h-8.8C123.9,105.7,123.9,96.9,123.9,96.9z"/>
		<path class="st11" d="M180.1,92.8h-38.6v17h38.6V92.8z M176,105.7h-30.4v-8.8H176V105.7z"/>
	</g>
	<g>
		<path class="st11" d="M119.8,130.8h17v-17h-17V130.8z M123.9,117.9h8.8v8.8h-8.8C123.9,126.7,123.9,117.9,123.9,117.9z"/>
		<path class="st11" d="M180.1,113.8h-38.6v17h38.6V113.8z M176,126.7h-30.4v-8.8H176V126.7z"/>
	</g>
	<g>
		<path class="st11" d="M119.8,151.9h17v-17h-17V151.9z M123.9,139h8.8v8.8h-8.8C123.9,147.8,123.9,139,123.9,139z"/>
		<path class="st11" d="M180.1,134.9h-38.6v17h38.6V134.9z M176,147.8h-30.4V139H176V147.8z"/>
	</g>
</g>
</svg>
