<?xml version="1.0" encoding="utf-8"?>
<!-- Generator: Adobe Illustrator 23.0.4, SVG Export Plug-In . SVG Version: 6.00 Build 0)  -->
<svg version="1.1" id="Capa_1" xmlns="http://www.w3.org/2000/svg" xmlns:xlink="http://www.w3.org/1999/xlink" x="0px" y="0px"
	 viewBox="0 0 984 613.4" style="enable-background:new 0 0 984 613.4;" xml:space="preserve">
<style type="text/css">
	.st0{fill:#1EA9F2;}
	.st1{fill:#248DC7;}
</style>
<path class="st0" d="M940.1,174.1L808,40.3c-21.9-22.1-53.8-30.9-83.8-23.1l-346.7,90.4c-30,7.8-53.7,31.2-62,61.1L265.6,350
	c-8.3,29.9,0.1,62.1,22,84.2l132.1,133.9c21.9,22.1,53.8,30.9,83.8,23.1l346.7-90.4c30-7.8,53.7-31.2,62-61.1l49.9-181.4
	C970.3,228.3,961.9,196.3,940.1,174.1z"/>
<path class="st1" d="M64.3,155.4L15.4,333.2c-8.7,31.8,0.1,66,23.3,89.5l129.5,131.2c23.2,23.6,57.2,32.9,89.2,24.6L435.9,532
	c31.9-8.4,57.1-33.1,65.8-64.9l49-177.8c8.7-31.8-0.1-66-23.3-89.5L397.8,68.5c-23.2-23.6-57.2-32.9-89.2-24.6L130.1,90.4
	C98.2,98.7,73.1,123.5,64.3,155.4z"/>
</svg>
