<?xml version="1.0" encoding="utf-8"?>
<!-- Generator: Adobe Illustrator 23.0.6, SVG Export Plug-In . SVG Version: 6.00 Build 0)  -->
<svg version="1.1" id="Capa_1" xmlns="http://www.w3.org/2000/svg" xmlns:xlink="http://www.w3.org/1999/xlink" x="0px" y="0px"
	 viewBox="0 0 88.9 83.7" style="enable-background:new 0 0 88.9 83.7;" xml:space="preserve">
<style type="text/css">
	.st0{fill:#65DFB6;}
	.st1{fill:#FFFFFF;}
</style>
<circle class="st0" cx="44.5" cy="41.9" r="40.6"/>
<path class="st1" d="M57.4,19.9H31.4c-4.9,0-8.9,4-8.9,8.9v26.1c0,4.9,4,8.9,8.9,8.9h26.2c4.9,0,8.9-4,8.9-8.8V28.8
	C66.3,23.9,62.4,19.9,57.4,19.9z M34.8,54.6c-0.6,0.9-1.8,1.3-2.7,0.8c-0.9-0.5-1.3-1.8-0.8-2.7l1.3-2.2c0,0,0.3-0.6,1.5-0.6
	c1.3,0,2.5,1.1,2.5,1.4L34.8,54.6z M48.4,49.2H30.3c-1.1,0-2-0.9-2-2c0-1.1,0.9-2,2-2h5.3l6.4-11c0,0,0-0.1-0.1-0.1l-2.1-3.7
	c-0.6-0.9-0.3-2.2,0.8-2.7c0.9-0.6,2.2-0.3,2.7,0.8l1,1.8l1-1.7c0.5-1,1.8-1.3,2.7-0.8c0.9,0.6,1.3,1.8,0.8,2.7l-8.5,14.8H46
	c0,0,1.3,0,2.3,1.6C49.3,48.3,48.4,49.2,48.4,49.2z M58.2,49.2h-2.9l1.9,3.3c0.5,1,0.2,2.2-0.8,2.8c-1,0.6-2.2,0.3-2.7-0.8
	l-7.1-12.4c0,0-0.9-1.5-0.9-3.7s1.4-3.4,1.4-3.4L53,45.2h5.3c1.1,0,1.9,0.9,2,2C60.2,48.4,59.3,49.2,58.2,49.2z"/>
</svg>
