<?xml version="1.0" encoding="utf-8"?>
<!-- Generator: Adobe Illustrator 23.0.4, SVG Export Plug-In . SVG Version: 6.00 Build 0)  -->
<svg version="1.1" id="Capa_1" xmlns="http://www.w3.org/2000/svg" xmlns:xlink="http://www.w3.org/1999/xlink" x="0px" y="0px"
	 viewBox="0 0 250 66.5" style="enable-background:new 0 0 250 66.5;" xml:space="preserve">
<style type="text/css">
	.st0{fill:#FFFFFF;}
</style>
<g>
	<g>
		<g id="XMLID_134_">
			<path id="XMLID_150_" class="st0" d="M82.9,13.5L72.3,44.6h4.8l3.2-9.6h10.2l3.2,9.6h5L88.1,13.5H82.9z M85.4,18.6
				c0.4,1.4,0.7,2.8,1.2,4.4l2.8,8.2h-8.1l2.8-8.3C84.6,21.6,85,20.1,85.4,18.6z"/>
			<path id="XMLID_147_" class="st0" d="M112.4,21.6c-3.2,0-5.8,1.2-7.5,3.6l-0.2-3.1h-4.3l0,0.4c0.1,1.9,0.2,4,0.2,7.1v24h4.7V42.3
				c1.5,1.7,3.8,2.8,6.4,2.8c2.8,0,5.3-1.1,7.1-3c2.1-2.2,3.1-5.3,3.1-9.1c0-3.3-0.9-6.2-2.7-8.3C117.6,22.7,115.1,21.6,112.4,21.6z
				 M111.3,25.5c4.2,0,6.1,3.9,6.1,7.7c0,5-2.4,8.1-6.3,8.1c-2.6,0-4.9-1.8-5.5-4.4c-0.1-0.4-0.2-0.9-0.2-1.5v-3.8
				c0-0.3,0.1-0.8,0.2-1.2c0-0.1,0-0.3,0.1-0.4C106.3,27.3,108.6,25.5,111.3,25.5z"/>
			<path id="XMLID_144_" class="st0" d="M136.7,21.6c-3.2,0-5.8,1.2-7.5,3.6l-0.2-3.1h-4.3l0,0.4c0.1,1.9,0.2,4,0.2,7.1v24h4.7V42.3
				c1.5,1.7,3.8,2.8,6.4,2.8c2.8,0,5.3-1.1,7.1-3c2.1-2.2,3.1-5.3,3.1-9.1c0-3.3-0.9-6.2-2.7-8.3C141.8,22.7,139.4,21.6,136.7,21.6z
				 M135.5,25.5c4.2,0,6.1,3.9,6.1,7.7c0,5-2.4,8.1-6.3,8.1c-2.6,0-4.9-1.8-5.5-4.4c-0.1-0.4-0.2-0.9-0.2-1.5v-3.8
				c0-0.3,0.1-0.8,0.2-1.2c0-0.1,0-0.3,0.1-0.4C130.5,27.3,132.8,25.5,135.5,25.5z"/>
			<path id="XMLID_143_" class="st0" d="M167,26.7c-4.4-1.7-5.8-3-5.8-5.5c0-2.1,1.7-4.2,5.4-4.2c3,0,5,1.1,5.5,1.4l0.4,0.2l1.3-3.9
				l-0.3-0.2c-0.8-0.5-3-1.5-6.9-1.5c-6,0-10.2,3.5-10.2,8.6c0,4.1,2.6,7,8.3,9c4,1.5,5.5,3,5.5,5.6c0,3-2.3,4.8-6,4.8
				c-2.4,0-4.9-0.7-6.8-1.9l-0.4-0.3l-1.3,4l0.2,0.2c1.8,1.2,5.1,2,8,2c8.1,0,11-4.9,11-9.2C175,31.6,172.7,28.9,167,26.7z"/>
			<path id="XMLID_142_" class="st0" d="M183.4,16.7l-4.6,1.4v3.9h-3.4v3.8h3.4v11.5c0,2.8,0.5,4.7,1.6,6c1.1,1.2,2.7,1.8,4.6,1.8
				c1.8,0,3-0.4,3.6-0.6l0.3-0.1l-0.2-3.8l-0.5,0.1c-0.6,0.2-1.2,0.3-2.2,0.3c-1.8,0-2.6-1.2-2.6-3.9V25.8h5.7v-3.8h-5.7V16.7z"/>
			<path id="XMLID_139_" class="st0" d="M200.8,21.6c-6.6,0-11.2,4.9-11.2,12c0,6.8,4.5,11.6,10.8,11.6h0c5.4,0,11.2-3.8,11.2-12
				c0-3.4-1-6.2-3-8.3C206.7,22.7,204,21.6,200.8,21.6z M200.7,25.3c4.2,0,6.2,4.1,6.2,8c0,4.7-2.6,8.1-6.3,8.1h0
				c-3.6,0-6.2-3.4-6.2-8C194.4,29.3,196.3,25.3,200.7,25.3z"/>
			<path id="XMLID_138_" class="st0" d="M226.1,21.8l-0.3-0.1c-0.4-0.1-0.8-0.1-1.2-0.1c-2.5,0-4.7,1.4-5.9,3.8l-0.1-3.3h-4.2l0,0.4
				c0.1,1.9,0.2,4,0.2,6.8l0,15.4h4.7v-12c0-0.7,0-1.3,0.1-1.8c0.5-2.9,2.5-4.7,5-4.7c0.5,0,0.9,0,1.3,0.1l0.5,0.1V21.8z"/>
			<path id="XMLID_135_" class="st0" d="M236.7,21.5c-6.3,0-10.6,5-10.6,12.2c0,6.9,4.4,11.4,11.1,11.4c3.5,0,6-0.8,7.5-1.4l0.3-0.1
				l-0.9-3.5l-0.4,0.2c-1.3,0.5-3,1.1-5.9,1.1c-2,0-6.8-0.7-7.1-6.8l15.2,0l0.1-0.3c0.1-0.5,0.1-1.1,0.1-2
				C246,27.3,243.6,21.5,236.7,21.5z M236.3,25.1c1.4,0,2.6,0.4,3.5,1.3c1.4,1.4,1.6,3.4,1.6,4.4h-10.7
				C231.1,28.1,232.8,25.1,236.3,25.1z"/>
		</g>
		<path class="st0" d="M45.3,7.4H14.5C8.7,7.4,4,12.1,4,17.9v30.8c0,5.8,4.7,10.5,10.5,10.5h30.9c5.8,0,10.5-4.7,10.5-10.4V17.9
			C55.8,12.1,51.1,7.4,45.3,7.4z M18.5,48.3c-0.7,1.1-2.1,1.5-3.2,0.9c-1.1-0.6-1.5-2.1-0.9-3.2l1.5-2.6c0,0,0.3-0.7,1.8-0.7
			c1.5,0,2.9,1.3,3,1.7L18.5,48.3z M34.6,42H13.2c-1.3,0-2.4-1.1-2.4-2.4c0-1.3,1.1-2.4,2.4-2.4h6.2l7.5-13c0,0,0-0.1-0.1-0.1
			l-2.5-4.4c-0.7-1.1-0.3-2.6,0.9-3.2c1.1-0.7,2.6-0.3,3.2,0.9l1.2,2.1l1.2-2c0.6-1.2,2.1-1.5,3.2-0.9c1.1,0.7,1.5,2.1,0.9,3.2
			L24.9,37.3h6.9c0,0,1.5,0,2.7,1.9C35.7,40.9,34.6,42,34.6,42z M46.2,42h-3.4l2.3,3.9c0.6,1.2,0.2,2.6-0.9,3.3
			c-1.2,0.7-2.6,0.3-3.2-0.9l-8.4-14.6c0,0-1.1-1.8-1.1-4.4c0-2.6,1.7-4,1.7-4L40,37.3h6.2c1.3,0,2.3,1.1,2.4,2.4
			C48.6,41,47.5,42,46.2,42z"/>
	</g>
</g>
</svg>
