<?xml version="1.0" encoding="utf-8"?>
<!-- Generator: Adobe Illustrator 23.0.4, SVG Export Plug-In . SVG Version: 6.00 Build 0)  -->
<svg version="1.1" id="Capa_1" xmlns="http://www.w3.org/2000/svg" xmlns:xlink="http://www.w3.org/1999/xlink" x="0px" y="0px"
	 viewBox="0 0 200 127.3" style="enable-background:new 0 0 200 127.3;" xml:space="preserve">
<style type="text/css">
	.st0{clip-path:url(#SVGID_2_);fill:#FFFFFF;}
	.st1{clip-path:url(#SVGID_2_);fill:#2A368E;}
	.st2{clip-path:url(#SVGID_2_);fill:#B82A24;}
</style>
<g id="Chile_2_">
	<g>
		<g>
			<defs>
				<rect id="SVGID_1_" x="4.1" y="7.7" width="191.8" height="111.9"/>
			</defs>
			<clipPath id="SVGID_2_">
				<use xlink:href="#SVGID_1_"  style="overflow:visible;"/>
			</clipPath>
			<rect x="4.1" y="7.7" class="st0" width="191.8" height="111.9"/>
			<rect x="4.1" y="7.7" class="st1" width="55.9" height="111.9"/>
			<rect x="4.1" y="63.7" class="st2" width="191.8" height="55.9"/>
			<polygon class="st0" points="32.1,21.7 27.8,35 34.4,37.2 			"/>
			<polygon class="st0" points="32.1,21.7 36.4,35 29.7,37.2 			"/>
			<polygon class="st0" points="45.4,31.4 31.4,31.4 31.4,38.4 			"/>
			<polygon class="st0" points="45.4,31.4 34.1,39.6 29.9,33.9 			"/>
			<polygon class="st0" points="18.8,31.4 30.1,39.6 34.2,33.9 			"/>
			<polygon class="st0" points="18.8,31.4 32.8,31.4 32.8,38.4 			"/>
			<polygon class="st0" points="40.3,47 36,33.7 29.3,35.9 			"/>
			<polygon class="st0" points="40.3,47 29,38.8 33.1,33.1 			"/>
			<polygon class="st0" points="23.9,47 35.2,38.8 31.1,33.1 			"/>
			<polygon class="st0" points="23.9,47 28.2,33.7 34.8,35.9 			"/>
		</g>
	</g>
</g>
</svg>
