<?xml version="1.0" encoding="utf-8"?>
<!-- Generator: Adobe Illustrator 23.0.6, SVG Export Plug-In . SVG Version: 6.00 Build 0)  -->
<svg version="1.1" id="Capa_1" xmlns="http://www.w3.org/2000/svg" xmlns:xlink="http://www.w3.org/1999/xlink" x="0px" y="0px"
	 viewBox="0 0 614.6 1400" style="enable-background:new 0 0 614.6 1400;" xml:space="preserve">
<style type="text/css">
	.st0{fill:url(#SVGID_1_);}
	.st1{fill:#0C3F82;}
</style>
<linearGradient id="SVGID_1_" gradientUnits="userSpaceOnUse" x1="81.0194" y1="516.9982" x2="535.4429" y2="1179.3417">
	<stop  offset="0" style="stop-color:#586266"/>
	<stop  offset="0.9393" style="stop-color:#384D57"/>
</linearGradient>
<path class="st0" d="M13,530.1v633.4c0,49.6,26.1,94,69.2,118.8l156.6,90c43.1,24.8,95.3,24.8,137,0l156.6-90
	c43.1-24.8,69.2-69.2,69.2-118.8V530.1c0-49.6-26.1-94-69.2-118.8l-156.6-90c-43.1-24.8-95.3-24.8-137,0l-156.6,90
	C39.1,436.1,13,480.5,13,530.1z"/>
<path class="st1" d="M64.1,133.5L7.2,340.2c-9.1,33.1,0.1,68.5,24.2,93L182,585.8c24.1,24.4,59.4,34.2,92.7,25.5l207.4-54.1
	c33.2-8.7,59.3-34.4,68.4-67.5L607.4,283c9.1-33.1-0.1-68.5-24.2-93L432.6,37.4C408.5,13,373.2,3.3,339.9,11.9L132.5,66
	C99.3,74.7,73.2,100.4,64.1,133.5z"/>
</svg>
