<?xml version="1.0" encoding="utf-8"?>
<!-- Generator: Adobe Illustrator 23.0.6, SVG Export Plug-In . SVG Version: 6.00 Build 0)  -->
<svg version="1.1" id="Capa_1" xmlns="http://www.w3.org/2000/svg" xmlns:xlink="http://www.w3.org/1999/xlink" x="0px" y="0px"
	 viewBox="0 0 88.9 83.7" style="enable-background:new 0 0 88.9 83.7;" xml:space="preserve">
<style type="text/css">
	.st0{fill:#65DFB6;}
	.st1{fill:#FFFFFF;}
</style>
<circle class="st0" cx="44.5" cy="41.9" r="40.6"/>
<g>
	<path class="st1" d="M29.6,23.2c-0.4,0.4-0.7,1.2-0.7,2.1v33c0,0.9,0.3,1.6,0.7,2.1l18.9-18.6L29.6,23.2z"/>
	<path class="st1" d="M64.4,39.6L57,35.5l-6.4,6.3l6.4,6.3l7.4-4.2C66.5,42.8,66.5,40.9,64.4,39.6z"/>
	<path class="st1" d="M49.5,43L30.8,61.5c0.7,0.6,1.8,0.7,3,0l21.9-12.3L49.5,43z"/>
	<path class="st1" d="M55.8,34.5l-22-12.3c-1.2-0.7-2.3-0.6-3,0l18.7,18.5L55.8,34.5z"/>
</g>
</svg>
