<?xml version="1.0" encoding="utf-8"?>
<!-- Generator: Adobe Illustrator 23.0.4, SVG Export Plug-In . SVG Version: 6.00 Build 0)  -->
<svg version="1.1" id="Capa_1" xmlns="http://www.w3.org/2000/svg" xmlns:xlink="http://www.w3.org/1999/xlink" x="0px" y="0px"
	 viewBox="0 0 250 66.5" style="enable-background:new 0 0 250 66.5;" xml:space="preserve">
<style type="text/css">
	.st0{fill:#FFFFFF;}
</style>
<g>
	<g>
		<path class="st0" d="M126.1,26.3c-4.9,0-8.8,3.7-8.8,8.8c0,5.1,4,8.8,8.8,8.8c4.9,0,8.8-3.7,8.8-8.8C134.9,30,131,26.3,126.1,26.3
			z M126.1,40.4c-2.7,0-5-2.2-5-5.3c0-3.2,2.3-5.3,5-5.3c2.7,0,5,2.2,5,5.3C131.1,38.2,128.8,40.4,126.1,40.4z M106.8,26.3
			c-4.9,0-8.8,3.7-8.8,8.8c0,5.1,4,8.8,8.8,8.8c4.9,0,8.8-3.7,8.8-8.8C115.6,30,111.7,26.3,106.8,26.3z M106.8,40.4
			c-2.7,0-5-2.2-5-5.3c0-3.2,2.3-5.3,5-5.3c2.7,0,5,2.2,5,5.3C111.8,38.2,109.5,40.4,106.8,40.4z M83.9,29v3.7h8.9
			c-0.3,2.1-1,3.6-2,4.7c-1.3,1.3-3.3,2.7-6.9,2.7c-5.5,0-9.8-4.4-9.8-9.9s4.3-9.9,9.8-9.9c3,0,5.1,1.2,6.7,2.7l2.6-2.6
			c-2.2-2.1-5.2-3.8-9.4-3.8c-7.5,0-13.9,6.1-13.9,13.7c0,7.5,6.3,13.7,13.9,13.7c4.1,0,7.1-1.3,9.5-3.8c2.5-2.5,3.2-5.9,3.2-8.7
			c0-0.9-0.1-1.7-0.2-2.3H83.9z M177.7,31.9c-0.7-2-3-5.6-7.5-5.6c-4.5,0-8.3,3.6-8.3,8.8c0,4.9,3.7,8.8,8.7,8.8
			c4,0,6.4-2.5,7.3-3.9l-3-2c-1,1.5-2.4,2.4-4.3,2.4c-2,0-3.4-0.9-4.3-2.7l11.8-4.9L177.7,31.9z M165.6,34.8
			c-0.1-3.4,2.6-5.1,4.6-5.1c1.5,0,2.8,0.8,3.3,1.9L165.6,34.8z M156.1,43.4h3.9V17.5h-3.9V43.4z M149.7,28.3h-0.1
			c-0.9-1-2.5-2-4.6-2c-4.4,0-8.4,3.9-8.4,8.8c0,4.9,4,8.8,8.4,8.8c2.1,0,3.8-0.9,4.6-2h0.1v1.3c0,3.4-1.8,5.2-4.7,5.2
			c-2.4,0-3.8-1.7-4.4-3.1l-3.4,1.4c1,2.3,3.5,5.2,7.8,5.2c4.5,0,8.4-2.7,8.4-9.2V26.8h-3.7V28.3z M145.3,40.4
			c-2.7,0-4.9-2.2-4.9-5.3c0-3.1,2.2-5.4,4.9-5.4c2.6,0,4.7,2.3,4.7,5.4C150,38.2,147.9,40.4,145.3,40.4z M195.8,17.5h-9.3v25.9h3.9
			v-9.8h5.4c4.3,0,8.5-3.1,8.5-8S200.1,17.5,195.8,17.5z M195.9,30h-5.5v-8.9h5.5c2.9,0,4.5,2.4,4.5,4.4
			C200.4,27.5,198.8,30,195.9,30z M219.7,26.3c-2.8,0-5.7,1.2-6.9,4l3.4,1.4c0.7-1.4,2.1-1.9,3.5-1.9c2,0,4,1.2,4.1,3.3v0.3
			c-0.7-0.4-2.2-1-4-1c-3.7,0-7.5,2-7.5,5.8c0,3.5,3,5.7,6.4,5.7c2.6,0,4-1.2,4.9-2.5h0.1v2h3.7v-9.9
			C227.6,28.8,224.2,26.3,219.7,26.3z M219.3,40.4c-1.3,0-3-0.6-3-2.2c0-2,2.2-2.8,4.1-2.8c1.7,0,2.5,0.4,3.5,0.9
			C223.6,38.7,221.5,40.4,219.3,40.4z M241.2,26.8L236.7,38h-0.1L232,26.8h-4.2l6.9,15.7l-3.9,8.7h4l10.6-24.4H241.2z M206.4,43.4
			h3.9V17.5h-3.9V43.4z"/>
		<g>
			<path class="st0" d="M6.3,9.1c-0.6,0.6-0.9,1.6-0.9,2.8v44.5c0,1.2,0.4,2.2,0.9,2.8l25.4-25.1L6.3,9.1z"/>
			<path class="st0" d="M53.2,31.2l-9.9-5.6l-8.6,8.5l8.6,8.5l9.9-5.6C56,35.5,56,32.9,53.2,31.2z"/>
			<path class="st0" d="M33.2,35.7L8,60.6c0.9,0.8,2.4,0.9,4.1,0L41.6,44L33.2,35.7z"/>
			<path class="st0" d="M41.6,24.3L12,7.8c-1.6-0.9-3.1-0.8-4.1,0l25.2,24.9L41.6,24.3z"/>
		</g>
	</g>
</g>
</svg>
