<?xml version="1.0" encoding="utf-8"?>
<!-- Generator: Adobe Illustrator 23.0.4, SVG Export Plug-In . SVG Version: 6.00 Build 0)  -->
<svg version="1.1" xmlns="http://www.w3.org/2000/svg" xmlns:xlink="http://www.w3.org/1999/xlink" x="0px" y="0px"
	 viewBox="0 0 300 300" style="enable-background:new 0 0 300 300;" xml:space="preserve">
<style type="text/css">
	.st0{display:none;}
	.st1{display:inline;opacity:0.2;fill:#329AD3;}
	.st2{display:inline;}
	.st3{fill:#FFFFFF;}
	.st4{fill:#405763;}
	.st5{fill:#788890;}
	.st6{display:inline;opacity:0.2;fill:#73BCA2;}
	.st7{display:inline;opacity:0.2;}
	.st8{fill:#73BCA2;}
	.st9{fill:none;}
	.st10{fill:#329AD3;}
	.st11{opacity:0.2;fill:#6ADEB6;}
	.st12{opacity:0.749;fill:#405863;enable-background:new    ;}
	.st13{fill:#405863;}
</style>
<g id="_x31_" class="st0">
	<path class="st1" d="M10.8,102v70.2c0,11,5.9,21.2,15.5,26.8L87,234.1c9.6,5.5,21.3,5.5,30.9,0l60.8-35.1
		c9.6-5.5,15.5-15.7,15.5-26.8V102c0-11-5.9-21.2-15.5-26.8l-60.8-35.1c-9.6-5.5-21.3-5.5-30.9,0L26.2,75.3
		C16.7,80.8,10.8,91,10.8,102z"/>
	<g class="st2">
		<g>
			<g>
				<g>
					<line class="st3" x1="229.4" y1="148.4" x2="229.4" y2="190.2"/>
				</g>
				<g>
					<rect x="227.1" y="148.4" class="st4" width="4.7" height="41.8"/>
				</g>
			</g>
			<g>
				<path class="st5" d="M125.3,250.5c-3.4,0-5.3-1.8-5.3-5.2c0-0.4,0-0.8,0-1.2h-4.6c0,0.5,0,1.1,0,1.5c0,4.6,2.7,8.2,6.9,9.3
					c0.4,0.1,0.8,0.2,1.2,0.3h31.2v-4.7C145,250.5,135.2,250.5,125.3,250.5z"/>
				<path class="st5" d="M215.5,142.4c-0.1-4.4-3.8-8.2-8.1-8.6c-2.2-0.2-4.5-0.1-6.7-0.1c-0.4,0-0.9,0-1.6,0
					c0.4-0.4,0.5-0.6,0.7-0.8c0.2-0.2,0.4-0.4,0.5-0.6c4-5.2,4.8-10.9,2.2-16.9c-2.6-6-7.5-9.3-14.1-9.7c-4.7-0.3-8.4,1.7-11.6,5
					c-3,3.1-5.2,6.8-7,10.6c-0.3,0.7-0.6,1.4-1,2.1c-4.6-1.8-9.2-1.7-13.7,0c-0.2-0.5-0.4-0.9-0.6-1.3c-1.7-3.8-3.7-7.4-6.5-10.5
					c-6.6-7.5-16.7-7.9-23.4-0.8c-1.9,2-3.3,4.4-3.9,7.3c1.5,0.4,2.9,0.8,4.4,1.2c0.1-0.2,0.2-0.3,0.2-0.5c1.8-7.1,12.1-12.7,19.4-4
					c2.8,3.3,4.7,7.1,6.4,11c0.1,0.3,0,0.8-0.1,1.1c-0.9,2.1-0.7,3.9,0.9,5.6c0.2,0.2,0.3,0.4,0.5,0.6c-0.2,0.1-0.4,0.2-0.5,0.2
					c-0.2,0.1-0.5,0.1-0.7,0.1c-3.5,0.5-6.8-0.3-9.9-1.6c-4.1-1.8-8-3.9-12.1-5.7c-6.2-2.9-12.7-4.8-19.6-3.9
					c-4.2,0.6-7.9,2.1-11,5.1c-1.1,1.1-1.1,2.6-0.1,3.5c1,0.9,2.2,0.7,3.4-0.2c1.4-1.1,2.9-2.2,4.5-2.9c3.7-1.5,7.5-1.4,11.4-0.6
					c4.9,1,9.3,3.2,13.7,5.4c3.6,1.8,7.3,3.3,11.1,4.7c3.8,1.5,8,0.8,11.9,1.2c1.7,0.2,3.3,0,5.1,0v18.6h-46.5v-1
					c0-4.2,0-8.4,0-12.6c0-3.1,1.9-5,5.1-5c4.5,0,9,0,13.5,0c0.3,0,0.7,0,1.2-0.1c-2-1.1-3.9-1.9-5.6-3c-3.7-2.3-7.8-2-11.7-1.3
					c-4.4,0.8-7.2,4.6-7.2,9.4c0,5.7,0,11.4,0,17.1c0,0.4,0,0.8,0.1,1.3h6.9v1.7c0,7.3,0,27.5,0,45.3h4.6c0-17.9,0-38.4,0-45.7v-1.2
					h39.5v14.1h4.8v-14.1h39.5v7c0.2,0,0.4,0,0.6,0c1.4,0,2.8,0.1,4.1,0.3v-7.3h6.9c0-0.3,0.1-0.4,0.1-0.6
					C215.6,154.9,215.6,148.6,215.5,142.4z M173.1,126.9c-0.2-0.4-0.3-0.9-0.2-1.3c1.6-3.9,3.4-7.6,6.2-10.8
					c2.1-2.4,4.4-4.3,7.7-4.5c6.3-0.5,11.9,4.6,12.3,11c0.3,6.4-4.7,12.1-11,12.2c-5.6,0.1-11.2,0-16.7,0c-0.1,0-0.2,0-0.4-0.1
					c0.7-0.8,1.4-1.5,1.9-2.3C173.9,129.8,173.8,128.3,173.1,126.9z M154.3,128.7c0-1.6,3.4-2.9,7.7-2.9s7.7,1.3,7.7,2.9
					c0,1.6-3.4,2.9-7.7,2.9S154.3,130.3,154.3,128.7z M210.9,156.9h-46.5v-18.6h1.3c13.3,0,26.6,0,39.8,0c3.5,0,5.4,1.8,5.4,5.4
					c0,4,0,8,0,12V156.9z"/>
			</g>
			<g>
				<circle class="st5" cx="235.4" cy="210.8" r="3.2"/>
			</g>
			<g>
				<circle class="st5" cx="223.4" cy="210.8" r="3.2"/>
			</g>
			<g>
				<circle class="st5" cx="229.4" cy="222.3" r="3.2"/>
			</g>
			<g>
				<g>
					<circle class="st5" cx="217.7" cy="222.3" r="3.2"/>
				</g>
				<g>
					<circle class="st5" cx="241.1" cy="222.3" r="3.2"/>
				</g>
			</g>
			<g>
				<g>
					<path class="st4" d="M233.3,175.9c-0.1,0-0.2,0-0.3,0l-2.2-0.1l-0.1-2.2c-0.2-9,2.2-15.9,7.3-20.5c7.8-7.1,18.9-5.9,19.4-5.9
						l2.1,0.2l0,2.1c0.1,8-2.3,14.4-7,19C245.4,175.6,235.2,175.9,233.3,175.9z M254.7,151.8c-3.1,0.1-9.1,0.7-13.5,4.8
						c-3.5,3.2-5.4,8.1-5.7,14.5c3.3-0.3,9.3-1.6,13.7-5.9C252.5,161.9,254.4,157.4,254.7,151.8z"/>
				</g>
			</g>
		</g>
		<g>
			<g>
				<g>
					<g>
						<path class="st4" d="M102.6,271.9h-25v-88.6h25V271.9z M82.3,267.1h15.6v-79.2H82.3V267.1z"/>
					</g>
				</g>
				<g>
					<g>
						<path class="st4" d="M82.2,255.6H63.3v-56.1h18.9V255.6z M68,250.9h9.5v-46.7H68V250.9z"/>
					</g>
				</g>
				<g>
					<g>
						<path class="st4" d="M68,238.1H49.1V217H68V238.1z M53.8,233.4h9.5v-11.6h-9.5V233.4z"/>
					</g>
				</g>
			</g>
			<g>
				<g>
					<g>
						<path class="st4" d="M184.6,271.9h-25v-88.6h25V271.9z M164.3,267.1h15.6v-79.2h-15.6V267.1z"/>
					</g>
				</g>
				<g>
					<g>
						<path class="st4" d="M198.9,255.6H180v-56.1h18.9V255.6z M184.8,250.9h9.5v-46.7h-9.5V250.9z"/>
					</g>
				</g>
				<g>
					<g>
						<path class="st4" d="M213.1,238.1h-18.9V217h18.9V238.1z M198.9,233.4h9.5v-11.6h-9.5V233.4z"/>
					</g>
				</g>
			</g>
			<g>
				<g>
					<path class="st4" d="M164.4,239.1H97.9V216h66.6V239.1z M102.6,234.4h57.2v-13.8h-57.2V234.4z"/>
				</g>
			</g>
		</g>
		<g>
			<g>
				<rect x="59.3" y="268.9" class="st4" width="210.7" height="4.7"/>
			</g>
		</g>
		<path class="st5" d="M254.9,176.5c-12.6,0-21.5,7.7-25.2,11.7c-3.7-4-12.5-11.7-25.2-11.7c-6.2,0-10.8,1.6-14.5,4.1v6
			c3.2-3.1,7.8-5.4,14.5-5.4c13.8,0,22.4,10.8,23.3,12l1.9,2.5l1.9-2.5c0.9-1.2,9.5-12,23.3-12c16.3,0,20.6,13,20.6,20.8v18.7
			c0,28.3-22.9,43.9-30.4,43.9c-7.6,0-12.9-4.4-13.4-5l-1.9-2.5l-2,2.5c-0.5,0.6-5.8,5-13.4,5c-2.2,0-5.6-1.3-9.3-3.8h-7.7
			c6.2,5.5,12.7,8.5,17,8.5c6.7,0,12.4-2.9,15.3-5.1c3,2.3,8.6,5.1,15.3,5.1c10.7,0,35.1-18.4,35.1-48.6V202
			C280.2,193.2,274.9,176.5,254.9,176.5z"/>
	</g>
</g>
<g id="_x32_" class="st0">
	<path class="st6" d="M10.8,102v70.2c0,11,5.9,21.2,15.5,26.8L87,234.1c9.6,5.5,21.3,5.5,30.9,0l60.8-35.1
		c9.6-5.5,15.5-15.7,15.5-26.8V102c0-11-5.9-21.2-15.5-26.8l-60.8-35.1c-9.6-5.5-21.3-5.5-30.9,0L26.2,75.3
		C16.7,80.8,10.8,91,10.8,102z"/>
	<g class="st2">
		<g>
			<rect x="89.9" y="174.2" class="st5" width="30.1" height="4.4"/>
		</g>
		<g>
			<rect x="89.9" y="144" class="st5" width="156" height="4.4"/>
		</g>
		<g>
			<path class="st4" d="M119.4,230.1H96.3c-2.9,0-5.2-2.3-5.2-5.2v-88c0-2.9,2.3-5.2,5.2-5.2h143c2.9,0,5.2,2.3,5.2,5.2v30.8h4.4
				v-30.8c0-5.3-4.3-9.6-9.6-9.6h-143c-5.3,0-9.6,4.3-9.6,9.6v88c0,5.3,4.3,9.6,9.6,9.6h23.1V230.1z"/>
		</g>
		<g>
			<path class="st5" d="M182.5,156.6h-5.8c-1.2,0-2.2-1-2.2-2.2c0-1.2,1-2.2,2.2-2.2h5.8c1.2,0,2.2,1,2.2,2.2
				C184.7,155.6,183.7,156.6,182.5,156.6z"/>
		</g>
		<g>
			<path class="st5" d="M110.8,193.6H98.2c-1.2,0-2.2-1-2.2-2.2s1-2.2,2.2-2.2h12.6c1.2,0,2.2,1,2.2,2.2S112,193.6,110.8,193.6z"/>
		</g>
		<g>
			<path class="st5" d="M230.4,156.6h-40.2c-1.2,0-2.2-1-2.2-2.2c0-1.2,1-2.2,2.2-2.2h40.2c1.2,0,2.2,1,2.2,2.2
				C232.6,155.6,231.6,156.6,230.4,156.6z"/>
		</g>
		<g>
			<g>
				<path class="st4" d="M270.5,273.4h-143c-5.3,0-9.6-4.3-9.6-9.6v-88c0-5.3,4.3-9.6,9.6-9.6h143c5.3,0,9.6,4.3,9.6,9.6v88
					C280.1,269.1,275.8,273.4,270.5,273.4z M127.6,170.7c-2.9,0-5.2,2.3-5.2,5.2v88c0,2.9,2.3,5.2,5.2,5.2h143
					c2.9,0,5.2-2.3,5.2-5.2v-88c0-2.9-2.3-5.2-5.2-5.2H127.6z"/>
			</g>
			<g>
				<g>
					<g>
						<path class="st5" d="M228.1,253.8c0.2,0.2,0.3,0.5,0.5,0.7c-2.4,1.5-5.3,2.3-8.2,2.3c-8.7,0-15.7-7-15.7-15.7
							s7-15.7,15.7-15.7c2.9,0,5.7,0.8,8.1,2.3c1.2-1,2.5-1.9,4-2.5c-3.5-2.7-7.7-4.2-12.2-4.2c-11.1,0-20.1,9-20.1,20.1
							c0,11.1,9,20.1,20.1,20.1c4.4,0,8.6-1.5,12.1-4.1C230.8,256.2,229.3,255.1,228.1,253.8z"/>
					</g>
					<g>
						<path class="st4" d="M243.6,261.2c-11.1,0-20.1-9-20.1-20.1c0-11.1,9-20.1,20.1-20.1s20.1,9,20.1,20.1
							C263.7,252.2,254.7,261.2,243.6,261.2z M243.6,225.4c-8.7,0-15.7,7-15.7,15.7s7,15.7,15.7,15.7s15.7-7,15.7-15.7
							S252.3,225.4,243.6,225.4z"/>
					</g>
				</g>
				<g>
					<g>
						<path class="st5" d="M190.3,253.6h-5.8c-1.2,0-2.2-1-2.2-2.2c0-1.2,1-2.2,2.2-2.2h5.8c1.2,0,2.2,1,2.2,2.2
							C192.5,252.7,191.6,253.6,190.3,253.6z"/>
					</g>
					<g>
						<path class="st5" d="M176.8,253.6h-40.2c-1.2,0-2.2-1-2.2-2.2c0-1.2,1-2.2,2.2-2.2h40.2c1.2,0,2.2,1,2.2,2.2
							C179,252.7,178,253.6,176.8,253.6z"/>
					</g>
				</g>
			</g>
		</g>
	</g>
</g>
<g id="_x33_" class="st0">
	<path class="st1" d="M10.8,102v70.2c0,11,5.9,21.2,15.5,26.8L87,234.1c9.6,5.5,21.3,5.5,30.9,0l60.8-35.1
		c9.6-5.5,15.5-15.7,15.5-26.8V102c0-11-5.9-21.2-15.5-26.8l-60.8-35.1c-9.6-5.5-21.3-5.5-30.9,0L26.2,75.3
		C16.7,80.8,10.8,91,10.8,102z"/>
	<g class="st2">
		<g>
			<g>
				<path class="st4" d="M116.8,114v94.6c1.3-0.8,2.8-1.5,4.4-1.9V114c0-4.5-3.6-8.1-8.1-8.1H96.4V105h24.3c3.7,0,6.8,3,6.8,6.8
					v94.1c0.1,0,0.1,0,0.2,0c1.5,0,2.9,0.2,4.2,0.5v-94.6c0-6.2-5-11.2-11.2-11.2H92v9.6h21.1C115.1,110.2,116.8,111.9,116.8,114z"
					/>
			</g>
			<g>
				<path class="st4" d="M167.3,254c-0.2,1.5-0.5,3-1,4.4h53.4c-0.4-1.4-0.7-2.9-0.7-4.4H167.3z"/>
				<path class="st4" d="M126.2,204.6c-15.6,0-26.9,11.3-26.9,26.9s11.3,26.9,26.9,26.9h5.9c-0.5-1.4-0.8-2.9-0.9-4.4h-5
					c-14.8,0-22.5-11.3-22.5-22.5c0-13.2,9.2-22.5,22.5-22.5h123.2l-0.7,2.2c-0.7,2.1-2.6,3.5-4.8,3.5H127.4
					c-9.4,0-17.2,7.2-17.7,16.3c-0.3,4.7,1.3,9,4.3,12.2c3.1,3.3,7.6,5.1,12.6,5.1h5c0.3-1.5,0.9-3,1.6-4.4h-6.7
					c-3.8,0-7.1-1.3-9.4-3.8c-2.2-2.3-3.3-5.4-3.1-8.9c0.4-6.8,6.2-12.1,13.3-12.1H244c4.1,0,7.7-2.6,9-6.6l2.5-7.9H126.2z"/>
				<path class="st4" d="M167,248.3h52.5c0.4-1.6,1.1-3,1.9-4.4h-55.9C166.2,245.3,166.7,246.7,167,248.3z"/>
			</g>
			<g>
				<g>
					<path class="st4" d="M149.4,272.7c-10.9,0-19.8-8.9-19.8-19.8c0-10.9,8.9-19.8,19.8-19.8s19.8,8.9,19.8,19.8
						C169.2,263.8,160.3,272.7,149.4,272.7z M149.4,237.4c-8.5,0-15.4,6.9-15.4,15.4c0,8.5,6.9,15.4,15.4,15.4s15.4-6.9,15.4-15.4
						C164.8,244.3,157.9,237.4,149.4,237.4z"/>
				</g>
				<g>
					<circle class="st5" cx="149.4" cy="252.8" r="5.3"/>
				</g>
			</g>
			<g>
				<g>
					<path class="st4" d="M236.1,272.7c-10.9,0-19.8-8.9-19.8-19.8c0-10.9,8.9-19.8,19.8-19.8c10.9,0,19.8,8.9,19.8,19.8
						C255.9,263.8,247,272.7,236.1,272.7z M236.1,237.4c-8.5,0-15.4,6.9-15.4,15.4c0,8.5,6.9,15.4,15.4,15.4
						c8.5,0,15.4-6.9,15.4-15.4C251.5,244.3,244.6,237.4,236.1,237.4z"/>
				</g>
				<g>
					<circle class="st5" cx="236.1" cy="252.8" r="5.3"/>
				</g>
			</g>
			<g>
				<path class="st4" d="M254.1,209H127.5v-70.7h138.3c1.8,0,3.5,0.8,4.6,2.3c1.1,1.5,1.5,3.3,1,5.1L254.1,209z M131.9,204.6h118.9
					l16.4-60.1c0.2-0.6-0.1-1-0.2-1.3c-0.2-0.2-0.5-0.6-1.1-0.6H131.9V204.6z"/>
			</g>
			<g>
				<path class="st5" d="M248.3,156.4c-4.1,0-6.3,1.9-8,3.5c-1.5,1.4-2.6,2.4-5,2.4c-2.4,0-3.5-1-5-2.4c-1.7-1.6-3.9-3.5-8-3.5
					c0,0,0,0-0.1,0c0,0,0,0-0.1,0c-4.1,0-6.3,1.9-8,3.5c-1.5,1.4-2.6,2.4-5,2.4c-2.4,0-3.5-1-5-2.4c-1.6-1.4-3.5-3.1-6.9-3.4
					c-0.1,0-0.2-0.1-0.3-0.1c-0.1,0-0.2,0-0.4,0c-0.1,0-0.2,0-0.4,0c-0.1,0-0.2,0-0.3,0.1c-3.4,0.3-5.4,2-6.9,3.4
					c-1.5,1.4-2.6,2.4-5,2.4c-2.4,0-3.5-1-5-2.4c-1.7-1.6-3.9-3.5-8-3.5c0,0,0,0-0.1,0c0,0,0,0-0.1,0c-4.1,0-6.3,1.9-8,3.5
					c-1.5,1.4-2.6,2.4-5,2.4c-2.4,0-3.5-1-5-2.4c-1.7-1.6-3.9-3.5-8-3.5c-1.2,0-2.2,1-2.2,2.2s1,2.2,2.2,2.2c2.4,0,3.5,1,5,2.4
					c1.7,1.6,3.9,3.5,8,3.5c4.1,0,6.3-1.9,8-3.5c1.5-1.4,2.6-2.4,5-2.4c0,0,0,0,0.1,0c0,0,0,0,0.1,0c2.4,0,3.5,1,5,2.4
					c1.7,1.6,3.9,3.5,8,3.5c4.1,0,6.3-1.9,8-3.5c1.4-1.3,2.5-2.2,4.7-2.3c2.1,0.1,3.2,1,4.7,2.3c1.7,1.6,3.9,3.5,8,3.5
					c4.1,0,6.3-1.9,8-3.5c1.5-1.4,2.6-2.4,5-2.4c0,0,0,0,0.1,0c0,0,0,0,0.1,0c2.4,0,3.5,1,5,2.4c1.7,1.6,3.9,3.5,8,3.5
					c4.1,0,6.3-1.9,8-3.5c1.5-1.4,2.6-2.4,5-2.4c1.2,0,2.2-1,2.2-2.2S249.5,156.4,248.3,156.4z"/>
			</g>
			<g>
				<path class="st5" d="M248.3,177c-4.1,0-6.3,1.9-8,3.5c-1.5,1.4-2.6,2.4-5,2.4c-2.4,0-3.5-1-5-2.4c-1.7-1.6-3.9-3.5-8-3.5
					c0,0,0,0-0.1,0c0,0,0,0-0.1,0c-4.1,0-6.3,1.9-8,3.5c-1.5,1.4-2.6,2.4-5,2.4c-2.4,0-3.5-1-5-2.4c-1.6-1.4-3.5-3.1-6.9-3.4
					c-0.1,0-0.2-0.1-0.3-0.1c-0.1,0-0.2,0-0.4,0c-0.1,0-0.2,0-0.4,0c-0.1,0-0.2,0-0.3,0.1c-3.4,0.3-5.4,2-6.9,3.4
					c-1.5,1.4-2.6,2.4-5,2.4c-2.4,0-3.5-1-5-2.4c-1.7-1.6-3.9-3.5-8-3.5c0,0,0,0-0.1,0c0,0,0,0-0.1,0c-4.1,0-6.3,1.9-8,3.5
					c-1.5,1.4-2.6,2.4-5,2.4c-2.4,0-3.5-1-5-2.4c-1.7-1.6-3.9-3.5-8-3.5c-1.2,0-2.2,1-2.2,2.2s1,2.2,2.2,2.2c2.4,0,3.5,1,5,2.4
					c1.7,1.6,3.9,3.5,8,3.5c4.1,0,6.3-1.9,8-3.5c1.5-1.4,2.6-2.4,5-2.4c0,0,0,0,0.1,0c0,0,0,0,0.1,0c2.4,0,3.5,1,5,2.4
					c1.7,1.6,3.9,3.5,8,3.5c4.1,0,6.3-1.9,8-3.5c1.4-1.3,2.5-2.2,4.7-2.3c2.1,0.1,3.2,1,4.7,2.3c1.7,1.6,3.9,3.5,8,3.5
					c4.1,0,6.3-1.9,8-3.5c1.5-1.4,2.6-2.4,5-2.4c0,0,0,0,0.1,0c0,0,0,0,0.1,0c2.4,0,3.5,1,5,2.4c1.7,1.6,3.9,3.5,8,3.5
					c4.1,0,6.3-1.9,8-3.5c1.5-1.4,2.6-2.4,5-2.4c1.2,0,2.2-1,2.2-2.2S249.5,177,248.3,177z"/>
			</g>
		</g>
		<g>
			<line class="st3" x1="82.6" y1="271.1" x2="282.1" y2="271.1"/>
			<rect x="82.6" y="268.9" class="st4" width="199.5" height="4.4"/>
		</g>
	</g>
</g>
<g id="_x34_" class="st0">
	<path class="st6" d="M10.8,102v70.2c0,11,5.9,21.2,15.5,26.8L87,234.1c9.6,5.5,21.3,5.5,30.9,0l60.8-35.1
		c9.6-5.5,15.5-15.7,15.5-26.8V102c0-11-5.9-21.2-15.5-26.8l-60.8-35.1c-9.6-5.5-21.3-5.5-30.9,0L26.2,75.3
		C16.7,80.8,10.8,91,10.8,102z"/>
	<g class="st2">
		<g>
			<g>
				<g>
					<path class="st5" d="M199.5,166.8h-7.6c-1.5,0-2.7,1.2-2.7,2.7c0,1.5,1.2,2.7,2.7,2.7h7.6c1.5,0,2.7-1.2,2.7-2.7
						C202.1,168,200.9,166.8,199.5,166.8z"/>
				</g>
				<g>
					<path class="st4" d="M200.4,201.2c0.5-1.8,0-3.7-1.1-5.1c-1.1-1.5-2.9-2.3-4.7-2.3h-66.9c-1.9,0-3.6,0.8-4.7,2.3
						c-1.1,1.5-1.5,3.3-1.1,5.1l1.9,7.6c0.7,2.7,3.1,4.5,5.8,4.5h63.1c2.8,0,5.2-1.9,5.8-4.5L200.4,201.2z M196.1,200.2l-1.9,7.5
						c-0.2,0.7-0.8,1.2-1.5,1.2h-63.1c-0.7,0-1.4-0.5-1.5-1.2l-1.9-7.6c-0.1-0.4,0-0.9,0.3-1.3c0.3-0.4,0.8-0.6,1.3-0.6h66.9
						c0.5,0,0.9,0.2,1.2,0.6C196.2,199.2,196.3,199.7,196.1,200.2z"/>
				</g>
				<g>
					<path class="st4" d="M248.7,151.6h-3.8c-5.1,0-9.3,3.6-10.1,8.6l-0.5,3.4l-10.6-29.3c-2-5.5-7.3-9.2-13.2-9.2h-98.6
						c-5.9,0-11.2,3.7-13.2,9.2L88,163.7l-0.5-3.4c-0.8-5-5.1-8.6-10.1-8.6h-3.8c-5.6,0-10.2,4.6-10.2,10.2s4.6,10.2,10.2,10.2h3.8
						c1.6,0,3.1-0.3,4.5-1l3.6-1.8l-10.6,13.3c-2.5,3.1-3.9,7.1-3.9,11.1v70.5c0,3.6,2.9,6.4,6.4,6.4H103c3.6,0,6.5-2.9,6.5-6.4
						v-16.3h103.4v16.3c0,3.6,2.9,6.4,6.5,6.4h25.7c3.6,0,6.4-2.9,6.4-6.4v-70.5c0-4-1.4-8-3.9-11.1l-10.6-13.3l3.6,1.8
						c1.4,0.7,2.9,1,4.5,1h3.8c5.6,0,10.2-4.6,10.2-10.2S254.4,151.6,248.7,151.6z M77.4,166.8h-3.8c-2.7,0-4.9-2.2-4.9-4.9
						s2.2-4.9,4.9-4.9h3.8c2.7,0,4.9,2.2,4.9,4.9S80.1,166.8,77.4,166.8z M104.2,264.2c0,0.6-0.5,1.1-1.1,1.1H77.4
						c-0.6,0-1.1-0.5-1.1-1.1V245l1.4,0.8c2.2,1.4,4.7,2.1,7.3,2.1h19.2V264.2z M196.8,242.6h-71.3v-8.7c0-0.6,0.5-1.1,1.1-1.1h69.1
						c0.6,0,1.1,0.5,1.1,1.1V242.6z M244.9,265.3h-25.7c-0.6,0-1.1-0.5-1.1-1.1v-16.3h19.2c2.6,0,5.1-0.7,7.3-2.1l1.4-0.8l0,19.2
						C246.1,264.8,245.6,265.3,244.9,265.3z M243.3,185.9c1.8,2.2,2.7,5,2.7,7.8v40.2c0,4.8-3.9,8.7-8.7,8.7h-35.2v-8.7
						c0-3.6-2.9-6.4-6.4-6.4h-69.1c-3.6,0-6.4,2.9-6.4,6.4v8.7H84.9c-4.8,0-8.7-3.9-8.7-8.7v-40.2c0-2.8,1-5.6,2.7-7.8l11-13.8h86.7
						c1.5,0,2.7-1.2,2.7-2.7s-1.2-2.7-2.7-2.7H92.5l0.4-1.2l10.7-29.4c1.2-3.4,4.5-5.7,8.2-5.7h98.6c3.6,0,6.9,2.3,8.2,5.7
						l11.1,30.6h-15.1c-1.5,0-2.7,1.2-2.7,2.7s1.2,2.7,2.7,2.7h17.7l0.3,0.3L243.3,185.9z M248.7,166.8h-3.8c-2.7,0-4.9-2.2-4.9-4.9
						s2.2-4.9,4.9-4.9h3.8c2.7,0,4.9,2.2,4.9,4.9S251.4,166.8,248.7,166.8z"/>
				</g>
				<g>
					<path class="st5" d="M100.1,220.3c-3.3,0-6,2.7-6,6c0,3.3,2.7,6,6,6c3.3,0,6-2.7,6-6C106.1,223,103.4,220.3,100.1,220.3z"/>
				</g>
				<g>
					<path class="st5" d="M222.2,220.3c-3.3,0-6,2.7-6,6c0,3.3,2.7,6,6,6c3.3,0,6-2.7,6-6C228.2,223,225.5,220.3,222.2,220.3z"/>
				</g>
				<g>
					<path class="st5" d="M98.2,190c-6.4,0-11.7,5.2-11.7,11.7c0,6.4,5.2,11.7,11.7,11.7s11.7-5.2,11.7-11.7
						C109.9,195.2,104.7,190,98.2,190z M98.2,208.9c-4,0-7.3-3.3-7.3-7.3c0-4,3.3-7.3,7.3-7.3s7.3,3.3,7.3,7.3
						C105.5,205.7,102.2,208.9,98.2,208.9z"/>
				</g>
				<g>
					<path class="st5" d="M224.1,190c-6.4,0-11.7,5.2-11.7,11.7c0,6.4,5.2,11.7,11.7,11.7s11.7-5.2,11.7-11.7
						C235.8,195.2,230.6,190,224.1,190z M224.1,208.9c-4,0-7.3-3.3-7.3-7.3c0-4,3.3-7.3,7.3-7.3s7.3,3.3,7.3,7.3
						C231.4,205.7,228.1,208.9,224.1,208.9z"/>
				</g>
			</g>
			<g>
				<g>
					<path class="st5" d="M220.4,162.9c-1,0-1.8-0.6-2.2-1.5l-8.4-23.5c-0.4-1.2,0.2-2.5,1.4-3c1.2-0.4,2.5,0.2,3,1.4l8.4,23.5
						c0.4,1.2-0.2,2.5-1.4,3C220.9,162.9,220.7,162.9,220.4,162.9z"/>
				</g>
			</g>
		</g>
		<g>
			<line class="st3" x1="39.7" y1="270.6" x2="282.6" y2="270.6"/>
			<rect x="39.7" y="268" class="st4" width="242.9" height="5.4"/>
		</g>
	</g>
</g>
<g id="_x35_" class="st0">
	<path class="st1" d="M10.8,102v70.2c0,11,5.9,21.2,15.5,26.8L87,234.1c9.6,5.5,21.3,5.5,30.9,0l60.8-35.1
		c9.6-5.5,15.5-15.7,15.5-26.8V102c0-11-5.9-21.2-15.5-26.8l-60.8-35.1c-9.6-5.5-21.3-5.5-30.9,0L26.2,75.3
		C16.7,80.8,10.8,91,10.8,102z"/>
	<g class="st2">
		<g>
			<rect x="193" y="113.8" class="st4" width="15.2" height="4.5"/>
			<rect x="193" y="126" class="st4" width="15.2" height="4.5"/>
		</g>
		<g>
			<rect x="212.4" y="148.9" class="st5" width="18" height="3"/>
		</g>
		<g>
			<rect x="212.4" y="143.5" class="st5" width="18" height="3"/>
		</g>
		<g>
			<g>
				<path class="st4" d="M222.1,140.4c-10,0-18-8.1-18-18s8.1-18,18-18s18,8.1,18,18S232.1,140.4,222.1,140.4z M222.1,108.8
					c-7.5,0-13.5,6.1-13.5,13.5s6.1,13.5,13.5,13.5s13.5-6.1,13.5-13.5S229.6,108.8,222.1,108.8z"/>
			</g>
			<g>
				<circle class="st5" cx="222.1" cy="122.3" r="5.2"/>
			</g>
		</g>
		<g>
			<polygon class="st4" points="229.1,181.3 225.9,178.1 237.4,166.6 229.2,158.1 229.2,133.7 233.7,133.7 233.7,156.3 243.7,166.6 
							"/>
		</g>
		<g>
			<polygon class="st4" points="214,181.3 199.4,166.6 209.4,156.3 209.4,133.7 213.9,133.7 213.9,158.1 205.7,166.6 217.2,178.1 
							"/>
		</g>
		<g>
			<polygon class="st5" points="249.6,269.7 245.1,269.7 245.1,211.3 150.9,211.3 150.9,206.8 249.6,206.8 			"/>
		</g>
		<g>
			<rect x="54.2" y="269.1" class="st4" width="201.3" height="4.5"/>
		</g>
		<g>
			<rect x="150.9" y="217.2" class="st5" width="24.2" height="4.5"/>
		</g>
		<g>
			<rect x="150.9" y="226.8" class="st5" width="13.3" height="4.5"/>
		</g>
		<g>
			<path class="st5" d="M236.6,239.5H182v-22.3h54.6V239.5z M186.5,235H232v-13.2h-45.6V235z"/>
		</g>
		<g>
			<g>
				<polygon class="st5" points="235.8,262.3 219.5,262.3 219.5,251 211.5,251 211.5,262.3 193.5,262.3 193.5,251 181.5,251 
					181.5,246.5 198,246.5 198,257.8 207,257.8 207,246.5 224,246.5 224,257.8 235.8,257.8 				"/>
			</g>
		</g>
		<g>
			<path class="st4" d="M141.4,239.6v-31.3c-1,2.4-2.6,4.1-4.5,5.2v26.1H141.4z"/>
			<path class="st4" d="M82.6,239.6l15.6-25.3c-1.5-1-2.4-2.4-2.4-4.6l-18.5,29.9H82.6z"/>
		</g>
		<g>
			<path class="st4" d="M82.6,141.4c-0.2,0.1-0.4,0.2-0.6,0.2c-1.6,0.6-3,0.4-4.1-0.3l16,61.9l2.9,0.4c-0.4-1.6-0.2-3.4,0.7-4.8
				L82.6,141.4z"/>
			<path class="st4" d="M106.4,131.2c-0.3,0.6-0.6,1.1-1,1.4c0,0-0.1,0.1-0.1,0.1c-0.5,0.8-1.2,1.5-2.2,1.9l28.4,54
				c0.9,0.2,1.8,0.7,2.6,1.6c1,1.1,1.8,2.3,2.4,3.5l1.9-1.6L106.4,131.2z"/>
		</g>
		<g>
			<path class="st4" d="M118.3,230.7c-13.7,0-24.9-11.2-24.9-24.9c0-13.7,11.2-24.9,24.9-24.9s24.9,11.2,24.9,24.9
				C143.2,219.5,132,230.7,118.3,230.7z M118.3,185.5c-11.2,0-20.4,9.1-20.4,20.4c0,11.2,9.1,20.4,20.4,20.4s20.4-9.1,20.4-20.4
				C138.7,194.6,129.5,185.5,118.3,185.5z"/>
		</g>
		<g>
			<circle class="st5" cx="118.3" cy="205.8" r="6.5"/>
		</g>
		<g>
			<g>
				<path class="st4" d="M102.2,106.4c0.4,0.7,0.6,1.4,0.7,2.3c0.1,0.7,0.1,1.5,0.2,2.2h87.2v22.4h-87.1c0,0.2,0,0.4-0.1,0.6
					c-0.2,1.7-1.1,3-2.2,3.9h93.9v-31.5H102.2z"/>
			</g>
			<g>
				<path class="st4" d="M88.3,144.3c-12.2,0-22-9.9-22-22s9.9-22,22-22s22,9.9,22,22S100.5,144.3,88.3,144.3z M88.3,104.8
					c-9.7,0-17.5,7.9-17.5,17.5s7.9,17.5,17.5,17.5s17.5-7.9,17.5-17.5S98,104.8,88.3,104.8z"/>
			</g>
			<g>
				<circle class="st5" cx="88.3" cy="122.3" r="6.2"/>
			</g>
		</g>
		<g>
			<path class="st4" d="M166.5,273.6H68.1v-36.1h98.3V273.6z M72.6,269.1H162V242H72.6V269.1z"/>
		</g>
		<g>
			<rect x="230.2" y="246.5" class="st5" width="5.6" height="5.6"/>
		</g>
		<g>
			<rect x="181.5" y="256.7" class="st5" width="5.6" height="5.6"/>
		</g>
	</g>
</g>
<g id="_x36_" class="st0">
	<g class="st7">
		<path class="st8" d="M10.8,102v70.2c0,11,5.9,21.2,15.5,26.8L87,234.1c9.6,5.5,21.3,5.5,30.9,0l60.8-35.1
			c9.6-5.5,15.5-15.7,15.5-26.8V102c0-11-5.9-21.2-15.5-26.8l-60.8-35.1c-9.6-5.5-21.3-5.5-30.9,0L26.2,75.3
			C16.7,80.8,10.8,91,10.8,102z"/>
	</g>
	<g class="st2">
		<g>
			<g>
				<path class="st9" d="M177.7,105.6c28.9,0,58.7,5.8,64.3,17l30.8-12.1l-96.3-48l-96.8,48l33.3,12.7h0
					C117.7,111.7,148.2,105.6,177.7,105.6z"/>
			</g>
			<g>
				<circle class="st9" cx="92.2" cy="179.5" r="8.6"/>
			</g>
			<g>
				<path class="st5" d="M238.1,167.6L238.1,167.6c-0.2-4-5.4-8.2-14.4-11.6v0.1C232.7,159.4,237.9,163.6,238.1,167.6z"/>
			</g>
			<g>
				<path class="st5" d="M124.7,153.7c-0.8,0.4-1.6,0.8-2.3,1.3C123.1,154.6,123.9,154.1,124.7,153.7z"/>
			</g>
			<g>
				<path class="st5" d="M125.5,153.3c1-0.5,2.1-1,3.2-1.4v0C127.6,152.3,126.6,152.8,125.5,153.3z"/>
			</g>
			<g>
				<path class="st5" d="M125.5,153.3c-0.3,0.1-0.6,0.3-0.9,0.4C125,153.6,125.2,153.4,125.5,153.3z"/>
			</g>
			<g>
				<path class="st5" d="M121.6,155.5c0.3-0.2,0.5-0.3,0.8-0.5C122.1,155.2,121.8,155.3,121.6,155.5z"/>
			</g>
			<g>
				<path class="st5" d="M223.8,150.8c1.1,0.4,2.2,0.8,3.2,1.2C226,151.6,224.9,151.2,223.8,150.8L223.8,150.8z"/>
			</g>
			<g>
				<path class="st5" d="M278.5,108L177.9,57.9c-0.8-0.4-1.9-0.4-2.7,0L74.1,108c-1.1,0.5-1.8,1.7-1.7,2.9c0.1,1.2,0.8,2.3,2,2.7
					l15.4,5.9v46.8c-6.2,1.1-11,6.6-11,13.2c0,7.4,6,13.4,13.4,13.4s13.4-6,13.4-13.4c0-6.6-4.8-12-11-13.2v-44.9l17.1,6.6
					c0.2,0.1,0.4,0.1,0.6,0.1v39.8c0,5.7,5.6,11.5,16.4,16v-5.3c-7.3-3.2-11.5-7.1-11.5-10.7s4.2-7.5,11.5-10.7v-5.3
					c-1.1,0.5-2.2,0.9-3.2,1.4c-0.3,0.1-0.6,0.3-0.9,0.4c-0.8,0.4-1.6,0.8-2.3,1.3c-0.3,0.2-0.6,0.3-0.8,0.5c-0.8,0.5-1.5,1-2.2,1.5
					c-0.5,0.4-1,0.8-1.4,1.1c-0.1,0.1-0.3,0.2-0.4,0.4c-0.1,0.1-0.2,0.2-0.3,0.3v-32l0.1-0.8c0.9-7.4,25.9-15.5,60.4-15.5
					c34.5,0,59.5,8.2,60.4,15.5l0,32.5c-2.8-2.5-6.6-4.6-11.1-6.5c-1-0.4-2.1-0.8-3.2-1.2v5.2c8.9,3.4,14.2,7.6,14.4,11.6
					c0,0.1,0,0.2,0,0.3c0,4.1-5.3,8.4-14.4,11.9v5.2c12.6-4.6,19.2-10.9,19.2-17.1c0-0.2,0-0.3-0.1-0.5l0.1-40l35.2-13.8
					c1.1-0.4,1.9-1.5,2-2.7C280.2,109.7,279.5,108.5,278.5,108z M100.8,179.5c0,4.7-3.9,8.6-8.6,8.6s-8.6-3.9-8.6-8.6
					c0-4.7,3.9-8.6,8.6-8.6S100.8,174.7,100.8,179.5z M242,122.6c-5.5-11.2-35.4-17-64.3-17c-29.5,0-60,6.1-64.6,17.7h0l-33.3-12.7
					l96.8-48l96.3,48L242,122.6z"/>
			</g>
			<g>
				<path class="st3" d="M128.7,151.8L128.7,151.8c0.1,0,0.2-0.1,0.3-0.1C128.9,151.8,128.8,151.8,128.7,151.8z"/>
			</g>
			<g>
				<path class="st3" d="M129.6,151.5c-0.2,0.1-0.4,0.2-0.6,0.2C129.2,151.6,129.4,151.6,129.6,151.5z"/>
			</g>
		</g>
		<g>
			<g>
				<g>
					<g>
						<path class="st4" d="M208.4,136.4c2.1,0,3.8,1.7,3.8,3.8v124.6c0,2.1-1.7,3.8-3.8,3.8h-64.3c-2.1,0-3.8-1.7-3.8-3.8V140.2
							c0-2.1,1.7-3.8,3.8-3.8H208.4 M208.4,131.4h-64.3c-4.9,0-8.8,4-8.8,8.8v124.6c0,4.9,4,8.8,8.8,8.8h64.3c4.9,0,8.8-4,8.8-8.8
							V140.2C217.2,135.3,213.3,131.4,208.4,131.4L208.4,131.4z"/>
					</g>
				</g>
				<g>
					<line class="st3" x1="140.3" y1="152.7" x2="212.2" y2="152.7"/>
					<rect x="140.3" y="151.2" class="st4" width="72" height="3"/>
				</g>
				<g>
					<line class="st3" x1="140.3" y1="252.2" x2="212.2" y2="252.2"/>
					<rect x="140.3" y="250.7" class="st4" width="72" height="3"/>
				</g>
				<g>
					<path class="st4" d="M180.6,262h-10.5c-1.3,0-2.3-1-2.3-2.3l0,0c0-1.3,1-2.3,2.3-2.3h10.5c1.3,0,2.3,1,2.3,2.3l0,0
						C182.9,260.9,181.9,262,180.6,262z"/>
				</g>
			</g>
			<g>
				<g>
					<path class="st4" d="M189.9,145.8h-18.2c-0.3,0-0.5-0.2-0.5-0.5s0.2-0.5,0.5-0.5h18.2c0.3,0,0.5,0.2,0.5,0.5
						S190.2,145.8,189.9,145.8z"/>
				</g>
				<g>
					<path class="st4" d="M165.1,145.8h-2.5c-0.3,0-0.5-0.2-0.5-0.5s0.2-0.5,0.5-0.5h2.5c0.3,0,0.5,0.2,0.5,0.5
						S165.4,145.8,165.1,145.8z"/>
				</g>
			</g>
		</g>
	</g>
</g>
<g id="_x37_" class="st0">
	<g class="st7">
		<path class="st10" d="M10.8,102v70.2c0,11,5.9,21.2,15.5,26.8L87,234.1c9.6,5.5,21.3,5.5,30.9,0l60.8-35.1
			c9.6-5.5,15.5-15.7,15.5-26.8V102c0-11-5.9-21.2-15.5-26.8l-60.8-35.1c-9.6-5.5-21.3-5.5-30.9,0L26.2,75.3
			C16.7,80.8,10.8,91,10.8,102z"/>
	</g>
	<g class="st2">
		<g>
			<g>
				<g>
					<path class="st4" d="M219.3,121.2v19.1h5v-19.1c0-4.3-3.5-7.8-7.8-7.8H52.3c-4.3,0-7.8,3.5-7.8,7.8v116.3h5V121.2
						c0-1.6,1.3-2.8,2.8-2.8h164.2C218,118.4,219.3,119.6,219.3,121.2z"/>
				</g>
			</g>
			<g>
				<g>
					<path class="st4" d="M156,254.6H23.4c-1.4,0-2.6-1.2-2.6-2.6v-7.8c0-1.4,1.2-2.6,2.6-2.6H156v-5H23.4c-4.2,0-7.6,3.4-7.6,7.6
						v7.8c0,4.2,3.4,7.6,7.6,7.6H156V254.6z"/>
				</g>
			</g>
		</g>
		<g>
			<path class="st4" d="M157.9,227.6H65.8c-0.7,0-1.2-0.5-1.2-1.2v-91.7c0-0.4-0.3-0.8-0.8-0.8s-0.8,0.3-0.8,0.8v91.7
				c0,1.5,1.2,2.7,2.7,2.7h92.1V227.6z"/>
		</g>
		<g>
			<rect x="155.4" y="155.6" class="st4" width="71.1" height="2"/>
		</g>
		<g>
			<rect x="155.4" y="253.8" class="st4" width="71.1" height="2"/>
		</g>
		<g>
			<path class="st4" d="M196.1,264.6h-10.3c-1.3,0-2.3-1-2.3-2.3l0,0c0-1.3,1-2.3,2.3-2.3h10.3c1.3,0,2.3,1,2.3,2.3l0,0
				C198.4,263.5,197.4,264.6,196.1,264.6z"/>
		</g>
		<g>
			<g>
				<path class="st4" d="M204.4,150.8h-17.9c-0.8,0-1.5-0.7-1.5-1.5c0-0.8,0.7-1.5,1.5-1.5h17.9c0.8,0,1.5,0.7,1.5,1.5
					C205.9,150.1,205.3,150.8,204.4,150.8z"/>
			</g>
			<g>
				<path class="st4" d="M180,150.8h-2.5c-0.8,0-1.5-0.7-1.5-1.5c0-0.8,0.7-1.5,1.5-1.5h2.5c0.8,0,1.5,0.7,1.5,1.5
					C181.5,150.1,180.8,150.8,180,150.8z"/>
			</g>
		</g>
		<g>
			<path class="st4" d="M157.9,144.3c0-0.7,0.6-1.3,1.3-1.3h63.5c0.7,0,1.3,0.6,1.3,1.3v88.1h5v-88.1c0-3.5-2.8-6.3-6.3-6.3h-63.5
				c-3.5,0-6.3,2.8-6.3,6.3v62.6h5V144.3z"/>
			<path class="st4" d="M224,253.8v13.5c0,0.7-0.6,1.3-1.3,1.3h-63.5c-0.7,0-1.3-0.6-1.3-1.3v-39.7h-5v39.7c0,3.5,2.8,6.3,6.3,6.3
				h63.5c3.5,0,6.3-2.8,6.3-6.3v-13.5H224z"/>
		</g>
		<g>
			<path class="st5" d="M124.9,177.4c-9.6,0-17.4-7.8-17.4-17.4c0-9.6,7.8-17.4,17.4-17.4s17.4,7.8,17.4,17.4
				C142.3,169.6,134.5,177.4,124.9,177.4z M124.9,145.5c-8,0-14.4,6.5-14.4,14.4s6.5,14.4,14.4,14.4s14.4-6.5,14.4-14.4
				S132.8,145.5,124.9,145.5z"/>
		</g>
		<g>
			<circle class="st5" cx="124.9" cy="159.9" r="4.8"/>
		</g>
		<path class="st5" d="M288,138.5c-1.8-1.9-4.5-2.9-7.8-2.9v-5.4c0-0.9-0.7-1.6-1.6-1.6h-4.6c-0.9,0-1.6,0.7-1.6,1.6v14
			c0,0.9,0.7,1.6,1.6,1.6h4.6c0.9,0,1.6-0.7,1.6-1.6v-5.7c2.5,0,4.4,0.7,5.7,1.9c1.7,1.8,1.7,4.3,1.7,4.4v26.4
			c-1.9,2.2-11.8,12.7-24.8,12.7c-14.3,0-25-13.8-25.1-14c-0.2-0.3-0.5-0.5-0.9-0.6l0-24.7c0,0-0.1-2.5,1.7-4.3c1.2-1.3,3.1-2,5.7-2
			v5.7c0,0.9,0.7,1.6,1.6,1.6h4.6c0.9,0,1.6-0.7,1.6-1.6v-14c0-0.9-0.7-1.6-1.6-1.6h-4.6c-0.9,0-1.6,0.7-1.6,1.6v5.4
			c-3.4,0-6,1-7.8,2.9c-2.6,2.7-2.5,6.4-2.5,6.5v26.9l0,0.3c3.5,15.4,23.1,30.6,26.9,33.5v29.4c0,2.7-2.2,4.9-4.9,4.9h-44.3h-0.6h-2
			c-2.7,0-4.9-2.2-4.9-4.9v-3.5v-37.6v-3.5c0-4.4-3.6-7.9-7.9-7.9h-5c-4.4,0-7.9,3.6-7.9,7.9v5.8v5.9v8.4c0,2.7-2.2,4.9-4.9,4.9h-4
			h-20H93.1c-2.7,0-4.9-2.2-4.9-4.9v-5c0-2.7,2.2-4.9,4.9-4.9h7.6h5.2h12.5c4.4,0,7.9-3.6,7.9-7.9v-12.2c0-0.8-0.7-1.5-1.5-1.5
			s-1.5,0.7-1.5,1.5v12.2c0,2.7-2.2,4.9-4.9,4.9h-12.5h-5.2h-7.6c-4.4,0-7.9,3.6-7.9,7.9v5c0,4.4,3.6,7.9,7.9,7.9h60.8h20h4
			c4.4,0,7.9-3.6,7.9-7.9v-8.4v-5.9v-5.8c0-2.7,2.2-4.9,4.9-4.9h5c2.7,0,4.9,2.2,4.9,4.9v3.5v37.6v3.5c0,4.4,3.6,7.9,7.9,7.9h2h0.6
			h44.3c4.4,0,7.9-3.6,7.9-7.9v-29.4c3.8-2.8,23.3-18,26.8-33.4c0,0,0,0,0,0c0,0,0,0,0-0.1l0-0.2l0-27
			C290.5,144.9,290.6,141.3,288,138.5z M277.1,143h-1.8v-11.3h1.8V143z M247,131.7h1.8V143H247V131.7z M262.1,203.1
			c-3.9-2.9-19.5-15.5-24.4-28.3c4.2,4.4,13.3,12.3,25,12.3c9.7,0,17.7-5.2,22.5-9.3C279.2,189.5,265.6,200.4,262.1,203.1z"/>
	</g>
</g>
<g id="_x38_" class="st0">
	<path class="st6" d="M10.8,102v70.2c0,11,5.9,21.2,15.5,26.8L87,234.1c9.6,5.5,21.3,5.5,30.9,0l60.8-35.1
		c9.6-5.5,15.5-15.7,15.5-26.8V102c0-11-5.9-21.2-15.5-26.8l-60.8-35.1c-9.6-5.5-21.3-5.5-30.9,0L26.2,75.3
		C16.7,80.8,10.8,91,10.8,102z"/>
	<g class="st2">
		<rect x="102.3" y="105.6" class="st9" width="31" height="7.4"/>
		<g>
			<path class="st4" d="M152.4,273.4v-56.8c0-8.7,6.8-15.5,15.5-15.5s15.5,6.8,15.5,15.5v56.8h4.3v-56.8c0-11.1-8.7-19.9-19.9-19.9
				c-11.1,0-19.9,8.7-19.9,19.9v56.8H152.4z"/>
		</g>
		<polygon class="st4" points="91.2,170.6 91.2,170.6 91.2,170.6 		"/>
		<path class="st5" d="M135.8,193.2h-24.1c-1.1,0-1.8,0.7-1.8,1.8v22.3h-0.6c-1.1,0-1.8,0.7-1.8,1.8c0,1.1,0.7,1.8,1.8,1.8h28.9
			c1.1,0,1.8-0.7,1.8-1.8c0-1.1-0.7-1.8-1.8-1.8h-0.6V195C137.6,193.9,136.9,193.2,135.8,193.2z M134,217.3h-20.5v-10.9h8.5v0.6
			c0,1.1,0.7,1.8,1.8,1.8s1.8-0.7,1.8-1.8v-0.6h8.5V217.3z M134,202.9h-20.5v-6.1H134V202.9z"/>
		<path class="st5" d="M128.4,248.8l-0.7-0.1c0,0-1.1-4.5-2.3-6.4c-1.5-2.4-4.2-5-4.6-5.3c-2.9-2.1-6.4-3.2-10-3.2
			c-8.3,0-15.5,6.2-16.6,14.4l-0.1,0.6l-0.6,0.1c-8.2,1.1-14.4,8.3-14.4,16.6c0,0.8,0.1,1.9,0.2,2.7c0.2,1.7,0.7,3,0.8,4.1
			c0,0,0,0,0,0c0,0.1,0.1,0.2,0.1,0.4c0.1,0.3,0.2,0.6,0.3,1h58.5c0.9,0,1.5-0.4,2-1.3c0.9-2.5,1.4-4.7,1.4-6.7
			C142.5,257,136.6,250.1,128.4,248.8z M137.5,268.6l-0.2,0.5H84.1l-0.1-0.6c-0.2-1-0.4-2.1-0.4-3.1c0-6.9,5.6-12.6,12.6-12.6
			c1.3,0,2.2-0.8,2.2-2.2c0-6.8,5.6-12.5,12.4-12.6c6.9,0.1,12.4,5.7,12.4,12.6c0,1.3,0.8,2.2,2.2,2.2c6.9,0,12.6,5.6,12.6,12.6
			C137.9,266.3,137.9,267.6,137.5,268.6z"/>
		<path class="st5" d="M242.6,248.8l-0.7-0.1c0,0-1.1-4.5-2.3-6.4c-1.5-2.4-4.2-5-4.6-5.3c-2.9-2.1-6.4-3.2-10-3.2
			c-8.3,0-15.5,6.2-16.6,14.4l-0.1,0.6l-0.6,0.1c-8.2,1.1-14.4,8.3-14.4,16.6c0,0.8,0.1,1.9,0.2,2.7c0.2,1.7,0.7,3,0.8,4.1
			c0,0,0,0,0,0c0,0.1,0.1,0.2,0.1,0.4c0.1,0.3,0.2,0.6,0.3,1h58.5c0.9,0,1.5-0.4,2-1.3c0.9-2.5,1.4-4.7,1.4-6.7
			C256.7,257,250.8,250.1,242.6,248.8z M251.7,268.6l-0.2,0.5h-53.3l-0.1-0.6c-0.2-1-0.4-2.1-0.4-3.1c0-6.9,5.6-12.6,12.6-12.6
			c1.3,0,2.2-0.8,2.2-2.2c0-6.8,5.6-12.5,12.4-12.6c6.9,0.1,12.4,5.7,12.4,12.6c0,1.3,0.8,2.2,2.2,2.2c6.9,0,12.6,5.6,12.6,12.6
			C252.1,266.3,252.1,267.6,251.7,268.6z"/>
		<g>
			<path class="st5" d="M221.6,217.3h-20.5v-10.9h6.7c-1.3-1.1-2.5-2.3-3.6-3.6h-3v-3.7c-1.2-1.6-2.3-3.3-3.3-5.1
				c-0.1,0.3-0.2,0.6-0.2,0.9v22.3h-0.6c-1.1,0-1.8,0.7-1.8,1.8c0,1.1,0.7,1.8,1.8,1.8h28.9c1.1,0,1.8-0.7,1.8-1.8
				c0-1.1-0.7-1.8-1.8-1.8h-0.6V216c-1.2-0.4-2.4-0.8-3.5-1.2V217.3z"/>
		</g>
		<path class="st9" d="M108.2,124.8h6.7c1.3,0,2.2,0.8,2.2,2.2s-0.8,2.2-2.2,2.2h-6.7v19.1l19-16.8l0.3-0.2v-13.8h-19.2V124.8z"/>
		<path class="st4" d="M192,171.7H91.8c-1.2,0-1.4-0.7-1.4-1.1c0-0.6,0.1-0.7,0.5-1.1l67.8-60.2c2.3-2.3,5.7-3.7,9.1-3.7
			s6.7,1.4,9.1,3.8l31.1,27.6c1.2-1,2.4-1.9,3.6-2.8L180.1,106c-6.8-6.5-17.5-6.5-24.3,0l-24,21.3v-10h3.7c1.3,0,2.2-0.8,2.2-2.2
			v-11.8c0-1.3-0.8-2.2-2.2-2.2h-35.4c-1.3,0-2.2,0.8-2.2,2.2v11.8c0,1.3,0.8,2.2,2.2,2.2h3.7v34.7l-0.3,0.2l-15.6,13.9
			c-1.8,1.8-2.4,4.1-1.5,6.5c0.8,2,3.1,3.6,5.5,3.6H95v58.5l4.3-4.3v-54.2h92.9c-0.1-1.5-0.2-3-0.2-4.5
			C192,171.8,192,171.7,192,171.7z M127.4,131.2l-0.3,0.2l-19,16.8v-19.1h6.7c1.3,0,2.2-0.8,2.2-2.2s-0.8-2.2-2.2-2.2h-6.7v-7.4
			h19.2V131.2z M102.3,113v-7.4h31v7.4H102.3z"/>
		<g>
			<g>
				<path class="st5" d="M237.9,208.8c-20.4,0-37-16.6-37-37c0-20.4,16.6-37,37-37s37,16.6,37,37
					C274.9,192.2,258.3,208.8,237.9,208.8z M237.9,139.4c-17.8,0-32.4,14.5-32.4,32.4c0,17.8,14.5,32.4,32.4,32.4
					s32.4-14.5,32.4-32.4C270.2,154,255.7,139.4,237.9,139.4z"/>
			</g>
			<g>
				<line class="st3" x1="238.7" y1="158.3" x2="238.7" y2="250.1"/>
				<path class="st5" d="M236.4,158.3v86.4c0.8,1.7,1.3,3.5,1.5,5.4h3.1v-91.7H236.4z"/>
			</g>
			<g>
				<line class="st3" x1="239" y1="192.2" x2="255.6" y2="175.6"/>
				
					<rect x="235.5" y="181.6" transform="matrix(0.7061 -0.7081 0.7081 0.7061 -57.5551 229.1247)" class="st5" width="23.5" height="4.6"/>
			</g>
			<g>
				<line class="st3" x1="238.6" y1="180.5" x2="218.7" y2="161.1"/>
				
					<rect x="226.3" y="156.9" transform="matrix(0.6993 -0.7149 0.7149 0.6993 -53.36 214.8096)" class="st5" width="4.6" height="27.8"/>
			</g>
		</g>
		<g>
			<rect x="62.9" y="268.8" class="st4" width="207.5" height="4.6"/>
		</g>
	</g>
</g>
<g id="Capa_9" class="st0">
</g>
<g id="Capa_10">
	<g id="Grupo_389" transform="translate(-1110.277 -52.647)">
		<g id="Grupo_388">
			<path id="Trazado_179" class="st11" d="M1209.2,143.8v63.7c0,10.9,5.8,20.9,15.2,26.3l55.1,31.8c9.4,5.4,21,5.4,30.4,0l55.1-31.8
				c9.4-5.4,15.2-15.5,15.2-26.3v-63.7c0-10.9-5.8-20.9-15.2-26.3l-55.1-31.8c-9.4-5.4-21-5.4-30.4,0l-55.1,31.8
				C1215,122.9,1209.2,133,1209.2,143.8z"/>
			<g id="Grupo_387" transform="translate(474.3 -1252.173)">
				<path id="Trazado_216" class="st12" d="M849.3,1442.3h-61.1v-32c0-8-6.5-14.5-14.5-14.6H698c-8,0-14.5,6.5-14.6,14.6v145.5
					c0,8,6.5,14.5,14.6,14.6h151.3c4.8,0,8.7-3.9,8.7-8.7l0,0v-110.6C858,1446.2,854.1,1442.3,849.3,1442.3
					C849.3,1442.3,849.3,1442.3,849.3,1442.3z M773.6,1442.3v-2.9c0-3.2-2.6-5.8-5.8-5.8l0,0h-64c-3.2,0-5.8,2.6-5.8,5.8l0,0v29.1
					c0,3.2,2.6,5.8,5.8,5.8l0,0h43.6v11.6h-5.8c-3.2,0-5.8,2.6-5.8,5.8l0,0v29.1c0,3.2,2.6,5.8,5.8,5.8l0,0h5.8v14.6h-58.2v-116.4
					h93.1v17.5H773.6z M756.2,1442.3c-4.3,0-7.9,3.1-8.6,7.3l-9.9,9.3l-10-10c-1.1-1.1-3-1.1-4.1,0c0,0,0,0,0,0l-19.5,19.5h-0.3
					v-29.1h64v2.9L756.2,1442.3z M735.4,1464.9C735.4,1465,735.4,1465,735.4,1464.9c0.1,0.1,0.1,0.1,0.1,0.1l3.5,3.4h-26.7
					l13.3-13.3L735.4,1464.9z M741.8,1463.1l5.7-5.3v10.8h-0.3L741.8,1463.1z M747.5,1520.9h-5.8v-29.1h5.8L747.5,1520.9z
					 M698,1401.6h75.7c4.8,0,8.7,3.9,8.7,8.7c0,0,0,0,0,0v8.7h-93.1v-8.7C689.3,1405.5,693.2,1401.6,698,1401.6L698,1401.6z
					 M689.3,1555.8v-8.7h58.2v5.8h-26.2c-1.6,0-2.9,1.3-2.9,2.9c0,1.6,1.3,2.9,2.9,2.9l0,0h26.2v2.9c0,1,0.2,2,0.5,2.9h-50
					C693.2,1564.6,689.3,1560.6,689.3,1555.8L689.3,1555.8z M852.2,1561.6c0,1.6-1.3,2.9-2.9,2.9l0,0h-93.1c-1.6,0-2.9-1.3-2.9-2.9
					v-110.6c0-1.6,1.3-2.9,2.9-2.9h93.1c1.6,0,2.9,1.3,2.9,2.9l0,0V1561.6z"/>
				<path id="Trazado_217" class="st13" d="M764.9,1486c1.6,0,2.9-1.3,2.9-2.9v-14.6h14.6c1.6,0,2.9-1.3,2.9-2.9s-1.3-2.9-2.9-2.9
					h-14.6c-3.2,0-5.8,2.6-5.8,5.8l0,0v14.6C762,1484.7,763.3,1486,764.9,1486C764.9,1486,764.9,1486,764.9,1486z"/>
				<path id="Trazado_218" class="st13" d="M791.6,1464l-9.7,14.5l-3.3-3.3c-1.1-1.1-3-1.1-4.1,0c-1.1,1.1-1.1,3,0,4.1l5.8,5.8
					c0.5,0.5,1.3,0.9,2.1,0.9h0.3c0.9-0.1,1.7-0.6,2.1-1.3l11.6-17.5c0.9-1.3,0.5-3.1-0.8-4C794.3,1462.3,792.5,1462.7,791.6,1464
					L791.6,1464z"/>
				<path id="Trazado_219" class="st13" d="M764.9,1518c1.6,0,2.9-1.3,2.9-2.9v-14.6h14.6c1.6,0,2.9-1.2,3-2.8c0-1.6-1.2-2.9-2.8-3
					c0,0-0.1,0-0.1,0h-14.6c-3.2,0-5.8,2.6-5.8,5.8c0,0,0,0,0,0v14.6C762,1516.7,763.3,1518,764.9,1518
					C764.9,1518,764.9,1518,764.9,1518z"/>
				<path id="Trazado_220" class="st13" d="M791.6,1496l-9.7,14.5l-3.3-3.3c-1.1-1.1-3-1.1-4.1,0c-1.1,1.1-1.1,3,0,4.1l0,0l5.8,5.8
					c0.5,0.5,1.3,0.9,2.1,0.9c0.1,0,0.2,0,0.3,0c0.9-0.1,1.7-0.6,2.1-1.3l11.6-17.5c0.9-1.3,0.5-3.1-0.8-4
					C794.3,1494.3,792.5,1494.7,791.6,1496L791.6,1496z"/>
				<path id="Trazado_221" class="st13" d="M785.3,1529.6c0-1.6-1.3-2.9-2.9-2.9l0,0h-14.6c-3.2,0-5.8,2.6-5.8,5.8l0,0v14.6
					c0,1.6,1.3,2.9,2.9,2.9s2.9-1.3,2.9-2.9v-14.6h14.6C784,1532.5,785.3,1531.2,785.3,1529.6L785.3,1529.6z"/>
				<path id="Trazado_222" class="st13" d="M791.6,1528l-9.7,14.5l-3.3-3.3c-1.1-1.1-3-1.1-4.1,0c-1.1,1.1-1.1,3,0,4.1l0,0l5.8,5.8
					c0.5,0.5,1.3,0.9,2.1,0.9c0.1,0,0.2,0,0.3,0c0.9-0.1,1.7-0.6,2.1-1.3l11.6-17.5c0.9-1.3,0.5-3.1-0.8-4
					C794.3,1526.3,792.5,1526.7,791.6,1528L791.6,1528z"/>
				<path id="Trazado_223" class="st5" d="M808.6,1471.4h20.4c1.6,0,2.9-1.3,2.9-2.9s-1.3-2.9-2.9-2.9h-20.4c-1.6,0-2.9,1.3-2.9,2.9
					S807,1471.4,808.6,1471.4L808.6,1471.4z"/>
				<path id="Trazado_224" class="st5" d="M843.5,1465.6h-2.9c-1.6,0-2.9,1.3-2.9,2.9s1.3,2.9,2.9,2.9l0,0h2.9
					c1.6,0,2.9-1.3,2.9-2.9S845.1,1465.6,843.5,1465.6z"/>
				<path id="Trazado_225" class="st5" d="M820.2,1480.2c0,1.6,1.3,2.9,2.9,2.9l0,0h11.6c1.6,0,2.9-1.3,2.9-2.9
					c0-1.6-1.3-2.9-2.9-2.9h-11.6C821.5,1477.3,820.2,1478.6,820.2,1480.2L820.2,1480.2z"/>
				<path id="Trazado_226" class="st5" d="M808.6,1483.1h2.9c1.6,0,2.9-1.3,2.9-2.9c0-1.6-1.3-2.9-2.9-2.9h-2.9
					c-1.6,0-2.9,1.3-2.9,2.9C805.7,1481.8,807,1483.1,808.6,1483.1L808.6,1483.1z"/>
				<path id="Trazado_227" class="st5" d="M808.6,1503.4h20.4c1.6,0,2.9-1.3,2.9-2.9c0-1.6-1.3-2.9-2.9-2.9h-20.4
					c-1.6,0-2.9,1.3-2.9,2.9C805.7,1502.1,807,1503.4,808.6,1503.4L808.6,1503.4z"/>
				<path id="Trazado_228" class="st5" d="M843.5,1497.6h-2.9c-1.6,0-2.9,1.3-2.9,2.9c0,1.6,1.3,2.9,2.9,2.9l0,0h2.9
					c1.6,0,2.9-1.3,2.9-2.9C846.4,1498.9,845.1,1497.6,843.5,1497.6z"/>
				<path id="Trazado_229" class="st5" d="M834.8,1509.3h-11.6c-1.6,0-2.9,1.3-2.9,2.9s1.3,2.9,2.9,2.9h11.6c1.6,0,2.9-1.3,2.9-2.9
					S836.4,1509.3,834.8,1509.3z"/>
				<path id="Trazado_230" class="st5" d="M808.6,1515.1h2.9c1.6,0,2.9-1.3,2.9-2.9c0-1.6-1.3-2.9-2.9-2.9h-2.9
					c-1.6,0-2.9,1.3-2.9,2.9C805.7,1513.8,807,1515.1,808.6,1515.1L808.6,1515.1z"/>
				<path id="Trazado_231" class="st5" d="M808.6,1535.5h20.4c1.6,0,2.9-1.3,2.9-2.9s-1.3-2.9-2.9-2.9h-20.4c-1.6,0-2.9,1.3-2.9,2.9
					S807,1535.5,808.6,1535.5L808.6,1535.5z"/>
				<path id="Trazado_232" class="st5" d="M843.5,1529.6h-2.9c-1.6,0-2.9,1.3-2.9,2.9s1.3,2.9,2.9,2.9l0,0h2.9
					c1.6,0,2.9-1.3,2.9-2.9S845.1,1529.6,843.5,1529.6z"/>
				<path id="Trazado_233" class="st5" d="M834.8,1541.3h-11.6c-1.6,0-2.9,1.3-2.9,2.9c0,1.6,1.3,2.9,2.9,2.9h11.6
					c1.6,0,2.9-1.3,2.9-2.9C837.7,1542.6,836.4,1541.3,834.8,1541.3z"/>
				<path id="Trazado_234" class="st5" d="M811.5,1541.3h-2.9c-1.6,0-2.9,1.3-2.9,2.9c0,1.6,1.3,2.9,2.9,2.9l0,0h2.9
					c1.6,0,2.9-1.3,2.9-2.9C814.4,1542.6,813.1,1541.3,811.5,1541.3z"/>
				<path id="Trazado_235" class="st5" d="M724.2,1413.2h2.9c1.6,0,2.9-1.3,2.9-2.9s-1.3-2.9-2.9-2.9h-2.9c-1.6,0-2.9,1.3-2.9,2.9
					S722.6,1413.2,724.2,1413.2z"/>
				<path id="Trazado_236" class="st5" d="M738.7,1413.2h8.7c1.6,0,2.9-1.3,2.9-2.9s-1.3-2.9-2.9-2.9h-8.7c-1.6,0-2.9,1.3-2.9,2.9
					S737.1,1413.2,738.7,1413.2z"/>
				<path id="Trazado_237" class="st5" d="M712.5,1503.4h14.6c1.6,0,2.9-1.3,2.9-2.9c0-1.6-1.3-2.9-2.9-2.9h-14.6
					c-1.6,0-2.9,1.3-2.9,2.9C709.6,1502.1,710.9,1503.4,712.5,1503.4z"/>
				<path id="Trazado_238" class="st13" d="M702.5,1498.1c-0.1-0.1-0.3-0.2-0.5-0.3c-0.2-0.1-0.4-0.1-0.6-0.2
					c-0.4-0.1-0.7-0.1-1.1,0c-0.2,0-0.4,0.1-0.6,0.2c-0.2,0.1-0.4,0.2-0.5,0.3l-0.4,0.3c-0.5,0.6-0.8,1.3-0.8,2.1
					c0,0.4,0.1,0.8,0.2,1.1c0.1,0.4,0.4,0.7,0.6,1l0.4,0.3c0.2,0.1,0.3,0.2,0.5,0.3c0.2,0.1,0.4,0.1,0.6,0.2c0.2,0,0.4,0.1,0.6,0.1
					c0.2,0,0.4,0,0.5-0.1c0.2,0,0.4-0.1,0.6-0.2c0.2-0.1,0.3-0.1,0.5-0.3c0.2-0.1,0.3-0.2,0.5-0.3c0.3-0.3,0.5-0.6,0.6-1
					c0.1-0.3,0.2-0.7,0.2-1.1c0-0.8-0.3-1.5-0.8-2.1C702.8,1498.3,702.7,1498.2,702.5,1498.1z"/>
				<path id="Trazado_239" class="st5" d="M712.5,1491.8h14.6c1.6,0,2.9-1.3,2.9-2.9c0-1.6-1.3-2.9-2.9-2.9h-14.6
					c-1.6,0-2.9,1.3-2.9,2.9C709.6,1490.5,710.9,1491.8,712.5,1491.8z"/>
				<path id="Trazado_240" class="st13" d="M698.2,1490c0.1,0.4,0.4,0.7,0.6,1l0.4,0.3c0.2,0.1,0.3,0.2,0.5,0.3
					c0.2,0.1,0.4,0.1,0.6,0.2c0.2,0,0.4,0,0.6,0.1c0.2,0,0.4,0,0.5-0.1c0.2,0,0.4-0.1,0.6-0.2c0.2-0.1,0.3-0.1,0.5-0.3
					c0.2-0.1,0.3-0.2,0.5-0.3c0.3-0.3,0.5-0.6,0.6-1c0.1-0.3,0.2-0.7,0.2-1.1c0-0.8-0.3-1.5-0.8-2.1c-0.2-0.1-0.3-0.2-0.5-0.3
					c-0.3-0.2-0.7-0.4-1.1-0.4c-0.4-0.1-0.7-0.1-1.1,0c-0.2,0-0.4,0.1-0.6,0.2c-0.2,0.1-0.4,0.2-0.5,0.3l-0.4,0.3
					c-0.5,0.6-0.8,1.3-0.8,2.1C698,1489.3,698.1,1489.7,698.2,1490z"/>
				<path id="Trazado_241" class="st5" d="M712.5,1515.1h14.6c1.6,0,2.9-1.3,2.9-2.9c0-1.6-1.3-2.9-2.9-2.9h-14.6
					c-1.6,0-2.9,1.3-2.9,2.9C709.6,1513.8,710.9,1515.1,712.5,1515.1z"/>
				<path id="Trazado_242" class="st13" d="M702.5,1509.8c-0.3-0.2-0.7-0.4-1.1-0.4c-0.4-0.1-0.7-0.1-1.1,0c-0.2,0-0.4,0.1-0.6,0.2
					c-0.2,0.1-0.4,0.2-0.5,0.3l-0.4,0.3c-0.5,0.6-0.8,1.3-0.8,2.1c0,0.4,0.1,0.8,0.2,1.1c0.1,0.4,0.4,0.7,0.6,1l0.4,0.3
					c0.2,0.1,0.3,0.2,0.5,0.3c0.2,0.1,0.4,0.1,0.6,0.2c0.2,0,0.4,0.1,0.6,0.1c0.2,0,0.4,0,0.5-0.1c0.2,0,0.4-0.1,0.6-0.2
					c0.2-0.1,0.3-0.1,0.5-0.3c0.2-0.1,0.3-0.2,0.5-0.3c0.3-0.3,0.5-0.6,0.6-1c0.1-0.3,0.2-0.7,0.2-1.1c0-0.8-0.3-1.5-0.8-2.1
					C702.8,1510,702.7,1509.9,702.5,1509.8z"/>
				<path id="Trazado_243" class="st5" d="M712.5,1526.7h14.6c1.6,0,2.9-1.3,2.9-2.9c0-1.6-1.3-2.9-2.9-2.9h-14.6
					c-1.6,0-2.9,1.3-2.9,2.9C709.6,1525.4,710.9,1526.7,712.5,1526.7z"/>
				<path id="Trazado_244" class="st13" d="M702.5,1521.4c-0.1-0.1-0.3-0.2-0.5-0.3c-0.2-0.1-0.4-0.1-0.6-0.2
					c-0.4-0.1-0.7-0.1-1.1,0c-0.2,0-0.4,0.1-0.6,0.2c-0.2,0.1-0.4,0.2-0.5,0.3l-0.4,0.3c-0.5,0.6-0.8,1.3-0.8,2.1
					c0,0.4,0.1,0.8,0.2,1.1c0.1,0.4,0.4,0.7,0.6,1l0.4,0.3c0.2,0.1,0.3,0.2,0.5,0.3c0.2,0.1,0.4,0.1,0.6,0.2c0.2,0,0.4,0.1,0.6,0.1
					c0.2,0,0.4,0,0.5-0.1c0.2,0,0.4-0.1,0.6-0.2c0.2-0.1,0.3-0.1,0.5-0.3c0.2-0.1,0.3-0.2,0.5-0.3c0.3-0.3,0.5-0.6,0.6-1
					c0.1-0.4,0.2-0.7,0.2-1.1c0-0.8-0.3-1.5-0.8-2.1C702.8,1521.6,702.7,1521.5,702.5,1521.4z"/>
			</g>
		</g>
	</g>
</g>
</svg>
