<?xml version="1.0" encoding="utf-8"?>
<!-- Generator: Adobe Illustrator 23.0.4, SVG Export Plug-In . SVG Version: 6.00 Build 0)  -->
<svg version="1.1" id="Capa_1" xmlns="http://www.w3.org/2000/svg" xmlns:xlink="http://www.w3.org/1999/xlink" x="0px" y="0px"
	 viewBox="0 0 200 127.3" style="enable-background:new 0 0 200 127.3;" xml:space="preserve">
<style type="text/css">
	.st0{fill:#FFFFFF;}
	.st1{fill:#36346E;}
	.st2{fill:#CD222A;}
</style>
<g>
	
		<image style="overflow:visible;opacity:0.15;" width="939" height="627" xlink:href="E27163174E46A887.png"  transform="matrix(0.24 0 0 0.24 -12.36 -11.3363)">
	</image>
	<g>
		<g>
			<rect x="2.9" y="3.7" class="st0" width="194.9" height="120.4"/>
			<rect x="2.9" y="3.7" class="st1" width="91.4" height="64.6"/>
			<polygon class="st0" points="10.4,6.3 11.2,8.9 14,8.9 11.8,10.5 12.6,13.2 10.4,11.5 8.1,13.2 9,10.5 6.8,8.9 9.5,8.9 			"/>
			<polygon class="st0" points="25.9,6.3 26.8,8.9 29.5,8.9 27.3,10.5 28.2,13.2 25.9,11.5 23.7,13.2 24.6,10.5 22.3,8.9 25.1,8.9 
							"/>
			<polygon class="st0" points="41.1,6.3 41.9,8.9 44.7,8.9 42.4,10.5 43.3,13.2 41.1,11.5 38.8,13.2 39.7,10.5 37.4,8.9 40.2,8.9 
							"/>
			<polygon class="st0" points="56.2,6.3 57,8.9 59.8,8.9 57.6,10.5 58.4,13.2 56.2,11.5 54,13.2 54.8,10.5 52.6,8.9 55.3,8.9 			
				"/>
			<polygon class="st0" points="71.3,6.3 72.2,8.9 74.9,8.9 72.7,10.5 73.6,13.2 71.3,11.5 69.1,13.2 69.9,10.5 67.7,8.9 70.5,8.9 
							"/>
			<polygon class="st0" points="79.3,13.2 80.1,15.8 82.9,15.8 80.6,17.4 81.5,20 79.3,18.4 77,20 77.9,17.4 75.6,15.8 78.4,15.8 
							"/>
			<polygon class="st0" points="64.1,13.2 64.9,15.8 67.7,15.8 65.5,17.4 66.3,20 64.1,18.4 61.9,20 62.7,17.4 60.5,15.8 63.2,15.8 
							"/>
			<polygon class="st0" points="48.9,13.2 49.8,15.8 52.5,15.8 50.3,17.4 51.2,20 48.9,18.4 46.7,20 47.5,17.4 45.3,15.8 48.1,15.8 
							"/>
			<polygon class="st0" points="33.3,13.2 34.2,15.8 36.9,15.8 34.7,17.4 35.6,20 33.3,18.4 31.1,20 31.9,17.4 29.7,15.8 32.5,15.8 
							"/>
			<polygon class="st0" points="18.1,13.2 19,15.8 21.8,15.8 19.5,17.4 20.4,20 18.1,18.4 15.9,20 16.8,17.4 14.5,15.8 17.3,15.8 
							"/>
			<polygon class="st0" points="86.9,6.3 87.7,8.9 90.5,8.9 88.3,10.5 89.1,13.2 86.9,11.5 84.6,13.2 85.5,10.5 83.3,8.9 86,8.9 			
				"/>
			<polygon class="st0" points="10.4,19 11.2,21.7 14,21.7 11.8,23.3 12.6,25.9 10.4,24.3 8.1,25.9 9,23.3 6.8,21.7 9.5,21.7 			"/>
			<polygon class="st0" points="25.9,19 26.8,21.7 29.5,21.7 27.3,23.3 28.2,25.9 25.9,24.3 23.7,25.9 24.6,23.3 22.3,21.7 
				25.1,21.7 			"/>
			<polygon class="st0" points="41.1,19 41.9,21.7 44.7,21.7 42.4,23.3 43.3,25.9 41.1,24.3 38.8,25.9 39.7,23.3 37.4,21.7 
				40.2,21.7 			"/>
			<polygon class="st0" points="56.2,19 57,21.7 59.8,21.7 57.6,23.3 58.4,25.9 56.2,24.3 54,25.9 54.8,23.3 52.6,21.7 55.3,21.7 
							"/>
			<polygon class="st0" points="71.3,19 72.2,21.7 74.9,21.7 72.7,23.3 73.6,25.9 71.3,24.3 69.1,25.9 69.9,23.3 67.7,21.7 
				70.5,21.7 			"/>
			<polygon class="st0" points="79.3,25.9 80.1,28.5 82.9,28.5 80.6,30.2 81.5,32.8 79.3,31.2 77,32.8 77.9,30.2 75.6,28.5 
				78.4,28.5 			"/>
			<polygon class="st0" points="64.1,25.9 64.9,28.5 67.7,28.5 65.5,30.2 66.3,32.8 64.1,31.2 61.9,32.8 62.7,30.2 60.5,28.5 
				63.2,28.5 			"/>
			<polygon class="st0" points="48.9,25.9 49.8,28.5 52.5,28.5 50.3,30.2 51.2,32.8 48.9,31.2 46.7,32.8 47.5,30.2 45.3,28.5 
				48.1,28.5 			"/>
			<polygon class="st0" points="33.3,25.9 34.2,28.5 36.9,28.5 34.7,30.2 35.6,32.8 33.3,31.2 31.1,32.8 31.9,30.2 29.7,28.5 
				32.5,28.5 			"/>
			<polygon class="st0" points="18.1,25.9 19,28.5 21.8,28.5 19.5,30.2 20.4,32.8 18.1,31.2 15.9,32.8 16.8,30.2 14.5,28.5 
				17.3,28.5 			"/>
			<polygon class="st0" points="86.9,19 87.7,21.7 90.5,21.7 88.3,23.3 89.1,25.9 86.9,24.3 84.6,25.9 85.5,23.3 83.3,21.7 86,21.7 
							"/>
			<polygon class="st0" points="10.4,31.8 11.2,34.4 14,34.4 11.8,36 12.6,38.7 10.4,37 8.1,38.7 9,36 6.8,34.4 9.5,34.4 			"/>
			<polygon class="st0" points="25.9,31.8 26.8,34.4 29.5,34.4 27.3,36 28.2,38.7 25.9,37 23.7,38.7 24.6,36 22.3,34.4 25.1,34.4 
							"/>
			<polygon class="st0" points="41.1,31.8 41.9,34.4 44.7,34.4 42.4,36 43.3,38.7 41.1,37 38.8,38.7 39.7,36 37.4,34.4 40.2,34.4 
							"/>
			<polygon class="st0" points="56.2,31.8 57,34.4 59.8,34.4 57.6,36 58.4,38.7 56.2,37 54,38.7 54.8,36 52.6,34.4 55.3,34.4 			"/>
			<polygon class="st0" points="71.3,31.8 72.2,34.4 74.9,34.4 72.7,36 73.6,38.7 71.3,37 69.1,38.7 69.9,36 67.7,34.4 70.5,34.4 
							"/>
			<polygon class="st0" points="79.3,38.7 80.1,41.3 82.9,41.3 80.6,42.9 81.5,45.5 79.3,43.9 77,45.5 77.9,42.9 75.6,41.3 
				78.4,41.3 			"/>
			<polygon class="st0" points="64.1,38.7 64.9,41.3 67.7,41.3 65.5,42.9 66.3,45.5 64.1,43.9 61.9,45.5 62.7,42.9 60.5,41.3 
				63.2,41.3 			"/>
			<polygon class="st0" points="48.9,38.7 49.8,41.3 52.5,41.3 50.3,42.9 51.2,45.5 48.9,43.9 46.7,45.5 47.5,42.9 45.3,41.3 
				48.1,41.3 			"/>
			<polygon class="st0" points="33.3,38.7 34.2,41.3 36.9,41.3 34.7,42.9 35.6,45.5 33.3,43.9 31.1,45.5 31.9,42.9 29.7,41.3 
				32.5,41.3 			"/>
			<polygon class="st0" points="18.1,38.7 19,41.3 21.8,41.3 19.5,42.9 20.4,45.5 18.1,43.9 15.9,45.5 16.8,42.9 14.5,41.3 
				17.3,41.3 			"/>
			<polygon class="st0" points="86.9,31.8 87.7,34.4 90.5,34.4 88.3,36 89.1,38.7 86.9,37 84.6,38.7 85.5,36 83.3,34.4 86,34.4 			
				"/>
			<polygon class="st0" points="10.4,44.5 11.2,47.2 14,47.2 11.8,48.8 12.6,51.4 10.4,49.8 8.1,51.4 9,48.8 6.8,47.2 9.5,47.2 			
				"/>
			<polygon class="st0" points="25.9,44.5 26.8,47.2 29.5,47.2 27.3,48.8 28.2,51.4 25.9,49.8 23.7,51.4 24.6,48.8 22.3,47.2 
				25.1,47.2 			"/>
			<polygon class="st0" points="41.1,44.5 41.9,47.2 44.7,47.2 42.4,48.8 43.3,51.4 41.1,49.8 38.8,51.4 39.7,48.8 37.4,47.2 
				40.2,47.2 			"/>
			<polygon class="st0" points="56.2,44.5 57,47.2 59.8,47.2 57.6,48.8 58.4,51.4 56.2,49.8 54,51.4 54.8,48.8 52.6,47.2 55.3,47.2 
							"/>
			<polygon class="st0" points="71.3,44.5 72.2,47.2 74.9,47.2 72.7,48.8 73.6,51.4 71.3,49.8 69.1,51.4 69.9,48.8 67.7,47.2 
				70.5,47.2 			"/>
			<polygon class="st0" points="79.3,51.4 80.1,54.1 82.9,54.1 80.6,55.7 81.5,58.3 79.3,56.7 77,58.3 77.9,55.7 75.6,54.1 
				78.4,54.1 			"/>
			<polygon class="st0" points="64.1,51.4 64.9,54.1 67.7,54.1 65.5,55.7 66.3,58.3 64.1,56.7 61.9,58.3 62.7,55.7 60.5,54.1 
				63.2,54.1 			"/>
			<polygon class="st0" points="48.9,51.4 49.8,54.1 52.5,54.1 50.3,55.7 51.2,58.3 48.9,56.7 46.7,58.3 47.5,55.7 45.3,54.1 
				48.1,54.1 			"/>
			<polygon class="st0" points="33.3,51.4 34.2,54.1 36.9,54.1 34.7,55.7 35.6,58.3 33.3,56.7 31.1,58.3 31.9,55.7 29.7,54.1 
				32.5,54.1 			"/>
			<polygon class="st0" points="18.1,51.4 19,54.1 21.8,54.1 19.5,55.7 20.4,58.3 18.1,56.7 15.9,58.3 16.8,55.7 14.5,54.1 
				17.3,54.1 			"/>
			<polygon class="st0" points="86.9,44.5 87.7,47.2 90.5,47.2 88.3,48.8 89.1,51.4 86.9,49.8 84.6,51.4 85.5,48.8 83.3,47.2 
				86,47.2 			"/>
			<polygon class="st0" points="10.4,57.3 11.2,59.9 14,59.9 11.8,61.6 12.6,64.2 10.4,62.6 8.1,64.2 9,61.6 6.8,59.9 9.5,59.9 			
				"/>
			<polygon class="st0" points="25.9,57.3 26.8,59.9 29.5,59.9 27.3,61.6 28.2,64.2 25.9,62.6 23.7,64.2 24.6,61.6 22.3,59.9 
				25.1,59.9 			"/>
			<polygon class="st0" points="41.1,57.3 41.9,59.9 44.7,59.9 42.4,61.6 43.3,64.2 41.1,62.6 38.8,64.2 39.7,61.6 37.4,59.9 
				40.2,59.9 			"/>
			<polygon class="st0" points="56.2,57.3 57,59.9 59.8,59.9 57.6,61.6 58.4,64.2 56.2,62.6 54,64.2 54.8,61.6 52.6,59.9 55.3,59.9 
							"/>
			<polygon class="st0" points="71.3,57.3 72.2,59.9 74.9,59.9 72.7,61.6 73.6,64.2 71.3,62.6 69.1,64.2 69.9,61.6 67.7,59.9 
				70.5,59.9 			"/>
			<polygon class="st0" points="86.9,57.3 87.7,59.9 90.5,59.9 88.3,61.6 89.1,64.2 86.9,62.6 84.6,64.2 85.5,61.6 83.3,59.9 
				86,59.9 			"/>
			<rect x="94.3" y="3.7" class="st2" width="103.5" height="9.4"/>
			<rect x="94.3" y="22.5" class="st2" width="103.5" height="9.4"/>
			<rect x="94.3" y="40.8" class="st2" width="103.5" height="9.4"/>
			<rect x="94.3" y="59.2" class="st2" width="103.5" height="9.4"/>
			<rect x="2.9" y="77.5" class="st2" width="194.9" height="9.4"/>
			<rect x="2.9" y="96.1" class="st2" width="194.9" height="9.4"/>
			<rect x="2.9" y="114.7" class="st2" width="194.9" height="9.4"/>
		</g>
	</g>
</g>
</svg>
