<?xml version="1.0" encoding="utf-8"?>
<!-- Generator: Adobe Illustrator 23.0.6, SVG Export Plug-In . SVG Version: 6.00 Build 0)  -->
<svg version="1.1" id="Capa_1" xmlns="http://www.w3.org/2000/svg" xmlns:xlink="http://www.w3.org/1999/xlink" x="0px" y="0px"
	 viewBox="0 0 88.9 83.7" style="enable-background:new 0 0 88.9 83.7;" xml:space="preserve">
<style type="text/css">
	.st0{fill:#0C3F82;}
	.st1{fill:#FFFFFF;}
</style>
<circle class="st0" cx="44.5" cy="41.9" r="40.6"/>
<g>
	<path class="st1" d="M45.6,38.7L45.6,38.7c-0.4,0-0.7,0.2-0.9,0.4c-0.6,0.6-0.6,1.4,0,1.9c1.8,1.8,1.8,4.7,0,6.5l-9.9,9.8
		c-1.8,1.8-4.7,1.8-6.5,0l-1.5-1.5c-1.8-1.8-1.8-4.7,0-6.5l9.8-9.8c0.6-0.6,0.6-1.4,0-1.9c-0.6-0.6-1.4-0.6-1.9,0l-9.8,9.8
		c-1.3,1.3-2.1,3.2-2.1,5.1c0,2,0.8,3.8,2.1,5.1l1.5,1.5c1.3,1.3,3.2,2.1,5.1,2.1s3.8-0.8,5.1-2.1l9.8-9.8c2.8-2.8,2.8-7.5,0-10.4
		C46.2,38.9,45.9,38.7,45.6,38.7z"/>
	<path class="st1" d="M62.2,26.2l-1.4-1.5c-2.8-2.8-7.5-2.8-10.4,0l-9.8,9.8c-2.8,2.8-2.8,7.5,0,10.4c0.6,0.6,1.4,0.6,1.9,0
		c0.6-0.6,0.6-1.4,0-1.9c-0.9-0.9-1.3-2-1.3-3.2c0-1.2,0.5-2.4,1.3-3.2l9.8-9.9c0.9-0.9,2-1.3,3.2-1.3c1.2,0,2.4,0.5,3.2,1.3
		l1.5,1.5c1.8,1.8,1.8,4.7,0,6.5l-9.8,9.8c-0.2,0.2-0.4,0.6-0.4,0.9c0,0.4,0.2,0.7,0.4,0.9c0.2,0.2,0.6,0.4,0.9,0.4
		c0.4,0,0.7-0.2,0.9-0.4l9.8-9.8c1.3-1.3,2.1-3.2,2.1-5.1C64.3,29.4,63.6,27.6,62.2,26.2z"/>
</g>
</svg>
