<?xml version="1.0" encoding="utf-8"?>
<!-- Generator: Adobe Illustrator 23.0.4, SVG Export Plug-In . SVG Version: 6.00 Build 0)  -->
<svg version="1.1" id="Capa_1" xmlns="http://www.w3.org/2000/svg" xmlns:xlink="http://www.w3.org/1999/xlink" x="0px" y="0px"
	 viewBox="0 0 300 100" style="enable-background:new 0 0 300 100;" xml:space="preserve">
<style type="text/css">
	.st0{fill:#FFFFFF;}
	.st1{fill:#174B81;}
	.st2{fill:#2E86BF;}
</style>
<path class="st0" d="M77.7,28L55.6,15.2c-4.8-2.8-10.7-2.8-15.5,0L17.9,28c-4.8,2.8-7.7,7.9-7.7,13.4V67c0,5.5,3,10.6,7.7,13.4
	l22.2,12.8c4.8,2.8,10.7,2.8,15.5,0l22.2-12.8c4.8-2.8,7.7-7.9,7.7-13.4V41.4C85.5,35.9,82.5,30.7,77.7,28z M49.9,53.6v14.8h-5v-16
	c0-5.2-3.3-8-7.9-8c-5.2,0-8.4,3.4-8.4,9.1v14.8h-5V40.1h4.8v3.6c2.2-2.4,5.4-3.8,9.3-3.8c4.4,0,7.8,1.8,9.7,5c2.3-3.2,6.1-5,10.6-5
	c7.3,0,11.5,4.4,11.5,12.2v4.3c-0.8-0.3-1.7-0.4-2.6-0.4c-0.8,0-1.6,0.1-2.4,0.3v-3.9c0-5.2-2.5-8-7.1-8
	C52.2,44.5,49.9,47.9,49.9,53.6z M66.9,68.5c-2.8,0-5.1-2.3-5.1-5.1c0-2.8,2.3-5.1,5.1-5.1s5.1,2.3,5.1,5.1
	C72,66.2,69.7,68.5,66.9,68.5z"/>
<g>
	<polygon class="st1" points="28.4,43.7 28.4,43.7 28.4,43.6 28.4,43.6 	"/>
	<path class="st2" d="M44.9,52.5c0-5.2-3.3-8-7.9-8c-5.2,0-8.4,3.4-8.4,9.1v14.3h0V57.1c0-5.7,3.1-8.6,8.4-8.6
		c4.6,0,7.9,2.2,7.9,7.3V52.5z"/>
	<path class="st2" d="M64.6,52.5c0-5.2-2.5-8-7.1-8c-5.2,0-7.6,3.4-7.6,9.1v14.3h0V57.1c0-5.7,2.3-8.6,7.6-8.6c4.6,0,7,2.2,7.1,7.2
		V52.5z"/>
</g>
<g>
	<path class="st0" d="M129.6,48.7l-0.1,0l-6.9,19.1h-3.5l-6.9-19l-0.1,0l0.5,11.3v4.1l2.8,0.5v3.1h-10.7v-3.1l2.7-0.5V45.7l-2.7-0.5
		V42h2.7h6.8l6.6,19h0.1l6.6-19h9.5v3.1l-2.8,0.5v18.5l2.8,0.5v3.1h-10.7v-3.1l2.7-0.5v-4.1L129.6,48.7z"/>
	<path class="st0" d="M151.2,67.8c-0.1-0.3-0.3-0.6-0.4-1c-0.1-0.3-0.2-0.7-0.2-1c-0.6,0.7-1.4,1.3-2.2,1.7c-0.9,0.4-1.9,0.7-3,0.7
		c-1.9,0-3.4-0.5-4.5-1.5c-1.1-1-1.7-2.4-1.7-4.2c0-1.8,0.7-3.2,2.2-4.2c1.4-1,3.6-1.5,6.3-1.5h2.6V55c0-0.9-0.3-1.6-0.8-2.1
		c-0.5-0.5-1.3-0.8-2.4-0.8c-0.6,0-1.1,0.1-1.6,0.2c-0.5,0.1-0.8,0.3-1.1,0.5l-0.3,2.1h-3.9l0-4.3c0.9-0.6,2-1.2,3.3-1.6
		c1.2-0.4,2.6-0.7,4-0.7c2.4,0,4.3,0.6,5.8,1.7c1.5,1.2,2.2,2.8,2.2,5V63c0,0.3,0,0.6,0,0.8c0,0.3,0,0.5,0.1,0.7l1.6,0.2v3.1H151.2z
		 M146.7,64.4c0.8,0,1.5-0.2,2.1-0.5c0.6-0.3,1.1-0.8,1.5-1.3v-2.9h-2.6c-1.1,0-1.9,0.3-2.5,0.8c-0.6,0.5-0.9,1.1-0.9,1.9
		c0,0.7,0.2,1.2,0.6,1.5C145.4,64.2,146,64.4,146.7,64.4z"/>
	<path class="st0" d="M166.8,51.8l-1.8,0.3l2.5,8.6l0.3,1.8h0.1l0.4-1.8l2.5-8.6l-1.8-0.4v-3.1h8.7v3.1L176,52l-5.7,15.8h-4.9
		L159.8,52l-1.7-0.3v-3.1h8.7V51.8z"/>
	<path class="st0" d="M179.2,64.7l2.5-0.5V52.3l-2.8-0.5v-3.1h7.9v15.6l2.5,0.5v3.1h-10.2V64.7z M186.9,44.1h-5.2v-3.9h5.2V44.1z"/>
	<path class="st0" d="M218,48.7l-0.1,0L211,67.8h-3.5l-6.9-19l-0.1,0l0.5,11.3v4.1l2.8,0.5v3.1h-10.7v-3.1l2.7-0.5V45.7l-2.7-0.5V42
		h2.7h6.8l6.6,19h0.1l6.6-19h9.5v3.1l-2.8,0.5v18.5l2.8,0.5v3.1h-10.7v-3.1l2.7-0.5v-4.1L218,48.7z"/>
	<path class="st0" d="M227.5,58.1c0-2.9,0.8-5.2,2.4-7c1.6-1.8,3.8-2.7,6.6-2.7c2.8,0,5.1,0.9,6.7,2.7c1.6,1.8,2.4,4.2,2.4,7v0.4
		c0,2.9-0.8,5.2-2.4,7c-1.6,1.8-3.8,2.7-6.6,2.7c-2.8,0-5.1-0.9-6.7-2.7c-1.6-1.8-2.4-4.2-2.4-7V58.1z M232.6,58.4
		c0,1.8,0.3,3.2,0.9,4.2c0.6,1.1,1.6,1.6,3,1.6c1.3,0,2.3-0.5,2.9-1.6c0.6-1.1,0.9-2.5,0.9-4.2v-0.4c0-1.7-0.3-3.1-0.9-4.2
		c-0.6-1.1-1.6-1.6-3-1.6c-1.3,0-2.3,0.5-2.9,1.6c-0.6,1.1-0.9,2.5-0.9,4.2V58.4z"/>
	<path class="st0" d="M255.7,51.8l-1.8,0.3l2.5,8.6l0.3,1.8h0.1l0.4-1.8l2.5-8.6l-1.8-0.4v-3.1h8.7v3.1l-1.7,0.3l-5.7,15.8h-4.9
		L248.6,52l-1.7-0.3v-3.1h8.7V51.8z"/>
	<path class="st0" d="M268.1,64.7l2.5-0.5V52.3l-2.8-0.5v-3.1h7.9v15.6l2.5,0.5v3.1h-10.2V64.7z M275.8,44.1h-5.2v-3.9h5.2V44.1z"/>
	<path class="st0" d="M279.4,43.3v-3.1h7.9v24l2.5,0.5v3.1h-10.2v-3.1l2.5-0.5V43.8L279.4,43.3z"/>
</g>
</svg>
