<?xml version="1.0" encoding="utf-8"?>
<!-- Generator: Adobe Illustrator 23.0.4, SVG Export Plug-In . SVG Version: 6.00 Build 0)  -->
<svg version="1.1" id="Capa_1" xmlns="http://www.w3.org/2000/svg" xmlns:xlink="http://www.w3.org/1999/xlink" x="0px" y="0px"
	 viewBox="0 0 300 100" style="enable-background:new 0 0 300 100;" xml:space="preserve">
<style type="text/css">
	.st0{fill:#415965;}
	.st1{fill:#1EA9F2;}
	.st2{opacity:0.3;}
	.st3{fill:#164E87;}
	.st4{fill:#65DFB6;}
	.st5{fill:#FFFFFF;}
</style>
<g>
	<g>
		<path class="st0" d="M131.6,46.2l-0.1,0l-6.8,18.7h-3.4l-6.7-18.6l-0.1,0l0.5,11.1v4l2.7,0.5v3h-10.5v-3l2.7-0.5V43.2l-2.7-0.5
			v-3.1h2.7h6.6l6.4,18.6h0.1l6.5-18.6h9.3v3.1l-2.7,0.5v18.1l2.7,0.5v3h-10.5v-3l2.7-0.5v-4L131.6,46.2z"/>
		<path class="st0" d="M152.8,64.9c-0.1-0.3-0.3-0.6-0.4-1c-0.1-0.3-0.2-0.7-0.2-1c-0.6,0.7-1.3,1.3-2.2,1.7c-0.9,0.4-1.8,0.6-3,0.6
			c-1.8,0-3.3-0.5-4.4-1.5c-1.1-1-1.6-2.4-1.6-4.1c0-1.8,0.7-3.1,2.1-4.1c1.4-1,3.5-1.4,6.2-1.4h2.6v-1.8c0-0.9-0.3-1.6-0.8-2.1
			c-0.5-0.5-1.3-0.7-2.3-0.7c-0.6,0-1.1,0.1-1.5,0.2c-0.5,0.1-0.8,0.3-1.1,0.5l-0.3,2H142l0-4.2c0.9-0.6,2-1.2,3.2-1.6
			c1.2-0.4,2.5-0.6,3.9-0.6c2.3,0,4.2,0.6,5.7,1.7c1.5,1.1,2.2,2.8,2.2,4.9v7.8c0,0.3,0,0.6,0,0.8c0,0.3,0,0.5,0.1,0.7l1.5,0.2v3
			H152.8z M148.4,61.5c0.8,0,1.5-0.2,2.1-0.5c0.6-0.3,1.1-0.7,1.5-1.2v-2.9h-2.6c-1.1,0-1.9,0.3-2.4,0.8c-0.6,0.5-0.8,1.1-0.8,1.8
			c0,0.6,0.2,1.1,0.6,1.5C147.1,61.3,147.7,61.5,148.4,61.5z"/>
		<path class="st0" d="M168.1,49.2l-1.8,0.3l2.5,8.4l0.3,1.8h0.1l0.4-1.8l2.4-8.4l-1.8-0.3v-3.1h8.5v3.1l-1.6,0.3l-5.5,15.5h-4.8
			l-5.6-15.5l-1.6-0.3v-3.1h8.5V49.2z"/>
		<path class="st0" d="M180.2,61.9l2.4-0.5V49.7l-2.7-0.5v-3.1h7.8v15.2l2.4,0.5v3h-9.9V61.9z M187.7,41.6h-5.1v-3.8h5.1V41.6z"/>
		<path class="st0" d="M218.2,46.2l-0.1,0l-6.8,18.7h-3.4l-6.7-18.6l-0.1,0l0.5,11.1v4l2.7,0.5v3h-10.5v-3l2.7-0.5V43.2l-2.7-0.5
			v-3.1h2.7h6.6l6.4,18.6h0.1l6.5-18.6h9.3v3.1l-2.7,0.5v18.1l2.7,0.5v3H215v-3l2.7-0.5v-4L218.2,46.2z"/>
		<path class="st0" d="M227.4,55.3c0-2.8,0.8-5.1,2.4-6.9s3.7-2.7,6.5-2.7c2.8,0,5,0.9,6.5,2.7c1.6,1.8,2.4,4.1,2.4,6.9v0.4
			c0,2.8-0.8,5.1-2.4,6.9c-1.6,1.8-3.7,2.7-6.5,2.7c-2.8,0-5-0.9-6.5-2.7c-1.6-1.8-2.4-4.1-2.4-6.9V55.3z M232.5,55.7
			c0,1.7,0.3,3.1,0.9,4.1c0.6,1,1.6,1.6,2.9,1.6c1.3,0,2.3-0.5,2.9-1.6c0.6-1,0.9-2.4,0.9-4.1v-0.4c0-1.7-0.3-3-0.9-4.1
			c-0.6-1.1-1.6-1.6-2.9-1.6c-1.3,0-2.3,0.5-2.9,1.6c-0.6,1.1-0.9,2.4-0.9,4.1V55.7z"/>
		<path class="st0" d="M255.1,49.2l-1.8,0.3l2.5,8.4l0.3,1.8h0.1l0.4-1.8l2.4-8.4l-1.8-0.3v-3.1h8.5v3.1l-1.6,0.3l-5.5,15.5h-4.8
			l-5.6-15.5l-1.6-0.3v-3.1h8.5V49.2z"/>
		<path class="st0" d="M267.2,61.9l2.4-0.5V49.7l-2.7-0.5v-3.1h7.8v15.2l2.4,0.5v3h-9.9V61.9z M274.7,41.6h-5.1v-3.8h5.1V41.6z"/>
		<path class="st0" d="M278.3,40.9v-3.1h7.8v23.5l2.4,0.5v3h-10v-3l2.4-0.5v-20L278.3,40.9z"/>
	</g>
	<g>
		<path class="st1" d="M7.8,39v25.1c0,5.7,3,11,8,13.8l21.7,12.5c4.9,2.9,11,2.9,16,0l21.7-12.5c4.9-2.9,8-8.1,8-13.8V39
			c0-5.7-3-11-8-13.8L53.5,12.6c-4.9-2.9-11-2.9-16,0L15.8,25.2C10.9,28,7.8,33.3,7.8,39z"/>
		<g>
			<g class="st2">
				<path class="st3" d="M55.7,40.8c-4.6,0-8.4,1.8-10.6,5c-1.9-3.3-5.3-5-9.7-5c-3.9,0-7.1,1.3-9.3,3.8V41h-4.8v24.3h5V54.5
					c0-5.7,3.1-8.6,8.4-8.6c4.7,0,8,2.2,8,7.5v11.9h5V54.5c0-5.7,2.3-8.6,7.6-8.6c4.6,0,7.1,2.2,7.1,7.5v0.5
					c0.8-0.2,1.5-0.3,2.4-0.3c0.9,0,1.8,0.1,2.6,0.4V53C67.2,45.2,63,40.8,55.7,40.8z"/>
			</g>
			<circle class="st4" cx="64.6" cy="60.7" r="5.1"/>
			<path class="st5" d="M62.2,49.8v3.9c0.8-0.2,1.5-0.3,2.4-0.3c0.9,0,1.8,0.1,2.6,0.4v-4.3c0-7.8-4.2-12.2-11.5-12.2
				c-4.6,0-8.4,1.8-10.6,5c-1.9-3.3-5.3-5-9.7-5c-3.9,0-7.1,1.3-9.3,3.8v-3.6h-4.8v28.3h5V51c0-5.7,3.1-9.1,8.4-9.1c4.7,0,8,2.8,8,8
				v16h5V51c0-5.7,2.3-9.1,7.6-9.1C59.8,41.9,62.2,44.6,62.2,49.8z"/>
		</g>
	</g>
</g>
</svg>
