<?xml version="1.0" encoding="utf-8"?>
<!-- Generator: Adobe Illustrator 22.1.0, SVG Export Plug-In . SVG Version: 6.00 Build 0)  -->
<svg version="1.1" id="Capa_1" xmlns="http://www.w3.org/2000/svg" xmlns:xlink="http://www.w3.org/1999/xlink" x="0px" y="0px"
	 viewBox="0 0 100 100" style="enable-background:new 0 0 100 100;" xml:space="preserve">
<style type="text/css">
	.st0{fill:#415965;}
</style>
<g>
	<path class="st0" d="M86.3,29.1H40c-4.2,0-7.6-3.4-7.6-7.6v0c0-4.2,3.4-7.6,7.6-7.6h46.3c4.2,0,7.6,3.4,7.6,7.6v0
		C93.8,25.7,90.4,29.1,86.3,29.1z"/>
	<path class="st0" d="M86.3,86H40c-4.2,0-7.6-3.4-7.6-7.6v0c0-4.2,3.4-7.6,7.6-7.6h46.3c4.2,0,7.6,3.4,7.6,7.6v0
		C93.8,82.6,90.4,86,86.3,86z"/>
	<path class="st0" d="M61.5,57.6H15.2c-4.2,0-7.6-3.4-7.6-7.6v0c0-4.2,3.4-7.6,7.6-7.6h46.3c4.2,0,7.6,3.4,7.6,7.6v0
		C69,54.2,65.6,57.6,61.5,57.6z"/>
</g>
</svg>
