<?xml version="1.0" encoding="utf-8"?>
<!-- Generator: Adobe Illustrator 23.0.4, SVG Export Plug-In . SVG Version: 6.00 Build 0)  -->
<svg version="1.1" id="Capa_1" xmlns="http://www.w3.org/2000/svg" xmlns:xlink="http://www.w3.org/1999/xlink" x="0px" y="0px"
	 viewBox="0 0 50 50" style="enable-background:new 0 0 50 50;" xml:space="preserve">
<style type="text/css">
	.st0{fill:#B0B0B0;}
	.st1{fill:#FFFFFF;}
</style>
<path class="st0" d="M31.8,2.5H18c-3.8,0-7.2,2-9.1,5.3L2,19.7C0.1,23,0.1,27,2,30.3l6.9,12c1.9,3.3,5.3,5.3,9.1,5.3h13.8
	c3.8,0,7.2-2,9.1-5.3l6.9-12c1.9-3.3,1.9-7.3,0-10.5l-6.9-12C39,4.5,35.6,2.5,31.8,2.5z"/>
<polygon class="st1" points="29.6,25 19.7,34.9 20.9,36.1 32,25 20.9,13.9 19.7,15.1 "/>
</svg>
