<?xml version="1.0" encoding="utf-8"?>
<!-- Generator: Adobe Illustrator 23.0.4, SVG Export Plug-In . SVG Version: 6.00 Build 0)  -->
<svg version="1.1" id="Capa_1" xmlns="http://www.w3.org/2000/svg" xmlns:xlink="http://www.w3.org/1999/xlink" x="0px" y="0px"
	 viewBox="0 0 500 500" style="enable-background:new 0 0 500 500;" xml:space="preserve">
<style type="text/css">
	.st0{display:none;}
	.st1{display:inline;}
	.st2{fill:#ffffff;}
	.st3{fill:#ffffff;}
	.st4{fill:none;}
	.st5{fill-rule:evenodd;clip-rule:evenodd;fill:#ffffff;}
</style>
<g class="st0">
	<g class="st1">
		<path class="st2" d="M248.3,346.2c0,3.9-0.7,7.5-2.1,10.7c-1.4,3.2-3.4,5.9-5.9,7.9l9.6,6l-6.4,4.9l-10.8-7.2
			c-0.8,0.2-1.6,0.3-2.4,0.4c-0.8,0.1-1.6,0.2-2.4,0.2c-6.1,0-11-2.1-14.7-6.4s-5.6-9.7-5.6-16.3v-0.7c0-6.5,1.9-12,5.6-16.3
			c3.7-4.3,8.6-6.5,14.7-6.5c6.1,0,11,2.2,14.8,6.5s5.7,9.7,5.7,16.3v0.5H248.3z M239.3,345.5c0-4.6-1-8.4-2.9-11.3
			s-4.8-4.3-8.6-4.3s-6.6,1.4-8.5,4.3s-2.8,6.7-2.8,11.3v0.7c0,4.7,0.9,8.5,2.8,11.4c1.9,2.9,4.7,4.3,8.5,4.3s6.7-1.4,8.6-4.3
			s2.9-6.7,2.9-11.4V345.5z"/>
		<path class="st2" d="M272.1,323.5c5.1,0,9.1,1.2,12,3.5s4.3,5.6,4.3,9.7c0,2.3-0.6,4.2-1.8,5.9c-1.2,1.7-3,3-5.3,4
			c2.7,0.8,4.6,2.1,5.7,3.9c1.2,1.8,1.7,4.1,1.7,6.8v2.3c0,1,0.2,1.8,0.6,2.3s1,0.9,1.9,1l1.1,0.2v5.4h-4.7c-2.9,0-5-0.8-6.2-2.4
			s-1.8-3.6-1.8-6.1v-2.6c0-2.2-0.6-3.9-1.7-5.1s-2.8-1.9-4.9-2h-7.4V362l4.8,0.9v5.4h-18.6V363l4.8-0.9v-32.2l-4.8-0.9v-5.4h4.8
			h15.5V323.5z M265.7,343.3h6.2c2.5,0,4.4-0.5,5.6-1.6c1.3-1.1,1.9-2.6,1.9-4.6s-0.6-3.6-1.9-4.8c-1.2-1.2-3.1-1.8-5.5-1.8h-6.4
			L265.7,343.3L265.7,343.3z"/>
	</g>
	<g class="st1">
		<g>
			<polygon class="st3" points="348.1,252.1 348.1,277.7 322,277.7 322,287.7 358.2,287.7 358.2,252.1 			"/>
		</g>
		<g>
			<polygon class="st3" points="141.4,70.9 141.4,107.1 151.6,107.1 151.6,80.8 177,80.8 177,70.9 			"/>
		</g>
		<g>
			<polygon class="st3" points="141.4,251.9 141.4,287.7 177.2,287.7 177.2,277.6 151.4,277.6 151.4,251.9 			"/>
		</g>
		<g>
			<polygon class="st3" points="193,174.4 193,184.4 244.8,184.4 244.8,209.9 267.5,209.9 267.5,199.9 254.7,199.9 254.7,174.4 			
				"/>
		</g>
		<g>
			<polygon class="st3" points="358.1,106.9 358.1,71 322.1,71 322.1,81 348.2,81 348.2,106.9 			"/>
		</g>
		<g>
			<polygon class="st2" points="321.9,225.9 321.9,252 296.4,252 296.4,261.8 331.9,261.8 331.9,225.9 			"/>
		</g>
		<g>
			<polygon class="st3" points="245,225.9 245,261.8 280.5,261.8 280.5,251.8 254.7,251.8 254.7,225.9 			"/>
		</g>
		<g>
			<polygon class="st2" points="283.4,200.2 283.4,222.9 293.4,222.9 293.4,209.9 331.9,209.9 331.9,200.2 			"/>
		</g>
		<g>
			<rect x="270.6" y="174.4" class="st3" width="61.2" height="9.8"/>
		</g>
		<g>
			<rect x="244.9" y="97.2" class="st3" width="9.8" height="35.5"/>
		</g>
		<g>
			<rect x="167.3" y="174.4" class="st2" width="9.7" height="9.8"/>
		</g>
		<g>
			<rect x="270.7" y="225.8" class="st2" width="9.8" height="9.8"/>
		</g>
		<g>
			<rect x="244.9" y="148.6" class="st3" width="9.8" height="9.8"/>
		</g>
		<g>
			<rect x="296.3" y="225.8" class="st2" width="9.8" height="9.8"/>
		</g>
		<g>
			<path class="st2" d="M167.3,200.2v61.6H229v-61.6L167.3,200.2L167.3,200.2z M218.9,251.8h-41.6v-41.6h41.6V251.8z"/>
		</g>
		<g>
			<path class="st2" d="M167.3,97.2v61.2H229V97.2H167.3z M219,148.4h-41.6v-41.2H219V148.4z"/>
		</g>
		<g>
			<path class="st2" d="M270.7,97.2v61.2h61.2V97.2H270.7z M321.9,148.4h-41.2v-41.2h41.2V148.4z"/>
		</g>
		<g>
			<rect x="190.2" y="223" class="st2" width="15.5" height="15.5"/>
		</g>
		<g>
			<rect x="190.2" y="120.1" class="st2" width="15.6" height="15.4"/>
		</g>
		<g>
			<rect x="293.6" y="120.1" class="st2" width="15.5" height="15.5"/>
		</g>
	</g>
</g>
<g class="st0">
	<g class="st1">
		<path class="st2" d="M123.4,326c5.1,0,9.2,1.3,12.2,4c3,2.6,4.5,6.1,4.5,10.4s-1.5,7.8-4.5,10.4s-7,3.9-12.2,3.9h-7.6v10l4.8,0.9
			v5.4H102v-5.4l4.8-0.9v-32.2l-4.8-0.9V326h4.8H123.4z M115.8,347.7h7.6c2.5,0,4.4-0.7,5.7-2c1.3-1.4,1.9-3.1,1.9-5.2
			c0-2.2-0.6-3.9-1.9-5.3s-3.2-2.1-5.7-2.1h-7.6C115.8,333.1,115.8,347.7,115.8,347.7z"/>
		<path class="st2" d="M143.7,365.5l4.3-0.9v-20.7l-4.8-0.9v-5.4h13.2l0.4,4.9c0.8-1.7,1.8-3.1,3-4c1.2-1,2.7-1.4,4.3-1.4
			c0.5,0,1,0,1.5,0.1s1,0.2,1.3,0.3l-1,8.2l-3.7-0.1c-1.3,0-2.4,0.3-3.3,0.8c-0.9,0.5-1.5,1.2-2,2.2v16.2l4.3,0.9v5.4h-17.6v-5.6
			H143.7z"/>
		<path class="st2" d="M169,353.9c0-5,1.4-9.1,4.2-12.2c2.8-3.2,6.6-4.8,11.5-4.8s8.8,1.6,11.6,4.7c2.8,3.2,4.2,7.2,4.2,12.2v0.6
			c0,5-1.4,9.1-4.2,12.3c-2.8,3.2-6.6,4.7-11.5,4.7c-5,0-8.8-1.6-11.6-4.7c-2.8-3.2-4.2-7.2-4.2-12.3V353.9z M178,354.6
			c0,3,0.5,5.5,1.6,7.3s2.8,2.8,5.2,2.8c2.3,0,4-0.9,5.1-2.8s1.6-4.3,1.6-7.3V354c0-3-0.5-5.4-1.6-7.2c-1.1-1.9-2.8-2.8-5.1-2.8
			s-4,0.9-5.1,2.8s-1.6,4.3-1.6,7.2L178,354.6L178,354.6z"/>
		<path class="st2" d="M202.8,365.5l3.1-0.5l9.1-11l-8.8-10.5l-3.1-0.5v-5.4h15v5.2l-3.1,0.4l5.1,6.4l5-6.4l-3.1-0.4v-5.2h15.1v5.4
			l-3,0.5l-8.6,10.5l9,11l3.1,0.5v5.4h-15.3v-5.2l3.1-0.4l-5.2-6.7l-5.3,6.8l2.7,0.3v5.2h-14.9L202.8,365.5L202.8,365.5z"/>
		<path class="st2" d="M240.2,365.5l4.3-0.9v-20.7l-4.8-0.9v-5.4h13.8v27l4.3,0.9v5.4h-17.7v-5.4H240.2z M253.6,329.6h-9v-6.8h9
			V329.6z"/>
		<path class="st2" d="M259.8,343v-5.4H273l0.4,4.4c1.1-1.6,2.4-2.8,4-3.7c1.6-0.9,3.5-1.3,5.6-1.3s4,0.5,5.5,1.4s2.7,2.4,3.5,4.3
			c1-1.8,2.4-3.2,4-4.2s3.6-1.5,5.8-1.5c3.3,0,5.9,1.1,7.8,3.4s2.9,5.7,2.9,10.4v13.9l4.3,0.9v5.4h-17.2v-5.4l3.9-0.9v-13.9
			c0-2.5-0.4-4.3-1.2-5.3c-0.8-1-2-1.5-3.7-1.5c-1.3,0-2.4,0.3-3.3,0.8c-0.9,0.6-1.7,1.4-2.2,2.4c0,0.4,0,0.7,0,1s0,0.6,0,0.8v15.6
			l3.6,0.9v5.4h-16.2v-5.4l3.6-0.9v-13.9c0-2.5-0.4-4.2-1.2-5.2c-0.8-1-2.1-1.5-3.7-1.5c-1.2,0-2.3,0.2-3.2,0.7
			c-0.9,0.5-1.7,1.1-2.3,2v18l3.9,0.9v5.4h-17.2v-5.4l4.3-0.9V344L259.8,343z"/>
		<path class="st2" d="M319.3,365.5l4.3-0.9v-20.7l-4.8-0.9v-5.4h13.8v27l4.3,0.9v5.4h-17.7v-5.4H319.3z M332.6,329.6h-9v-6.8h9
			V329.6z"/>
		<path class="st2" d="M353.2,329.4v8.2h5.9v6.3h-5.9v17c0,1.3,0.3,2.2,0.8,2.8c0.5,0.6,1.3,0.8,2.2,0.8c0.6,0,1.2,0,1.6-0.1
			c0.5-0.1,1-0.1,1.6-0.3l0.8,6.5c-1,0.3-2,0.5-3,0.7s-2.1,0.2-3.2,0.2c-3.1,0-5.5-0.9-7.2-2.6s-2.5-4.4-2.5-8.1v-17h-4.9v-6.3h4.9
			v-8.2h8.9V329.4z"/>
		<path class="st2" d="M398,343l-3.1,0.5L382.6,376c-1,2.4-2.3,4.4-3.9,6s-4,2.4-7.3,2.4c-0.8,0-1.5-0.1-2.1-0.2
			c-0.7-0.1-1.5-0.3-2.4-0.5l1-6.6c0.3,0,0.6,0.1,0.9,0.1s0.6,0.1,0.8,0.1c1.5,0,2.7-0.4,3.5-1.1s1.4-1.6,1.8-2.7l1-2.5l-10.6-27.5
			l-3.1-0.5v-5.4h16.3v5.4l-3.7,0.6l4.6,13.3l0.5,2.4h0.2l5.3-15.8l-3.8-0.6v-5.4H398V343z"/>
	</g>
	<g class="st1">
		<g>
			<g>
				<g>
					<path class="st2" d="M249.8,199c-11.7,0-21.2-9.5-21.2-21.2s9.5-21.2,21.2-21.2s21.2,9.5,21.2,21.2S261.5,199,249.8,199z
						 M249.8,162.2c-8.6,0-15.6,7-15.6,15.6s7,15.6,15.6,15.6c8.6,0,15.6-7,15.6-15.6S258.4,162.2,249.8,162.2z"/>
				</g>
			</g>
		</g>
		<g>
			<g>
				<g>
					<circle class="st3" cx="264.5" cy="119.4" r="14.7"/>
				</g>
			</g>
		</g>
		<g>
			<g>
				<path class="st2" d="M194.9,155l0.6,0.2l0.2-0.5c7.9-18.4,25-31.8,44.7-34.9l0.5-0.1v-0.5c0-1.9,0.3-3.7,0.8-5.6l0.2-0.9l-1,0.1
					c-23.2,3.1-43.2,18.6-52.1,40.4l-0.3,0.8l0.9,0.1C191.3,154.1,193.2,154.4,194.9,155z"/>
			</g>
			<g>
				<path class="st2" d="M288.4,124.6l-0.8-0.6l-0.2,0.9c-0.5,1.9-1.1,3.6-2,5.3l-0.2,0.5l0.4,0.3c14.7,11.3,23.1,28.3,23.1,46.7
					c0,32.5-26.4,58.9-58.9,58.9c-23.9,0-45.2-14.3-54.4-36.4l-0.2-0.5l-0.6,0.2c-1.7,0.5-3.5,0.9-5.5,1l-0.9,0.1l0.3,0.8
					c10,25.4,34,41.8,61.2,41.8c36.3,0,65.8-29.5,65.8-65.8C315.6,156.9,305.4,137,288.4,124.6z"/>
			</g>
		</g>
		<g>
			<g>
				<g>
					<circle class="st3" cx="187.6" cy="177.4" r="14.7"/>
				</g>
			</g>
		</g>
		<g>
			<path class="st2" d="M249.8,68.6c-60.2,0-109.2,49-109.2,109.2S189.6,287,249.8,287c7.6,0,15.2-0.8,22.6-2.4l0.8-0.2l-0.4-0.8
				c-0.8-1.6-1.5-3.3-1.9-5.2l-0.1-0.6l-0.6,0.1c-6.7,1.4-13.6,2-20.4,2c-56.4,0-102.3-45.9-102.3-102.3S193.4,75.5,249.8,75.5
				s102.3,45.9,102.3,102.3c0,31.5-14.3,60.8-39.1,80.4l-0.5,0.4l0.4,0.5c1.1,1.5,2,3.2,2.7,4.8l0.3,0.8l0.7-0.5
				c27-20.9,42.4-52.4,42.4-86.3C359,117.6,310,68.6,249.8,68.6z"/>
		</g>
		<g>
			<g>
				<g>
					<circle class="st3" cx="293.8" cy="272.9" r="14.7"/>
				</g>
			</g>
		</g>
	</g>
</g>
<g id="Capa_3" class="st0">
	<g class="st1">
		<path class="st2" d="M216.5,338.6h-6.7l-0.9-6c-0.9-0.9-2-1.6-3.3-2.1s-2.9-0.8-4.8-0.8c-3.9,0-6.9,1.4-9,4.3
			c-2.1,2.8-3.2,6.5-3.2,11.1v1.6c0,4.6,1,8.3,3.1,11.1c2.1,2.9,5.1,4.3,8.9,4.3c1.8,0,3.4-0.3,4.9-0.8s2.6-1.2,3.4-2.1l0.9-6h6.7
			v8.9c-1.8,2.1-4.1,3.8-6.9,5c-2.8,1.2-5.9,1.9-9.4,1.9c-6,0-11-2.1-14.8-6.3c-3.8-4.2-5.8-9.5-5.8-16.1v-1.5
			c0-6.5,1.9-11.9,5.7-16.1s8.8-6.3,14.8-6.3c3.5,0,6.6,0.6,9.4,1.9c2.8,1.3,5.1,2.9,6.9,5v9H216.5z"/>
		<path class="st2" d="M240.8,323.5c5.1,0,9.1,1.2,12,3.5s4.3,5.6,4.3,9.7c0,2.3-0.6,4.2-1.8,5.9c-1.2,1.7-3,3-5.3,4
			c2.7,0.8,4.6,2.1,5.7,3.9s1.7,4.1,1.7,6.8v2.3c0,1,0.2,1.8,0.6,2.3s1,0.9,1.9,1l1.1,0.2v5.4h-4.7c-2.9,0-5-0.8-6.2-2.4
			s-1.8-3.6-1.8-6.1v-2.6c0-2.2-0.6-3.9-1.7-5.1s-2.8-1.9-4.9-2h-7.4V362l4.8,0.9v5.4h-18.6V363l4.8-0.9v-32.2l-4.8-0.9v-5.4h4.8
			h15.5V323.5z M234.5,343.3h6.2c2.5,0,4.4-0.5,5.6-1.6c1.3-1.1,1.9-2.6,1.9-4.6s-0.6-3.6-1.9-4.8c-1.2-1.2-3.1-1.8-5.5-1.8h-6.4
			L234.5,343.3L234.5,343.3z"/>
		<path class="st2" d="M307.4,335.1h-0.2l-12,33.2h-6l-12-33.1H277l0.9,19.7v7.1l4.8,0.9v5.4h-18.6V363l4.8-0.9v-32.2l-4.8-0.9v-5.4
			h4.8h11.7l11.4,33.1h0.2l11.5-33.1h16.6v5.4l-4.8,0.9V362l4.8,0.9v5.4h-18.6V363l4.8-0.9V355L307.4,335.1z"/>
	</g>
	<g class="st1">
		<g>
			<path class="st2" d="M268.7,174h-4.5l-0.6-4c-0.6-0.6-1.3-1.1-2.3-1.4c-0.9-0.3-2-0.5-3.2-0.5c-2.6,0-4.7,1-6.1,2.9
				c-1.4,1.9-2.1,4.4-2.1,7.5v1.1c0,3.1,0.7,5.6,2.1,7.5c1.4,1.9,3.4,2.9,6,2.9c1.2,0,2.3-0.2,3.3-0.5s1.8-0.8,2.3-1.4l0.6-4h4.5v6
				c-1.2,1.4-2.8,2.5-4.7,3.4c-1.9,0.8-4,1.3-6.4,1.3c-4.1,0-7.4-1.4-10-4.2s-3.9-6.4-3.9-10.8v-1c0-4.4,1.3-8,3.9-10.8
				c2.6-2.8,5.9-4.2,10-4.2c2.3,0,4.5,0.4,6.3,1.3c1.9,0.9,3.4,2,4.7,3.4v5.5H268.7z"/>
			<path class="st2" d="M285.1,163.8c3.4,0,6.1,0.8,8.1,2.4c2,1.6,2.9,3.8,2.9,6.5c0,1.5-0.4,2.9-1.2,4s-2,2-3.6,2.7
				c1.8,0.5,3.1,1.4,3.9,2.6c0.8,1.2,1.2,2.7,1.2,4.6v1.5c0,0.7,0.1,1.2,0.4,1.6c0.3,0.4,0.7,0.6,1.3,0.7l0.7,0.1v3.7h-3.1
				c-2,0-3.4-0.5-4.2-1.6c-0.8-1.1-1.2-2.5-1.2-4.1v-1.7c0-1.5-0.4-2.6-1.2-3.5c-0.8-0.8-1.9-1.3-3.3-1.3h-5v8l3.2,0.6v3.6h-12.6
				v-3.6l3.2-0.6v-22l-3.2-0.6v-3.7h3.2h10.5V163.8z M280.8,177.1h4.2c1.7,0,3-0.4,3.8-1.1c0.8-0.7,1.3-1.8,1.3-3.1
				c0-1.4-0.4-2.4-1.3-3.3s-2.1-1.2-3.7-1.2h-4.3V177.1z"/>
			<path class="st2" d="M330,171.6h-0.1l-8.1,22.4h-4.1l-8.1-22.4h-0.1l0.6,13.3v4.8l3.2,0.6v3.6h-12.6v-3.6l3.2-0.6V168l-3.2-0.6
				v-3.7h3.2h7.9l7.7,22.3h0.1l7.8-22.3h11.2v3.7l-3.2,0.6v21.7l3.2,0.6v3.6H326v-3.6l3.2-0.6V185L330,171.6z"/>
		</g>
		<g>
			<rect x="216.8" y="114.7" class="st3" width="7.9" height="122.5"/>
		</g>
		<g>
			<g>
				<path class="st2" d="M387.9,255v-19.7v-4.6V113.6c0-10.5-8.5-19-19-19H151.7c-10.5,0-19,8.5-19,19v91.1v22.2V255H98.1v13.7
					c0,10.5,8.5,19,19,19h286.5c10.5,0,19-8.5,19-19V255H387.9z M138.9,204.7v-91.1c0-7.1,5.8-12.8,12.8-12.8h217.2
					c6.8,0,12.3,5.3,12.7,12l0,0v118v4.6V255H138.9v-28.1V204.7z M416.4,268.7c0,7.1-5.8,12.8-12.8,12.8H117
					c-7.1,0-12.8-5.8-12.8-12.8v-7.5h312.2L416.4,268.7L416.4,268.7z"/>
			</g>
		</g>
		<g>
			<path class="st3" d="M158.4,242.9h203.8l0,0h6.7v-7.6v-4.6v-116H158.4l0,0h-6.7v90v22.2v16L158.4,242.9L158.4,242.9z
				 M158.4,226.9v-22.2v-83.8h203.8v109.8v4.6v1.5H158.4V226.9z"/>
		</g>
		<g>
			<g>
				<g>
					<path class="st2" d="M167.3,132h10.2v7.2h-10.2V132z"/>
				</g>
				<g>
					<path class="st2" d="M182.5,132h25.4v7.2h-25.4V132z"/>
				</g>
			</g>
			<g>
				<g>
					<path class="st2" d="M167.3,146.3h10.2v7.2h-10.2V146.3z"/>
				</g>
				<g>
					<path class="st2" d="M182.5,146.3h25.4v7.2h-25.4V146.3z"/>
				</g>
			</g>
			<g>
				<g>
					<path class="st2" d="M167.3,160.6h10.2v7.2h-10.2V160.6z"/>
				</g>
				<g>
					<path class="st2" d="M182.5,160.6h25.4v7.2h-25.4V160.6z"/>
				</g>
			</g>
			<g>
				<g>
					<path class="st2" d="M167.3,174.9h10.2v7.2h-10.2V174.9z"/>
				</g>
				<g>
					<path class="st2" d="M182.5,174.9h25.4v7.2h-25.4V174.9z"/>
				</g>
			</g>
			<g>
				<g>
					<path class="st2" d="M167.3,189.2h10.2v7.2h-10.2V189.2z"/>
				</g>
				<g>
					<path class="st2" d="M182.5,189.2h25.4v7.2h-25.4V189.2z"/>
				</g>
			</g>
			<g>
				<g>
					<path class="st2" d="M167.3,203.5h10.2v7.2h-10.2V203.5z"/>
				</g>
				<g>
					<path class="st2" d="M182.5,203.5h25.4v7.2h-25.4V203.5z"/>
				</g>
			</g>
			<g>
				<g>
					<path class="st2" d="M167.3,217.9h10.2v7.2h-10.2V217.9z"/>
				</g>
				<g>
					<path class="st2" d="M182.5,217.9h25.4v7.2h-25.4V217.9z"/>
				</g>
			</g>
		</g>
	</g>
</g>
<g id="Capa_4" class="st0">
	<g class="st1">
		<path class="st2" d="M224.6,337.8h-6.8l-1.2-6.2c-0.8-0.5-1.9-0.9-3.4-1.3s-3.1-0.6-4.8-0.6c-2.5,0-4.4,0.5-5.7,1.6
			c-1.3,1-2,2.4-2,4c0,1.5,0.7,2.8,2.1,3.7c1.4,1,3.8,2,7.3,3.1c5,1.4,8.7,3.2,11.3,5.5s3.8,5.2,3.8,8.9c0,3.8-1.5,6.9-4.6,9.1
			c-3,2.2-7.1,3.3-12,3.3c-3.6,0-6.8-0.6-9.6-1.7c-2.9-1.1-5.3-2.7-7.2-4.7v-9.4h7l1,6.4c0.9,0.7,2.1,1.3,3.7,1.8
			c1.6,0.5,3.3,0.7,5.2,0.7c2.5,0,4.3-0.5,5.6-1.5s1.9-2.4,1.9-4c0-1.7-0.6-3.1-1.8-4.2c-1.2-1-3.4-2-6.4-3
			c-5.3-1.5-9.4-3.4-12.1-5.5c-2.7-2.1-4.1-5-4.1-8.7c0-3.6,1.5-6.6,4.6-8.9s7-3.5,11.6-3.6c3.5,0,6.6,0.5,9.4,1.6
			c2.8,1,5.2,2.4,7.2,4.2V337.8z"/>
		<path class="st2" d="M269.9,346.2c0,6.6-1.9,12-5.6,16.3c-3.8,4.3-8.7,6.4-14.8,6.4s-11-2.1-14.7-6.4s-5.6-9.7-5.6-16.3v-0.7
			c0-6.5,1.9-12,5.6-16.3c3.7-4.3,8.6-6.5,14.7-6.5c6.1,0,11,2.2,14.8,6.5s5.7,9.7,5.7,16.3v0.7H269.9z M260.9,345.5
			c0-4.6-1-8.4-2.9-11.3s-4.8-4.3-8.6-4.3s-6.6,1.4-8.5,4.3s-2.8,6.7-2.8,11.3v0.7c0,4.7,0.9,8.5,2.8,11.4c1.9,2.9,4.7,4.3,8.5,4.3
			s6.7-1.4,8.6-4.3s2.9-6.7,2.9-11.4V345.5z"/>
		<path class="st2" d="M307.6,337.8h-6.8l-1.2-6.2c-0.8-0.5-1.9-0.9-3.4-1.3s-3.1-0.6-4.8-0.6c-2.5,0-4.4,0.5-5.7,1.6
			c-1.3,1-2,2.4-2,4c0,1.5,0.7,2.8,2.1,3.7c1.4,1,3.8,2,7.3,3.1c5,1.4,8.7,3.2,11.3,5.5c2.6,2.3,3.8,5.2,3.8,8.9
			c0,3.8-1.5,6.9-4.6,9.1c-3,2.2-7.1,3.3-12,3.3c-3.6,0-6.8-0.6-9.6-1.7c-2.9-1.1-5.3-2.7-7.2-4.7v-9.4h7l1,6.4
			c0.9,0.7,2.1,1.3,3.7,1.8s3.3,0.7,5.2,0.7c2.5,0,4.3-0.5,5.6-1.5c1.3-1,1.9-2.4,1.9-4c0-1.7-0.6-3.1-1.8-4.2c-1.2-1-3.4-2-6.4-3
			c-5.3-1.5-9.4-3.4-12.1-5.5s-4.1-5-4.1-8.7c0-3.6,1.5-6.6,4.6-8.9s7-3.5,11.6-3.6c3.5,0,6.6,0.5,9.4,1.6c2.8,1,5.2,2.4,7.2,4.2
			V337.8z"/>
	</g>
	<g class="st1">
		<g>
			<path class="st3" d="M357.5,228.5c1.2-0.2,2.2-0.9,2.9-1.8c12.1-17.4,18.5-37.5,18.5-58.2c0-28.9-12.3-56.1-34.6-76.5
				c-22.2-20.3-51.7-31.5-83-31.5s-60.8,11.2-83,31.5c-22.3,20.4-34.6,47.6-34.6,76.5c0,22.5,7.4,43.9,21.4,62.1l1.8,2.3L144,289.4
				c-0.7,1.7-0.3,3.6,1,4.9c1.3,1.2,3.3,1.6,4.9,0.9l63.6-28l2,0.8c14.5,5.6,29.9,8.5,45.7,8.5c19.9,0,39.5-4.6,56.8-13.4
				c1.1-0.5,1.9-1.5,2.2-2.6c0.4-1.1,0.3-2.4-0.3-3.4c-0.5-1.1-1.5-1.9-2.6-2.2c-1.1-0.4-2.4-0.3-3.4,0.3
				c-16,8.1-34.3,12.5-52.8,12.5c-16,0-31.5-3.1-46-9.3c-1.1-0.5-2.4-0.5-3.6,0l-55.2,24.4L176,234c0.6-1.6,0.3-3.3-0.7-4.6
				c-14.9-17.5-22.8-38.5-22.8-60.7c0-54.6,48.7-99,108.6-99s108.6,44.4,108.6,99c0,18.9-5.8,37.2-16.9,53.1c-0.7,1-0.9,2.2-0.7,3.4
				c0.2,1.2,0.9,2.2,1.8,2.9C355.1,228.5,356.3,228.7,357.5,228.5z"/>
		</g>
		<g>
			<g>
				<path class="st2" d="M228.6,159.1h-8.7l-1.5-8c-1-0.6-2.5-1.2-4.4-1.7s-4-0.7-6.2-0.7c-3.2,0-5.7,0.7-7.4,2s-2.6,3.1-2.6,5.2
					c0,2,0.9,3.6,2.7,4.8c1.8,1.3,5,2.6,9.4,4c6.4,1.8,11.3,4.1,14.6,7.1c3.3,2.9,5,6.8,5,11.5c0,5-2,8.9-5.9,11.8
					c-3.9,2.9-9.1,4.3-15.6,4.3c-4.6,0-8.8-0.7-12.5-2.2s-6.8-3.5-9.3-6.1V179h9l1.2,8.3c1.2,1,2.8,1.7,4.8,2.4
					c2,0.6,4.2,0.9,6.7,0.9c3.2,0,5.6-0.6,7.3-2c1.7-1.3,2.5-3,2.5-5.2s-0.8-4-2.4-5.4c-1.6-1.4-4.4-2.6-8.3-3.8
					c-6.9-2-12.1-4.4-15.6-7.1c-3.5-2.7-5.3-6.5-5.3-11.2s2-8.6,6-11.5c4-3,9-4.5,15-4.6c4.5,0,8.5,0.7,12.2,2
					c3.7,1.4,6.8,3.2,9.3,5.4V159.1z"/>
			</g>
			<g>
				<path class="st2" d="M287.1,170c0,8.5-2.4,15.5-7.3,21.1s-11.2,8.3-19.1,8.3c-7.8,0-14.2-2.8-19-8.3c-4.8-5.6-7.2-12.6-7.2-21.1
					v-0.9c0-8.4,2.4-15.5,7.2-21.1s11.1-8.4,19-8.4s14.2,2.8,19.1,8.4c4.9,5.6,7.3,12.6,7.3,21.1V170z M275.5,169.1
					c0-6-1.2-10.9-3.7-14.6c-2.5-3.8-6.2-5.6-11.1-5.6s-8.5,1.9-10.9,5.6c-2.4,3.7-3.6,8.6-3.6,14.7v1c0,6.1,1.2,11,3.6,14.8
					c2.4,3.7,6.1,5.6,10.9,5.6c4.9,0,8.6-1.9,11.1-5.6c2.5-3.7,3.7-8.7,3.7-14.8V169.1z"/>
			</g>
			<g>
				<path class="st2" d="M335.8,159.1h-8.7l-1.5-8c-1-0.6-2.5-1.2-4.4-1.7s-4-0.7-6.2-0.7c-3.2,0-5.7,0.7-7.4,2
					c-1.7,1.3-2.6,3.1-2.6,5.2c0,2,0.9,3.6,2.7,4.8c1.8,1.3,5,2.6,9.4,4c6.4,1.8,11.3,4.1,14.6,7.1c3.3,2.9,5,6.8,5,11.5
					c0,5-2,8.9-5.9,11.8c-3.9,2.9-9.1,4.3-15.6,4.3c-4.6,0-8.8-0.7-12.5-2.2s-6.8-3.5-9.3-6.1V179h9l1.2,8.3c1.2,1,2.8,1.7,4.8,2.4
					c2,0.6,4.2,0.9,6.7,0.9c3.2,0,5.6-0.6,7.3-2c1.7-1.3,2.5-3,2.5-5.2s-0.8-4-2.4-5.4s-4.4-2.6-8.3-3.8c-6.9-2-12.1-4.4-15.6-7.1
					c-3.5-2.7-5.3-6.5-5.3-11.2s2-8.6,6-11.5c4-3,9-4.5,15-4.6c4.5,0,8.5,0.7,12.2,2c3.7,1.4,6.8,3.2,9.3,5.4L335.8,159.1
					L335.8,159.1z"/>
			</g>
		</g>
	</g>
</g>
<g id="Capa_5" class="st0">
	<g class="st1">
		<path class="st2" d="M53.5,365.9c-1.5,1.4-3.6,2.7-6.4,3.9c-2.8,1.2-6.3,1.7-10.6,1.7c-6.1,0-11-2-14.8-6.1s-5.7-9.3-5.7-15.8
			v-1.5c0-6.7,1.9-12.2,5.6-16.4c3.8-4.2,8.6-6.3,14.7-6.3c3.5,0,6.7,0.6,9.6,1.7s5.3,2.6,7.3,4.5v9h-6.7l-1.3-6
			c-0.8-0.7-1.9-1.3-3.3-1.7c-1.3-0.4-2.9-0.6-4.6-0.6c-3.9,0-7,1.4-9.2,4.3s-3.3,6.7-3.3,11.4v1.6c0,4.6,1.1,8.2,3.2,10.9
			c2.1,2.7,5.2,4.1,9.2,4.1c1.8,0,3.3-0.2,4.4-0.5c1.1-0.3,2-0.7,2.6-1.1v-7.6l-6.4-0.5v-6.3h15.4v17.3H53.5z"/>
		<path class="st2" d="M74.2,371.6c-4.8,0-8.7-1.5-11.5-4.6c-2.9-3.1-4.3-7-4.3-11.7V354c0-5,1.4-9,4.1-12.2c2.7-3.2,6.4-4.8,11-4.8
			c4.5,0,8,1.4,10.5,4.1s3.7,6.4,3.7,11v4.9h-20l-0.1,0.2c0.2,2.2,0.9,4,2.2,5.4c1.3,1.4,3.1,2.1,5.3,2.1c2,0,3.6-0.2,5-0.6
			c1.3-0.4,2.8-1,4.3-1.9l2.4,5.6c-1.4,1.1-3.2,2-5.3,2.7C79.4,371.2,76.9,371.6,74.2,371.6z M73.4,343.9c-1.7,0-3,0.6-3.9,1.9
			c-1,1.3-1.6,3-1.8,5l0.1,0.2h11v-0.8c0-1.9-0.4-3.4-1.3-4.6C76.6,344.4,75.2,343.9,73.4,343.9z"/>
		<path class="st2" d="M91.9,353.9c0-5,1.4-9,4.2-12.2c2.8-3.2,6.6-4.8,11.5-4.8s8.8,1.6,11.6,4.8c2.8,3.2,4.2,7.2,4.2,12.2v0.6
			c0,5-1.4,9.1-4.2,12.3c-2.8,3.2-6.6,4.7-11.5,4.7c-5,0-8.8-1.6-11.6-4.7c-2.8-3.2-4.2-7.2-4.2-12.3V353.9z M100.9,354.6
			c0,3,0.5,5.5,1.6,7.3s2.8,2.8,5.2,2.8c2.3,0,4-0.9,5.1-2.8c1.1-1.8,1.6-4.3,1.6-7.3V354c0-3-0.5-5.4-1.6-7.2
			c-1.1-1.9-2.8-2.8-5.1-2.8c-2.3,0-4,0.9-5.1,2.8s-1.6,4.3-1.6,7.2L100.9,354.6L100.9,354.6z"/>
		<path class="st2" d="M125.7,328.2v-5.4h13.8v41.8l4.3,0.9v5.4h-17.7v-5.4l4.3-0.9v-35.4L125.7,328.2z"/>
		<path class="st2" d="M146.2,353.9c0-5,1.4-9,4.2-12.2s6.6-4.8,11.5-4.8s8.8,1.6,11.6,4.8c2.8,3.2,4.2,7.2,4.2,12.2v0.6
			c0,5-1.4,9.1-4.2,12.3c-2.8,3.2-6.6,4.7-11.5,4.7c-5,0-8.8-1.6-11.6-4.7c-2.8-3.2-4.2-7.2-4.2-12.3V353.9z M155.2,354.6
			c0,3,0.5,5.5,1.6,7.3s2.8,2.8,5.2,2.8c2.3,0,4-0.9,5.1-2.8c1.1-1.8,1.6-4.3,1.6-7.3V354c0-3-0.5-5.4-1.6-7.2
			c-1.1-1.9-2.8-2.8-5.1-2.8s-4,0.9-5.1,2.8s-1.6,4.3-1.6,7.2L155.2,354.6L155.2,354.6z"/>
		<path class="st2" d="M197.3,364.7c1.6,0,2.9-0.5,3.9-1.4s1.4-2.2,1.4-3.7h8.1l0.1,0.2c0.1,3.4-1.2,6.2-3.8,8.5s-5.9,3.4-9.7,3.4
			c-5,0-8.8-1.6-11.5-4.7s-4-7.2-4-12.1V354c0-4.9,1.4-9,4.1-12.1c2.8-3.2,6.7-4.8,11.8-4.8c2.7,0,5.1,0.4,7.2,1.2
			c2.1,0.8,3.9,1.9,5.3,3.4l0.1,8.9H203l-1.5-5.2c-0.5-0.4-1-0.7-1.7-1s-1.4-0.4-2.3-0.4c-2.5,0-4.3,0.9-5.4,2.8
			c-1,1.8-1.6,4.2-1.6,7.2v0.9c0,3,0.5,5.4,1.4,7.2C193.1,363.7,194.8,364.7,197.3,364.7z"/>
		<path class="st2" d="M236.1,370.9c-0.2-0.6-0.5-1.1-0.6-1.7c-0.2-0.6-0.3-1.2-0.4-1.8c-1.1,1.2-2.4,2.2-3.9,3s-3.3,1.1-5.3,1.1
			c-3.3,0-5.9-0.9-7.8-2.7c-1.9-1.8-2.9-4.2-2.9-7.3c0-3.1,1.3-5.5,3.8-7.2s6.2-2.6,11-2.6h4.6v-3.3c0-1.6-0.5-2.8-1.4-3.7
			c-0.9-0.9-2.3-1.3-4.1-1.3c-1,0-1.9,0.1-2.7,0.4c-0.8,0.2-1.4,0.5-1.9,0.8l-0.6,3.6h-6.8v-7.4c1.6-1.1,3.5-2,5.7-2.8
			c2.1-0.8,4.4-1.1,7-1.1c4.1,0,7.5,1,10.1,3s3.9,4.9,3.9,8.6v13.8c0,0.5,0,1,0,1.4c0,0.5,0,0.9,0.1,1.3l2.7,0.4v5.4h-10.5V370.9z
			 M228.3,364.9c1.4,0,2.6-0.3,3.7-0.9c1.1-0.6,2-1.3,2.6-2.2v-5.1H230c-1.9,0-3.4,0.4-4.3,1.3c-1,0.9-1.5,2-1.5,3.2
			c0,1.1,0.4,2,1.1,2.7C226,364.6,227,364.9,228.3,364.9z"/>
		<path class="st2" d="M248.6,328.2v-5.4h13.8v41.8l4.3,0.9v5.4H249v-5.4l4.3-0.9v-35.4L248.6,328.2z"/>
		<path class="st2" d="M269.4,365.5l4.3-0.9v-20.7l-4.8-0.9v-5.4h13.8v27l4.3,0.9v5.4h-17.7v-5.4H269.4z M282.8,329.6h-9v-6.8h9
			V329.6z"/>
		<path class="st2" d="M302,364h9.3l0.4-4.4h6.9v11.3h-27.7v-5.3l15.9-21.1h-8.2l-0.3,4.4h-6.9v-11.4H318v5.1L302,364z"/>
		<path class="st2" d="M344.3,370.9c-0.2-0.6-0.5-1.1-0.6-1.7s-0.3-1.2-0.4-1.8c-1.1,1.2-2.4,2.2-3.9,3s-3.3,1.1-5.3,1.1
			c-3.3,0-5.9-0.9-7.8-2.7c-1.9-1.8-2.9-4.2-2.9-7.3c0-3.1,1.3-5.5,3.8-7.2s6.2-2.6,11-2.6h4.6v-3.3c0-1.6-0.5-2.8-1.4-3.7
			c-0.9-0.9-2.3-1.3-4.1-1.3c-1,0-1.9,0.1-2.7,0.4c-0.8,0.2-1.4,0.5-1.9,0.8l-0.6,3.6h-6.8v-7.4c1.6-1.1,3.5-2,5.7-2.8
			c2.1-0.8,4.4-1.1,7-1.1c4.1,0,7.5,1,10.1,3s3.9,4.9,3.9,8.6v13.8c0,0.5,0,1,0,1.4c0,0.5,0,0.9,0.1,1.3l2.7,0.4v5.4h-10.5V370.9z
			 M336.5,364.9c1.4,0,2.6-0.3,3.7-0.9s2-1.3,2.6-2.2v-5.1h-4.6c-1.9,0-3.4,0.4-4.3,1.3c-1,0.9-1.5,2-1.5,3.2c0,1.1,0.4,2,1.1,2.7
			C334.2,364.6,335.2,364.9,336.5,364.9z"/>
		<path class="st2" d="M373.4,364.7c1.6,0,2.9-0.5,3.9-1.4s1.5-2.2,1.5-3.7h8.1l0.1,0.2c0.1,3.4-1.2,6.2-3.8,8.5
			c-2.6,2.3-5.9,3.4-9.7,3.4c-5,0-8.8-1.6-11.5-4.7s-4-7.2-4-12.1V354c0-4.9,1.4-9,4.1-12.1c2.8-3.2,6.7-4.8,11.8-4.8
			c2.7,0,5.1,0.4,7.2,1.2c2.1,0.8,3.9,1.9,5.3,3.4l0.1,8.9h-7.3l-1.5-5.2c-0.5-0.4-1-0.7-1.7-1s-1.4-0.4-2.3-0.4
			c-2.5,0-4.3,0.9-5.4,2.8c-1,1.8-1.6,4.2-1.6,7.2v0.9c0,3,0.5,5.4,1.4,7.2S371,364.7,373.4,364.7z"/>
		<path class="st2" d="M390.7,365.5l4.3-0.9v-20.7l-4.8-0.9v-5.4H404v27l4.3,0.9v5.4h-17.7v-5.4H390.7z M404.1,329.6h-9v-6.8h9
			V329.6z"/>
		<path class="st2" d="M411.3,353.9c0-5,1.4-9,4.2-12.2c2.8-3.2,6.6-4.8,11.5-4.8s8.8,1.6,11.6,4.8c2.8,3.2,4.2,7.2,4.2,12.2v0.6
			c0,5-1.4,9.1-4.2,12.3c-2.8,3.2-6.6,4.7-11.5,4.7c-5,0-8.8-1.6-11.6-4.7c-2.8-3.2-4.2-7.2-4.2-12.3V353.9z M420.3,354.6
			c0,3,0.5,5.5,1.6,7.3s2.8,2.8,5.2,2.8c2.3,0,4-0.9,5.1-2.8c1.1-1.8,1.6-4.3,1.6-7.3V354c0-3-0.5-5.4-1.6-7.2
			c-1.1-1.9-2.8-2.8-5.1-2.8c-2.3,0-4,0.9-5.1,2.8s-1.6,4.3-1.6,7.2v0.6H420.3z M427.8,324.5h9.5l0.1,0.2l-8.5,8h-7.2L427.8,324.5z"
			/>
		<path class="st2" d="M446.2,365.5l4.3-0.9v-20.7l-4.8-0.9v-5.4h13.2l0.4,4.8c1.1-1.7,2.5-3,4.1-4c1.6-0.9,3.4-1.4,5.5-1.4
			c3.4,0,6,1.1,7.9,3.2s2.8,5.4,2.8,10v14.5l4.3,0.9v5.4h-17.2v-5.4l3.9-0.9v-14.5c0-2.2-0.5-3.8-1.4-4.8c-0.9-0.9-2.3-1.4-4.1-1.4
			c-1.2,0-2.3,0.2-3.2,0.7c-0.9,0.5-1.7,1.2-2.4,2v17.9l3.6,0.9v5.4h-17v-5.4H446.2z"/>
		<path class="st2" d="M153.2,407.2v-5.4h18.6v5.4l-4.8,0.9v32.2l4.8,0.9v5.4h-18.6v-5.4l4.8-0.9v-32.2L153.2,407.2z"/>
		<path class="st2" d="M174.9,441.3l4.3-0.9v-20.7l-4.8-0.9v-5.4h13.2l0.4,4.8c1.1-1.7,2.5-3,4.1-4c1.6-0.9,3.4-1.4,5.5-1.4
			c3.4,0,6,1.1,7.9,3.2s2.8,5.4,2.8,10v14.5l4.3,0.9v5.4h-17.2v-5.4l3.9-0.9V426c0-2.2-0.5-3.8-1.4-4.8c-0.9-0.9-2.3-1.4-4.1-1.4
			c-1.2,0-2.3,0.2-3.2,0.7s-1.7,1.2-2.4,2v17.9l3.6,0.9v5.4h-17L174.9,441.3L174.9,441.3z"/>
		<path class="st2" d="M236.9,442.6c-1,1.5-2.3,2.7-3.7,3.5s-3.1,1.2-4.9,1.2c-4.1,0-7.3-1.5-9.6-4.5s-3.4-7-3.4-11.9v-0.6
			c0-5.3,1.1-9.5,3.4-12.7c2.3-3.2,5.5-4.8,9.6-4.8c1.7,0,3.2,0.4,4.5,1.1s2.5,1.8,3.5,3.1v-12l-4.8-0.9v-5.4h4.8h9v41.8l4.3,0.9
			v5.4h-12.1L236.9,442.6z M224.3,430.9c0,2.9,0.5,5.2,1.5,6.9c1,1.7,2.6,2.5,4.8,2.5c1.3,0,2.5-0.3,3.4-0.8c1-0.5,1.8-1.3,2.4-2.3
			V423c-0.6-1.1-1.4-1.9-2.4-2.5s-2.1-0.9-3.4-0.9c-2.2,0-3.8,1-4.8,2.9c-1,2-1.5,4.5-1.5,7.6V430.9z"/>
		<path class="st2" d="M252.6,429.7c0-5,1.4-9.1,4.2-12.2c2.8-3.2,6.6-4.8,11.5-4.8s8.8,1.6,11.6,4.7s4.2,7.2,4.2,12.2v0.6
			c0,5-1.4,9.1-4.2,12.3c-2.8,3.2-6.6,4.7-11.5,4.7c-5,0-8.8-1.6-11.6-4.7c-2.8-3.2-4.2-7.2-4.2-12.3L252.6,429.7L252.6,429.7z
			 M261.6,430.3c0,3,0.5,5.5,1.6,7.3s2.8,2.8,5.2,2.8c2.3,0,4-0.9,5.1-2.8s1.6-4.3,1.6-7.3v-0.6c0-3-0.5-5.4-1.6-7.2
			c-1.1-1.9-2.8-2.8-5.1-2.8c-2.3,0-4,0.9-5.1,2.8s-1.6,4.3-1.6,7.2v0.6H261.6z"/>
		<path class="st2" d="M288,429.7c0-5,1.4-9.1,4.2-12.2s6.6-4.8,11.5-4.8s8.8,1.6,11.6,4.7s4.2,7.2,4.2,12.2v0.6
			c0,5-1.4,9.1-4.2,12.3c-2.8,3.2-6.6,4.7-11.5,4.7c-5,0-8.8-1.6-11.6-4.7c-2.8-3.2-4.2-7.2-4.2-12.3V429.7z M297,430.3
			c0,3,0.5,5.5,1.6,7.3s2.8,2.8,5.2,2.8c2.3,0,4-0.9,5.1-2.8s1.6-4.3,1.6-7.3v-0.6c0-3-0.5-5.4-1.6-7.2c-1.1-1.9-2.8-2.8-5.1-2.8
			s-4,0.9-5.1,2.8s-1.6,4.3-1.6,7.2v0.6H297z"/>
		<path class="st2" d="M324,441.3l4.3-0.9v-20.7l-4.8-0.9v-5.4h13.2l0.4,4.9c0.8-1.7,1.8-3.1,3-4c1.2-1,2.7-1.4,4.3-1.4
			c0.5,0,1,0,1.5,0.1s1,0.2,1.3,0.3l-1,8.2l-3.7-0.1c-1.3,0-2.4,0.3-3.3,0.8s-1.5,1.2-2,2.2v16.2l4.3,0.9v5.4H324V441.3z"/>
	</g>
	<g class="st1">
		<g>
			<g>
				<path class="st3" d="M187.2,88.1l36.7,17l-86,21.6l6.1-37.4c0.1-0.7,0.7-1.1,1.3-1.1L187.2,88.1 M188.9,80.2h-43.7
					c-4.5,0-8.4,3.3-9.1,7.8l-8,49.2l119.3-29.9l-58.1-26.9C189.2,80.3,189.1,80.3,188.9,80.2L188.9,80.2z"/>
			</g>
			<g>
				<path class="st3" d="M343.7,88.1c0.7,0,1.2,0.5,1.3,1.1l3.8,23.4l-9.3,14.4l-84.1-38.9H343.7 M343.7,80.2h-124L342.5,137
					l14.6-22.7L352.8,88C352.1,83.5,348.3,80.2,343.7,80.2L343.7,80.2z"/>
			</g>
			<g>
				<path class="st3" d="M355.7,155l17.7,109.3c0.1,0.4,0,0.8-0.3,1.1c-0.3,0.3-0.6,0.5-1,0.5h-87.9L355.7,155 M360.2,133.5
					l-90.5,140.3h102.4c2.7,0,5.3-1.2,7-3.3c1.8-2.1,2.5-4.8,2.1-7.5L360.2,133.5L360.2,133.5z"/>
			</g>
			<g>
				<path class="st3" d="M265.3,124.3l58.6,27.1L250,265.9H116.9c-0.4,0-0.8-0.2-1-0.5c-0.3-0.3-0.4-0.7-0.3-1.1l17.3-106.8
					L265.3,124.3 M266.1,115.9l-140,35.1c-0.1,0-0.1,0-0.2,0l-18.1,112c-0.4,2.7,0.3,5.4,2.1,7.5c1.8,2.1,4.3,3.3,7,3.3h137.5
					l81-125.8L266.1,115.9L266.1,115.9z"/>
			</g>
		</g>
		<g>
			<g>
				<path class="st2" d="M173,192.5c0,5.6,1.3,11.2,3.9,16.2c0.2,0.3,14.4,24.2,20.5,34.4l3,5c1.7,2.8,4.6,4.5,7.9,4.5
					c3.3,0,6.2-1.7,7.9-4.5L240,208c2.3-4.7,3.5-10,3.5-15.3c0-8.5-3.1-16.7-8.8-23.2c-3.4-3.8-7-6.5-11-8.5l-0.3-0.1l0.2-0.8l0,0
					l-0.4,0.7c-4.7-2.2-9.7-3.3-14.9-3.3c-0.2,0-0.4,0-0.6,0C188.7,157.8,173.1,173.5,173,192.5z M207.8,165.1
					c7.4-0.2,14.4,2.7,19.8,8c5.3,5.2,8.2,12.2,8.2,19.7c0,4.4-1,8.6-2.9,12.4v0.1l-24.7,41.4l-24.7-41.3c-2-4-3-8.3-3-12.7
					C180.6,177.6,192.8,165.3,207.8,165.1z"/>
			</g>
			<g>
				<path class="st2" d="M208.2,179.4c-6.9,0-12.6,5.7-12.6,12.6s5.7,12.6,12.6,12.6c6.9,0,12.6-5.7,12.6-12.6
					S215.1,179.4,208.2,179.4z M208.2,198.7c-3.7,0-6.7-3-6.7-6.7s3-6.7,6.7-6.7s6.7,3,6.7,6.7S211.9,198.7,208.2,198.7z"/>
			</g>
		</g>
	</g>
</g>
<g id="Capa_6" class="st0">
	<g class="st1">
		<path class="st2" d="M187.7,362.3l3.2-0.5l13.7-39h9.2l13.6,39l3.2,0.5v5.4h-15.3v-5.4l3.1-0.6l-2-6.2h-14.6l-2,6.2l3.1,0.6v5.4
			h-15.3v-5.4H187.7z M203.9,349h10.3l-5.1-15.8H209L203.9,349z"/>
		<path class="st2" d="M254.9,322.8c5.1,0,9.2,1.3,12.2,4c3,2.6,4.5,6.1,4.5,10.4s-1.5,7.7-4.5,10.4c-3,2.6-7,3.9-12.2,3.9h-7.6v10
			l4.8,0.9v5.4h-18.6v-5.4l4.8-0.9v-32.2l-4.8-0.9V323h4.8h16.6V322.8z M247.3,344.5h7.6c2.5,0,4.4-0.7,5.7-2
			c1.3-1.4,1.9-3.1,1.9-5.2c0-2.2-0.6-3.9-1.9-5.3s-3.2-2.1-5.7-2.1h-7.6V344.5z"/>
		<path class="st2" d="M295.7,322.8c5.1,0,9.2,1.3,12.2,4c3,2.6,4.5,6.1,4.5,10.4s-1.5,7.7-4.5,10.4c-3,2.6-7,3.9-12.2,3.9h-7.6v10
			l4.8,0.9v5.4h-18.6v-5.4l4.8-0.9v-32.2l-4.8-0.9V323h4.8h16.6V322.8z M288.1,344.5h7.6c2.5,0,4.4-0.7,5.7-2
			c1.3-1.4,1.9-3.1,1.9-5.2c0-2.2-0.6-3.9-1.9-5.3s-3.2-2.1-5.7-2.1h-7.6V344.5z"/>
	</g>
	<g class="st1">
		<g>
			<g>
				<path class="st2" d="M286.6,81.4h-83.2c-10.5,0-19,8.5-19,19v4.2v1.1v3v8.8v151.1c0,10.5,8.5,19,19,19h14.2h54.9h14.2
					c10.5,0,19-8.5,19-19v-151v-8.8v-3v-1.1v-4.2C305.6,90,297.1,81.4,286.6,81.4z M203.4,87.6h83.2c6.8,0,12.3,5.3,12.7,12h-13
					h-82.7h-13C191.1,92.9,196.6,87.6,203.4,87.6z M190.6,117.6v-8.8v-3l0,0h13.1h82.7h13.1l0,0v3v8.8v136.1H190.6V117.6z
					 M299.5,268.7c0,7.1-5.8,12.8-12.8,12.8h-14.2h-54.9h-14.2c-7.1,0-12.8-5.8-12.8-12.8v-8.8h108.9V268.7z"/>
			</g>
		</g>
		<g>
			<g>
				<g>
					<path class="st3" d="M262.5,95.5h-25.6c-1.1,0-2-0.9-2-2s0.9-2,2-2h25.6c1.1,0,2,0.9,2,2S263.6,95.5,262.5,95.5z"/>
				</g>
			</g>
			<g>
				<g>
					<path class="st3" d="M231.3,95.5h-3.8c-1.1,0-2-0.9-2-2s0.9-2,2-2h3.8c1.1,0,2,0.9,2,2S232.4,95.5,231.3,95.5z"/>
				</g>
			</g>
		</g>
		<g>
			<path class="st3" d="M258.6,274.3h-27.2c-0.5,0-0.9-0.4-0.9-0.9v-5.1c0-0.5,0.4-0.9,0.9-0.9h27.2c0.5,0,0.9,0.4,0.9,0.9v5.1
				C259.5,273.9,259.1,274.3,258.6,274.3z"/>
		</g>
		<g>
			<g>
				<g>
					<path class="st3" d="M200,244.3h25.4v-25.4H200V244.3z M206.2,225.1h13.1v13.1h-13.1V225.1z"/>
				</g>
			</g>
			<g>
				<g>
					<path class="st3" d="M257.7,218.9h-25.4v25.4h25.4V218.9z M251.6,238.2h-13.1v-13.1h13.1V238.2z"/>
				</g>
			</g>
			<g>
				<g>
					<path class="st3" d="M290,218.9h-25.4v25.4H290V218.9z M283.9,238.2h-13.1v-13.1h13.1V238.2z"/>
				</g>
			</g>
		</g>
	</g>
</g>
<g id="Capa_7">
	<g>
		<g>
			<g>
				<polygon class="st4" points="237.8,333.2 268.1,363.4 297.4,332.8 266.9,318.2 				"/>
			</g>
			<g>
				<polygon class="st3" points="256.1,183.6 260.9,188.4 253.7,147.3 265.1,135.9 262.3,133.1 251.2,144.2 240.9,138.6 239,142.1 
					249.8,147.9 				"/>
			</g>
			<g>
				<polygon class="st3" points="276.4,238.2 273.5,241.1 281.3,258.2 288.3,265.4 290,267 326.6,198 323.2,196.1 287.8,262.9 				
					"/>
			</g>
			<g>
				<path class="st3" d="M290.9,273.9l-2.6,2.6l-0.8,0.8l10.4,51.4l-28.5-13.6l14.6-34.3l-7.5,7.5l-11.2,26.3l-30.2,15.6L211.8,301
					l9.1-14.5l-1.7-1.7l-1.1-1.1l-9.5,15.1l-12.7-4.7l-2.7-125l-3.9,0.1l2.7,125.5l-11.4,11.5l2.8,2.8l11.1-11.2l13.8,5.1l22.8,28.5
					l-28.3,4.9l0.7,3.9L234,335l34.3,34.2l32.9-34.6l14.9,6.5l1.6-3.6l-15.2-6.6L290.9,273.9z M268.1,363.4l-30.3-30.1l29.1-15
					l30.4,14.5L268.1,363.4z"/>
			</g>
		</g>
		<g>
			<g>
				<path class="st2" d="M270.4,372L201,343.7l-29.8-47.3l17.4-127.8l69.5-40.5l54.6,24l16.1,45l-2.7,125.5l-5.9,19.7L270.4,372z
					 M205,338.9l64.9,26.5l45.3-26.9l5.1-17.1l2.6-123.2L308,156.6l-49.5-21.8l-64.4,37.5l-16.7,122.9L205,338.9z"/>
			</g>
		</g>
		<g id="XMLID_2_">
			<path class="st5" d="M282.7,270.9l-25.1-25.1l25-25l-36.9-36.3v49.3L224.9,213l-7.5,7.5l25.5,25.5l-25.7,25.7l7.5,7.5l21-21v49.6
				L282.7,270.9L282.7,270.9z M255.4,208.1l12.8,13l-12.8,12.8V208.1L255.4,208.1z M255.4,257.4l12.8,13l-12.8,12.8V257.4
				L255.4,257.4z"/>
		</g>
	</g>
</g>
<g id="Capa_8" class="st0">
	<g class="st1">
		<path class="st2" d="M228.7,363.4c-1.5,1.4-3.6,2.7-6.4,3.9c-2.8,1.2-6.3,1.7-10.6,1.7c-6.1,0-11-2-14.8-6.1s-5.7-9.3-5.7-15.8
			v-1.5c0-6.7,1.9-12.2,5.6-16.4c3.8-4.2,8.6-6.3,14.7-6.3c3.5,0,6.7,0.6,9.6,1.7c2.9,1.1,5.3,2.6,7.3,4.6v9h-6.7l-1.3-6
			c-0.8-0.7-1.9-1.3-3.3-1.7c-1.3-0.4-2.9-0.6-4.6-0.6c-3.9,0-7,1.5-9.2,4.3c-2.2,2.9-3.3,6.7-3.3,11.4v1.6c0,4.6,1.1,8.2,3.2,10.9
			c2.1,2.7,5.2,4.1,9.2,4.1c1.8,0,3.3-0.2,4.4-0.5c1.1-0.3,2-0.7,2.6-1.1V353l-6.4-0.5v-6.3h15.4v17.2H228.7z"/>
		<path class="st2" d="M254.6,323.5c5.1,0,9.2,1.3,12.2,4c3,2.6,4.5,6.1,4.5,10.4s-1.5,7.8-4.5,10.4s-7,3.9-12.2,3.9H247v10l4.8,0.9
			v5.4h-18.6V363l4.8-0.9v-32.2l-4.8-0.9v-5.4h4.8h16.6V323.5z M247,345.1h7.6c2.5,0,4.4-0.7,5.7-2c1.3-1.4,1.9-3.1,1.9-5.2
			c0-2.2-0.6-3.9-1.9-5.3s-3.2-2.1-5.7-2.1H247V345.1z"/>
		<path class="st2" d="M308.2,337.8h-6.8l-1.2-6.2c-0.8-0.5-1.9-0.9-3.4-1.3s-3.1-0.6-4.8-0.6c-2.5,0-4.4,0.5-5.7,1.6
			c-1.3,1-2,2.4-2,4c0,1.5,0.7,2.8,2.1,3.7c1.4,1,3.8,2,7.3,3.1c5,1.4,8.7,3.2,11.3,5.5c2.6,2.3,3.8,5.2,3.8,8.9
			c0,3.8-1.5,6.9-4.6,9.1c-3,2.2-7.1,3.3-12,3.3c-3.6,0-6.8-0.6-9.6-1.7c-2.9-1.1-5.3-2.7-7.2-4.7v-9.4h7l1,6.4
			c0.9,0.7,2.1,1.3,3.7,1.8s3.3,0.7,5.2,0.7c2.5,0,4.3-0.5,5.6-1.5c1.3-1,1.9-2.4,1.9-4c0-1.7-0.6-3.1-1.8-4.2c-1.2-1-3.4-2-6.4-3
			c-5.3-1.5-9.4-3.4-12.1-5.5s-4.1-5-4.1-8.7c0-3.6,1.5-6.6,4.6-8.9s7-3.5,11.6-3.6c3.5,0,6.6,0.5,9.4,1.6c2.8,1,5.2,2.4,7.2,4.2
			V337.8z"/>
	</g>
	<g class="st1">
		<g>
			<path class="st3" d="M135.1,287.5l251.4,0.1c8.1,0,14.6-6.6,14.6-14.6v-63.8l-10,16.9V273c0,2.5-2.1,4.6-4.6,4.6h-16.7l-0.1-0.1
				l-46.4-46.4l14.6-14.6c0.8-0.8,1.3-1.9,1.3-3.1c0-1.2-0.5-2.3-1.3-3.1c-1.7-1.7-4.5-1.7-6.2,0l-14.6,14.6l-0.3-0.3l-46.2-46.2
				l0.3-0.4l23.8-23.8l12.5,12.5c1.9,1.9,5.2,1.9,7.1,0c0.9-0.9,1.5-2.2,1.5-3.5s-0.5-2.6-1.5-3.5l-12.5-12.5l0.3-0.4l72.1-72.1
				h12.3c2.5,0,4.6,2.1,4.6,4.6v27.2c0.1,0,0.1,0,0.2,0.1c0.2,0.1,0.4,0.2,0.6,0.2l0.6,0.3c3,1.5,5.8,3.3,8.6,5.5V79.2
				c0-8-6.5-14.6-14.6-14.6l-189.3-0.1c1.5,3.3,2.7,6.6,3.4,10h75.1l-0.8,0.8L221.2,129l-0.3-0.3L202,109.8c-1.7-1.7-4.5-1.7-6.2,0
				c-0.8,0.8-1.3,1.9-1.3,3.1s0.5,2.3,1.3,3.1l38.4,38.3l-0.3,0.4l-31.7,31.7l-0.3-0.3l-25-25c-1.7-1.7-4.5-1.7-6.2,0
				s-1.7,4.5,0,6.2l13.9,13.9l-0.3,0.4l-53.6,53.6v-71.5l-10-16.8V273C120.6,281,127.1,287.5,135.1,287.5z M209.5,277.6l-0.1-0.1
				l-19.2-19.3l0.3-0.4l35.4-35.4l0.3,0.3l54.8,54.8L209.5,277.6z M317.1,237.2l0.3,0.3l40.1,40.1h-64.2l-0.1-0.1l-8.2-8.2l0.3-0.4
				L317.1,237.2z M287.4,207.5l23.5,23.5l-0.3,0.4l-31.7,31.7l-0.3-0.3L255,239.3l0.3-0.4l31.7-31.7L287.4,207.5z M361.9,74.6
				l-34.8,34.8l-0.3-0.3l-34.5-34.5L361.9,74.6z M227.4,135.2l0.3-0.4L284,78.6l0.3,0.3l36.6,36.6l-0.3,0.4l-56.2,56.2l-0.3-0.3
				L227.4,135.2z M208.6,192.2l31.7-31.7l0.3,0.3l40.3,40.3l-0.3,0.4l-31.7,31.7l-0.3-0.3l-40.2-40.3L208.6,192.2z M155.3,222.6
				l35.4-35.4l0.3,0.3l28.7,28.7l-0.3,0.4L184,252l-0.3-0.3L155,223L155.3,222.6z M130.6,247.4l0.1-0.1l18.1-18.1l0.3,0.3l48.1,48.1
				h-62.1c-2.5,0-4.6-2.1-4.6-4.6v-25.6H130.6z"/>
		</g>
		<g>
			<g>
				<path class="st2" d="M182.1,63.8c-0.1-0.2-0.3-0.4-0.4-0.6l-0.3-0.4c-0.8-1-1.6-2-2.4-2.9l-0.4-0.4c-0.5-0.5-0.9-1-1.4-1.5
					c-7.9-7.8-18.4-12.1-29.5-12.1h-0.6c-22.7,0.3-41.3,19.1-41.5,41.8c0,6.6,1.5,13.2,4.5,19.1l28.5,47.7c2,3.1,5.4,5,9.1,5
					c3.9,0,7.4-2,9.4-5.3l0.5-0.8l0,0c0.7-1.2,1.9-3.4,4.4-7.4c11-18.4,22.7-38.1,23.2-38.8c3-5.8,4.6-12.4,4.6-19.1
					c0-3-0.4-6.1-1.2-9.5C187.2,72.7,185,67.9,182.1,63.8z M177.3,102.8l-29.5,49.5l-29.5-49.4c-2.4-4.7-3.6-9.8-3.5-15.1
					c0.1-17.9,14.7-32.6,32.6-32.8c8.9-0.1,17.4,3.3,23.7,9.5c2.1,2.1,4,4.5,5.5,7.1l0.2,0.3c2.7,4.9,4.2,10.5,4.2,16.1
					C180.8,93.2,179.6,98.1,177.3,102.8z"/>
			</g>
			<g>
				<path class="st2" d="M147.8,72.5c-8.3,0-15,6.8-15,15s6.8,15,15,15c8.3,0,15-6.8,15-15S156,72.5,147.8,72.5z M147.8,95.6
					c-4.4,0-8-3.6-8-8s3.6-8,8-8s8,3.6,8,8S152.2,95.6,147.8,95.6z"/>
			</g>
			<g>
				<g>
					<path class="st2" d="M328.8,155.2c0,6.7,1.6,13.4,4.6,19.4c0.2,0.4,17.2,28.9,24.5,41.1l3.5,5.9c2,3.3,5.5,5.3,9.4,5.3
						s7.4-2,9.4-5.3l28.4-47.9c2.7-5.6,4.2-12,4.2-18.3c0-10.2-3.7-20-10.5-27.7c-4.1-4.5-8.4-7.8-13.1-10.1l-0.4-0.2l0.2-1l0,0
						l-0.4,0.9c-5.6-2.6-11.6-4-17.8-4c-0.2,0-0.4,0-0.7,0C347.6,113.7,329,132.4,328.8,155.2z M370.4,122.4
						c8.8-0.2,17.3,3.2,23.7,9.5c6.3,6.3,9.8,14.6,9.8,23.5c0,5.2-1.2,10.2-3.5,14.8v0.1l-29.5,49.4l-29.5-49.4
						c-2.4-4.8-3.6-9.9-3.6-15.2C337.9,137.4,352.5,122.6,370.4,122.4z"/>
				</g>
				<g>
					<path class="st2" d="M370.9,139.5c-8.3,0-15,6.8-15,15c0,8.3,6.8,15,15,15c8.3,0,15-6.8,15-15S379.2,139.5,370.9,139.5z
						 M370.9,162.6c-4.4,0-8-3.6-8-8s3.6-8,8-8s8,3.6,8,8S375.3,162.6,370.9,162.6z"/>
				</g>
			</g>
		</g>
	</g>
</g>
<g id="Capa_9" class="st0">
	<g class="st1">
		<path class="st2" d="M182.9,326.7v5.4l-4.8,0.9v38.5h-9L151,341.3h-0.2v23.9l4.8,0.9v5.4H137v-5.4l4.8-0.9V333l-4.8-0.9v-5.4h4.8
			h9l18.1,30.2h0.2V333l-4.8-0.9v-5.4h13.8H182.9z"/>
		<path class="st2" d="M186,354.6c0-5,1.4-9,4.2-12.2s6.6-4.8,11.5-4.8s8.8,1.6,11.6,4.8c2.8,3.2,4.2,7.2,4.2,12.2v0.6
			c0,5-1.4,9.1-4.2,12.3c-2.8,3.2-6.6,4.7-11.5,4.7c-5,0-8.8-1.6-11.6-4.7c-2.8-3.2-4.2-7.2-4.2-12.3V354.6z M195,355.2
			c0,3,0.5,5.5,1.6,7.3s2.8,2.8,5.2,2.8c2.3,0,4-0.9,5.1-2.8c1.1-1.8,1.6-4.3,1.6-7.3v-0.6c0-3-0.5-5.4-1.6-7.2s-2.8-2.8-5.1-2.8
			s-4,0.9-5.1,2.8s-1.6,4.3-1.6,7.2L195,355.2L195,355.2z"/>
		<path class="st2" d="M234.7,330v8.2h5.9v6.3h-5.9v17c0,1.3,0.3,2.2,0.8,2.8c0.5,0.6,1.3,0.8,2.2,0.8c0.6,0,1.2,0,1.6-0.1
			c0.5,0,1-0.1,1.6-0.3l0.8,6.5c-1,0.3-2,0.5-3,0.7s-2.1,0.2-3.2,0.2c-3.1,0-5.5-0.9-7.2-2.6s-2.5-4.4-2.5-8.1v-17h-4.9v-6.3h4.9
			V330H234.7z"/>
		<path class="st2" d="M244.7,366.2l4.3-0.9v-20.7l-4.8-0.9v-5.4H258v27l4.3,0.9v5.4h-17.7v-5.4H244.7z M258,330.2h-9v-6.8h9V330.2z
			"/>
		<path class="st2" d="M264.4,344.5v-6.3h5v-2.3c0-4.2,1.3-7.4,3.8-9.7c2.6-2.3,6.2-3.4,10.8-3.4c1.6,0,3.2,0.2,4.7,0.5
			s3.4,0.8,5.4,1.4l-1.3,7.1c-1.5-0.5-2.9-0.8-4.1-1s-2.6-0.4-4.2-0.4c-2.1,0-3.6,0.5-4.7,1.4c-1,0.9-1.6,2.3-1.6,4.2v2.3h20.2v27
			l4.8,0.9v5.4h-18.1v-5.4l4.3-0.9v-20.7h-11.2v20.7l4.3,0.9v5.4h-18.2v-5.4l4.8-0.9v-20.7h-4.7V344.5z"/>
		<path class="st2" d="M322.5,372.2c-4.8,0-8.7-1.5-11.5-4.6c-2.9-3.1-4.3-7-4.3-11.7v-1.2c0-5,1.4-9,4.1-12.2s6.4-4.8,11-4.8
			c4.5,0,8,1.4,10.5,4.1s3.7,6.4,3.7,11v4.9h-20l-0.1,0.2c0.2,2.2,0.9,4,2.2,5.4c1.3,1.4,3.1,2.1,5.3,2.1c2,0,3.6-0.2,5-0.6
			c1.3-0.4,2.8-1,4.3-1.9l2.4,5.6c-1.4,1.1-3.2,2-5.3,2.7C327.6,371.8,325.2,372.2,322.5,372.2z M321.7,344.5c-1.7,0-3,0.6-3.9,1.9
			c-1,1.3-1.6,3-1.8,5l0.1,0.2h11v-0.8c0-1.9-0.4-3.4-1.3-4.6C324.9,345.1,323.5,344.5,321.7,344.5z"/>
		<path class="st2" d="M340.8,366.2l4.3-0.9v-20.7l-4.8-0.9v-5.4h13.2l0.4,4.9c0.8-1.7,1.8-3.1,3-4c1.2-1,2.7-1.5,4.3-1.5
			c0.5,0,1,0,1.5,0.1s1,0.2,1.3,0.3l-1,8.2l-3.7-0.1c-1.3,0-2.4,0.3-3.3,0.8s-1.5,1.2-2,2.2v16.2l4.3,0.9v5.4h-17.6v-5.5H340.8z"/>
		<path class="st2" d="M116.1,402.4c5.1,0,9.2,1.3,12.2,4c3,2.6,4.5,6.1,4.5,10.4s-1.5,7.8-4.5,10.4s-7,3.9-12.2,3.9h-7.6v10
			l4.8,0.9v5.4H94.7V442l4.8-0.9v-32.2l-4.8-0.9v-5.4h4.8h16.6V402.4z M108.5,424.1h7.6c2.5,0,4.4-0.7,5.7-2
			c1.3-1.4,1.9-3.1,1.9-5.2c0-2.2-0.6-3.9-1.9-5.3s-3.2-2.1-5.7-2.1h-7.6V424.1z"/>
		<path class="st2" d="M159.1,443.1c-1.1,1.6-2.4,2.8-4,3.6c-1.6,0.8-3.4,1.3-5.4,1.3c-3.5,0-6.3-1.1-8.3-3.4s-3-5.8-3-10.5v-13.8
			l-3.7-0.9V414h3.7h9v20.2c0,2.4,0.4,4.2,1.2,5.2c0.8,1.1,2,1.6,3.6,1.6c1.4,0,2.6-0.2,3.7-0.7c1-0.5,1.9-1.1,2.5-2v-18l-3.9-0.9
			V414h3.9h9v27l4,0.9v5.4h-11.9L159.1,443.1z"/>
		<path class="st2" d="M202.4,425.4h-6l-1-4.2c-0.6-0.5-1.4-0.9-2.3-1.2c-0.9-0.3-2-0.5-3.1-0.5c-1.6,0-2.8,0.4-3.8,1.1
			s-1.4,1.6-1.4,2.7c0,1,0.4,1.8,1.3,2.5c0.9,0.7,2.7,1.3,5.3,1.8c4.1,0.8,7.2,2,9.2,3.6s3,3.8,3,6.6c0,3-1.3,5.5-3.9,7.4
			c-2.6,1.9-6,2.9-10.2,2.9c-2.6,0-4.9-0.4-7.1-1.1s-4.1-1.8-5.7-3.2l-0.1-7.5h6.3l1.2,4.3c0.5,0.5,1.3,0.8,2.2,1s1.9,0.3,2.9,0.3
			c1.8,0,3.2-0.3,4.2-1s1.4-1.5,1.4-2.7c0-1-0.5-1.8-1.4-2.6c-1-0.7-2.7-1.4-5.3-1.9c-3.9-0.8-6.9-2-8.9-3.6s-3-3.7-3-6.4
			c0-2.8,1.2-5.2,3.5-7.2s5.6-3,9.8-3c2.6,0,5,0.3,7.4,1c2.3,0.7,4.1,1.6,5.4,2.7L202.4,425.4z"/>
		<path class="st2" d="M207.2,441.9l4.3-0.9v-35.4l-4.8-0.9v-5.4h13.8v19c1-1.5,2.3-2.7,3.9-3.6c1.5-0.9,3.2-1.3,5.1-1.3
			c3.5,0,6.2,1.2,8.2,3.5s3,5.9,3,10.7V441l4.3,0.9v5.4h-17.2v-5.4l3.9-0.9v-13.5c0-2.6-0.5-4.4-1.4-5.5s-2.3-1.6-4.1-1.6
			c-1.3,0-2.3,0.2-3.3,0.7c-0.9,0.5-1.7,1.1-2.4,1.9v18l3.9,0.9v5.4h-17.2V441.9z"/>
		<path class="st2" d="M267.3,431.6h-17.4v-6.9h17.4V431.6z"/>
		<path class="st2" d="M306.9,416.8h-6.8l-1.2-6.2c-0.8-0.5-1.9-0.9-3.4-1.3s-3.1-0.6-4.8-0.6c-2.5,0-4.4,0.5-5.7,1.6
			c-1.3,1-2,2.4-2,4c0,1.5,0.7,2.8,2.1,3.7c1.4,1,3.8,2,7.3,3.1c5,1.4,8.7,3.2,11.3,5.5c2.6,2.3,3.8,5.2,3.8,8.9
			c0,3.8-1.5,6.9-4.6,9.1c-3,2.2-7.1,3.3-12,3.3c-3.6,0-6.8-0.6-9.6-1.7c-2.9-1.1-5.3-2.7-7.2-4.7v-9.4h7l1,6.4
			c0.9,0.7,2.1,1.3,3.7,1.8s3.3,0.7,5.2,0.7c2.5,0,4.3-0.5,5.6-1.5c1.3-1,1.9-2.4,1.9-4c0-1.7-0.6-3.1-1.8-4.2c-1.2-1-3.4-2-6.4-3
			c-5.3-1.5-9.4-3.4-12.1-5.5s-4.1-5-4.1-8.7c0-3.6,1.5-6.6,4.6-8.9s7-3.5,11.6-3.6c3.5,0,6.6,0.5,9.4,1.6c2.8,1,5.2,2.4,7.2,4.2
			V416.8z"/>
		<path class="st2" d="M354.4,414.1h-0.2l-12,33.2h-6l-12-33.1H324l0.9,19.7v7.1l4.8,0.9v5.4h-18.6v-5.4l4.8-0.9v-32.2l-4.8-0.9
			v-5.4h4.8h11.7l11.4,33.1h0.2l11.5-33.1h16.6v5.4l-4.8,0.9V441l4.8,0.9v5.4h-18.6v-5.4l4.8-0.9v-7L354.4,414.1z"/>
		<path class="st2" d="M404.6,416.8h-6.8l-1.2-6.2c-0.8-0.5-1.9-0.9-3.4-1.3s-3.1-0.6-4.8-0.6c-2.5,0-4.4,0.5-5.7,1.6
			c-1.3,1-2,2.4-2,4c0,1.5,0.7,2.8,2.1,3.7c1.4,1,3.8,2,7.3,3.1c5,1.4,8.7,3.2,11.3,5.5c2.6,2.3,3.8,5.2,3.8,8.9
			c0,3.8-1.5,6.9-4.6,9.1c-3,2.2-7.1,3.3-12,3.3c-3.6,0-6.8-0.6-9.6-1.7c-2.9-1.1-5.3-2.7-7.2-4.7v-9.4h7l1,6.4
			c0.9,0.7,2.1,1.3,3.7,1.8s3.3,0.7,5.2,0.7c2.5,0,4.3-0.5,5.6-1.5c1.3-1,1.9-2.4,1.9-4c0-1.7-0.6-3.1-1.8-4.2c-1.2-1-3.4-2-6.4-3
			c-5.3-1.5-9.4-3.4-12.1-5.5s-4.1-5-4.1-8.7c0-3.6,1.5-6.6,4.6-8.9s7-3.5,11.6-3.6c3.5,0,6.6,0.5,9.4,1.6c2.8,1,5.2,2.4,7.2,4.2
			V416.8z"/>
	</g>
	<g class="st1">
		<g>
			<g>
				<path class="st2" d="M280.5,210.7c4.6,0,8.3-3.7,8.3-8.3v-50.8c0-4.6-3.7-8.3-8.3-8.3c-4.6,0-8.3,3.7-8.3,8.3v50.8
					C272.2,206.9,275.9,210.7,280.5,210.7z"/>
			</g>
			<g>
				<path class="st2" d="M286.4,230.7c-3.1-3.1-8.6-3.1-11.7,0l0,0c-1.5,1.5-2.4,3.7-2.4,5.9s0.9,4.3,2.4,5.9
					c1.5,1.5,3.7,2.3,5.8,2.3c2.2,0,4.4-0.8,5.9-2.3c1.5-1.6,2.4-3.7,2.4-5.9C288.8,234.4,287.9,232.3,286.4,230.7z"/>
			</g>
		</g>
		<g>
			<path class="st3" d="M367.2,100.4H188.7c-2.4,0-4.4,2-4.4,4.4V224l-70.8,55.8c-1.5,1.1-2,3.1-1.4,4.9c0.6,1.7,2.3,2.9,4.1,2.9
				h251c2.4,0,4.4-2,4.4-4.4V104.7C371.6,102.3,369.6,100.4,367.2,100.4z M362.8,278.9h-234l62.6-49.3c1.1-0.8,1.7-2.1,1.7-3.4v-117
				h169.8v169.7H362.8z"/>
		</g>
	</g>
</g>
<g id="Capa_10" class="st0">
	<g class="st1">
		<path class="st2" d="M107.6,326.7c5.1,0,9.2,1.3,12.2,4c3,2.6,4.5,6.1,4.5,10.4s-1.5,7.7-4.5,10.4c-3,2.6-7,3.9-12.2,3.9H100v10
			l4.8,0.9v5.4H86.2v-5.4l4.8-0.9V333l-4.8-0.9v-5.4H91H107.6z M100,348.3h7.6c2.5,0,4.4-0.7,5.7-2c1.3-1.4,1.9-3.1,1.9-5.2
			c0-2.2-0.6-3.9-1.9-5.3s-3.2-2.1-5.7-2.1H100V348.3z"/>
		<path class="st2" d="M126.4,328.9v-5.4h13.8v41.8l4.3,0.9v5.4h-17.7v-5.4l4.3-0.9v-35.4L126.4,328.9z"/>
		<path class="st2" d="M168.7,371.6c-0.2-0.6-0.5-1.1-0.6-1.7c-0.2-0.6-0.3-1.2-0.4-1.8c-1.1,1.2-2.4,2.2-3.9,3s-3.3,1.1-5.3,1.1
			c-3.3,0-5.9-0.9-7.8-2.7c-1.9-1.8-2.9-4.2-2.9-7.3c0-3.1,1.3-5.5,3.8-7.2s6.2-2.6,11-2.6h4.6v-3.3c0-1.6-0.5-2.8-1.4-3.7
			c-0.9-0.9-2.3-1.3-4.1-1.3c-1,0-1.9,0.1-2.7,0.4c-0.8,0.2-1.4,0.5-1.9,0.8l-0.6,3.6h-6.8v-7.4c1.6-1.1,3.5-2,5.7-2.8
			s4.4-1.1,7-1.1c4.1,0,7.5,1,10.1,3s3.9,4.9,3.9,8.6V363c0,0.5,0,1,0,1.4c0,0.5,0,0.9,0.1,1.3l2.7,0.4v5.4h-10.5V371.6z
			 M160.9,365.5c1.4,0,2.6-0.3,3.7-0.9c1.1-0.6,2-1.3,2.6-2.2v-5.1h-4.6c-1.9,0-3.4,0.4-4.3,1.3c-1,0.9-1.5,2-1.5,3.2
			c0,1.1,0.4,2,1.1,2.7S159.6,365.5,160.9,365.5z"/>
		<path class="st2" d="M193,330v8.2h5.9v6.3H193v17c0,1.3,0.3,2.2,0.8,2.8c0.5,0.6,1.3,0.8,2.2,0.8c0.6,0,1.2,0,1.6-0.1
			c0.5,0,1-0.1,1.6-0.3l0.8,6.5c-1,0.3-2,0.5-3,0.7s-2.1,0.2-3.2,0.2c-3.1,0-5.5-0.9-7.2-2.6s-2.5-4.4-2.5-8.1v-17h-4.9v-6.3h4.9
			V330H193z"/>
		<path class="st2" d="M224.5,371.6c-0.2-0.6-0.5-1.1-0.6-1.7c-0.2-0.6-0.3-1.2-0.4-1.8c-1.1,1.2-2.4,2.2-3.9,3s-3.3,1.1-5.3,1.1
			c-3.3,0-5.9-0.9-7.8-2.7c-1.9-1.8-2.9-4.2-2.9-7.3c0-3.1,1.3-5.5,3.8-7.2s6.2-2.6,11-2.6h4.6v-3.3c0-1.6-0.5-2.8-1.4-3.7
			c-0.9-0.9-2.3-1.3-4.1-1.3c-1,0-1.9,0.1-2.7,0.4c-0.8,0.2-1.4,0.5-1.9,0.8l-0.6,3.6h-6.8v-7.4c1.6-1.1,3.5-2,5.7-2.8
			c2.1-0.8,4.4-1.1,7-1.1c4.1,0,7.5,1,10.1,3s3.9,4.9,3.9,8.6V363c0,0.5,0,1,0,1.4c0,0.5,0,0.9,0.1,1.3l2.7,0.4v5.4h-10.5V371.6z
			 M216.7,365.5c1.4,0,2.6-0.3,3.7-0.9c1.1-0.6,2-1.3,2.6-2.2v-5.1h-4.6c-1.9,0-3.4,0.4-4.3,1.3c-1,0.9-1.5,2-1.5,3.2
			c0,1.1,0.4,2,1.1,2.7C214.4,365.2,215.4,365.5,216.7,365.5z"/>
		<path class="st2" d="M238.4,366.2l4.3-0.9v-20.7h-5v-6.3h5v-3.7c0-3.7,1.1-6.6,3.2-8.6c2.2-2,5.2-3,9.1-3c0.8,0,1.5,0.1,2.3,0.2
			s1.7,0.3,2.6,0.5l-0.8,6.7c-0.5-0.1-1-0.2-1.4-0.2s-1-0.1-1.6-0.1c-1.5,0-2.6,0.4-3.3,1.2c-0.8,0.8-1.1,2-1.1,3.5v3.7h6.6v6.3
			h-6.6v20.7l4.3,0.9v5.4h-17.7v-5.6H238.4z"/>
		<path class="st2" d="M261.4,354.6c0-5,1.4-9,4.2-12.2c2.8-3.2,6.6-4.8,11.5-4.8s8.8,1.6,11.6,4.8c2.8,3.2,4.2,7.2,4.2,12.2v0.6
			c0,5-1.4,9.1-4.2,12.3c-2.8,3.2-6.6,4.7-11.5,4.7c-5,0-8.8-1.6-11.6-4.7c-2.8-3.2-4.2-7.2-4.2-12.3V354.6z M270.4,355.2
			c0,3,0.5,5.5,1.6,7.3s2.8,2.8,5.2,2.8c2.3,0,4-0.9,5.1-2.8c1.1-1.8,1.6-4.3,1.6-7.3v-0.6c0-3-0.5-5.4-1.6-7.2
			c-1.1-1.9-2.8-2.8-5.1-2.8c-2.3,0-4.1,0.9-5.1,2.8c-1.1,1.9-1.6,4.3-1.6,7.2v0.6H270.4z"/>
		<path class="st2" d="M297.5,366.2l4.3-0.9v-20.7l-4.8-0.9v-5.4h13.2l0.4,4.9c0.8-1.7,1.8-3.1,3-4c1.2-1,2.7-1.5,4.3-1.5
			c0.5,0,1,0,1.5,0.1s1,0.2,1.3,0.3l-1,8.2l-3.7-0.1c-1.3,0-2.4,0.3-3.3,0.8s-1.5,1.2-2,2.2v16.2l4.3,0.9v5.4h-17.6v-5.5H297.5z"/>
		<path class="st2" d="M322.3,343.6v-5.4h13.2l0.4,4.4c1.1-1.6,2.4-2.8,4-3.7c1.6-0.9,3.5-1.3,5.6-1.3s4,0.5,5.5,1.4
			s2.7,2.4,3.5,4.3c1-1.8,2.4-3.2,4-4.2s3.6-1.5,5.8-1.5c3.3,0,5.9,1.1,7.8,3.4s2.8,5.7,2.8,10.4v13.9l4.3,0.9v5.4H362v-5.4l3.9-0.9
			v-13.9c0-2.5-0.4-4.3-1.2-5.3c-0.8-1-2-1.5-3.7-1.5c-1.3,0-2.4,0.3-3.3,0.8c-0.9,0.6-1.7,1.3-2.2,2.4c0,0.4,0,0.7,0,1s0,0.6,0,0.8
			v15.6l3.6,0.9v5.4h-16.3v-5.4l3.6-0.9v-13.9c0-2.5-0.4-4.2-1.2-5.2c-0.8-1-2.1-1.5-3.7-1.5c-1.2,0-2.3,0.2-3.2,0.7
			c-0.9,0.5-1.7,1.1-2.3,2v18l3.9,0.9v5.4h-17.2v-5.4l4.3-0.9v-20.7L322.3,343.6z"/>
		<path class="st2" d="M403.4,371.6c-0.2-0.6-0.5-1.1-0.6-1.7c-0.2-0.6-0.3-1.2-0.4-1.8c-1.1,1.2-2.4,2.2-3.9,3s-3.3,1.1-5.3,1.1
			c-3.3,0-5.9-0.9-7.8-2.7c-1.9-1.8-2.9-4.2-2.9-7.3c0-3.1,1.3-5.5,3.8-7.2s6.2-2.6,11-2.6h4.6v-3.3c0-1.6-0.5-2.8-1.4-3.7
			c-0.9-0.9-2.3-1.3-4.1-1.3c-1,0-1.9,0.1-2.7,0.4c-0.8,0.2-1.4,0.5-1.9,0.8l-0.6,3.6h-6.8v-7.4c1.6-1.1,3.5-2,5.7-2.8
			c2.1-0.8,4.4-1.1,7-1.1c4.1,0,7.5,1,10.1,3s3.9,4.9,3.9,8.6V363c0,0.5,0,1,0,1.4c0,0.5,0,0.9,0.1,1.3l2.7,0.4v5.4h-10.5V371.6z
			 M395.6,365.5c1.4,0,2.6-0.3,3.7-0.9s2-1.3,2.6-2.2v-5.1h-4.6c-1.9,0-3.4,0.4-4.3,1.3c-1,0.9-1.5,2-1.5,3.2c0,1.1,0.4,2,1.1,2.7
			C393.3,365.2,394.3,365.5,395.6,365.5z"/>
	</g>
	<g class="st1">
		<g>
			<g>
				<path class="st2" d="M369.7,255v-19.7v-4.6V113.6c0-10.5-8.5-19-19-19H133.5c-10.5,0-19,8.5-19,19v91.1v22.2V255H79.9v13.7
					c0,10.5,8.5,19,19,19h286.5c10.5,0,19-8.5,19-19V255H369.7z M120.7,204.7v-91.1c0-7.1,5.8-12.8,12.8-12.8h217.2
					c6.8,0,12.3,5.3,12.7,12l0,0v118v4.6V255H120.7v-28.1V204.7z M398.2,268.7c0,7.1-5.8,12.8-12.8,12.8H98.8
					c-7.1,0-12.8-5.8-12.8-12.8v-7.5h312.2V268.7z"/>
			</g>
		</g>
		<g>
			<g>
				<path class="st3" d="M140.2,242.1H344l0,0h6.7v-7.6v-4.6v-116H140.2l0,0h-6.7v90v22.2v16L140.2,242.1L140.2,242.1z M140.2,226.1
					v-22.2V120H344v109.8v4.6v1.5H140.2V226.1z"/>
			</g>
		</g>
		<g>
			<g>
				<g>
					<path class="st2" d="M152.5,130.2h10.2v7.2h-10.2V130.2z"/>
				</g>
				<g>
					<path class="st2" d="M167.7,130.2h25.4v7.2h-25.4V130.2z"/>
				</g>
				<g>
					<path class="st2" d="M152.5,144.5h10.2v7.2h-10.2V144.5z"/>
				</g>
				<g>
					<path class="st2" d="M167.7,144.5h25.4v7.2h-25.4V144.5z"/>
				</g>
				<g>
					<path class="st2" d="M152.5,158.8h10.2v7.2h-10.2V158.8z"/>
				</g>
				<g>
					<path class="st2" d="M167.7,158.8h25.4v7.2h-25.4V158.8z"/>
				</g>
			</g>
			<g>
				<g>
					<path class="st2" d="M152.5,181.8h10.2v7.2h-10.2V181.8z"/>
				</g>
				<g>
					<path class="st2" d="M167.7,181.8h25.4v7.2h-25.4V181.8z"/>
				</g>
				<g>
					<path class="st2" d="M152.5,196.1h10.2v7.2h-10.2V196.1z"/>
				</g>
				<g>
					<path class="st2" d="M167.7,196.1h25.4v7.2h-25.4V196.1z"/>
				</g>
			</g>
			<g>
				<g>
					<path class="st2" d="M328.6,174.2c1.7,0,3.1-1.4,3.1-3.1v-37.7c0-1.7-1.4-3.1-3.1-3.1H208.9c-1.7,0-3.1,1.4-3.1,3.1V171
						c0,1.7,1.4,3.1,3.1,3.1L328.6,174.2L328.6,174.2z M212,136.5h113.4v31.4H212V136.5z"/>
				</g>
				<g>
					<path class="st3" d="M267.7,142.8h12.6v6.3h-12.6V142.8z"/>
				</g>
				<g>
					<path class="st3" d="M286.2,142.8h32.9v6.3h-32.9V142.8z"/>
				</g>
				<g>
					<path class="st3" d="M217.7,142.8h44.4v6.3h-44.4L217.7,142.8L217.7,142.8z"/>
				</g>
				<g>
					<path class="st3" d="M217.7,155.3h101.4v6.3H217.7V155.3z"/>
				</g>
			</g>
			<g>
				<g>
					<path class="st2" d="M328.6,225.7c1.7,0,3.1-1.4,3.1-3.1v-37.7c0-1.7-1.4-3.1-3.1-3.1h-53.3c-1.7,0-3.1,1.4-3.1,3.1v37.7
						c0,1.7,1.4,3.1,3.1,3.1H328.6z M278.4,188h47v31.4h-47V188z"/>
				</g>
				<g>
					<path class="st3" d="M284.7,194.3h8.6v6.3h-8.6V194.3z"/>
				</g>
				<g>
					<path class="st3" d="M299.6,194.3h19.6v6.3h-19.6V194.3z"/>
				</g>
				<g>
					<path class="st3" d="M284.7,206.9h34.4v6.3h-34.4V206.9z"/>
				</g>
			</g>
			<g>
				<g>
					<path class="st2" d="M262.2,225.7c1.7,0,3.1-1.4,3.1-3.1v-37.7c0-1.7-1.4-3.1-3.1-3.1h-53.3c-1.7,0-3.1,1.4-3.1,3.1v37.7
						c0,1.7,1.4,3.1,3.1,3.1H262.2z M212,188h47v31.4h-47V188z"/>
				</g>
				<g>
					<path class="st3" d="M218.3,194.3h8.6v6.3h-8.6V194.3z"/>
				</g>
				<g>
					<path class="st3" d="M233.2,194.3h19.6v6.3h-19.6V194.3z"/>
				</g>
				<g>
					<path class="st3" d="M218.3,206.9h34.4v6.3h-34.4L218.3,206.9L218.3,206.9z"/>
				</g>
			</g>
		</g>
	</g>
</g>
<g id="Capa_11" class="st0">
	<g class="st1">
		<g>
			<path class="st2" d="M172.9,261.4c23.4,17.5,45.4,25.9,69.2,26.3c13.3-0.2,26.3-3.1,38.6-8.6c26.2-11.6,49.3-30.5,72.5-59.4
				c0.8-1,1.6-2,2.5-3c2.9-3.3,6.1-7,6-10s-3.1-6.2-6-9.4c-1.1-1.2-2.2-2.4-3.2-3.6c-17.4-21.6-35.5-37.9-55.3-49.8
				c-18.9-11.4-37.3-17.1-55.5-17.1c-12.6,0-25.1,2.7-37.6,8.2c-30.8,13.4-57.5,36.6-81.7,70.8c-0.4,0.6,0,3.3,0.9,4.7
				C137.3,230.1,154,247.2,172.9,261.4z M130.9,206.7c19.4-25.4,38.7-43.4,60.5-56.7c33.6-20.6,67.7-20.5,101.2,0.1
				c22,13.5,41.1,31.4,58.4,54.6c0.9,1.3,1.2,4,0.1,5.4c-20.3,25.6-46.2,53.5-84.3,66.2c-8.1,2.7-16.3,4-24.6,4
				c-13.1,0-26.5-3.3-40-9.9c-20-9.8-38.2-24.1-55.6-43.8c-3.5-4-7-8.1-10.5-12.2l-5.9-6.8L130.9,206.7z"/>
		</g>
		<g>
			<g>
				<path class="st3" d="M241.6,144.4c-0.1,0-0.2,0-0.2,0c-16.4,0-31.9,6.4-43.7,18.2c-12,12-18.6,27.8-18.7,44.7
					c0,16.7,6.5,32.4,18.3,44.3c11.8,11.8,27.6,18.4,44.4,18.4l0,0l0,0c16.7,0.3,32.9-6.2,44.8-17.9c8.3-8.2,18.3-22.6,18.2-44.8
					C304.7,171.5,277.6,144.5,241.6,144.4z M280.8,246.4c-10.5,10.5-24.4,16.2-38.9,16.2c-0.1,0-0.1,0-0.2,0
					c-30.2-0.1-54.8-25-54.8-55.6c0-14.8,5.7-28.7,16.1-39.1c10.3-10.3,24.1-16,38.9-16h0.1c14.8,0,28.7,5.8,39.1,16.3
					c10.5,10.5,16.2,24.5,16.1,39.3C297.2,222.1,291.4,235.9,280.8,246.4z"/>
			</g>
		</g>
		<g>
			<path class="st2" d="M270,213.3l0.2-1.1h11.4v-9.5h-11.4l-0.2-1.1c-2.3-11.2-11.1-19.9-22.3-22.3l-1.1-0.2v-11.4h-9.5v11.4
				l-1.1,0.2c-11.2,2.3-19.9,11.1-22.3,22.3l-0.2,1.1h-11.4v9.5h11.4l0.2,1.1c2.3,11.2,11.1,19.9,22.3,22.3l1.1,0.2v11.4h9.5v-11.4
				l1.1-0.2C259,233.2,267.7,224.5,270,213.3z M248.5,227.9l-1.8,0.6v-8.1h-9.5v8.1l-1.8-0.6c-6.6-2.1-11.8-7.3-14-14l-0.6-1.8h8.1
				v-9.5h-8.1l0.6-1.8c2.1-6.6,7.3-11.8,14-14l1.8-0.6v8.1h9.5v-8.1l1.8,0.6c6.6,2.1,11.8,7.3,14,14l0.6,1.8H255v9.5h8.1l-0.6,1.8
				C260.3,220.6,255.1,225.8,248.5,227.9z"/>
		</g>
		<g>
			<rect x="254.9" y="202.7" class="st3" width="26.8" height="9.5"/>
		</g>
		<g>
			<rect x="202.2" y="202.7" class="st3" width="26.8" height="9.5"/>
		</g>
		<g>
			<g>
				<rect x="237.1" y="167.7" class="st3" width="9.5" height="26.8"/>
			</g>
			<g>
				<rect x="237.1" y="220.4" class="st3" width="9.5" height="26.8"/>
			</g>
		</g>
	</g>
	<g class="st1">
		<path class="st2" d="M67.7,337.6h-0.2l-12,33.1h-6l-11.9-33h-0.2l0.9,19.6v7l4.8,0.9v5.4H24.6v-5.4l4.8-0.9v-32.1l-4.8-0.9V326
			h4.8h11.7l11.4,32.9h0.2L64.1,326h16.5v5.4l-4.8,0.9v32.1l4.8,0.9v5.4H62.1v-5.4l4.8-0.9v-7L67.7,337.6z"/>
		<path class="st2" d="M83.7,365.3l4.3-0.9v-20.6l-4.8-0.9v-5.4H97v26.9l4.3,0.9v5.4H83.7V365.3z M97,329.5h-9v-6.7h9V329.5z"/>
		<path class="st2" d="M119.9,364.5c1.6,0,2.9-0.5,3.8-1.4s1.4-2.2,1.4-3.7h8.1l0.1,0.2c0.1,3.4-1.2,6.2-3.8,8.4
			c-2.6,2.3-5.8,3.4-9.7,3.4c-5,0-8.8-1.6-11.4-4.7c-2.7-3.1-4-7.1-4-12.1v-0.9c0-4.9,1.4-8.9,4.1-12.1c2.8-3.1,6.7-4.7,11.8-4.7
			c2.7,0,5.1,0.4,7.2,1.2c2.1,0.8,3.9,1.9,5.3,3.4l0.1,8.9h-7.3l-1.5-5.2c-0.5-0.4-1-0.7-1.7-1s-1.4-0.4-2.2-0.4
			c-2.5,0-4.3,0.9-5.4,2.8c-1,1.8-1.6,4.2-1.6,7.1v0.9c0,3,0.5,5.4,1.4,7.2S117.4,364.5,119.9,364.5z"/>
		<path class="st2" d="M136.9,365.3l4.3-0.9v-35.3l-4.8-0.9v-5.4h13.7v18.9c1-1.5,2.3-2.7,3.8-3.6s3.2-1.3,5-1.3
			c3.5,0,6.2,1.2,8.2,3.5s3,5.9,3,10.7v13.4l4.3,0.9v5.4h-17.1v-5.4l3.9-0.9v-13.5c0-2.6-0.5-4.4-1.4-5.5s-2.3-1.6-4.1-1.6
			c-1.2,0-2.3,0.2-3.3,0.7c-0.9,0.5-1.7,1.1-2.3,1.9v18l3.9,0.9v5.4h-17.1L136.9,365.3L136.9,365.3z"/>
		<path class="st2" d="M177,365.3l4.3-0.9v-20.6l-4.8-0.9v-5.4h13.7v26.9l4.3,0.9v5.4H177V365.3z M190.3,329.5h-9v-6.7h9V329.5z"/>
		<path class="st2" d="M197.1,365.3l4.3-0.9v-20.6l-4.8-0.9v-5.4h13.1l0.4,4.8c1.1-1.7,2.5-3,4.1-4c1.6-0.9,3.4-1.4,5.4-1.4
			c3.4,0,6,1.1,7.9,3.2s2.8,5.4,2.8,9.9v14.5l4.3,0.9v5.4h-17.1v-5.4l3.8-0.9V350c0-2.2-0.5-3.8-1.4-4.7s-2.3-1.4-4.1-1.4
			c-1.2,0-2.3,0.2-3.2,0.7s-1.7,1.2-2.4,2v17.8l3.6,0.9v5.4h-16.9v-5.4H197.1z"/>
		<path class="st2" d="M253.1,371.3c-4.8,0-8.6-1.5-11.5-4.6s-4.3-7-4.3-11.7v-1.2c0-4.9,1.4-9,4.1-12.2c2.7-3.2,6.3-4.8,10.9-4.8
			c4.5,0,8,1.3,10.4,4c2.5,2.7,3.7,6.4,3.7,11v4.9h-19.8l-0.1,0.2c0.2,2.2,0.9,4,2.2,5.4s3.1,2.1,5.3,2.1c2,0,3.6-0.2,4.9-0.6
			c1.3-0.4,2.7-1,4.3-1.9l2.4,5.5c-1.4,1.1-3.1,2-5.3,2.7S255.7,371.3,253.1,371.3z M252.3,343.8c-1.7,0-3,0.6-3.9,1.9
			c-1,1.3-1.6,2.9-1.8,5l0.1,0.2h11V350c0-1.9-0.4-3.4-1.3-4.6S254.1,343.8,252.3,343.8z"/>
		<path class="st2" d="M301.5,331.4l-3.4,0.6l7.9,26.8l0.6,2.5h0.2l0.5-2.4l7.9-26.8l-3.4-0.6V326h16.3v5.4l-3.7,0.5l-13.2,38.8H302
			l-13.2-38.8l-3.7-0.5V326h16.3v5.4H301.5z"/>
		<path class="st2" d="M330.8,365.3l4.3-0.9v-20.6l-4.8-0.9v-5.4H344v26.9l4.3,0.9v5.4h-17.6v-5.4H330.8z M344.1,329.5h-9v-6.7h9
			V329.5z"/>
		<path class="st2" d="M378.4,348.9h-6l-1-4.1c-0.6-0.5-1.4-0.9-2.3-1.2s-2-0.5-3.1-0.5c-1.6,0-2.8,0.4-3.7,1.1s-1.4,1.6-1.4,2.7
			c0,1,0.4,1.8,1.3,2.5s2.6,1.3,5.3,1.8c4.1,0.8,7.2,2,9.1,3.6c2,1.6,3,3.8,3,6.6c0,3-1.3,5.4-3.9,7.3s-5.9,2.8-10.1,2.8
			c-2.6,0-4.9-0.4-7-1.1s-4-1.8-5.7-3.2l-0.1-7.5h6.3l1.2,4.3c0.5,0.5,1.3,0.8,2.2,1c0.9,0.2,1.9,0.3,2.9,0.3c1.8,0,3.2-0.3,4.2-1
			s1.4-1.5,1.4-2.7c0-1-0.5-1.8-1.4-2.5c-1-0.7-2.7-1.4-5.3-1.9c-3.9-0.8-6.9-2-8.9-3.5c-2-1.6-3-3.7-3-6.4c0-2.8,1.1-5.2,3.4-7.2
			s5.6-3,9.8-3c2.6,0,5,0.3,7.3,1s4.1,1.6,5.4,2.7L378.4,348.9z"/>
		<path class="st2" d="M383.4,365.3l4.3-0.9v-20.6l-4.8-0.9v-5.4h13.7v26.9l4.3,0.9v5.4h-17.6v-5.4H383.4z M396.7,329.5h-9v-6.7h9
			V329.5z"/>
		<path class="st2" d="M403.9,353.8c0-5,1.4-9,4.2-12.2c2.8-3.2,6.6-4.7,11.5-4.7s8.8,1.6,11.5,4.7c2.8,3.2,4.2,7.2,4.2,12.2v0.6
			c0,5-1.4,9.1-4.2,12.2c-2.8,3.1-6.6,4.7-11.5,4.7s-8.8-1.6-11.6-4.7c-2.8-3.1-4.2-7.2-4.2-12.2v-0.6H403.9z M412.9,354.4
			c0,3,0.5,5.5,1.6,7.3s2.8,2.7,5.2,2.7c2.3,0,4-0.9,5.1-2.8s1.6-4.3,1.6-7.3v-0.6c0-2.9-0.5-5.3-1.6-7.2c-1.1-1.9-2.8-2.8-5.1-2.8
			s-4,0.9-5.1,2.8s-1.6,4.3-1.6,7.2v0.7H412.9z"/>
		<path class="st2" d="M438.7,365.3l4.3-0.9v-20.6l-4.8-0.9v-5.4h13.1l0.4,4.8c1.1-1.7,2.5-3,4.1-4c1.6-0.9,3.4-1.4,5.4-1.4
			c3.4,0,6,1.1,7.9,3.2s2.8,5.4,2.8,9.9v14.5l4.3,0.9v5.4h-17.1v-5.4l3.8-0.9V350c0-2.2-0.5-3.8-1.4-4.7s-2.3-1.4-4.1-1.4
			c-1.2,0-2.3,0.2-3.2,0.7c-0.9,0.5-1.7,1.2-2.4,2v17.8l3.6,0.9v5.4h-16.9v-5.4H438.7z"/>
	</g>
</g>
<g id="Capa_12" class="st0">
	<g class="st1">
		<g>
			<path class="st2" d="M329.2,219.1l-22.1,31.7L291.6,238c-1.7-1.4-4.2-1.1-5.5,0.5c-1.4,1.7-1.1,4.2,0.5,5.5l18.9,15.5
				c0.7,0.6,1.6,0.9,2.5,0.9c0.2,0,0.4,0,0.5,0c1.1-0.1,2.1-0.7,2.7-1.7l24.5-35.2c1.2-1.8,0.8-4.2-1-5.5
				C332.9,216.9,330.5,217.3,329.2,219.1z"/>
		</g>
		<g>
			<path class="st3" d="M332,194.7V79.5c0-1.9-1.5-3.4-3.4-3.4h-20.2V63.7c0-1.9-1.5-3.4-3.4-3.4h-27.6c-1.9,0-3.4,1.5-3.4,3.4V76
				h-87.7V63.7c0-1.9-1.5-3.4-3.4-3.4h-27.6c-1.9,0-3.4,1.5-3.4,3.4V76h-20.2c-1.9,0-3.4,1.5-3.4,3.4v201c0,1.9,1.5,3.4,3.4,3.4
				h148.6c-3-2-5.7-4.3-8.2-6.9H134.9V122.3h190.2v69.6C327.4,192.6,329.7,193.6,332,194.7z M280.8,67.1h20.7v24.6h-20.7V67.1z
				 M158.6,67.1h20.7v24.6h-20.7V67.1z M134.9,115.4V82.9h16.7v12.3c0,1.9,1.5,3.4,3.4,3.4h27.6c1.9,0,3.4-1.5,3.4-3.4V82.9h87.7
				v12.3c0,1.9,1.5,3.4,3.4,3.4h27.6c1.9,0,3.4-1.5,3.4-3.4V82.9h16.7v32.5H134.9z"/>
		</g>
		<g>
			<path class="st2" d="M304.4,189.5V143H155.6v113.3h103.9c-0.7-2.2-1.2-4.6-1.6-6.9h-24.5l-0.1-28.6h28c1.9-4.6,4.5-8.8,7.5-12.5
				v-23h28.6v5.3C299.9,190.1,302.2,189.8,304.4,189.5z M191.1,249.4h-28.6v-28.6h28.6V249.4z M191.1,213.9h-28.6v-28.6h28.6V213.9z
				 M191.1,178.5h-28.6v-28.6h28.6V178.5z M226.6,249.4H198v-28.6h28.6V249.4z M226.6,213.9H198v-28.6h28.6V213.9z M226.6,178.5H198
				v-28.6h28.6V178.5z M262,213.9h-28.6v-28.6H262V213.9z M262,178.5h-28.6v-28.6H262V178.5z M268.9,178.5v-28.6h28.6v28.6H268.9z"
				/>
		</g>
		<g>
			<path class="st2" d="M309.9,201.1c22.2,0,40.3,18.1,40.3,40.3s-18.1,40.3-40.3,40.3s-40.3-18.1-40.3-40.3
				S287.7,201.1,309.9,201.1 M309.9,195.2c-25.5,0-46.2,20.7-46.2,46.2s20.7,46.2,46.2,46.2s46.2-20.7,46.2-46.2
				C356.2,215.9,335.5,195.2,309.9,195.2L309.9,195.2z"/>
		</g>
	</g>
	<g class="st1">
		<path class="st2" d="M33.4,365.3l3.2-0.5L50.2,326h9.2l13.5,38.8l3.2,0.5v5.4H60.9v-5.4l3.1-0.6l-2-6.1H47.5l-2,6.1l3.1,0.6v5.4
			H33.4V365.3z M49.6,352h10.2l-5-15.7h-0.2L49.6,352z"/>
		<path class="st2" d="M79.8,354.4c0-5.2,1.1-9.5,3.4-12.7s5.5-4.8,9.6-4.8c1.9,0,3.5,0.4,4.9,1.2c1.4,0.8,2.6,2,3.6,3.5l0.6-4.2
			h7.8v32.2c0,4.4-1.4,7.9-4.1,10.5c-2.8,2.6-6.5,3.9-11.3,3.9c-1.7,0-3.5-0.2-5.3-0.7c-1.9-0.5-3.6-1.1-5.2-1.9l1.7-6.3
			c1.4,0.6,2.9,1.1,4.3,1.5s2.9,0.5,4.5,0.5c2.2,0,3.8-0.7,4.9-2s1.6-3.2,1.6-5.6v-2.2c-1,1.2-2.1,2.2-3.5,2.9c-1.3,0.7-2.9,1-4.6,1
			c-4.1,0-7.2-1.5-9.5-4.5s-3.4-6.9-3.4-11.8V354.4z M88.8,355c0,2.9,0.5,5.2,1.5,6.9s2.6,2.5,4.8,2.5c1.4,0,2.5-0.2,3.5-0.8
			s1.7-1.2,2.3-2.2V347c-0.6-1-1.3-1.8-2.3-2.3c-1-0.6-2.1-0.8-3.4-0.8c-2.2,0-3.8,1-4.8,2.9s-1.5,4.5-1.5,7.6L88.8,355L88.8,355z"
			/>
		<path class="st2" d="M131.1,371.3c-4.8,0-8.6-1.5-11.5-4.6s-4.3-7-4.3-11.7v-1.2c0-4.9,1.4-9,4.1-12.2s6.3-4.8,10.9-4.8
			c4.5,0,8,1.3,10.4,4c2.5,2.7,3.7,6.4,3.7,11v4.9h-19.8l-0.1,0.2c0.2,2.2,0.9,4,2.2,5.4c1.3,1.4,3.1,2.1,5.3,2.1
			c2,0,3.6-0.2,4.9-0.6c1.3-0.4,2.7-1,4.3-1.9l2.4,5.5c-1.4,1.1-3.1,2-5.3,2.7C136.2,371,133.7,371.3,131.1,371.3z M130.3,343.8
			c-1.7,0-3,0.6-3.9,1.9c-1,1.3-1.6,2.9-1.8,5l0.1,0.2h11V350c0-1.9-0.4-3.4-1.3-4.6C133.4,344.3,132.1,343.8,130.3,343.8z"/>
		<path class="st2" d="M148.1,365.3l4.3-0.9v-20.6l-4.8-0.9v-5.4h13.1l0.4,4.8c1.1-1.7,2.5-3,4.1-4c1.6-0.9,3.4-1.4,5.4-1.4
			c3.4,0,6,1.1,7.9,3.2s2.8,5.4,2.8,9.9v14.5l4.3,0.9v5.4h-17.1v-5.4l3.8-0.9V350c0-2.2-0.5-3.8-1.4-4.7s-2.3-1.4-4.1-1.4
			c-1.2,0-2.2,0.2-3.2,0.7c-0.9,0.5-1.7,1.2-2.4,2v17.8l3.6,0.9v5.4h-16.9v-5.4H148.1z"/>
		<path class="st2" d="M209.8,366.6c-1,1.5-2.3,2.7-3.7,3.5s-3,1.2-4.9,1.2c-4.1,0-7.3-1.5-9.5-4.5c-2.3-3-3.4-6.9-3.4-11.8v-0.6
			c0-5.2,1.1-9.5,3.4-12.7c2.3-3.2,5.5-4.8,9.6-4.8c1.7,0,3.2,0.4,4.5,1.1s2.5,1.8,3.5,3.1v-11.9l-4.8-0.9v-5.4h4.8h9v41.6l4.3,0.9
			v5.4h-12.1L209.8,366.6z M197.3,355c0,2.9,0.5,5.2,1.5,6.9s2.6,2.5,4.8,2.5c1.3,0,2.4-0.3,3.4-0.8s1.7-1.3,2.4-2.3v-14.1
			c-0.6-1.1-1.4-1.9-2.3-2.5c-1-0.6-2.1-0.9-3.4-0.9c-2.2,0-3.8,1-4.8,2.9s-1.5,4.5-1.5,7.6L197.3,355L197.3,355z"/>
		<path class="st2" d="M246.5,370.7c-0.2-0.6-0.5-1.1-0.6-1.7c-0.2-0.6-0.3-1.2-0.4-1.8c-1.1,1.2-2.4,2.2-3.9,3s-3.3,1.1-5.2,1.1
			c-3.3,0-5.8-0.9-7.7-2.7c-1.9-1.8-2.9-4.2-2.9-7.2c0-3.1,1.2-5.5,3.7-7.2s6.2-2.5,11-2.5h4.6v-3.3c0-1.6-0.5-2.8-1.4-3.7
			c-0.9-0.9-2.3-1.3-4.1-1.3c-1,0-1.9,0.1-2.7,0.4c-0.8,0.2-1.4,0.5-1.9,0.8l-0.6,3.6h-6.8v-7.4c1.6-1.1,3.5-2,5.6-2.8
			s4.4-1.1,6.9-1.1c4.1,0,7.5,1,10,3c2.6,2,3.9,4.9,3.9,8.6v13.7c0,0.5,0,1,0,1.4s0,0.9,0.1,1.3l2.7,0.4v5.4L246.5,370.7
			L246.5,370.7z M238.8,364.7c1.3,0,2.6-0.3,3.7-0.9c1.1-0.6,2-1.3,2.6-2.2v-5.1h-4.6c-1.9,0-3.3,0.4-4.3,1.3s-1.5,2-1.5,3.2
			c0,1.1,0.4,2,1.1,2.6C236.5,364.4,237.5,364.7,238.8,364.7z"/>
		<path class="st2" d="M258.9,342.9v-5.4H272l0.4,4.4c1.1-1.6,2.4-2.8,4-3.7c1.6-0.9,3.5-1.3,5.6-1.3s3.9,0.5,5.5,1.4
			c1.5,0.9,2.7,2.4,3.4,4.3c1-1.8,2.4-3.2,4-4.2s3.6-1.5,5.8-1.5c3.3,0,5.9,1.1,7.7,3.4c1.9,2.3,2.8,5.7,2.8,10.3v13.8l4.3,0.9v5.4
			h-17.2v-5.4l3.9-0.9v-13.8c0-2.5-0.4-4.3-1.2-5.2c-0.8-1-2-1.5-3.7-1.5c-1.3,0-2.4,0.3-3.3,0.8c-0.9,0.6-1.7,1.3-2.2,2.3
			c0,0.4,0,0.7,0,1s0,0.6,0,0.8v15.5l3.6,0.9v5.4h-16.2v-5.4l3.6-0.9v-13.8c0-2.5-0.4-4.2-1.2-5.2s-2-1.5-3.7-1.5
			c-1.2,0-2.3,0.2-3.2,0.7c-0.9,0.5-1.7,1.1-2.3,1.9v17.9l3.9,0.9v5.4h-17.1v-5.4l4.3-0.9v-20.6L258.9,342.9z"/>
		<path class="st2" d="M318.1,365.3l4.3-0.9v-20.6l-4.8-0.9v-5.4h13.7v26.9l4.3,0.9v5.4H318v-5.4H318.1z M331.4,329.5h-9v-6.7h9
			V329.5z"/>
		<path class="st2" d="M354.5,371.3c-4.8,0-8.6-1.5-11.5-4.6s-4.3-7-4.3-11.7v-1.2c0-4.9,1.4-9,4.1-12.2s6.3-4.8,10.9-4.8
			c4.5,0,8,1.3,10.4,4s3.7,6.4,3.7,11v4.9H348l-0.1,0.2c0.2,2.2,0.9,4,2.2,5.4c1.3,1.4,3.1,2.1,5.3,2.1c2,0,3.6-0.2,4.9-0.6
			s2.7-1,4.3-1.9l2.4,5.5c-1.4,1.1-3.1,2-5.3,2.7C359.6,371,357.2,371.3,354.5,371.3z M353.7,343.8c-1.7,0-3,0.6-3.9,1.9
			c-1,1.3-1.6,2.9-1.8,5l0.1,0.2h11V350c0-1.9-0.4-3.4-1.3-4.6C356.9,344.3,355.5,343.8,353.7,343.8z"/>
		<path class="st2" d="M371.6,365.3l4.3-0.9v-20.6l-4.8-0.9v-5.4h13.1l0.4,4.8c1.1-1.7,2.5-3,4.1-4c1.6-0.9,3.4-1.4,5.4-1.4
			c3.4,0,6,1.1,7.9,3.2s2.8,5.4,2.8,9.9v14.5l4.3,0.9v5.4H392v-5.4l3.8-0.9V350c0-2.2-0.5-3.8-1.4-4.7s-2.3-1.4-4.1-1.4
			c-1.2,0-2.2,0.2-3.2,0.7c-0.9,0.5-1.7,1.2-2.4,2v17.8l3.6,0.9v5.4h-16.9v-5.4H371.6z"/>
		<path class="st2" d="M425.2,329.3v8.1h5.8v6.3h-5.8v16.9c0,1.3,0.3,2.2,0.8,2.8c0.5,0.6,1.2,0.8,2.1,0.8c0.6,0,1.2,0,1.6-0.1
			c0.5-0.1,1-0.1,1.5-0.3l0.8,6.5c-1,0.3-2,0.5-3,0.7s-2,0.2-3.2,0.2c-3.1,0-5.5-0.8-7.1-2.5c-1.7-1.7-2.5-4.4-2.5-8.1v-16.9h-4.9
			v-6.3h4.9v-8.1H425.2z"/>
		<path class="st2" d="M434.5,353.8c0-5,1.4-9,4.2-12.2c2.8-3.2,6.6-4.7,11.5-4.7s8.8,1.6,11.5,4.7c2.8,3.2,4.2,7.2,4.2,12.2v0.6
			c0,5-1.4,9.1-4.2,12.2c-2.8,3.1-6.6,4.7-11.5,4.7s-8.8-1.6-11.6-4.7c-2.8-3.1-4.2-7.2-4.2-12.2v-0.6H434.5z M443.5,354.4
			c0,3,0.5,5.5,1.6,7.3s2.8,2.7,5.2,2.7c2.3,0,4-0.9,5.1-2.8s1.6-4.3,1.6-7.3v-0.6c0-2.9-0.5-5.3-1.6-7.2c-1.1-1.9-2.8-2.8-5.1-2.8
			s-4,0.9-5.1,2.8s-1.6,4.3-1.6,7.2v0.7H443.5z"/>
	</g>
</g>
</svg>
