<?xml version="1.0" encoding="utf-8"?>
<!-- Generator: Adobe Illustrator 23.0.4, SVG Export Plug-In . SVG Version: 6.00 Build 0)  -->
<svg version="1.1" id="Capa_1" xmlns="http://www.w3.org/2000/svg" xmlns:xlink="http://www.w3.org/1999/xlink" x="0px" y="0px"
	 viewBox="0 0 50 50" style="enable-background:new 0 0 50 50;" xml:space="preserve">
<style type="text/css">
	.st0{fill:#0C3F82;}
	.st1{fill:#FFFFFF;}
</style>
<path class="st0" d="M2.4,18.1v13.8c0,3.8,2,7.2,5.3,9.1l12,6.9c3.3,1.9,7.3,1.9,10.5,0l12-6.9c3.3-1.9,5.3-5.3,5.3-9.1V18.1
	c0-3.8-2-7.2-5.3-9.1l-12-6.9c-3.3-1.9-7.3-1.9-10.5,0L7.7,9C4.4,10.9,2.4,14.3,2.4,18.1z"/>
<polygon class="st1" points="24.9,20.3 34.8,30.2 36,29 24.9,17.9 13.8,29 15,30.2 "/>
</svg>
