<?xml version="1.0" encoding="utf-8"?>
<!-- Generator: Adobe Illustrator 24.0.0, SVG Export Plug-In . SVG Version: 6.00 Build 0)  -->
<svg version="1.1" xmlns="http://www.w3.org/2000/svg" xmlns:xlink="http://www.w3.org/1999/xlink" x="0px" y="0px"
	 viewBox="0 0 500 500" style="enable-background:new 0 0 500 500;" xml:space="preserve">
<style type="text/css">
	.st0{display:none;}
	.st1{display:inline;}
	.st2{fill:#BDBDBD;}
	.st3{font-family:'RobotoSlab-Bold';}
	.st4{font-size:58.393px;}
	.st5{fill:#E0E0E0;}
	.st6{font-size:33.6971px;}
	.st7{fill:#415864;}
	.st8{fill:none;}
	.st9{fill:#798991;}
	.st10{fill-rule:evenodd;clip-rule:evenodd;fill:#415864;}
	.st11{display:inline;fill:#415864;}
</style>
<g id="Capa_1" class="st0">
	<g class="st1">
		<text transform="matrix(1 0 0 1 203.5056 400.5542)" class="st2 st3 st4">SIC</text>
		<g>
			<g>
				<circle class="st5" cx="250.2" cy="184.2" r="6.8"/>
			</g>
			<g>
				<path class="st2" d="M250.2,207.8c-13,0-23.6-10.6-23.6-23.6c0-13,10.6-23.6,23.6-23.6c13,0,23.6,10.6,23.6,23.6
					C273.9,197.2,263.3,207.8,250.2,207.8z M250.2,166.5c-9.7,0-17.6,7.9-17.6,17.6c0,9.7,7.9,17.6,17.6,17.6s17.6-7.9,17.6-17.6
					C267.9,174.5,260,166.5,250.2,166.5z"/>
			</g>
			<g>
				<g>
					<path class="st2" d="M338.7,198.2c-7.7,0-14-6.3-14-14c0-7.7,6.3-14,14-14c7.7,0,14,6.3,14,14
						C352.7,191.9,346.4,198.2,338.7,198.2z M338.7,176.2c-4.4,0-8,3.6-8,8c0,4.4,3.6,8,8,8s8-3.6,8-8
						C346.7,179.8,343.1,176.2,338.7,176.2z"/>
				</g>
			</g>
			<g>
				<g>
					<path class="st2" d="M338.7,287c-7.7,0-14-6.3-14-14c0-7.7,6.3-14,14-14c7.7,0,14,6.3,14,14C352.7,280.7,346.4,287,338.7,287z
						 M338.7,265c-4.4,0-8,3.6-8,8c0,4.4,3.6,8,8,8s8-3.6,8-8C346.7,268.6,343.1,265,338.7,265z"/>
				</g>
			</g>
			<g>
				<g>
					<path class="st2" d="M338.7,109.4c-7.7,0-14-6.3-14-14c0-7.7,6.3-14,14-14c7.7,0,14,6.3,14,14
						C352.7,103.1,346.4,109.4,338.7,109.4z M338.7,87.4c-4.4,0-8,3.6-8,8c0,4.4,3.6,8,8,8s8-3.6,8-8
						C346.7,91,343.1,87.4,338.7,87.4z"/>
				</g>
			</g>
			<g>
				<g>
					<path class="st2" d="M161.8,198.2c-7.7,0-14-6.3-14-14c0-7.7,6.3-14,14-14c7.7,0,14,6.3,14,14
						C175.8,191.9,169.5,198.2,161.8,198.2z M161.8,176.2c-4.4,0-8,3.6-8,8c0,4.4,3.6,8,8,8c4.4,0,8-3.6,8-8
						C169.8,179.8,166.2,176.2,161.8,176.2z"/>
				</g>
			</g>
			<g>
				<g>
					<path class="st2" d="M161.8,287c-7.7,0-14-6.3-14-14c0-7.7,6.3-14,14-14c7.7,0,14,6.3,14,14C175.8,280.7,169.5,287,161.8,287z
						 M161.8,265c-4.4,0-8,3.6-8,8c0,4.4,3.6,8,8,8c4.4,0,8-3.6,8-8C169.8,268.6,166.2,265,161.8,265z"/>
				</g>
			</g>
			<g>
				<g>
					<path class="st2" d="M161.8,109.4c-7.7,0-14-6.3-14-14c0-7.7,6.3-14,14-14c7.7,0,14,6.3,14,14
						C175.8,103.1,169.5,109.4,161.8,109.4z M161.8,87.4c-4.4,0-8,3.6-8,8c0,4.4,3.6,8,8,8c4.4,0,8-3.6,8-8
						C169.8,91,166.2,87.4,161.8,87.4z"/>
				</g>
			</g>
			<g>
				<g>
					<path class="st2" d="M250.2,287c-7.7,0-14-6.3-14-14c0-7.7,6.3-14,14-14c7.7,0,14,6.3,14,14C264.2,280.7,257.9,287,250.2,287z
						 M250.2,265c-4.4,0-8,3.6-8,8c0,4.4,3.6,8,8,8c4.4,0,8-3.6,8-8C258.2,268.6,254.6,265,250.2,265z"/>
				</g>
			</g>
			<g>
				<g>
					<path class="st2" d="M250.2,109.4c-7.7,0-14-6.3-14-14c0-7.7,6.3-14,14-14c7.7,0,14,6.3,14,14
						C264.2,103.1,257.9,109.4,250.2,109.4z M250.2,87.4c-4.4,0-8,3.6-8,8c0,4.4,3.6,8,8,8c4.4,0,8-3.6,8-8
						C258.2,91,254.6,87.4,250.2,87.4z"/>
				</g>
			</g>
			<g>
				<g>
					<rect x="281.1" y="181.2" class="st5" width="4" height="6"/>
				</g>
				<g>
					<path class="st5" d="M310.9,187.2h-7.4v-6h7.4V187.2z M298,187.2h-7.4v-6h7.4V187.2z"/>
				</g>
				<g>
					<rect x="316.4" y="181.2" class="st5" width="4" height="6"/>
				</g>
			</g>
			<g>
				<g>
					<rect x="181.5" y="181.2" class="st5" width="4" height="6"/>
				</g>
				<g>
					<path class="st5" d="M211.4,187.2H204v-6h7.4V187.2z M198.4,187.2h-7.4v-6h7.4V187.2z"/>
				</g>
				<g>
					<rect x="216.9" y="181.2" class="st5" width="4" height="6"/>
				</g>
			</g>
			<g>
				<g>
					<rect x="247.2" y="113.3" class="st5" width="6" height="4"/>
				</g>
				<g>
					<path class="st5" d="M253.2,146.4h-6v-8.3h6V146.4z M253.2,131.8h-6v-8.3h6V131.8z"/>
				</g>
				<g>
					<rect x="247.2" y="152.6" class="st5" width="6" height="4"/>
				</g>
			</g>
			<g>
				<g>
					<rect x="247.2" y="211.7" class="st5" width="6" height="4"/>
				</g>
				<g>
					<path class="st5" d="M253.2,244.9h-6v-8.3h6V244.9z M253.2,230.3h-6V222h6V230.3z"/>
				</g>
				<g>
					<rect x="247.2" y="251.1" class="st5" width="6" height="4"/>
				</g>
			</g>
			<g>
				<g>
					
						<rect x="174.7" y="107.9" transform="matrix(0.7071 -0.7071 0.7071 0.7071 -25.6397 157.831)" class="st5" width="6" height="4"/>
				</g>
				<g>
					<path class="st5" d="M219.6,156l-6.1-6.1l4.2-4.2l6.1,6.1L219.6,156z M209,145.4l-6.1-6.1l4.2-4.2l6.1,6.1L209,145.4z
						 M198.3,134.7l-6.1-6.1l4.2-4.2l6.1,6.1L198.3,134.7z M187.6,124.1l-6.1-6.1l4.2-4.2l6.1,6.1L187.6,124.1z"/>
				</g>
				<g>
					
						<rect x="224.7" y="157.9" transform="matrix(0.7072 -0.707 0.707 0.7072 -46.3642 207.7963)" class="st5" width="6" height="4"/>
				</g>
			</g>
			<g>
				<g>
					
						<rect x="271.3" y="204.5" transform="matrix(0.7074 -0.7069 0.7069 0.7074 -65.6818 254.344)" class="st5" width="6" height="4"/>
				</g>
				<g>
					<path class="st5" d="M314.8,251.2l-5.9-5.9l4.2-4.2l5.9,5.9L314.8,251.2z M304.5,240.9l-5.9-5.9l4.2-4.2l5.9,5.9L304.5,240.9z
						 M294.2,230.6l-5.9-5.9l4.2-4.2l5.9,5.9L294.2,230.6z M283.9,220.3l-5.9-5.9l4.2-4.2l5.9,5.9L283.9,220.3z"/>
				</g>
				<g>
					
						<rect x="319.8" y="252.9" transform="matrix(0.7071 -0.7071 0.7071 0.7071 -85.7231 302.8838)" class="st5" width="6" height="4"/>
				</g>
			</g>
			<g>
				<g>
					
						<rect x="317.8" y="106.9" transform="matrix(0.7071 -0.7071 0.7071 0.7071 15.9941 258.3439)" class="st5" width="4" height="6"/>
				</g>
				<g>
					<path class="st5" d="M277.9,156l-4.2-4.2l6.1-6.1l4.2,4.2L277.9,156z M288.6,145.4l-4.2-4.2l6.1-6.1l4.2,4.2L288.6,145.4z
						 M299.2,134.7l-4.2-4.2l6.1-6.1l4.2,4.2L299.2,134.7z M309.9,124.1l-4.2-4.2l6.1-6.1l4.2,4.2L309.9,124.1z"/>
				</g>
				<g>
					
						<rect x="267.8" y="156.9" transform="matrix(0.7069 -0.7073 0.7073 0.7069 -34.0008 237.6981)" class="st5" width="4" height="6"/>
				</g>
			</g>
			<g>
				<g>
					
						<rect x="221.2" y="203.5" transform="matrix(0.7069 -0.7073 0.7073 0.7069 -80.6334 218.3886)" class="st5" width="4" height="6"/>
				</g>
				<g>
					<path class="st5" d="M182.7,251.2l-4.2-4.2l5.9-5.9l4.2,4.2L182.7,251.2z M193,240.9l-4.2-4.2l5.9-5.9l4.2,4.2L193,240.9z
						 M203.3,230.6l-4.2-4.2l5.9-5.9l4.2,4.2L203.3,230.6z M213.6,220.3l-4.2-4.2l5.9-5.9l4.2,4.2L213.6,220.3z"/>
				</g>
				<g>
					
						<rect x="172.8" y="251.9" transform="matrix(0.7071 -0.7071 0.7071 0.7071 -129.0589 198.2618)" class="st5" width="4" height="6"/>
				</g>
			</g>
		</g>
	</g>
</g>
<g id="Capa_2" class="st0">
	<g class="st1">
		<text transform="matrix(1 0 0 1 83.9759 339.054)"><tspan x="0" y="0" class="st2 st3 st4">Plataforma</tspan><tspan x="10.6" y="70.1" class="st2 st3 st4">Monitoreo</tspan></text>
		<g>
			<g>
				<path class="st2" d="M338.7,199.6V184v-3.6V87.8c0-8.3-6.7-15-15-15H152c-8.3,0-15,6.7-15,15v72v17.6v22.2h-27.4v10.8
					c0,8.3,6.7,15,15,15h226.5c8.3,0,15-6.7,15-15v-10.8H338.7z M141.9,159.9v-72c0-5.6,4.6-10.1,10.1-10.1h171.7
					c5.4,0,9.7,4.2,10.1,9.5h0v93.2v3.6v15.6H141.9v-22.2V159.9z M361.2,210.5c0,5.6-4.6,10.1-10.1,10.1H124.6
					c-5.6,0-10.1-4.6-10.1-10.1v-6h246.8V210.5z"/>
				<path class="st5" d="M157.3,190.1l161.1,0v0h5.3v-6v-3.6V88.7l-166.4,0v0H152v71.2v17.6v12.6L157.3,190.1L157.3,190.1z
					 M157.3,177.4v-17.6V93.6h161.1v86.8v3.6v1.1H157.3V177.4z"/>
			</g>
			<g>
				<path class="st2" d="M206.4,164.1c10.6,8,20.7,11.8,31.5,12c6-0.1,12-1.4,17.6-3.9c11.9-5.3,22.4-13.9,33-27.1
					c0.4-0.4,0.7-0.9,1.1-1.3c1.3-1.5,2.8-3.2,2.7-4.6c0-1.3-1.4-2.8-2.7-4.3c-0.5-0.6-1-1.1-1.5-1.6c-7.9-9.8-16.2-17.2-25.2-22.7
					c-8.6-5.2-17-7.8-25.3-7.8c-5.7,0-11.4,1.2-17.1,3.7c-14,6.1-26.2,16.6-37.2,32.2c-0.2,0.3,0,1.5,0.4,2.1
					C190.2,149.8,197.8,157.6,206.4,164.1z M187.3,139.2c8.9-11.5,17.6-19.8,27.5-25.8c15.3-9.4,30.8-9.3,46.1,0
					c10,6.1,18.7,14.3,26.6,24.8c0.4,0.6,0.5,1.8,0.1,2.5c-9.2,11.7-21,24.4-38.4,30.1c-3.7,1.2-7.4,1.8-11.2,1.8
					c-6,0-12-1.5-18.2-4.5c-9.1-4.4-17.4-11-25.3-19.9c-1.6-1.8-3.2-3.7-4.8-5.5l-2.7-3.1L187.3,139.2z"/>
				<path class="st5" d="M237.7,110.8c0,0-0.1,0-0.1,0c-7.5,0-14.5,2.9-19.9,8.3c-5.5,5.4-8.5,12.7-8.5,20.4
					c0,7.6,2.9,14.8,8.3,20.2c5.4,5.4,12.6,8.4,20.2,8.4c0,0,0,0,0,0h0c7.6,0.1,15-2.8,20.4-8.2c3.8-3.7,8.3-10.3,8.3-20.4
					C266.4,123.1,254,110.8,237.7,110.8z M255.5,157.2c-4.8,4.8-11.1,7.4-17.7,7.4c0,0-0.1,0-0.1,0c-13.8-0.1-25-11.4-24.9-25.3
					c0-6.7,2.6-13.1,7.3-17.8c4.7-4.7,11-7.3,17.7-7.3c0,0,0,0,0,0c6.7,0,13.1,2.6,17.8,7.4c4.8,4.8,7.4,11.1,7.4,17.9
					C263,146.2,260.3,152.5,255.5,157.2z"/>
				<path class="st2" d="M250.6,142.2l0.1-0.5h5.2v-4.3h-5.2l-0.1-0.5c-1.1-5.1-5-9.1-10.1-10.1l-0.5-0.1v-5.2h-4.3v5.2l-0.5,0.1
					c-5.1,1.1-9.1,5-10.1,10.1l-0.1,0.5h-5.2v4.3h5.2l0.1,0.5c1.1,5.1,5,9.1,10.1,10.1l0.5,0.1v5.2h4.3v-5.2l0.5-0.1
					C245.6,151.2,249.5,147.3,250.6,142.2z M240.8,148.8l-0.8,0.3v-3.7h-4.3v3.7l-0.8-0.3c-3-1-5.4-3.3-6.4-6.4l-0.3-0.8h3.7v-4.3
					h-3.7l0.3-0.8c1-3,3.3-5.4,6.4-6.4l0.8-0.3v3.7h4.3v-3.7l0.8,0.3c3,1,5.4,3.3,6.4,6.4l0.3,0.8h-3.7v4.3h3.7l-0.3,0.8
					C246.2,145.5,243.8,147.9,240.8,148.8z"/>
				<rect x="243.7" y="137.3" class="st2" width="12.2" height="4.3"/>
				<rect x="219.7" y="137.3" class="st2" width="12.2" height="4.3"/>
				<g>
					
						<rect x="231.7" y="125.3" transform="matrix(6.123234e-17 -1 1 6.123234e-17 110.278 365.3016)" class="st2" width="12.2" height="4.3"/>
					
						<rect x="231.7" y="149.3" transform="matrix(6.123234e-17 -1 1 6.123234e-17 86.2867 389.293)" class="st2" width="12.2" height="4.3"/>
				</g>
			</g>
		</g>
	</g>
</g>
<g id="Capa_3" class="st0">
	<g class="st1">
		<text transform="matrix(1 0 0 1 83.9763 339.054)"><tspan x="0" y="0" class="st2 st3 st4">Plataforma</tspan><tspan x="23" y="70.1" class="st2 st3 st4">Auditoria</tspan></text>
		<g>
			<g>
				<path class="st2" d="M338.7,199.6V184v-3.6V87.8c0-8.3-6.7-15-15-15H152c-8.3,0-15,6.7-15,15v72v17.6v22.2h-27.4v10.8
					c0,8.3,6.7,15,15,15h226.5c8.3,0,15-6.7,15-15v-10.8H338.7z M141.9,159.9v-72c0-5.6,4.6-10.1,10.1-10.1h171.7
					c5.4,0,9.7,4.2,10.1,9.5h0v93.2v3.6v15.6H141.9v-22.2V159.9z M361.2,210.5c0,5.6-4.6,10.1-10.1,10.1H124.6
					c-5.6,0-10.1-4.6-10.1-10.1v-6h246.8V210.5z"/>
				<path class="st2" d="M157.3,190.1l161.1,0v0h5.3v-6v-3.6V88.7l-166.4,0v0H152v71.2v17.6v12.6L157.3,190.1L157.3,190.1z
					 M157.3,177.4v-17.6V93.6h161.1v86.8v3.6v1.1H157.3V177.4z"/>
			</g>
			<g>
				<g>
					<path class="st2" d="M224.1,147.4c0,1.7,1.3,3,3,3h76.4c1.7,0,3-1.3,3-3v-41.7c0-1.7-1.3-3-3-3h-76.4c-1.7,0-3,1.3-3,3V147.4z
						 M230.1,108.7h70.4v35.7h-70.4V108.7z"/>
					<path class="st2" d="M237.6,116.1h13.9v6.9h-13.9V116.1z"/>
					<path class="st5" d="M258.4,116.1h34.7v6.9h-34.7V116.1z"/>
					<path class="st5" d="M237.6,130h55.6v6.9h-55.6V130z"/>
				</g>
				<g>
					<path class="st5" d="M169.2,109.2H190v6.9h-20.8V109.2z"/>
					<path class="st2" d="M197,109.2h16.8v6.9H197V109.2z"/>
					<path class="st2" d="M169.2,123h44.6v6.9h-44.6V123z"/>
				</g>
				<g>
					<path class="st5" d="M169.2,136.9H190v6.9h-20.8V136.9z"/>
					<path class="st2" d="M197,136.9h16.8v6.9H197V136.9z"/>
					<path class="st2" d="M169.2,150.8h44.6v6.9h-44.6V150.8z"/>
				</g>
				<g>
					<path class="st5" d="M229.1,156.1h33.3v6.9h-33.3V156.1z"/>
					<path class="st2" d="M273.6,156.1h26.9v6.9h-26.9V156.1z"/>
					<path class="st2" d="M229.1,170h71.4v6.9h-71.4V170z"/>
				</g>
			</g>
		</g>
	</g>
</g>
<g id="Capa_4" class="st0">
	<g class="st1">
		<text transform="matrix(1 0 0 1 187.167 389.0261)" class="st2 st3 st4">Chat</text>
		<g>
			<g>
				<path class="st5" d="M326.4,225.8c0.9-0.2,1.8-0.7,2.3-1.5c9.6-13.7,14.7-29.6,14.7-46c0-22.9-9.7-44.3-27.3-60.5
					c-17.5-16.1-40.8-24.9-65.6-24.9s-48.1,8.8-65.6,24.9c-17.6,16.1-27.3,37.6-27.3,60.5c0,17.7,5.9,34.7,16.9,49.1l1.4,1.8
					l-18.1,44.7c-0.5,1.3-0.2,2.9,0.8,3.9c1,1,2.6,1.3,3.9,0.7l50.3-22.2l1.6,0.6c11.4,4.4,23.6,6.7,36.1,6.7
					c15.7,0,31.3-3.7,44.9-10.6c0.8-0.4,1.5-1.2,1.8-2.1c0.3-0.9,0.2-1.9-0.2-2.7c-0.4-0.8-1.2-1.5-2.1-1.8
					c-0.9-0.3-1.9-0.2-2.7,0.2c-12.7,6.4-27.1,9.8-41.7,9.8c-12.7,0-24.9-2.5-36.3-7.3c-0.9-0.4-1.9-0.4-2.8,0l-43.7,19.3l15.6-38.6
					c0.5-1.2,0.3-2.6-0.6-3.6c-11.8-13.8-18-30.4-18-48c0-43.2,38.5-78.3,85.8-78.3c47.3,0,85.8,35.1,85.8,78.3
					c0,14.9-4.6,29.4-13.4,42c-0.5,0.8-0.7,1.7-0.6,2.7c0.2,0.9,0.7,1.8,1.5,2.3C324.6,225.8,325.5,226,326.4,225.8z"/>
			</g>
			<path class="st2" d="M297.7,174.5h-94.5c-2.6,0-4.7-2.1-4.7-4.7v-4.3c0-2.6,2.1-4.7,4.7-4.7h94.5c2.6,0,4.7,2.1,4.7,4.7v4.3
				C302.4,172.4,300.3,174.5,297.7,174.5z"/>
			<path class="st2" d="M252.9,201.7h-49.7c-2.6,0-4.7-2.1-4.7-4.7v-4.3c0-2.6,2.1-4.7,4.7-4.7h49.7c2.6,0,4.7,2.1,4.7,4.7v4.3
				C257.6,199.6,255.5,201.7,252.9,201.7z"/>
		</g>
	</g>
</g>
<g id="Capa_5" class="st0">
	<g class="st1">
		<text transform="matrix(1 0 0 1 209.5644 391.4175)" class="st2 st3 st4">QR</text>
		<g>
			<polygon class="st5" points="337.3,250.9 337.3,273.6 314.2,273.6 314.2,282.4 346.2,282.4 346.2,250.9 			"/>
			<polygon class="st5" points="154.4,90.5 154.4,122.6 163.3,122.6 163.3,99.3 185.9,99.3 185.9,90.5 			"/>
			<polygon class="st5" points="154.4,250.8 154.4,282.4 186,282.4 186,273.5 163.2,273.5 163.2,250.8 			"/>
			<polygon class="st5" points="200,182.1 200,191 245.9,191 245.9,213.6 266,213.6 266,204.7 254.7,204.7 254.7,182.1 			"/>
			<polygon class="st5" points="346.1,122.4 346.1,90.7 314.3,90.7 314.3,99.5 337.4,99.5 337.4,122.4 			"/>
			<polygon class="st2" points="314.1,227.7 314.1,250.8 291.5,250.8 291.5,259.5 323,259.5 323,227.7 			"/>
			<polygon class="st5" points="246,227.7 246,259.5 277.4,259.5 277.4,250.7 254.6,250.7 254.6,227.7 			"/>
			<polygon class="st2" points="280.1,204.9 280.1,225 288.9,225 288.9,213.6 323,213.6 323,204.9 			"/>
			<rect x="268.7" y="182.1" class="st5" width="54.2" height="8.6"/>
			<rect x="246" y="113.8" class="st5" width="8.6" height="31.4"/>
			<rect x="177.3" y="182.1" class="st2" width="8.6" height="8.6"/>
			<rect x="268.8" y="227.6" class="st2" width="8.7" height="8.7"/>
			<rect x="246" y="159.4" class="st5" width="8.7" height="8.6"/>
			<rect x="291.4" y="227.6" class="st2" width="8.7" height="8.7"/>
			<path class="st2" d="M177.3,205v54.6h54.6V205H177.3z M223,250.7h-36.8v-36.8H223V250.7z"/>
			<path class="st2" d="M177.3,113.8V168h54.6v-54.1H177.3z M223,159.2h-36.9v-36.5H223V159.2z"/>
			<path class="st2" d="M268.8,113.8V168H323v-54.2H268.8z M314.1,159.2h-36.5v-36.5h36.5V159.2z"/>
			<rect x="197.5" y="225.1" class="st2" width="13.7" height="13.7"/>
			<rect x="197.5" y="134.1" class="st2" width="13.8" height="13.7"/>
			<rect x="289" y="134.1" class="st2" width="13.7" height="13.7"/>
		</g>
	</g>
</g>
<g id="Capa_6" class="st0">
	<g class="st1">
		<text transform="matrix(1 0 0 1 98.7501 391.3607)" class="st2 st3 st4">Proximity</text>
		<g>
			<g>
				<g>
					<path class="st2" d="M236.8,204.8c-10.2,0-18.6-8.3-18.6-18.6s8.3-18.6,18.6-18.6s18.6,8.3,18.6,18.6S247.1,204.8,236.8,204.8z
						 M236.8,172.5c-7.5,0-13.7,6.1-13.7,13.7s6.1,13.7,13.7,13.7s13.7-6.1,13.7-13.7S244.4,172.5,236.8,172.5z"/>
				</g>
			</g>
			<g>
				<g>
					<circle class="st5" cx="249.7" cy="135.1" r="12.9"/>
				</g>
			</g>
			<g>
				<path class="st2" d="M188.8,166.2l0.5,0.2l0.2-0.5c6.9-16.1,21.9-27.8,39.1-30.6l0.5-0.1l0-0.5c0-1.6,0.2-3.3,0.7-4.9l0.2-0.8
					l-0.8,0.1c-20.3,2.7-37.8,16.3-45.6,35.3l-0.3,0.7l0.8,0.1C185.7,165.4,187.3,165.7,188.8,166.2z"/>
				<path class="st2" d="M270.6,139.7l-0.7-0.5l-0.2,0.8c-0.4,1.6-1,3.2-1.7,4.6l-0.2,0.4l0.4,0.3c12.8,9.9,20.2,24.8,20.2,40.9
					c0,28.4-23.1,51.5-51.5,51.5c-20.9,0-39.6-12.5-47.6-31.9l-0.2-0.5l-0.5,0.2c-1.5,0.5-3.1,0.8-4.8,0.9l-0.8,0.1l0.3,0.7
					c8.7,22.2,29.8,36.6,53.6,36.6c31.7,0,57.6-25.8,57.6-57.6C294.4,167.9,285.5,150.5,270.6,139.7z"/>
			</g>
			<g>
				<g>
					<circle class="st5" cx="182.4" cy="185.9" r="12.9"/>
				</g>
			</g>
			<path class="st2" d="M236.8,90.6c-52.7,0-95.6,42.9-95.6,95.6s42.9,95.6,95.6,95.6c6.6,0,13.3-0.7,19.8-2.1l0.7-0.2l-0.3-0.7
				c-0.7-1.4-1.3-2.9-1.7-4.5l-0.1-0.5l-0.5,0.1c-5.9,1.2-11.9,1.8-17.9,1.8c-49.4,0-89.6-40.2-89.6-89.6s40.2-89.6,89.6-89.6
				s89.6,40.2,89.6,89.6c0,27.6-12.5,53.2-34.2,70.4l-0.4,0.3l0.3,0.4c1,1.3,1.8,2.8,2.4,4.2l0.3,0.7l0.6-0.5
				c23.6-18.3,37.1-45.8,37.1-75.6C332.4,133.5,289.5,90.6,236.8,90.6z"/>
			<g>
				<g>
					<circle class="st5" cx="275.4" cy="269.5" r="12.9"/>
				</g>
			</g>
		</g>
	</g>
</g>
<g id="Capa_7" class="st0">
	<g class="st1">
		<text transform="matrix(1 0 0 1 183.8036 372.7926)" class="st2 st3 st4">CRM</text>
		<g>
			<text transform="matrix(1 0 0 1 236.3721 187.8214)" class="st2 st3 st6">CRM</text>
			<line class="st5" x1="219" y1="125.1" x2="219" y2="221.9"/>
			<path class="st2" d="M351.2,236v-15.6v-3.6v-92.6c0-8.3-6.7-15-15-15H164.4c-8.3,0-15,6.7-15,15v72v17.6V236H122v10.8
				c0,8.3,6.7,15,15,15h226.5c8.3,0,15-6.7,15-15V236H351.2z M154.3,196.2v-72c0-5.6,4.6-10.1,10.1-10.1h171.7
				c5.4,0,9.7,4.2,10.1,9.5h0v93.2v3.6V236H154.3v-22.2V196.2z M373.7,246.8c0,5.6-4.6,10.1-10.1,10.1H137.1
				c-5.6,0-10.1-4.6-10.1-10.1v-6h246.8V246.8z"/>
			<path class="st5" d="M169.8,226.4l161.1,0v0h5.3v-6v-3.6v-91.7l-166.4,0v0h-5.3v71.2v17.6v12.6L169.8,226.4L169.8,226.4z
				 M169.8,213.8v-17.6v-66.3h161.1v86.8v3.6v1.1H169.8V213.8z"/>
			<g>
				<g>
					<g>
						<path class="st2" d="M176.8,138.7h8v5.7h-8V138.7z"/>
						<path class="st2" d="M188.8,138.7h20.1v5.7h-20.1V138.7z"/>
					</g>
					<g>
						<path class="st2" d="M176.8,150.1h8v5.7h-8V150.1z"/>
						<path class="st2" d="M188.8,150.1h20.1v5.7h-20.1V150.1z"/>
					</g>
					<g>
						<path class="st2" d="M176.8,161.4h8v5.7h-8V161.4z"/>
						<path class="st2" d="M188.8,161.4h20.1v5.7h-20.1V161.4z"/>
					</g>
					<g>
						<path class="st2" d="M176.8,172.7h8v5.7h-8V172.7z"/>
						<path class="st2" d="M188.8,172.7h20.1v5.7h-20.1V172.7z"/>
					</g>
					<g>
						<path class="st2" d="M176.8,184h8v5.7h-8V184z"/>
						<path class="st2" d="M188.8,184h20.1v5.7h-20.1V184z"/>
					</g>
					<g>
						<path class="st2" d="M176.8,195.3h8v5.7h-8V195.3z"/>
						<path class="st2" d="M188.8,195.3h20.1v5.7h-20.1V195.3z"/>
					</g>
					<g>
						<path class="st2" d="M176.8,206.7h8v5.7h-8V206.7z"/>
						<path class="st2" d="M188.8,206.7h20.1v5.7h-20.1V206.7z"/>
					</g>
				</g>
			</g>
		</g>
	</g>
</g>
<g id="Capa_8" class="st0">
	<g class="st1">
		<text transform="matrix(1 0 0 1 194.3806 389.4099)" class="st2 st3 st4">SOS</text>
		<g>
			<path class="st5" d="M326.4,225.4c0.9-0.2,1.8-0.7,2.3-1.5c9.6-13.7,14.7-29.6,14.7-46c0-22.9-9.7-44.3-27.3-60.5
				c-17.5-16.1-40.8-24.9-65.6-24.9s-48.1,8.8-65.6,24.9c-17.6,16.1-27.3,37.6-27.3,60.5c0,17.7,5.9,34.7,16.9,49.1l1.4,1.8
				l-18.1,44.7c-0.5,1.3-0.2,2.9,0.8,3.9c1,1,2.6,1.3,3.9,0.7l50.3-22.2l1.6,0.6c11.4,4.4,23.6,6.7,36.1,6.7
				c15.7,0,31.3-3.7,44.9-10.6c0.8-0.4,1.5-1.2,1.8-2.1c0.3-0.9,0.2-1.9-0.2-2.7c-0.4-0.8-1.2-1.5-2.1-1.8c-0.9-0.3-1.9-0.2-2.7,0.2
				c-12.7,6.4-27.1,9.8-41.7,9.8c-12.7,0-24.9-2.5-36.3-7.3c-0.9-0.4-1.9-0.4-2.8,0l-43.7,19.3l15.6-38.6c0.5-1.2,0.3-2.6-0.6-3.6
				c-11.8-13.8-18-30.4-18-48c0-43.2,38.5-78.3,85.8-78.3c47.3,0,85.8,35.1,85.8,78.3c0,14.9-4.6,29.4-13.4,42
				c-0.5,0.8-0.7,1.7-0.6,2.7c0.2,0.9,0.7,1.8,1.5,2.3C324.6,225.4,325.5,225.6,326.4,225.4z"/>
			<g>
				<path class="st2" d="M224.5,170.5h-6.9l-1.2-6.3c-0.8-0.5-2-0.9-3.5-1.3c-1.5-0.4-3.2-0.6-4.9-0.6c-2.5,0-4.5,0.5-5.8,1.6
					c-1.4,1.1-2.1,2.4-2.1,4.1c0,1.6,0.7,2.8,2.2,3.8c1.4,1,3.9,2.1,7.5,3.2c5.1,1.4,8.9,3.3,11.5,5.6c2.6,2.3,3.9,5.3,3.9,9.1
					c0,3.9-1.6,7-4.7,9.3c-3.1,2.3-7.2,3.4-12.3,3.4c-3.6,0-6.9-0.6-9.8-1.7c-2.9-1.2-5.4-2.8-7.3-4.8v-9.6h7.1l1,6.5
					c0.9,0.8,2.2,1.4,3.8,1.9c1.6,0.5,3.4,0.7,5.3,0.7c2.5,0,4.4-0.5,5.8-1.5c1.3-1,2-2.4,2-4.1c0-1.8-0.6-3.2-1.9-4.3
					c-1.3-1.1-3.4-2.1-6.6-3c-5.4-1.6-9.6-3.4-12.4-5.6c-2.8-2.2-4.2-5.1-4.2-8.9c0-3.7,1.6-6.8,4.7-9.1s7.1-3.6,11.9-3.6
					c3.5,0,6.7,0.5,9.6,1.6c2.9,1.1,5.3,2.5,7.3,4.3V170.5z"/>
				<path class="st2" d="M270.7,179.2c0,6.7-1.9,12.3-5.8,16.7c-3.8,4.4-8.9,6.6-15.1,6.6c-6.2,0-11.2-2.2-15-6.6
					c-3.8-4.4-5.7-9.9-5.7-16.7v-0.7c0-6.7,1.9-12.2,5.7-16.6c3.8-4.4,8.8-6.6,15-6.6c6.2,0,11.3,2.2,15.1,6.6s5.8,10,5.8,16.6
					V179.2z M261.6,178.4c0-4.7-1-8.6-3-11.6c-2-3-4.9-4.4-8.8-4.4c-3.9,0-6.7,1.5-8.7,4.4c-1.9,2.9-2.9,6.8-2.9,11.6v0.8
					c0,4.8,1,8.7,2.9,11.7c1.9,3,4.8,4.4,8.7,4.4c3.9,0,6.8-1.5,8.8-4.4c2-3,2.9-6.8,2.9-11.7V178.4z"/>
				<path class="st2" d="M309.3,170.5h-6.9l-1.2-6.3c-0.8-0.5-2-0.9-3.5-1.3c-1.5-0.4-3.2-0.6-4.9-0.6c-2.5,0-4.5,0.5-5.8,1.6
					c-1.4,1.1-2.1,2.4-2.1,4.1c0,1.6,0.7,2.8,2.2,3.8c1.4,1,3.9,2.1,7.5,3.2c5.1,1.4,8.9,3.3,11.5,5.6c2.6,2.3,3.9,5.3,3.9,9.1
					c0,3.9-1.6,7-4.7,9.3c-3.1,2.3-7.2,3.4-12.3,3.4c-3.6,0-6.9-0.6-9.8-1.7c-2.9-1.2-5.4-2.8-7.3-4.8v-9.6h7.1l1,6.5
					c0.9,0.8,2.2,1.4,3.8,1.9c1.6,0.5,3.4,0.7,5.3,0.7c2.5,0,4.4-0.5,5.8-1.5c1.3-1,2-2.4,2-4.1c0-1.8-0.6-3.2-1.9-4.3
					c-1.3-1.1-3.4-2.1-6.6-3c-5.4-1.6-9.6-3.4-12.4-5.6c-2.8-2.2-4.2-5.1-4.2-8.9c0-3.7,1.6-6.8,4.7-9.1s7.1-3.6,11.9-3.6
					c3.5,0,6.7,0.5,9.6,1.6c2.9,1.1,5.3,2.5,7.3,4.3V170.5z"/>
			</g>
		</g>
	</g>
</g>
<g id="Capa_9" class="st0">
	<g class="st1">
		<text transform="matrix(1 0 0 1 19.8521 337.9558)"><tspan x="0" y="0" class="st2 st3 st4">Geolocalizaci贸n</tspan><tspan x="127" y="70.1" class="st2 st3 st4">Indoor</tspan></text>
		<g>
			<g>
				<path class="st5" d="M192.5,80.2l29,13.4l-68,17l4.8-29.6c0.1-0.5,0.5-0.9,1.1-0.9H192.5 M194,73.9h-34.6
					c-3.6,0-6.6,2.6-7.2,6.1l-6.3,38.9l94.3-23.6l-45.9-21.2C194.2,74.1,194.1,74,194,73.9L194,73.9z"/>
				<path class="st5" d="M316.3,80.2c0.5,0,1,0.4,1.1,0.9l3,18.5l-7.3,11.3l-66.5-30.8H316.3 M316.3,73.9h-98l97.1,44.9l11.5-17.9
					l-3.4-20.9C323,76.5,319.9,73.9,316.3,73.9L316.3,73.9z"/>
				<path class="st5" d="M325.8,133.1l14,86.4c0.1,0.3,0,0.6-0.2,0.9c-0.2,0.2-0.5,0.4-0.8,0.4h-69.5L325.8,133.1 M329.4,116
					L257.8,227h80.9c2.1,0,4.2-0.9,5.6-2.6c1.4-1.6,2-3.8,1.6-5.9L329.4,116L329.4,116z"/>
				<path class="st5" d="M254.3,108.8l46.3,21.4l-58.4,90.5H137c-0.3,0-0.6-0.1-0.8-0.4c-0.2-0.2-0.3-0.6-0.2-0.9l13.7-84.5
					L254.3,108.8 M255,102.2l-110.7,27.8c-0.1,0-0.1,0-0.2,0l-14.3,88.5c-0.3,2.1,0.3,4.3,1.6,5.9c1.4,1.6,3.4,2.6,5.6,2.6h108.7
					l64.1-99.4L255,102.2L255,102.2z"/>
			</g>
			<g>
				<path class="st2" d="M181.3,162.7c0,4.5,1,8.9,3,12.8c0.1,0.3,11.4,19.1,16.2,27.2l2.3,3.9c1.3,2.2,3.7,3.5,6.2,3.5
					s4.9-1.3,6.2-3.5l18.8-31.7c1.8-3.7,2.8-7.9,2.8-12.1c0-6.7-2.5-13.2-6.9-18.3c-2.7-3-5.6-5.2-8.7-6.7l-0.2-0.1l0.1-0.7
					c0,0,0,0,0,0l-0.3,0.6c-3.7-1.7-7.7-2.6-11.8-2.6c-0.1,0-0.3,0-0.4,0C193.7,135.3,181.4,147.7,181.3,162.7z M208.9,141
					c5.8-0.1,11.4,2.1,15.7,6.3c4.2,4.1,6.5,9.7,6.5,15.6c0,3.5-0.8,6.8-2.3,9.8l0,0.1l-19.5,32.7l-19.5-32.7
					c-1.6-3.2-2.4-6.5-2.4-10C187.4,150.9,197,141.2,208.9,141z"/>
				<path class="st2" d="M209.2,152.4c-5.5,0-10,4.5-10,10s4.5,10,10,10c5.5,0,10-4.5,10-10S214.7,152.4,209.2,152.4z M209.2,167.6
					c-2.9,0-5.3-2.4-5.3-5.3s2.4-5.3,5.3-5.3c2.9,0,5.3,2.4,5.3,5.3S212.1,167.6,209.2,167.6z"/>
			</g>
		</g>
	</g>
</g>
<g id="Capa_10" class="st0">
	<g class="st1">
		<text transform="matrix(1 0 0 1 82.954 337.891)"><tspan x="0" y="0" class="st2 st3 st4">Plataforma</tspan><tspan x="-49.1" y="70.1" class="st2 st3 st4">Agendamiento</tspan></text>
		<g>
			<g>
				<path class="st2" d="M337.7,200.8v-15.6v-3.6V89c0-8.3-6.7-15-15-15H151c-8.3,0-15,6.7-15,15v72v17.6v22.2h-27.4v10.8
					c0,8.3,6.7,15,15,15h226.5c8.3,0,15-6.7,15-15v-10.8H337.7z M140.8,161.1V89c0-5.6,4.6-10.1,10.1-10.1h171.7
					c5.4,0,9.7,4.2,10.1,9.5h0v93.2v3.6v15.6H140.8v-22.2V161.1z M360.2,211.6c0,5.6-4.6,10.1-10.1,10.1H123.6
					c-5.6,0-10.1-4.6-10.1-10.1v-6h246.8V211.6z"/>
				<path class="st5" d="M156.3,191.2l161.1,0v0h5.3v-6v-3.6V89.9l-166.4,0v0H151v71.2v17.6v12.6L156.3,191.2L156.3,191.2z
					 M156.3,178.6v-17.6V94.8h161.1v86.8v3.6v1.1H156.3V178.6z"/>
			</g>
			<path class="st2" d="M223,148.5c0,1.7,1.3,3,3,3h76.4c1.7,0,3-1.3,3-3v-41.7c0-1.7-1.3-3-3-3H226c-1.7,0-3,1.3-3,3V148.5z
				 M229,109.9h70.4v35.7H229V109.9z"/>
			<path class="st2" d="M236.4,117.3h13.9v6.9h-13.9V117.3z"/>
			<path class="st5" d="M257.3,117.3H292v6.9h-34.7V117.3z"/>
			<path class="st5" d="M236.4,131.2H292v6.9h-55.6V131.2z"/>
			<path class="st5" d="M229.5,158.1h20.8v6.9h-20.8V158.1z"/>
			<path class="st2" d="M257.3,158.1h44.1v6.9h-44.1V158.1z"/>
			<path class="st2" d="M229.5,172h71.8v6.9h-71.8V172z"/>
			<path class="st2" d="M206,103.8h-34.7c-1.7,0-3,1.3-3,3v27.8c0,1.7,1.3,3,3,3H206c1.7,0,3-1.3,3-3v-27.8
				C209,105.2,207.6,103.8,206,103.8z M203,131.6h-28.7v-21.8H203V131.6z"/>
			<path class="st5" d="M181.7,117.3h13.9v6.9h-13.9V117.3z"/>
			<g>
				<path class="st2" d="M167.8,149.4h10.1v6.9h-10.1V149.4z"/>
				<path class="st5" d="M182.2,149.4h27.2v6.9h-27.2V149.4z"/>
				<path class="st2" d="M167.8,160.6h10.1v6.9h-10.1V160.6z"/>
				<path class="st5" d="M182.2,160.6h27.2v6.9h-27.2V160.6z"/>
				<path class="st2" d="M167.8,171.9h10.1v6.9h-10.1V171.9z"/>
				<path class="st5" d="M182.2,171.9h27.2v6.9h-27.2V171.9z"/>
			</g>
		</g>
	</g>
</g>
<g id="Capa_11" class="st0">
	<g class="st1">
		<text transform="matrix(1 0 0 1 74.9494 379.2202)" class="st2 st3 st4">Seguimiento</text>
		<g>
			<g>
				<polygon class="st5" points="185.3,242.4 166.8,242.4 166.8,110.7 185.3,110.7 185.3,116.4 172.4,116.4 172.4,236.7 
					185.3,236.7 				"/>
			</g>
			<g>
				<polygon class="st5" points="160.7,235.9 142.9,235.9 142.9,117.2 160.7,117.2 160.7,122.9 148.6,122.9 148.6,230.2 
					160.7,230.2 				"/>
			</g>
			<path class="st5" d="M289.6,244.7h-93.4V108.4h94.8v34.4c2.3,2.6,4.1,5.1,5.7,7.7v-47.8H190.6v147.7h104.7L289.6,244.7z"/>
			<path class="st2" d="M341.5,248.8l-36.3-36.5c-2.1-2.1-4.9-3.3-7.9-3.3c0,0,0,0,0,0c-2.1,0-4,0.6-5.7,1.6l-8.3-8.4
				c6.3-7.1,10-16.3,10.1-25.8c0.1-7.3-1.9-18.2-11.7-28.1c-15.8-15.9-39.9-15.9-56,0c0,0-0.1,0.1-0.1,0.1
				c-7.3,7.3-11.4,17-11.4,27.5c-0.1,10.7,4,20.7,11.5,28.2c7.4,7.5,17.3,11.6,27.8,11.6c9.7,0,18.8-3.4,26-9.7l8.4,8.4
				c-2.6,4.3-2.1,10,1.6,13.7l36.3,36.5h0c2.1,2.1,4.9,3.3,7.9,3.3c0,0,0,0,0,0c3,0,5.8-1.2,7.9-3.3
				C345.9,260.3,345.9,253.2,341.5,248.8z M229,200.6c-6.6-6.6-10.2-15.3-10.2-24.5c0-9.2,3.6-17.8,10.2-24.4c0,0,0,0,0,0
				c6.6-6.6,15.4-10.1,24.7-10.1c9.3,0,18.1,3.7,24.6,10.4c6.4,6.5,9.9,15.2,9.9,24.6c-0.1,9.4-3.7,18-10.1,24.5
				c0,0-0.1,0.1-0.1,0.1C264.5,214.4,242.5,214.2,229,200.6z M337.7,260.8c-1.1,1.1-2.5,1.7-4.1,1.7c0,0,0,0,0,0
				c-1.6,0-3-0.6-4.1-1.7h0l-36.3-36.5c-2.3-2.3-2.2-5.9,0-8.2c1.1-1.1,2.5-1.7,4.1-1.7c0,0,0,0,0,0c1.6,0,3,0.6,4.1,1.7l36.3,36.5
				C339.9,254.9,339.9,258.6,337.7,260.8z"/>
		</g>
	</g>
</g>
<g id="Capa_12" class="st0">
	<g class="st1">
		<text transform="matrix(1 0 0 1 19.1724 372.7158)" class="st2 st3 st4">Machine Vision</text>
		<g>
			<path class="st2" d="M263.2,191.1l0.2-1h10.8v-9h-10.8l-0.2-1c-2.2-10.6-10.5-18.9-21.1-21.1l-1-0.2V148h-9v10.8l-1,0.2
				c-10.6,2.2-18.9,10.5-21.1,21.1l-0.2,1h-10.8v9h10.8l0.2,1c2.2,10.6,10.5,18.9,21.1,21.1l1,0.2v10.8h9v-10.8l1-0.2
				C252.8,210,261,201.7,263.2,191.1z M242.8,205l-1.7,0.5v-7.7h-9v7.7l-1.7-0.5c-6.3-2-11.2-6.9-13.2-13.2l-0.5-1.7h7.7v-9h-7.7
				l0.5-1.7c2-6.3,6.9-11.2,13.2-13.2l1.7-0.5v7.7h9v-7.7l1.7,0.5c6.3,2,11.2,6.9,13.2,13.2l0.5,1.7h-7.7v9h7.7l-0.5,1.7
				C254,198,249.1,203,242.8,205z"/>
			<path class="st2" d="M171.4,236.6c22.1,16.6,42.9,24.5,65.5,24.8c12.6-0.2,24.9-2.9,36.5-8.1c24.8-11,46.6-28.8,68.6-56.2
				c0.7-0.9,1.5-1.8,2.4-2.8c2.7-3.1,5.8-6.6,5.7-9.5c-0.1-2.8-2.9-5.9-5.7-8.9c-1.1-1.2-2.1-2.3-3-3.4
				c-16.5-20.4-33.6-35.8-52.3-47.1c-17.9-10.8-35.3-16.2-52.5-16.2c-11.9,0-23.7,2.6-35.6,7.7c-29.1,12.7-54.4,34.6-77.3,66.9
				c-0.4,0.5,0,3.1,0.9,4.4C137.8,207,153.5,223.2,171.4,236.6z M131.7,184.8c18.4-24,36.6-41,57.2-53.7c31.8-19.4,64-19.4,95.7,0.1
				c20.8,12.8,38.8,29.7,55.2,51.6c0.9,1.2,1.1,3.8,0.1,5.1c-19.2,24.2-43.7,50.6-79.7,62.6c-7.6,2.5-15.4,3.8-23.3,3.8
				c-12.4,0-25-3.1-37.8-9.4c-18.9-9.2-36.1-22.8-52.5-41.4c-3.4-3.8-6.7-7.7-10-11.5l-5.5-6.4L131.7,184.8z"/>
			<path class="st5" d="M236.4,125.9c-0.1,0-0.1,0-0.2,0c-15.5,0-30.2,6.1-41.3,17.2c-11.4,11.3-17.6,26.3-17.7,42.3
				c0,15.8,6.1,30.7,17.3,41.9c11.2,11.2,26.1,17.4,42,17.4c0,0,0,0,0,0h0c15.8,0.3,31.1-5.9,42.4-17c7.9-7.7,17.3-21.4,17.3-42.4
				C296.1,151.6,270.4,126.1,236.4,125.9z M273.4,222.4c-10,9.9-23,15.4-36.8,15.4c-0.1,0-0.1,0-0.2,0
				c-28.6-0.1-51.8-23.7-51.8-52.5c0-14,5.4-27.1,15.2-36.9c9.8-9.8,22.8-15.2,36.7-15.2c0,0,0.1,0,0.1,0c14,0,27.2,5.5,37,15.4
				c9.9,9.9,15.3,23.1,15.3,37.2C288.9,199.5,283.4,212.5,273.4,222.4z"/>
			<rect x="248.9" y="181.1" class="st5" width="25.3" height="9"/>
			<rect x="199.1" y="181.1" class="st5" width="25.3" height="9"/>
			<g>
				
					<rect x="224" y="156.2" transform="matrix(6.123234e-17 -1 1 6.123234e-17 75.9762 397.3051)" class="st5" width="25.3" height="9"/>
				
					<rect x="224" y="206" transform="matrix(6.123234e-17 -1 1 6.123234e-17 26.1365 447.1449)" class="st5" width="25.3" height="9"/>
			</g>
		</g>
	</g>
</g>
<g id="Capa_14" class="st0">
	<g class="st1">
		<text transform="matrix(1 0 0 1 120.6327 403.047)" class="st7 st3 st4">Beacons</text>
		<g>
			<g>
				<polygon class="st8" points="226.2,257.7 252.7,284 278.1,257.3 251.6,244.7 				"/>
				<polygon class="st9" points="242.2,127.5 246.4,131.6 240.1,95.8 250,85.8 247.6,83.4 237.9,93.1 228.9,88.2 227.3,91.3 
					236.7,96.3 				"/>
				<polygon class="st9" points="259.9,175 257.3,177.5 264.1,192.5 270.3,198.6 271.8,200.1 303.6,139.9 300.6,138.3 269.8,196.5 
									"/>
				<path class="st9" d="M272.5,206.1l-2.3,2.3l-0.7,0.7l9,44.8l-24.8-11.8l12.7-29.9l-6.5,6.5l-9.8,23l-26.4,13.6l-20.3-25.4
					l7.9-12.6l-1.5-1.5l-1-1l-8.2,13.1l-11.1-4.1l-2.3-108.9l-3.4,0.1l2.3,109.4l-9.9,10l2.4,2.4l9.6-9.8l12,4.4l19.8,24.8
					l-24.6,4.2l0.6,3.4l26.6-4.6l29.9,29.8l28.7-30.1l13,5.7l1.4-3.1l-13.3-5.8L272.5,206.1z M252.7,284l-26.4-26.3l25.4-13.1
					l26.5,12.6L252.7,284z"/>
			</g>
			<g>
				<path class="st7" d="M254.6,291.4l-60.4-24.7l-26-41.2l15.2-111.4l60.5-35.3l47.6,20.9l14,39.2l-2.4,109.3l-5.1,17.2
					L254.6,291.4z M197.6,262.6l56.5,23.1l39.5-23.5l4.4-14.9l2.2-107.4l-13-36.3l-43.2-19l-56.1,32.7l-14.6,107L197.6,262.6z"/>
			</g>
			<g id="XMLID_2_">
				<path class="st10" d="M265.4,203.5l-21.9-21.9l21.7-21.7l-32.1-31.6v43L215,153.1l-6.5,6.5l22.2,22.2l-22.4,22.4l6.5,6.5
					l18.3-18.3v43.2L265.4,203.5L265.4,203.5z M241.5,148.7l11.1,11.4l-11.1,11.1V148.7L241.5,148.7z M241.5,191.7l11.1,11.4
					l-11.1,11.1V191.7L241.5,191.7z"/>
			</g>
		</g>
	</g>
</g>
<g id="Capa_15" class="st0">
	<g class="st1">
		<text transform="matrix(1 0 0 1 18.8298 392.3397)" class="st7 st3 st4">Geolocalizaci贸n</text>
		<g>
			<path class="st9" d="M138.7,280.6l198.7,0.1c6.4,0,11.5-5.2,11.5-11.5v-50.4l-7.9,13.3v37.1c0,2-1.6,3.6-3.6,3.6l-13.2,0
				l-0.1-0.1L287.3,236l11.6-11.6c0.6-0.6,1-1.5,1-2.4c0-0.9-0.4-1.8-1-2.4c-1.3-1.3-3.5-1.3-4.9,0l-11.6,11.6l-0.3-0.3l-36.5-36.5
				l0.3-0.3l18.8-18.8l9.9,9.9c1.5,1.5,4.1,1.5,5.6,0c0.7-0.7,1.2-1.7,1.2-2.8c0-1.1-0.4-2.1-1.2-2.8l-9.9-9.9l0.3-0.3l57-57l9.8,0
				c2,0,3.6,1.6,3.6,3.6v21.5c0,0,0.1,0,0.1,0c0.2,0.1,0.3,0.1,0.5,0.2l0.5,0.2c2.3,1.1,4.6,2.6,6.8,4.4V116
				c0-6.4-5.2-11.5-11.5-11.5l-149.6-0.1c1.2,2.6,2.1,5.2,2.7,7.9l59.3,0l-0.7,0.7l-42.4,42.4l-0.3-0.3l-15-15
				c-1.3-1.3-3.5-1.3-4.9,0c-0.6,0.6-1,1.5-1,2.4c0,0.9,0.4,1.8,1,2.4l30.3,30.3l-0.3,0.3l-25.1,25.1l-0.3-0.3l-19.7-19.7
				c-1.3-1.3-3.5-1.3-4.9,0c-1.3,1.3-1.3,3.5,0,4.9l11,11l-0.3,0.3l-42.4,42.4v-56.5l-7.9-13.2v99.7
				C127.2,275.5,132.3,280.6,138.7,280.6z M197.5,272.8l-0.1-0.1l-15.2-15.2l0.3-0.3l28-28l0.3,0.3l43.3,43.3L197.5,272.8z
				 M282.5,240.9l0.3,0.3l31.7,31.7l-50.7,0l-0.1-0.1l-6.5-6.5l0.3-0.3L282.5,240.9z M259,217.4l18.6,18.6l-0.3,0.3l-25.1,25.1
				l-0.3-0.3l-18.6-18.6l0.3-0.3l25.1-25.1L259,217.4z M317.9,112.3l-27.5,27.5l-0.3-0.3l-27.3-27.3L317.9,112.3z M211.6,160.3
				l0.3-0.3l44.5-44.5l0.3,0.3l28.9,28.9l-0.3,0.3l-44.5,44.4l-0.3-0.3L211.6,160.3z M196.7,205.3l25.1-25.1l0.3,0.3l31.8,31.8
				l-0.3,0.3l-25.1,25.1l-0.3-0.3l-31.8-31.8L196.7,205.3z M154.6,229.3l28-28l0.3,0.3l22.7,22.7l-0.3,0.3l-28,28l-0.3-0.3
				l-22.7-22.7L154.6,229.3z M135.1,248.9l0.1-0.1l14.3-14.3l0.3,0.3l38,38l-49.1,0c-2,0-3.6-1.6-3.6-3.6V248.9z"/>
			<g>
				<path class="st7" d="M175.8,103.8c-0.1-0.1-0.2-0.3-0.3-0.5l-0.2-0.3c-0.6-0.8-1.2-1.6-1.9-2.3l-0.3-0.3
					c-0.4-0.4-0.7-0.8-1.1-1.2c-6.3-6.2-14.5-9.6-23.3-9.6l-0.5,0c-18,0.2-32.7,15.1-32.8,33c0,5.2,1.2,10.4,3.5,15.1l22.5,37.7
					c1.6,2.5,4.3,3.9,7.2,3.9c3.1,0,5.9-1.6,7.4-4.2l0.4-0.7l0,0c0.5-1,1.5-2.7,3.4-5.9c8.7-14.5,18-30.1,18.3-30.7
					c2.4-4.6,3.6-9.8,3.6-15.1c0-2.3-0.3-4.8-0.9-7.5C179.8,110.8,178.1,107,175.8,103.8z M172,134.6l-23.3,39.1l-23.3-39.1
					c-1.9-3.8-2.8-7.8-2.8-11.9c0.1-14.1,11.6-25.8,25.7-26c7.1-0.1,13.7,2.6,18.7,7.5c1.7,1.7,3.2,3.6,4.3,5.6l0.1,0.2
					c2.2,3.9,3.3,8.3,3.3,12.7C174.8,127,173.8,130.9,172,134.6z"/>
				<path class="st7" d="M148.7,110.7c-6.6,0-11.9,5.3-11.9,11.9s5.3,11.9,11.9,11.9c6.6,0,11.9-5.3,11.9-11.9
					S155.2,110.7,148.7,110.7z M148.7,128.9c-3.5,0-6.3-2.8-6.3-6.3s2.8-6.3,6.3-6.3c3.5,0,6.3,2.8,6.3,6.3S152.1,128.9,148.7,128.9
					z"/>
				<g>
					<path class="st7" d="M291.8,176c0,5.3,1.2,10.6,3.6,15.3c0.2,0.3,13.6,22.8,19.4,32.5l2.8,4.7c1.6,2.6,4.4,4.2,7.4,4.2
						c3.1,0,5.9-1.6,7.4-4.2l22.5-37.8c2.2-4.5,3.3-9.5,3.3-14.4c0-8-2.9-15.8-8.3-21.9c-3.3-3.6-6.6-6.2-10.4-8l-0.3-0.1l0.1-0.8
						c0,0,0,0,0,0l-0.3,0.7c-4.4-2.1-9.2-3.1-14.1-3.1c-0.2,0-0.3,0-0.5,0C306.6,143.2,291.9,158.1,291.8,176z M324.6,150.1
						c7-0.2,13.6,2.5,18.7,7.5c5,4.9,7.8,11.5,7.8,18.6c0,4.1-0.9,8.1-2.8,11.7l0,0.1L325,227.1l-23.3-39c-1.9-3.8-2.9-7.8-2.8-12
						C299,161.9,310.5,150.3,324.6,150.1z"/>
					<path class="st7" d="M325,163.7c-6.6,0-11.9,5.3-11.9,11.9c0,6.6,5.3,11.9,11.9,11.9c6.6,0,11.9-5.3,11.9-11.9
						C336.9,169,331.6,163.7,325,163.7z M325,181.9c-3.5,0-6.3-2.8-6.3-6.3c0-3.5,2.8-6.3,6.3-6.3c3.5,0,6.3,2.8,6.3,6.3
						C331.3,179,328.5,181.9,325,181.9z"/>
				</g>
			</g>
		</g>
	</g>
</g>
<g id="Capa_13" class="st0">
	<g class="st1">
		<text transform="matrix(1 0 0 1 178.0851 393.1934)" class="st2 st3 st4">APP</text>
		<g>
			<g>
				<g>
					<path class="st2" d="M275.7,88.8h-77.8c-9.8,0-17.8,8-17.8,17.8v3.9v1v2.8v8.2v141.3c0,9.8,8,17.8,17.8,17.8h13.2h51.3h13.2
						c9.8,0,17.8-8,17.8-17.8V122.6v-8.2v-2.8v-1v-3.9C293.5,96.7,285.5,88.8,275.7,88.8z M197.9,94.5h77.8c6.3,0,11.5,5,11.9,11.2
						h-12.1h-77.4H186C186.4,99.5,191.6,94.5,197.9,94.5z M185.9,122.6v-8.2v-2.8v0h12.2h77.4h12.2v0v2.8v8.2v127.3H185.9V122.6z
						 M287.7,263.8c0,6.6-5.4,12-12,12h-13.2h-51.3h-13.2c-6.6,0-12-5.4-12-12v-8.2h101.8V263.8z"/>
				</g>
			</g>
			<g>
				<g>
					<path class="st5" d="M253.2,101.9h-24c-1,0-1.8-0.8-1.8-1.8s0.8-1.8,1.8-1.8h24c1,0,1.8,0.8,1.8,1.8S254.2,101.9,253.2,101.9z"
						/>
				</g>
				<g>
					<path class="st5" d="M224,101.9h-3.5c-1,0-1.8-0.8-1.8-1.8s0.8-1.8,1.8-1.8h3.5c1,0,1.8,0.8,1.8,1.8S225,101.9,224,101.9z"/>
				</g>
			</g>
			<path class="st5" d="M249.5,269.1h-25.3c-0.5,0-0.9-0.4-0.9-0.9v-4.7c0-0.5,0.4-0.9,0.9-0.9h25.3c0.5,0,0.9,0.4,0.9,0.9v4.7
				C250.3,268.7,250,269.1,249.5,269.1z"/>
			<g>
				<path class="st5" d="M194.7,241.1h23.7v-23.7h-23.7V241.1z M200.5,223.1h12.2v12.2h-12.2V223.1z"/>
				<path class="st5" d="M248.7,217.3H225v23.7h23.7V217.3z M243,235.3h-12.2v-12.2H243V235.3z"/>
				<path class="st5" d="M278.9,217.3h-23.7v23.7h23.7V217.3z M273.2,235.3h-12.2v-12.2h12.2V235.3z"/>
			</g>
		</g>
	</g>
</g>
<g id="Capa_16" class="st0">
	<g class="st1">
		<text transform="matrix(1 0 0 1 130.7119 335.1063)"><tspan x="0" y="0" class="st2 st3 st4">Notifier</tspan><tspan x="-39.1" y="70.1" class="st2 st3 st4">Push-SMS</tspan></text>
		<g>
			<g>
				<path class="st2" d="M267.5,164c3.6,0,6.6-2.9,6.6-6.6v-40.2c0-3.6-2.9-6.6-6.6-6.6c-3.6,0-6.6,2.9-6.6,6.6v40.2
					C260.9,161,263.9,164,267.5,164z"/>
				<path class="st2" d="M272.1,179.8c-2.4-2.4-6.8-2.4-9.3,0l0,0c-1.2,1.2-1.9,2.9-1.9,4.6c0,1.7,0.7,3.4,1.9,4.7
					c1.2,1.2,2.9,1.8,4.6,1.8c1.7,0,3.4-0.6,4.7-1.8c1.2-1.2,1.9-2.9,1.9-4.6C274.1,182.7,273.3,181,272.1,179.8z"/>
			</g>
			<path class="st5" d="M336,76.8H194.9c-1.9,0-3.4,1.5-3.4,3.4v94.3l-56,44.1c-1.1,0.9-1.6,2.4-1.1,3.8c0.5,1.4,1.8,2.3,3.3,2.3
				H336c1.9,0,3.4-1.5,3.4-3.4V80.2C339.5,78.3,337.9,76.8,336,76.8z M332.6,217.9h-185l49.5-39c0.8-0.7,1.3-1.6,1.3-2.7V83.7h134.2
				V217.9z"/>
		</g>
	</g>
</g>
<g id="Capa_17" class="st0">
	<text transform="matrix(1 0 0 1 83.976 337.4039)" class="st1"><tspan x="0" y="0" class="st2 st3 st4">Plataforma</tspan><tspan x="98" y="70.1" class="st2 st3 st4">GPS</tspan></text>
	<g class="st1">
		<path class="st2" d="M338.7,201.3v-15.6v-3.6V89.5c0-8.3-6.7-15-15-15H152c-8.3,0-15,6.7-15,15v72v17.6v22.2h-27.4v10.8
			c0,8.3,6.7,15,15,15h226.5c8.3,0,15-6.7,15-15v-10.8H338.7z M141.9,161.5v-72c0-5.6,4.6-10.1,10.1-10.1h171.7
			c5.4,0,9.7,4.2,10.1,9.5h0v93.2v3.6v15.6H141.9v-22.2V161.5z M361.2,212.1c0,5.6-4.6,10.1-10.1,10.1H124.6
			c-5.6,0-10.1-4.6-10.1-10.1v-6h246.8V212.1z"/>
		<path class="st5" d="M157.3,191.7l161.1,0v0h5.3v-6v-3.6V90.4l-166.4,0v0H152v71.2v17.6v12.6L157.3,191.7L157.3,191.7z
			 M157.3,179.1v-17.6V95.3h161.1v86.8v3.6v1.1H157.3V179.1z"/>
		<g>
			<path class="st5" d="M201.2,177l77.7,0c2.5,0,4.5-2,4.5-4.5v-19.7l-3.1,5.2v14.5c0,0.8-0.6,1.4-1.4,1.4l-5.2,0l0,0l-14.4-14.4
				l4.5-4.5c0.3-0.3,0.4-0.6,0.4-1s-0.1-0.7-0.4-1c-0.5-0.5-1.4-0.5-1.9,0l-4.5,4.5l-0.1-0.1l-14.3-14.3l0.1-0.1l7.4-7.4l3.9,3.9
				c0.6,0.6,1.6,0.6,2.2,0c0.3-0.3,0.5-0.7,0.5-1.1c0-0.4-0.2-0.8-0.5-1.1l-3.9-3.9l0.1-0.1l22.3-22.3l3.8,0c0.8,0,1.4,0.6,1.4,1.4
				v8.4c0,0,0,0,0,0c0.1,0,0.1,0,0.2,0.1l0.2,0.1c0.9,0.4,1.8,1,2.7,1.7v-10.3c0-2.5-2-4.5-4.5-4.5l-58.5,0c0.5,1,0.8,2,1.1,3.1
				l23.2,0l-0.3,0.3L227.8,128l-0.1-0.1l-5.9-5.9c-0.5-0.5-1.4-0.5-1.9,0c-0.3,0.3-0.4,0.6-0.4,1c0,0.4,0.1,0.7,0.4,1l11.9,11.9
				l-0.1,0.1l-9.8,9.8l-0.1-0.1l-7.7-7.7c-0.5-0.5-1.4-0.5-1.9,0c-0.5,0.5-0.5,1.4,0,1.9l4.3,4.3l-0.1,0.1l-16.6,16.6v-22.1
				l-3.1-5.2v39C196.7,175,198.7,177,201.2,177z M224.2,173.9L224.2,173.9l-6-6l0.1-0.1l10.9-10.9l0.1,0.1l16.9,16.9L224.2,173.9z
				 M257.5,161.4l0.1,0.1l12.4,12.4l-19.8,0l0,0l-2.5-2.5l0.1-0.1L257.5,161.4z M248.3,152.3l7.3,7.3l-0.1,0.1l-9.8,9.8l-0.1-0.1
				l-7.3-7.3l0.1-0.1l9.8-9.8L248.3,152.3z M271.3,111.2l-10.8,10.8l-0.1-0.1l-10.7-10.7L271.3,111.2z M229.7,129.9l0.1-0.1
				l17.4-17.4l0.1,0.1l11.3,11.3l-0.1,0.1l-17.4,17.4l-0.1-0.1L229.7,129.9z M223.9,147.5l9.8-9.8l0.1,0.1l12.4,12.4l-0.1,0.1
				l-9.8,9.8l-0.1-0.1l-12.4-12.4L223.9,147.5z M207.5,156.9l10.9-10.9l0.1,0.1l8.9,8.9l-0.1,0.1L216.3,166l-0.1-0.1l-8.9-8.9
				L207.5,156.9z M199.8,164.6L199.8,164.6l5.6-5.6l0.1,0.1l14.9,14.9l-19.2,0c-0.8,0-1.4-0.6-1.4-1.4V164.6z"/>
			<g>
				<path class="st2" d="M215.7,107.8c0-0.1-0.1-0.1-0.1-0.2l-0.1-0.1c-0.2-0.3-0.5-0.6-0.7-0.9l-0.1-0.1c-0.1-0.2-0.3-0.3-0.4-0.5
					c-2.4-2.4-5.7-3.7-9.1-3.7l-0.2,0c-7,0.1-12.8,5.9-12.8,12.9c0,2,0.5,4.1,1.4,5.9l8.8,14.7c0.6,1,1.7,1.5,2.8,1.5
					c1.2,0,2.3-0.6,2.9-1.7l0.2-0.3l0,0c0.2-0.4,0.6-1,1.3-2.3c3.4-5.7,7-11.8,7.2-12c0.9-1.8,1.4-3.8,1.4-5.9
					c0-0.9-0.1-1.9-0.4-2.9C217.3,110.6,216.6,109.1,215.7,107.8z M214.2,119.9l-9.1,15.3l-9.1-15.3c-0.7-1.5-1.1-3-1.1-4.7
					c0-5.5,4.5-10.1,10.1-10.2c2.8,0,5.4,1,7.3,2.9c0.7,0.7,1.2,1.4,1.7,2.2l0,0.1c0.8,1.5,1.3,3.2,1.3,5
					C215.3,116.9,215,118.5,214.2,119.9z"/>
				<path class="st2" d="M205.1,110.5c-2.6,0-4.7,2.1-4.7,4.7s2.1,4.7,4.7,4.7c2.6,0,4.7-2.1,4.7-4.7S207.7,110.5,205.1,110.5z
					 M205.1,117.7c-1.4,0-2.5-1.1-2.5-2.5c0-1.4,1.1-2.5,2.5-2.5c1.4,0,2.5,1.1,2.5,2.5C207.6,116.6,206.5,117.7,205.1,117.7z"/>
				<g>
					<path class="st2" d="M261.1,136.1c0,2.1,0.5,4.2,1.4,6c0.1,0.1,5.3,8.9,7.6,12.7l1.1,1.8c0.6,1,1.7,1.7,2.9,1.7
						c1.2,0,2.3-0.6,2.9-1.7l8.8-14.8c0.8-1.7,1.3-3.7,1.3-5.7c0-3.1-1.2-6.2-3.2-8.6c-1.3-1.4-2.6-2.4-4.1-3.1l-0.1-0.1l0.1-0.3
						c0,0,0,0,0,0l-0.1,0.3c-1.7-0.8-3.6-1.2-5.5-1.2c-0.1,0-0.1,0-0.2,0C266.9,123.3,261.1,129.1,261.1,136.1z M274,125.9
						c2.7-0.1,5.3,1,7.3,2.9c2,1.9,3,4.5,3,7.3c0,1.6-0.4,3.2-1.1,4.6l0,0l-9.1,15.3l-9.1-15.3c-0.7-1.5-1.1-3.1-1.1-4.7
						C263.9,130.6,268.4,126,274,125.9z"/>
					<path class="st2" d="M274.1,131.2c-2.6,0-4.7,2.1-4.7,4.7s2.1,4.7,4.7,4.7c2.6,0,4.7-2.1,4.7-4.7S276.7,131.2,274.1,131.2z
						 M274.1,138.4c-1.4,0-2.5-1.1-2.5-2.5s1.1-2.5,2.5-2.5c1.4,0,2.5,1.1,2.5,2.5S275.5,138.4,274.1,138.4z"/>
				</g>
			</g>
		</g>
	</g>
</g>
<g id="Capa_18" class="st0">
	<g class="st1">
		<text transform="matrix(1 0 0 1 77.2803 374.7949)" class="st2 st3 st4">Integraci贸n</text>
		<g>
			<path class="st2" d="M180.1,140.9c3.7,0,7.2,0,10.8,0c0,3.6,0,7.2,0,10.9c-3.6,0-7.2,0-10.8,0
				C180.1,148.1,180.1,144.6,180.1,140.9z"/>
			<path class="st2" d="M210.4,140.9c3.6,0,7.2,0,10.8,0c0,3.6,0,7.2,0,10.9c-3.6,0-7.2,0-10.8,0
				C210.4,148.2,210.4,144.7,210.4,140.9z"/>
			<path class="st2" d="M175.9,151.8c-3.7,0-7.1,0-10.8,0c0-3.6,0-7.2,0-10.9c3.6,0,7.1,0,10.8,0
				C175.9,144.6,175.9,148.1,175.9,151.8z"/>
			<path class="st2" d="M206.2,141c0,3.7,0,7.1,0,10.8c-3.6,0-7.1,0-10.8,0c0-3.5,0-7,0-10.8C198.9,141,202.5,141,206.2,141z"/>
			<path class="st2" d="M165,165.6v52.8H195v-52.8H165z M188.3,211.7h-16.6v-39.3h16.6V211.7z"/>
			<g>
				<g>
					<path class="st5" d="M230.5,229c-33.5,0-62.9,0-72.6,0h-2.7v-96.9h149.3c0,0.8,0.1,1.5,0.1,2.2c0,1,0,7.9,0,21.4l5.4,2.2
						l1.4,0.6c0-17.7,0-28.8,0-30.8v-2.7h-10.3v-17.9H133.5v110.5h14.8v18.2h85.1l-1.2-2.9L230.5,229z M148.3,125.1v85.6h-8V114h154
						v11.2H148.3z"/>
				</g>
			</g>
			<g>
				<g>
					<path class="st2" d="M336.5,220c-3.1-1.9-6.2-3.9-9.4-5.8c0-0.9,0-1.7,0-2.6c3.4-2.1,6.7-4.2,10.1-6.3l1.9-1.2
						c0.1-0.1,0.2-0.1,0.3-0.2l0.8-0.5l-8.4-20.3l-0.8,0.1c-0.1,0-0.3,0-0.4,0.1c-0.5,0.1-1.1,0.3-1.6,0.4l-3.8,0.9
						c-2.8,0.6-5.6,1.3-8.4,1.9c-0.5-0.6-1.1-1.1-1.8-1.8c0.2-0.6,0.3-1.2,0.4-1.9l2.7-11.9c0-0.1,0.1-0.3,0.1-0.4l0.1-0.9
						l-20.4-8.4l-0.5,0.9c-0.1,0.1-0.1,0.2-0.2,0.3l-1.3,2.1c-2,3.3-4.1,6.5-6.1,9.8c-1,0-1.8,0-2.6,0c-2-3.2-4-6.4-6-9.6l-1.4-2.3
						c-0.1-0.1-0.2-0.2-0.2-0.4l-0.5-0.8l-20.4,8.5l0.8,3.8c0.9,3.7,1.7,7.5,2.6,11.2c-0.6,0.6-1.2,1.2-1.8,1.8c-4-0.9-8-1.8-12-2.8
						l-1.8-0.4c-0.1,0-0.2,0-0.4-0.1l-0.9-0.1l-8.4,20.4l3.6,2.2c3.2,2,6.3,3.9,9.5,5.9c0,0,0,0,0,0c0,0.9,0,1.7,0,2.5c0,0,0,0,0,0
						c-3.3,2-6.5,4-9.7,6l-2.2,1.4c-0.1,0.1-0.2,0.1-0.3,0.2l-0.8,0.5l8.4,20.3l0.8-0.1c0.1,0,0.2,0,0.2,0c0.8-0.2,1.5-0.3,2.3-0.5
						l2.2-0.5c3.2-0.7,6.3-1.5,9.5-2.2c0.6,0.6,1.2,1.2,1.8,1.8c-0.9,3.7-1.7,7.5-2.6,11.2l-0.5,2.1c0,0.2-0.1,0.4-0.1,0.6l-0.2,1
						l20.4,8.5l0.5-0.8c0.1-0.1,0.2-0.2,0.2-0.3l1.2-2c2-3.3,4.1-6.6,6.1-9.9c0.5,0,1,0,1.5,0l0.6,0c0.2,0,0.4,0,0.5,0l8.1,13
						l20.4-8.5l-0.2-1c0-0.2-0.1-0.4-0.1-0.5l-0.3-1.2c-0.9-4.1-1.9-8.2-2.8-12.3c0.5-0.5,1.1-1.1,1.8-1.8c3.8,0.9,7.6,1.7,11.4,2.6
						l2.2,0.5c0.1,0,0.3,0.1,0.4,0.1l1,0.2l8.5-20.4L336.5,220z M326.6,234l-2.1-0.5c-3.1-0.7-6.3-1.5-9.4-2.2
						c-0.7-0.2-1.3,0-1.8,0.6c-2,2.3-3.9,4.3-5.9,5.9c-0.7,0.6-0.6,1.4-0.5,1.6c0.5,2.3,1.1,4.6,1.6,6.9l1.2,5.4l-8.8,3.7l-6.5-10.4
						l-0.1-0.1c0,0,0-0.1-0.1-0.1c-0.3-0.6-0.8-0.9-1.5-0.8c-0.2,0-0.4,0-0.6,0.1c-0.2,0-0.4,0-0.6,0c-2.1,0.2-4.4,0.2-7.2-0.1
						c-0.7-0.1-1.2,0.2-1.6,0.8c-1.8,2.9-3.7,5.9-5.5,8.8l-1.1,1.8l-8.9-3.7c1-4.1,1.9-8.2,2.9-12.3c0.1-0.6,0-1.2-0.5-1.6
						c-2.4-2-4.4-4-6-6c-0.6-0.7-1.3-0.5-1.5-0.5l-12.3,2.9l-3.7-8.9l10.5-6.5c0.8-0.5,1-0.8,0.9-1.8c0-0.4-0.1-0.7-0.1-1.1
						c-0.1-1-0.1-2-0.1-3c0-0.9,0.1-1.8,0.1-2.7c0-0.3,0.1-0.7,0.1-1c0.1-1-0.1-1.4-1-1.9l-10.4-6.5l3.7-8.9l1.5,0.4
						c1.5,0.3,2.9,0.7,4.4,1c1.6,0.4,3.2,0.7,4.8,1.1l2.5,0.6l0.5-0.5c0.1-0.1,0.2-0.2,0.3-0.3c2.1-2.5,4-4.4,5.9-5.9
						c0.3-0.3,0.7-0.8,0.5-1.5c-0.8-3.6-1.7-7.2-2.5-10.8l-0.3-1.5l8.8-3.7l1.1,1.8c1.8,2.9,3.7,5.9,5.5,8.8
						c0.4,0.6,0.9,0.9,1.7,0.8c1.9-0.2,3.4-0.3,5-0.2c0.6,0,1.3,0.1,1.9,0.1c0.4,0,0.8,0.1,1.2,0.1c0.1,0,0.2,0,0.3,0
						c0.7,0.1,1.1-0.1,1.4-0.7c0-0.1,0.1-0.1,0.1-0.2c1.6-2.5,3.2-5.1,4.8-7.7l1.8-2.8l8.9,3.7l-2.8,12.1c0,0,0,0.1,0,0.2
						c-0.1,0.3-0.2,1,0.4,1.5c0.6,0.5,1.2,1.1,1.8,1.6c1.6,1.4,3,2.9,4.3,4.5c0.1,0.1,0.1,0.1,0.2,0.2l0.4,0.5l13.2-3.1l3.7,8.9
						l-1.5,1c-3,1.9-6,3.8-9.1,5.6c-0.6,0.4-0.9,0.9-0.8,1.7c0.2,1.7,0.3,3.7,0.2,5.6c-0.1,1-0.1,1.8-0.2,2.6
						c-0.1,0.7,0.2,1.2,0.8,1.6c3.1,1.9,6.1,3.8,9.1,5.7l1.5,1l-3.7,8.9C327,234.1,326.8,234,326.6,234z"/>
					<path class="st2" d="M288.7,193.3c0,0-0.1,0-0.1,0c-5.1,0-10,2-13.7,5.7c-3.7,3.7-5.8,8.6-5.8,13.8c0,5.2,2,10.2,5.8,13.9
						c3.7,3.7,8.6,5.7,13.7,5.7c0.1,0,0.1,0,0.2,0c5.1,0,10-2,13.7-5.7c3.7-3.7,5.8-8.6,5.8-13.8
						C308.1,202.2,299.4,193.4,288.7,193.3z M288.6,225C288.6,225,288.6,225,288.6,225c-6.8,0-12.2-5.4-12.2-12.2
						c0-3.3,1.3-6.3,3.5-8.6c2.3-2.3,5.3-3.5,8.6-3.5c0,0,0,0,0,0h0c0,0,0,0,0.1,0c3.2,0,6.2,1.3,8.5,3.5c2.3,2.3,3.6,5.4,3.6,8.6
						C300.7,219.7,295.4,225,288.6,225z"/>
				</g>
			</g>
		</g>
	</g>
</g>
<g id="Capa_19">
	<g>
		<text transform="matrix(1 0 0 1 34.4404 388.1906)" class="st2 st3 st4">Agendamiento</text>
		<g>
			<path class="st2" d="M305.7,219.3l-17.4,25L276,234.3c-1.3-1.1-3.3-0.9-4.4,0.4c-1.1,1.3-0.9,3.3,0.4,4.4l14.9,12.2
				c0.6,0.5,1.3,0.7,2,0.7c0.1,0,0.3,0,0.4,0c0.9-0.1,1.6-0.6,2.1-1.3l19.4-27.8c1-1.4,0.6-3.4-0.8-4.3
				C308.6,217.6,306.7,217.9,305.7,219.3z"/>
			<path class="st5" d="M307.9,200.1V109c0-1.5-1.2-2.7-2.7-2.7h-16v-9.7c0-1.5-1.2-2.7-2.7-2.7h-21.8c-1.5,0-2.7,1.2-2.7,2.7v9.7
				h-69.3v-9.7c0-1.5-1.2-2.7-2.7-2.7h-21.8c-1.5,0-2.7,1.2-2.7,2.7v9.7h-16c-1.5,0-2.7,1.2-2.7,2.7v158.9c0,1.5,1.2,2.7,2.7,2.7
				l117.5,0c-2.3-1.6-4.5-3.4-6.5-5.4H152.1V142.8h150.3v55C304.3,198.4,306.1,199.2,307.9,200.1z M267.4,99.2h16.4v19.5h-16.4V99.2
				z M170.8,99.2h16.4v19.5h-16.4V99.2z M152.1,137.4v-25.7h13.2v9.7c0,1.5,1.2,2.7,2.7,2.7h21.8c1.5,0,2.7-1.2,2.7-2.7v-9.7h69.3
				v9.7c0,1.5,1.2,2.7,2.7,2.7h21.8c1.5,0,2.7-1.2,2.7-2.7v-9.7h13.2v25.7H152.1z"/>
			<path class="st2" d="M286.1,196v-36.8H168.5v89.6h82.2c-0.5-1.8-1-3.6-1.3-5.5H230l0-22.6h22.1c1.5-3.6,3.5-6.9,5.9-9.9v-18.2
				h22.6v4.2C282.5,196.4,284.3,196.1,286.1,196z M196.5,243.3h-22.6v-22.6h22.6V243.3z M196.5,215.3h-22.6v-22.6h22.6V215.3z
				 M196.5,187.2h-22.6v-22.6h22.6V187.2z M224.6,243.3H202v-22.6h22.6V243.3z M224.6,215.3H202v-22.6h22.6V215.3z M224.6,187.2H202
				v-22.6h22.6V187.2z M252.6,215.3H230v-22.6h22.6V215.3z M252.6,187.2H230v-22.6h22.6V187.2z M258,187.2v-22.6h22.6v22.6H258z"/>
			<path class="st2" d="M290.5,205.1c17.6,0,31.9,14.3,31.9,31.9c0,17.6-14.3,31.9-31.9,31.9c-17.6,0-31.9-14.3-31.9-31.9
				C258.6,219.4,272.9,205.1,290.5,205.1 M290.5,200.5c-20.2,0-36.5,16.4-36.5,36.5c0,20.2,16.4,36.5,36.5,36.5
				c20.2,0,36.5-16.4,36.5-36.5C327,216.8,310.6,200.5,290.5,200.5L290.5,200.5z"/>
		</g>
	</g>
</g>
<g id="Capa_20" class="st0">
	<g class="st1">
		<text transform="matrix(1 0 0 1 78.0173 339.759)"><tspan x="0" y="0" class="st7 st3 st4">Integraci贸n</tspan><tspan x="102.3" y="70.1" class="st7 st3 st4">SAP</tspan></text>
		<g>
			<path class="st7" d="M181.1,105.9c3.7,0,7.2,0,10.8,0c0,3.6,0,7.2,0,10.9c-3.6,0-7.2,0-10.8,0
				C181.1,113.1,181.1,109.6,181.1,105.9z"/>
			<path class="st7" d="M211.4,105.9c3.6,0,7.2,0,10.8,0c0,3.6,0,7.2,0,10.9c-3.6,0-7.2,0-10.8,0
				C211.4,113.2,211.4,109.7,211.4,105.9z"/>
			<path class="st7" d="M176.9,116.8c-3.7,0-7.1,0-10.8,0c0-3.6,0-7.2,0-10.9c3.6,0,7.1,0,10.8,0C176.9,109.5,176.9,113,176.9,116.8
				z"/>
			<path class="st7" d="M207.2,106c0,3.7,0,7.1,0,10.8c-3.6,0-7.1,0-10.8,0c0-3.5,0-7,0-10.8C199.9,106,203.5,106,207.2,106z"/>
			<path class="st7" d="M166,130.6v52.8H196v-52.8H166z M189.3,176.6h-16.6v-39.3h16.6V176.6z"/>
			<g>
				<g>
					<path class="st9" d="M231.6,194c-33.5,0-62.9,0-72.6,0h-2.7V97.1h149.3c0,0.8,0.1,1.5,0.1,2.2c0,1,0,7.9,0,21.4l5.4,2.2
						l1.4,0.6c0-17.7,0-28.8,0-30.8V90h-10.3V72.1H134.5v110.5h14.8v18.2h85.1l-1.2-2.9L231.6,194z M149.3,90.1v85.6h-8V78.9h154
						v11.2H149.3z"/>
				</g>
			</g>
			<g>
				<g>
					<path class="st7" d="M337.5,184.9c-3.1-1.9-6.2-3.9-9.4-5.8c0-0.9,0-1.7,0-2.6c3.4-2.1,6.7-4.2,10.1-6.3l1.9-1.2
						c0.1-0.1,0.2-0.1,0.3-0.2l0.8-0.5l-8.4-20.3l-0.8,0.1c-0.1,0-0.3,0-0.4,0.1c-0.5,0.1-1.1,0.3-1.6,0.4l-3.8,0.9
						c-2.8,0.6-5.6,1.3-8.4,1.9c-0.5-0.6-1.1-1.1-1.8-1.8c0.2-0.6,0.3-1.2,0.4-1.9l2.7-11.9c0-0.1,0.1-0.3,0.1-0.4l0.1-0.9
						l-20.4-8.4l-0.5,0.8c-0.1,0.1-0.1,0.2-0.2,0.3l-1.3,2.1c-2,3.3-4.1,6.5-6.1,9.8c-1,0-1.8,0-2.6,0c-2-3.2-4-6.4-6-9.6l-1.4-2.3
						c-0.1-0.1-0.2-0.2-0.2-0.4l-0.5-0.8l-20.4,8.5l0.8,3.8c0.9,3.7,1.7,7.5,2.6,11.2c-0.6,0.6-1.2,1.2-1.8,1.8c-4-0.9-8-1.8-12-2.8
						l-1.8-0.4c-0.1,0-0.2,0-0.4-0.1l-0.9-0.1l-8.4,20.4l3.6,2.2c3.2,2,6.3,3.9,9.5,5.9c0,0,0,0,0,0c0,0.9,0,1.7,0,2.5c0,0,0,0,0,0
						c-3.3,2-6.5,4-9.7,6l-2.2,1.4c-0.1,0.1-0.2,0.1-0.3,0.2l-0.8,0.5l8.4,20.3l0.8-0.1c0.1,0,0.2,0,0.2,0c0.8-0.2,1.5-0.3,2.3-0.5
						l2.2-0.5c3.2-0.7,6.3-1.5,9.5-2.2c0.6,0.6,1.2,1.2,1.8,1.8c-0.9,3.7-1.7,7.5-2.6,11.2l-0.5,2.1c0,0.2-0.1,0.4-0.1,0.6l-0.2,1
						l20.4,8.5l0.5-0.8c0.1-0.1,0.2-0.2,0.2-0.3l1.2-2c2-3.3,4.1-6.6,6.1-9.9c0.5,0,1,0,1.5,0l0.6,0c0.2,0,0.4,0,0.5,0l8.1,13
						l20.4-8.5l-0.2-1c0-0.2-0.1-0.4-0.1-0.5l-0.3-1.2c-0.9-4.1-1.9-8.2-2.8-12.3c0.5-0.5,1.1-1.1,1.8-1.8c3.8,0.9,7.6,1.7,11.4,2.6
						l2.2,0.5c0.1,0,0.3,0.1,0.4,0.1l1,0.2l8.5-20.4L337.5,184.9z M327.6,198.9l-2.1-0.5c-3.1-0.7-6.3-1.5-9.4-2.2
						c-0.7-0.2-1.3,0-1.8,0.6c-2,2.3-3.9,4.3-5.9,5.9c-0.7,0.6-0.6,1.4-0.5,1.6c0.5,2.3,1.1,4.6,1.6,6.9l1.2,5.4l-8.8,3.7l-6.5-10.4
						l-0.1-0.1c0,0,0-0.1-0.1-0.1c-0.3-0.6-0.8-0.9-1.5-0.8c-0.2,0-0.4,0-0.6,0.1c-0.2,0-0.4,0-0.6,0c-2.1,0.2-4.4,0.2-7.2-0.1
						c-0.7-0.1-1.2,0.2-1.6,0.8c-1.8,2.9-3.7,5.9-5.5,8.8l-1.1,1.8l-8.9-3.7c1-4.1,1.9-8.2,2.9-12.3c0.1-0.6,0-1.2-0.5-1.6
						c-2.4-2-4.4-4-6-6c-0.6-0.7-1.3-0.5-1.5-0.5l-12.3,2.9l-3.7-8.9l10.5-6.5c0.8-0.5,1-0.8,0.9-1.8c0-0.4-0.1-0.7-0.1-1.1
						c-0.1-1-0.1-2-0.1-3c0-0.9,0.1-1.8,0.1-2.7c0-0.3,0.1-0.7,0.1-1c0.1-1-0.1-1.4-1-1.9l-10.4-6.5l3.7-8.9l1.5,0.4
						c1.5,0.3,2.9,0.7,4.4,1c1.6,0.4,3.2,0.7,4.8,1.1l2.5,0.6l0.5-0.5c0.1-0.1,0.2-0.2,0.3-0.3c2.1-2.5,4-4.4,5.9-5.9
						c0.3-0.3,0.7-0.8,0.5-1.5c-0.8-3.6-1.7-7.2-2.5-10.8l-0.3-1.5l8.8-3.7l1.1,1.8c1.8,2.9,3.7,5.9,5.5,8.8
						c0.4,0.6,0.9,0.9,1.7,0.8c1.9-0.2,3.4-0.3,5-0.2c0.6,0,1.3,0.1,1.9,0.1c0.4,0,0.8,0.1,1.2,0.1c0.1,0,0.2,0,0.3,0
						c0.7,0.1,1.1-0.1,1.4-0.7c0-0.1,0.1-0.1,0.1-0.2c1.6-2.5,3.2-5.1,4.8-7.7l1.8-2.8l8.9,3.7l-2.8,12.1c0,0,0,0.1,0,0.2
						c-0.1,0.3-0.2,1,0.4,1.5c0.6,0.5,1.2,1.1,1.8,1.6c1.6,1.4,3,2.9,4.3,4.5c0.1,0.1,0.1,0.1,0.2,0.2l0.4,0.5l13.2-3.1l3.7,8.9
						l-1.5,1c-3,1.9-6,3.8-9.1,5.6c-0.6,0.4-0.9,0.9-0.8,1.7c0.2,1.7,0.3,3.7,0.2,5.6c-0.1,1-0.1,1.8-0.2,2.6
						c-0.1,0.7,0.2,1.2,0.8,1.6c3.1,1.9,6.1,3.8,9.1,5.7l1.5,1l-3.7,8.9C328.1,199,327.8,199,327.6,198.9z"/>
					<path class="st7" d="M289.7,158.3c0,0-0.1,0-0.1,0c-5.1,0-10,2-13.7,5.7c-3.7,3.7-5.8,8.6-5.8,13.8c0,5.2,2,10.2,5.8,13.9
						c3.7,3.7,8.6,5.7,13.7,5.7c0.1,0,0.1,0,0.2,0c5.1,0,10-2,13.7-5.7c3.7-3.7,5.8-8.6,5.8-13.8
						C309.2,167.1,300.4,158.3,289.7,158.3z M289.6,190C289.6,190,289.6,190,289.6,190c-6.8,0-12.2-5.4-12.2-12.2
						c0-3.3,1.3-6.3,3.5-8.6c2.3-2.3,5.3-3.5,8.6-3.5c0,0,0,0,0,0h0c0,0,0,0,0.1,0c3.2,0,6.2,1.3,8.5,3.5c2.3,2.3,3.6,5.4,3.6,8.6
						C301.7,184.7,296.4,190,289.6,190z"/>
				</g>
			</g>
		</g>
	</g>
</g>
<g id="Capa_21" class="st0">
	<g class="st1">
		<text transform="matrix(1 0 0 1 78.0169 339.759)"><tspan x="0" y="0" class="st7 st3 st4">Integraci贸n</tspan><tspan x="42.6" y="70.1" class="st7 st3 st4">Zendesk</tspan></text>
		<g>
			<path class="st7" d="M181.1,105.9c3.7,0,7.2,0,10.8,0c0,3.6,0,7.2,0,10.9c-3.6,0-7.2,0-10.8,0
				C181.1,113.1,181.1,109.6,181.1,105.9z"/>
			<path class="st7" d="M211.4,105.9c3.6,0,7.2,0,10.8,0c0,3.6,0,7.2,0,10.9c-3.6,0-7.2,0-10.8,0
				C211.4,113.2,211.4,109.7,211.4,105.9z"/>
			<path class="st7" d="M176.9,116.8c-3.7,0-7.1,0-10.8,0c0-3.6,0-7.2,0-10.9c3.6,0,7.1,0,10.8,0C176.9,109.5,176.9,113,176.9,116.8
				z"/>
			<path class="st7" d="M207.2,106c0,3.7,0,7.1,0,10.8c-3.6,0-7.1,0-10.8,0c0-3.5,0-7,0-10.8C199.9,106,203.5,106,207.2,106z"/>
			<path class="st7" d="M166,130.6v52.8H196v-52.8H166z M189.3,176.6h-16.6v-39.3h16.6V176.6z"/>
			<g>
				<g>
					<path class="st9" d="M231.6,194c-33.5,0-62.9,0-72.6,0h-2.7V97.1h149.3c0,0.8,0.1,1.5,0.1,2.2c0,1,0,7.9,0,21.4l5.4,2.2
						l1.4,0.6c0-17.7,0-28.8,0-30.8V90h-10.3V72.1H134.5v110.5h14.8v18.2h85.1l-1.2-2.9L231.6,194z M149.3,90.1v85.6h-8V78.9h154
						v11.2H149.3z"/>
				</g>
			</g>
			<g>
				<g>
					<path class="st7" d="M337.5,184.9c-3.1-1.9-6.2-3.9-9.4-5.8c0-0.9,0-1.7,0-2.6c3.4-2.1,6.7-4.2,10.1-6.3l1.9-1.2
						c0.1-0.1,0.2-0.1,0.3-0.2l0.8-0.5l-8.4-20.3l-0.8,0.1c-0.1,0-0.3,0-0.4,0.1c-0.5,0.1-1.1,0.3-1.6,0.4l-3.8,0.9
						c-2.8,0.6-5.6,1.3-8.4,1.9c-0.5-0.6-1.1-1.1-1.8-1.8c0.2-0.6,0.3-1.2,0.4-1.9l2.7-11.9c0-0.1,0.1-0.3,0.1-0.4l0.1-0.9
						l-20.4-8.4l-0.5,0.8c-0.1,0.1-0.1,0.2-0.2,0.3l-1.3,2.1c-2,3.3-4.1,6.5-6.1,9.8c-1,0-1.8,0-2.6,0c-2-3.2-4-6.4-6-9.6l-1.4-2.3
						c-0.1-0.1-0.2-0.2-0.2-0.4l-0.5-0.8l-20.4,8.5l0.8,3.8c0.9,3.7,1.7,7.5,2.6,11.2c-0.6,0.6-1.2,1.2-1.8,1.8c-4-0.9-8-1.8-12-2.8
						l-1.8-0.4c-0.1,0-0.2,0-0.4-0.1l-0.9-0.1l-8.4,20.4l3.6,2.2c3.2,2,6.3,3.9,9.5,5.9c0,0,0,0,0,0c0,0.9,0,1.7,0,2.5c0,0,0,0,0,0
						c-3.3,2-6.5,4-9.7,6l-2.2,1.4c-0.1,0.1-0.2,0.1-0.3,0.2l-0.8,0.5l8.4,20.3l0.8-0.1c0.1,0,0.2,0,0.2,0c0.8-0.2,1.5-0.3,2.3-0.5
						l2.2-0.5c3.2-0.7,6.3-1.5,9.5-2.2c0.6,0.6,1.2,1.2,1.8,1.8c-0.9,3.7-1.7,7.5-2.6,11.2l-0.5,2.1c0,0.2-0.1,0.4-0.1,0.6l-0.2,1
						l20.4,8.5l0.5-0.8c0.1-0.1,0.2-0.2,0.2-0.3l1.2-2c2-3.3,4.1-6.6,6.1-9.9c0.5,0,1,0,1.5,0l0.6,0c0.2,0,0.4,0,0.5,0l8.1,13
						l20.4-8.5l-0.2-1c0-0.2-0.1-0.4-0.1-0.5l-0.3-1.2c-0.9-4.1-1.9-8.2-2.8-12.3c0.5-0.5,1.1-1.1,1.8-1.8c3.8,0.9,7.6,1.7,11.4,2.6
						l2.2,0.5c0.1,0,0.3,0.1,0.4,0.1l1,0.2l8.5-20.4L337.5,184.9z M327.6,198.9l-2.1-0.5c-3.1-0.7-6.3-1.5-9.4-2.2
						c-0.7-0.2-1.3,0-1.8,0.6c-2,2.3-3.9,4.3-5.9,5.9c-0.7,0.6-0.6,1.4-0.5,1.6c0.5,2.3,1.1,4.6,1.6,6.9l1.2,5.4l-8.8,3.7l-6.5-10.4
						l-0.1-0.1c0,0,0-0.1-0.1-0.1c-0.3-0.6-0.8-0.9-1.5-0.8c-0.2,0-0.4,0-0.6,0.1c-0.2,0-0.4,0-0.6,0c-2.1,0.2-4.4,0.2-7.2-0.1
						c-0.7-0.1-1.2,0.2-1.6,0.8c-1.8,2.9-3.7,5.9-5.5,8.8l-1.1,1.8l-8.9-3.7c1-4.1,1.9-8.2,2.9-12.3c0.1-0.6,0-1.2-0.5-1.6
						c-2.4-2-4.4-4-6-6c-0.6-0.7-1.3-0.5-1.5-0.5l-12.3,2.9l-3.7-8.9l10.5-6.5c0.8-0.5,1-0.8,0.9-1.8c0-0.4-0.1-0.7-0.1-1.1
						c-0.1-1-0.1-2-0.1-3c0-0.9,0.1-1.8,0.1-2.7c0-0.3,0.1-0.7,0.1-1c0.1-1-0.1-1.4-1-1.9l-10.4-6.5l3.7-8.9l1.5,0.4
						c1.5,0.3,2.9,0.7,4.4,1c1.6,0.4,3.2,0.7,4.8,1.1l2.5,0.6l0.5-0.5c0.1-0.1,0.2-0.2,0.3-0.3c2.1-2.5,4-4.4,5.9-5.9
						c0.3-0.3,0.7-0.8,0.5-1.5c-0.8-3.6-1.7-7.2-2.5-10.8l-0.3-1.5l8.8-3.7l1.1,1.8c1.8,2.9,3.7,5.9,5.5,8.8
						c0.4,0.6,0.9,0.9,1.7,0.8c1.9-0.2,3.4-0.3,5-0.2c0.6,0,1.3,0.1,1.9,0.1c0.4,0,0.8,0.1,1.2,0.1c0.1,0,0.2,0,0.3,0
						c0.7,0.1,1.1-0.1,1.4-0.7c0-0.1,0.1-0.1,0.1-0.2c1.6-2.5,3.2-5.1,4.8-7.7l1.8-2.8l8.9,3.7l-2.8,12.1c0,0,0,0.1,0,0.2
						c-0.1,0.3-0.2,1,0.4,1.5c0.6,0.5,1.2,1.1,1.8,1.6c1.6,1.4,3,2.9,4.3,4.5c0.1,0.1,0.1,0.1,0.2,0.2l0.4,0.5l13.2-3.1l3.7,8.9
						l-1.5,1c-3,1.9-6,3.8-9.1,5.6c-0.6,0.4-0.9,0.9-0.8,1.7c0.2,1.7,0.3,3.7,0.2,5.6c-0.1,1-0.1,1.8-0.2,2.6
						c-0.1,0.7,0.2,1.2,0.8,1.6c3.1,1.9,6.1,3.8,9.1,5.7l1.5,1l-3.7,8.9C328.1,199,327.8,199,327.6,198.9z"/>
					<path class="st7" d="M289.7,158.3c0,0-0.1,0-0.1,0c-5.1,0-10,2-13.7,5.7c-3.7,3.7-5.8,8.6-5.8,13.8c0,5.2,2,10.2,5.8,13.9
						c3.7,3.7,8.6,5.7,13.7,5.7c0.1,0,0.1,0,0.2,0c5.1,0,10-2,13.7-5.7c3.7-3.7,5.8-8.6,5.8-13.8
						C309.2,167.1,300.4,158.3,289.7,158.3z M289.6,190C289.6,190,289.6,190,289.6,190c-6.8,0-12.2-5.4-12.2-12.2
						c0-3.3,1.3-6.3,3.5-8.6c2.3-2.3,5.3-3.5,8.6-3.5c0,0,0,0,0,0h0c0,0,0,0,0.1,0c3.2,0,6.2,1.3,8.5,3.5c2.3,2.3,3.6,5.4,3.6,8.6
						C301.7,184.7,296.4,190,289.6,190z"/>
				</g>
			</g>
		</g>
	</g>
</g>
<g id="Capa_22" class="st0">
	<text transform="matrix(1 0 0 1 78.0173 339.7591)" class="st1"><tspan x="0" y="0" class="st7 st3 st4">Integraci贸n</tspan><tspan x="20.9" y="70.1" class="st7 st3 st4">Dynamics</tspan></text>
	<g class="st1">
		<path class="st7" d="M181.1,105.9c3.7,0,7.2,0,10.8,0c0,3.6,0,7.2,0,10.9c-3.6,0-7.2,0-10.8,0
			C181.1,113.1,181.1,109.6,181.1,105.9z"/>
		<path class="st7" d="M211.4,105.9c3.6,0,7.2,0,10.8,0c0,3.6,0,7.2,0,10.9c-3.6,0-7.2,0-10.8,0
			C211.4,113.2,211.4,109.7,211.4,105.9z"/>
		<path class="st7" d="M176.9,116.8c-3.7,0-7.1,0-10.8,0c0-3.6,0-7.2,0-10.9c3.6,0,7.1,0,10.8,0C176.9,109.5,176.9,113,176.9,116.8z
			"/>
		<path class="st7" d="M207.2,106c0,3.7,0,7.1,0,10.8c-3.6,0-7.1,0-10.8,0c0-3.5,0-7,0-10.8C199.9,106,203.5,106,207.2,106z"/>
		<path class="st7" d="M166,130.6v52.8H196v-52.8H166z M189.3,176.6h-16.6v-39.3h16.6V176.6z"/>
		<g>
			<g>
				<path class="st9" d="M231.6,194c-33.5,0-62.9,0-72.6,0h-2.7V97.1h149.3c0,0.8,0.1,1.5,0.1,2.2c0,1,0,7.9,0,21.4l5.4,2.2l1.4,0.6
					c0-17.7,0-28.8,0-30.8V90h-10.3V72.1H134.5v110.5h14.8v18.2h85.1l-1.2-2.9L231.6,194z M149.3,90.1v85.6h-8V78.9h154v11.2H149.3z
					"/>
			</g>
		</g>
		<g>
			<g>
				<path class="st7" d="M337.5,184.9c-3.1-1.9-6.2-3.9-9.4-5.8c0-0.9,0-1.7,0-2.6c3.4-2.1,6.7-4.2,10.1-6.3l1.9-1.2
					c0.1-0.1,0.2-0.1,0.3-0.2l0.8-0.5l-8.4-20.3l-0.8,0.1c-0.1,0-0.3,0-0.4,0.1c-0.5,0.1-1.1,0.3-1.6,0.4l-3.8,0.9
					c-2.8,0.6-5.6,1.3-8.4,1.9c-0.5-0.6-1.1-1.1-1.8-1.8c0.2-0.6,0.3-1.2,0.4-1.9l2.7-11.9c0-0.1,0.1-0.3,0.1-0.4l0.1-0.9l-20.4-8.4
					l-0.5,0.8c-0.1,0.1-0.1,0.2-0.2,0.3l-1.3,2.1c-2,3.3-4.1,6.5-6.1,9.8c-1,0-1.8,0-2.6,0c-2-3.2-4-6.4-6-9.6l-1.4-2.3
					c-0.1-0.1-0.2-0.2-0.2-0.4l-0.5-0.8l-20.4,8.5l0.8,3.8c0.9,3.7,1.7,7.5,2.6,11.2c-0.6,0.6-1.2,1.2-1.8,1.8c-4-0.9-8-1.8-12-2.8
					l-1.8-0.4c-0.1,0-0.2,0-0.4-0.1l-0.9-0.1l-8.4,20.4l3.6,2.2c3.2,2,6.3,3.9,9.5,5.9c0,0,0,0,0,0c0,0.9,0,1.7,0,2.5c0,0,0,0,0,0
					c-3.3,2-6.5,4-9.7,6l-2.2,1.4c-0.1,0.1-0.2,0.1-0.3,0.2l-0.8,0.5l8.4,20.3l0.8-0.1c0.1,0,0.2,0,0.2,0c0.8-0.2,1.5-0.3,2.3-0.5
					l2.2-0.5c3.2-0.7,6.3-1.5,9.5-2.2c0.6,0.6,1.2,1.2,1.8,1.8c-0.9,3.7-1.7,7.5-2.6,11.2l-0.5,2.1c0,0.2-0.1,0.4-0.1,0.6l-0.2,1
					l20.4,8.5l0.5-0.8c0.1-0.1,0.2-0.2,0.2-0.3l1.2-2c2-3.3,4.1-6.6,6.1-9.9c0.5,0,1,0,1.5,0l0.6,0c0.2,0,0.4,0,0.5,0l8.1,13
					l20.4-8.5l-0.2-1c0-0.2-0.1-0.4-0.1-0.5l-0.3-1.2c-0.9-4.1-1.9-8.2-2.8-12.3c0.5-0.5,1.1-1.1,1.8-1.8c3.8,0.9,7.6,1.7,11.4,2.6
					l2.2,0.5c0.1,0,0.3,0.1,0.4,0.1l1,0.2l8.5-20.4L337.5,184.9z M327.6,198.9l-2.1-0.5c-3.1-0.7-6.3-1.5-9.4-2.2
					c-0.7-0.2-1.3,0-1.8,0.6c-2,2.3-3.9,4.3-5.9,5.9c-0.7,0.6-0.6,1.4-0.5,1.6c0.5,2.3,1.1,4.6,1.6,6.9l1.2,5.4l-8.8,3.7l-6.5-10.4
					l-0.1-0.1c0,0,0-0.1-0.1-0.1c-0.3-0.6-0.8-0.9-1.5-0.8c-0.2,0-0.4,0-0.6,0.1c-0.2,0-0.4,0-0.6,0c-2.1,0.2-4.4,0.2-7.2-0.1
					c-0.7-0.1-1.2,0.2-1.6,0.8c-1.8,2.9-3.7,5.9-5.5,8.8l-1.1,1.8l-8.9-3.7c1-4.1,1.9-8.2,2.9-12.3c0.1-0.6,0-1.2-0.5-1.6
					c-2.4-2-4.4-4-6-6c-0.6-0.7-1.3-0.5-1.5-0.5l-12.3,2.9l-3.7-8.9l10.5-6.5c0.8-0.5,1-0.8,0.9-1.8c0-0.4-0.1-0.7-0.1-1.1
					c-0.1-1-0.1-2-0.1-3c0-0.9,0.1-1.8,0.1-2.7c0-0.3,0.1-0.7,0.1-1c0.1-1-0.1-1.4-1-1.9l-10.4-6.5l3.7-8.9l1.5,0.4
					c1.5,0.3,2.9,0.7,4.4,1c1.6,0.4,3.2,0.7,4.8,1.1l2.5,0.6l0.5-0.5c0.1-0.1,0.2-0.2,0.3-0.3c2.1-2.5,4-4.4,5.9-5.9
					c0.3-0.3,0.7-0.8,0.5-1.5c-0.8-3.6-1.7-7.2-2.5-10.8l-0.3-1.5l8.8-3.7l1.1,1.8c1.8,2.9,3.7,5.9,5.5,8.8c0.4,0.6,0.9,0.9,1.7,0.8
					c1.9-0.2,3.4-0.3,5-0.2c0.6,0,1.3,0.1,1.9,0.1c0.4,0,0.8,0.1,1.2,0.1c0.1,0,0.2,0,0.3,0c0.7,0.1,1.1-0.1,1.4-0.7
					c0-0.1,0.1-0.1,0.1-0.2c1.6-2.5,3.2-5.1,4.8-7.7l1.8-2.8l8.9,3.7l-2.8,12.1c0,0,0,0.1,0,0.2c-0.1,0.3-0.2,1,0.4,1.5
					c0.6,0.5,1.2,1.1,1.8,1.6c1.6,1.4,3,2.9,4.3,4.5c0.1,0.1,0.1,0.1,0.2,0.2l0.4,0.5l13.2-3.1l3.7,8.9l-1.5,1c-3,1.9-6,3.8-9.1,5.6
					c-0.6,0.4-0.9,0.9-0.8,1.7c0.2,1.7,0.3,3.7,0.2,5.6c-0.1,1-0.1,1.8-0.2,2.6c-0.1,0.7,0.2,1.2,0.8,1.6c3.1,1.9,6.1,3.8,9.1,5.7
					l1.5,1l-3.7,8.9C328.1,199,327.8,199,327.6,198.9z"/>
				<path class="st7" d="M289.7,158.3c0,0-0.1,0-0.1,0c-5.1,0-10,2-13.7,5.7c-3.7,3.7-5.8,8.6-5.8,13.8c0,5.2,2,10.2,5.8,13.9
					c3.7,3.7,8.6,5.7,13.7,5.7c0.1,0,0.1,0,0.2,0c5.1,0,10-2,13.7-5.7c3.7-3.7,5.8-8.6,5.8-13.8
					C309.2,167.1,300.4,158.3,289.7,158.3z M289.6,190C289.6,190,289.6,190,289.6,190c-6.8,0-12.2-5.4-12.2-12.2
					c0-3.3,1.3-6.3,3.5-8.6c2.3-2.3,5.3-3.5,8.6-3.5c0,0,0,0,0,0h0c0,0,0,0,0.1,0c3.2,0,6.2,1.3,8.5,3.5c2.3,2.3,3.6,5.4,3.6,8.6
					C301.7,184.7,296.4,190,289.6,190z"/>
			</g>
		</g>
	</g>
</g>
<g id="Capa_23" class="st0">
	<text transform="matrix(1 0 0 1 103.996 390.2184)" class="st11 st3 st4">Analytics</text>
	<g class="st1">
		<g>
			<g>
				<path class="st9" d="M327,272.1H146.7c-2.2,0-3.9,1.8-3.9,3.9c0,2.2,1.8,3.9,3.9,3.9H327c2.2,0,3.9-1.8,3.9-3.9
					C330.9,273.8,329.2,272.1,327,272.1z"/>
			</g>
		</g>
		<g>
			<g>
				<path class="st9" d="M178,225h-23.5c-2.2,0-3.9,1.8-3.9,3.9v47c0,2.2,1.8,3.9,3.9,3.9H178c2.2,0,3.9-1.8,3.9-3.9v-47
					C181.9,226.8,180.2,225,178,225z M174.1,272.1h-15.7v-39.2h15.7L174.1,272.1L174.1,272.1z"/>
			</g>
		</g>
		<g>
			<g>
				<path class="st9" d="M225.1,185.8h-23.5c-2.2,0-3.9,1.8-3.9,3.9V276c0,2.2,1.8,3.9,3.9,3.9h23.5c2.2,0,3.9-1.8,3.9-3.9v-86.3
					C229,187.6,227.2,185.8,225.1,185.8z M221.2,272.1h-15.7v-78.4h15.7V272.1L221.2,272.1z"/>
			</g>
		</g>
		<g>
			<g>
				<path class="st9" d="M272.1,201.5h-23.5c-2.2,0-3.9,1.8-3.9,3.9V276c0,2.2,1.8,3.9,3.9,3.9h23.5c2.2,0,3.9-1.8,3.9-3.9v-70.6
					C276,203.3,274.3,201.5,272.1,201.5z M268.2,272.1h-15.7v-62.7h15.7V272.1z"/>
			</g>
		</g>
		<g>
			<g>
				<path class="st9" d="M319.2,154.5h-23.5c-2.2,0-3.9,1.8-3.9,3.9V276c0,2.2,1.8,3.9,3.9,3.9h23.5c2.2,0,3.9-1.8,3.9-3.9V158.4
					C323.1,156.2,321.3,154.5,319.2,154.5z M315.2,272.1h-15.7V162.3h15.7V272.1z"/>
			</g>
		</g>
		<g>
			<g>
				<path class="st7" d="M166.3,162.3c-8.6,0-15.7,7-15.7,15.7s7,15.7,15.7,15.7s15.7-7,15.7-15.7S174.9,162.3,166.3,162.3z
					 M166.3,185.8c-4.3,0-7.8-3.5-7.8-7.8c0-4.3,3.5-7.8,7.8-7.8c4.3,0,7.8,3.5,7.8,7.8S170.6,185.8,166.3,185.8z"/>
			</g>
		</g>
		<g>
			<g>
				<path class="st7" d="M213.3,123.1c-8.6,0-15.7,7-15.7,15.7s7,15.7,15.7,15.7c8.6,0,15.7-7,15.7-15.7
					C229,130.1,222,123.1,213.3,123.1z M213.3,146.6c-4.3,0-7.8-3.5-7.8-7.8c0-4.3,3.5-7.8,7.8-7.8c4.3,0,7.8,3.5,7.8,7.8
					C221.2,143.1,217.6,146.6,213.3,146.6z"/>
			</g>
		</g>
		<g>
			<g>
				<path class="st7" d="M260.4,138.8c-8.6,0-15.7,7-15.7,15.7s7,15.7,15.7,15.7c8.6,0,15.7-7,15.7-15.7S269,138.8,260.4,138.8z
					 M260.4,162.3c-4.3,0-7.8-3.5-7.8-7.8c0-4.3,3.5-7.8,7.8-7.8c4.3,0,7.8,3.5,7.8,7.8S264.7,162.3,260.4,162.3z"/>
			</g>
		</g>
		<g>
			<g>
				<path class="st7" d="M307.4,91.7c-8.6,0-15.7,7-15.7,15.7s7,15.7,15.7,15.7c8.6,0,15.7-7,15.7-15.7S316.1,91.7,307.4,91.7z
					 M307.4,115.3c-4.3,0-7.8-3.5-7.8-7.8c0-4.3,3.5-7.8,7.8-7.8c4.3,0,7.8,3.5,7.8,7.8C315.2,111.7,311.7,115.3,307.4,115.3z"/>
			</g>
		</g>
		<g>
			<g>
				<path class="st7" d="M301.9,113c-1.5-1.5-4-1.5-5.5,0l-30.4,30.4c-1.5,1.5-1.5,4,0,5.5c0.8,0.8,1.8,1.1,2.8,1.1
					c1,0,2-0.4,2.8-1.1l30.4-30.4C303.4,117,303.4,114.5,301.9,113z"/>
			</g>
		</g>
		<g>
			<g>
				<path class="st7" d="M250.9,145.4l-25.2-7.2c-2.1-0.6-4.2,0.6-4.8,2.7c-0.6,2.1,0.6,4.2,2.7,4.8l25.2,7.2
					c0.4,0.1,0.7,0.1,1.1,0.1c1.7,0,3.3-1.1,3.8-2.8C254.2,148.2,253,146,250.9,145.4z"/>
			</g>
		</g>
		<g>
			<g>
				<path class="st7" d="M207.2,143.7c-1.3-1.7-3.8-2-5.5-0.6l-29.6,23.6c-1.7,1.4-2,3.8-0.6,5.5c0.8,1,1.9,1.5,3.1,1.5
					c0.9,0,1.7-0.3,2.4-0.8l29.6-23.6C208.3,147.8,208.6,145.4,207.2,143.7z"/>
			</g>
		</g>
	</g>
</g>
</svg>
