<?xml version="1.0" encoding="utf-8"?>
<!-- Generator: Adobe Illustrator 23.0.4, SVG Export Plug-In . SVG Version: 6.00 Build 0)  -->
<svg version="1.1" xmlns="http://www.w3.org/2000/svg" xmlns:xlink="http://www.w3.org/1999/xlink" x="0px" y="0px"
	 viewBox="0 0 300 300" style="enable-background:new 0 0 300 300;" xml:space="preserve">
<style type="text/css">
	.st0{display:none;}
	.st1{display:inline;fill:#51C2D1;}
	.st2{display:inline;fill:#133B52;}
	.st3{display:inline;fill:#EE5455;}
	.st4{fill:#FACF48;}
	.st5{display:inline;fill:#6AEAB8;}
	.st6{display:inline;fill:#3AA5F7;}
	.st7{display:inline;fill:#F39843;}
	.st8{display:inline;fill:#EF6769;}
	.st9{display:inline;fill:#8D49DD;}
	.st10{display:inline;fill:#0D427A;}
</style>
<g id="Capa_1" class="st0">
	<path class="st1" d="M253.9,56.8L177,12.3c-16.7-9.7-37.2-9.7-53.9,0L45.8,56.8C29.1,66.6,19,84.3,19,103.5v89.1
		c0,19.1,10.4,36.9,26.8,46.6l77.2,44.5c16.7,9.7,37.2,9.7,53.9,0l77.2-44.5c16.7-9.7,26.8-27.5,26.8-46.6v-89.1
		C281,84.3,270.6,66.2,253.9,56.8z"/>
</g>
<g id="Capa_2" class="st0">
	<path class="st2" d="M253.9,56.8L177,12.3c-16.7-9.7-37.2-9.7-53.9,0L45.8,56.8C29.1,66.6,19,84.3,19,103.5v89.1
		c0,19.1,10.4,36.9,26.8,46.6l77.2,44.5c16.7,9.7,37.2,9.7,53.9,0l77.2-44.5c16.7-9.7,26.8-27.5,26.8-46.6v-89.1
		C281,84.3,270.6,66.2,253.9,56.8z"/>
</g>
<g id="Capa_3" class="st0">
	<path class="st3" d="M253.9,56.8L177,12.3c-16.7-9.7-37.2-9.7-53.9,0L45.8,56.8C29.1,66.6,19,84.3,19,103.5v89.1
		c0,19.1,10.4,36.9,26.8,46.6l77.2,44.5c16.7,9.7,37.2,9.7,53.9,0l77.2-44.5c16.7-9.7,26.8-27.5,26.8-46.6v-89.1
		C281,84.3,270.6,66.2,253.9,56.8z"/>
</g>
<g id="Capa_4">
	<path class="st4" d="M253.9,56.8L177,12.3c-16.7-9.7-37.2-9.7-53.9,0L45.8,56.8C29.1,66.6,19,84.3,19,103.5v89.1
		c0,19.1,10.4,36.9,26.8,46.6l77.2,44.5c16.7,9.7,37.2,9.7,53.9,0l77.2-44.5c16.7-9.7,26.8-27.5,26.8-46.6v-89.1
		C281,84.3,270.6,66.2,253.9,56.8z"/>
</g>
<g id="Capa_5" class="st0">
	<path class="st5" d="M253.9,56.8L177,12.3c-16.7-9.7-37.2-9.7-53.9,0L45.8,56.8C29.1,66.6,19,84.3,19,103.5v89.1
		c0,19.1,10.4,36.9,26.8,46.6l77.2,44.5c16.7,9.7,37.2,9.7,53.9,0l77.2-44.5c16.7-9.7,26.8-27.5,26.8-46.6v-89.1
		C281,84.3,270.6,66.2,253.9,56.8z"/>
</g>
<g id="Capa_6" class="st0">
	<path class="st6" d="M253.9,56.8L177,12.3c-16.7-9.7-37.2-9.7-53.9,0L45.8,56.8C29.1,66.6,19,84.3,19,103.5v89.1
		c0,19.1,10.4,36.9,26.8,46.6l77.2,44.5c16.7,9.7,37.2,9.7,53.9,0l77.2-44.5c16.7-9.7,26.8-27.5,26.8-46.6v-89.1
		C281,84.3,270.6,66.2,253.9,56.8z"/>
</g>
<g id="Capa_7" class="st0">
	<path class="st7" d="M253.9,56.8L177,12.3c-16.7-9.7-37.2-9.7-53.9,0L45.8,56.8C29.1,66.6,19,84.3,19,103.5v89.1
		c0,19.1,10.4,36.9,26.8,46.6l77.2,44.5c16.7,9.7,37.2,9.7,53.9,0l77.2-44.5c16.7-9.7,26.8-27.5,26.8-46.6v-89.1
		C281,84.3,270.6,66.2,253.9,56.8z"/>
</g>
<g id="Capa_8" class="st0">
	<path class="st8" d="M253.9,56.8L177,12.3c-16.7-9.7-37.2-9.7-53.9,0L45.8,56.8C29.1,66.6,19,84.3,19,103.5v89.1
		c0,19.1,10.4,36.9,26.8,46.6l77.2,44.5c16.7,9.7,37.2,9.7,53.9,0l77.2-44.5c16.7-9.7,26.8-27.5,26.8-46.6v-89.1
		C281,84.3,270.6,66.2,253.9,56.8z"/>
</g>
<g id="Capa_9" class="st0">
	<path class="st9" d="M253.9,56.8L177,12.3c-16.7-9.7-37.2-9.7-53.9,0L45.8,56.8C29.1,66.6,19,84.3,19,103.5v89.1
		c0,19.1,10.4,36.9,26.8,46.6l77.2,44.5c16.7,9.7,37.2,9.7,53.9,0l77.2-44.5c16.7-9.7,26.8-27.5,26.8-46.6v-89.1
		C281,84.3,270.6,66.2,253.9,56.8z"/>
</g>
<g id="Capa_10" class="st0">
	<path class="st10" d="M253.9,56.8L177,12.3c-16.7-9.7-37.2-9.7-53.9,0L45.8,56.8C29.1,66.6,19,84.3,19,103.5v89.1
		c0,19.1,10.4,36.9,26.8,46.6l77.2,44.5c16.7,9.7,37.2,9.7,53.9,0l77.2-44.5c16.7-9.7,26.8-27.5,26.8-46.6v-89.1
		C281,84.3,270.6,66.2,253.9,56.8z"/>
</g>
</svg>
