<?xml version="1.0" encoding="utf-8"?>
<!-- Generator: Adobe Illustrator 23.0.4, SVG Export Plug-In . SVG Version: 6.00 Build 0)  -->
<svg version="1.1" id="Capa_1" xmlns="http://www.w3.org/2000/svg" xmlns:xlink="http://www.w3.org/1999/xlink" x="0px" y="0px"
	 viewBox="0 0 300 300" style="enable-background:new 0 0 300 300;" xml:space="preserve">
<style type="text/css">
	.st0{display:none;}
	.st1{display:inline;fill:#51C2D1;}
	.st2{display:inline;fill:#133B52;}
	.st3{fill:#EE5455;}
	.st4{display:inline;fill:#FACF48;}
	.st5{display:inline;fill:#6AEAB8;}
	.st6{display:inline;fill:#3AA5F7;}
	.st7{display:inline;fill:#F39843;}
	.st8{display:inline;fill:#EF6769;}
	.st9{display:inline;fill:#8D49DD;}
	.st10{display:inline;fill:#0D427A;}
	.st11{fill:#FFFFFF;}
	.st12{opacity:0.5;}
</style>
<g class="st0">
	<path class="st1" d="M253.9,56.8L177,12.3c-16.7-9.7-37.2-9.7-53.9,0L45.8,56.8C29.1,66.6,19,84.3,19,103.5v89.1
		c0,19.1,10.4,36.9,26.8,46.6l77.2,44.5c16.7,9.7,37.2,9.7,53.9,0l77.2-44.5c16.7-9.7,26.8-27.5,26.8-46.6v-89.1
		C281,84.3,270.6,66.2,253.9,56.8z"/>
</g>
<g class="st0">
	<path class="st2" d="M253.9,56.8L177,12.3c-16.7-9.7-37.2-9.7-53.9,0L45.8,56.8C29.1,66.6,19,84.3,19,103.5v89.1
		c0,19.1,10.4,36.9,26.8,46.6l77.2,44.5c16.7,9.7,37.2,9.7,53.9,0l77.2-44.5c16.7-9.7,26.8-27.5,26.8-46.6v-89.1
		C281,84.3,270.6,66.2,253.9,56.8z"/>
</g>
<g id="Capa_3">
	<path class="st3" d="M253.9,58.8L177,14.3c-16.7-9.7-37.2-9.7-53.9,0L45.8,58.8C29.1,68.6,19,86.3,19,105.5v89.1
		c0,19.1,10.4,36.9,26.8,46.6l77.2,44.5c16.7,9.7,37.2,9.7,53.9,0l77.2-44.5c16.7-9.7,26.8-27.5,26.8-46.6v-89.1
		C281,86.3,270.6,68.2,253.9,58.8z"/>
</g>
<g id="Capa_4" class="st0">
	<path class="st4" d="M253.9,56.8L177,12.3c-16.7-9.7-37.2-9.7-53.9,0L45.8,56.8C29.1,66.6,19,84.3,19,103.5v89.1
		c0,19.1,10.4,36.9,26.8,46.6l77.2,44.5c16.7,9.7,37.2,9.7,53.9,0l77.2-44.5c16.7-9.7,26.8-27.5,26.8-46.6v-89.1
		C281,84.3,270.6,66.2,253.9,56.8z"/>
</g>
<g id="Capa_5" class="st0">
	<path class="st5" d="M253.9,56.8L177,12.3c-16.7-9.7-37.2-9.7-53.9,0L45.8,56.8C29.1,66.6,19,84.3,19,103.5v89.1
		c0,19.1,10.4,36.9,26.8,46.6l77.2,44.5c16.7,9.7,37.2,9.7,53.9,0l77.2-44.5c16.7-9.7,26.8-27.5,26.8-46.6v-89.1
		C281,84.3,270.6,66.2,253.9,56.8z"/>
</g>
<g id="Capa_6" class="st0">
	<path class="st6" d="M253.9,56.8L177,12.3c-16.7-9.7-37.2-9.7-53.9,0L45.8,56.8C29.1,66.6,19,84.3,19,103.5v89.1
		c0,19.1,10.4,36.9,26.8,46.6l77.2,44.5c16.7,9.7,37.2,9.7,53.9,0l77.2-44.5c16.7-9.7,26.8-27.5,26.8-46.6v-89.1
		C281,84.3,270.6,66.2,253.9,56.8z"/>
</g>
<g id="Capa_7" class="st0">
	<path class="st7" d="M253.9,56.8L177,12.3c-16.7-9.7-37.2-9.7-53.9,0L45.8,56.8C29.1,66.6,19,84.3,19,103.5v89.1
		c0,19.1,10.4,36.9,26.8,46.6l77.2,44.5c16.7,9.7,37.2,9.7,53.9,0l77.2-44.5c16.7-9.7,26.8-27.5,26.8-46.6v-89.1
		C281,84.3,270.6,66.2,253.9,56.8z"/>
</g>
<g id="Capa_8" class="st0">
	<path class="st8" d="M253.9,56.8L177,12.3c-16.7-9.7-37.2-9.7-53.9,0L45.8,56.8C29.1,66.6,19,84.3,19,103.5v89.1
		c0,19.1,10.4,36.9,26.8,46.6l77.2,44.5c16.7,9.7,37.2,9.7,53.9,0l77.2-44.5c16.7-9.7,26.8-27.5,26.8-46.6v-89.1
		C281,84.3,270.6,66.2,253.9,56.8z"/>
</g>
<g id="Capa_9" class="st0">
	<path class="st9" d="M253.9,56.8L177,12.3c-16.7-9.7-37.2-9.7-53.9,0L45.8,56.8C29.1,66.6,19,84.3,19,103.5v89.1
		c0,19.1,10.4,36.9,26.8,46.6l77.2,44.5c16.7,9.7,37.2,9.7,53.9,0l77.2-44.5c16.7-9.7,26.8-27.5,26.8-46.6v-89.1
		C281,84.3,270.6,66.2,253.9,56.8z"/>
</g>
<g id="Capa_10" class="st0">
	<path class="st10" d="M253.9,56.8L177,12.3c-16.7-9.7-37.2-9.7-53.9,0L45.8,56.8C29.1,66.6,19,84.3,19,103.5v89.1
		c0,19.1,10.4,36.9,26.8,46.6l77.2,44.5c16.7,9.7,37.2,9.7,53.9,0l77.2-44.5c16.7-9.7,26.8-27.5,26.8-46.6v-89.1
		C281,84.3,270.6,66.2,253.9,56.8z"/>
</g>
<g>
	<g>
		<path class="st11" d="M76.8,200.4c2,0,3.5,0.5,4.6,1.5s1.7,2.3,1.7,3.9c0,1.6-0.6,2.9-1.7,3.9s-2.7,1.5-4.6,1.5h-2.9v3.8l1.8,0.4
			v2.1h-7.1v-2.1l1.8-0.4v-12.2l-1.8-0.4v-2.1h1.8H76.8z M73.9,208.6h2.9c1,0,1.7-0.3,2.2-0.8s0.7-1.2,0.7-2c0-0.8-0.2-1.5-0.7-2
			s-1.2-0.8-2.2-0.8h-2.9V208.6z"/>
		<path class="st11" d="M84.2,217.5v-2.1l1.8-0.4v-12.2l-1.8-0.4v-2.1H86h3.4h1.8v2.1l-1.8,0.4v12h4.8l0.2-2.1H97v4.8H84.2z"/>
		<path class="st11" d="M98.1,215.4l1.2-0.2l5.2-14.8h3.5l5.2,14.8l1.2,0.2v2.1h-5.8v-2.1l1.2-0.2l-0.8-2.3h-5.5l-0.8,2.3l1.2,0.2
			v2.1h-5.8V215.4z M104.3,210.3h3.9l-1.9-6h-0.1L104.3,210.3z"/>
		<path class="st11" d="M128.7,200.4v4.5h-2.6L126,203h-3.1v12l1.8,0.4v2.1h-7.1v-2.1l1.8-0.4v-12h-3.1l-0.1,1.9h-2.6v-4.5H128.7z"
			/>
		<path class="st11" d="M127.6,215.4l1.2-0.2l5.2-14.8h3.5l5.2,14.8l1.2,0.2v2.1h-5.8v-2.1l1.2-0.2l-0.8-2.3H133l-0.8,2.3l1.2,0.2
			v2.1h-5.8V215.4z M133.8,210.3h3.9l-1.9-6h-0.1L133.8,210.3z"/>
		<path class="st11" d="M145,215.4l1.8-0.4v-12.2l-1.8-0.4v-2.1h13.6v4.7h-2.6l-0.2-2h-5.6v4.7h6v2.6h-6v4.7l1.8,0.4v2.1H145V215.4z
			"/>
		<path class="st11" d="M174.9,209.1c0,2.5-0.7,4.6-2.1,6.2s-3.3,2.4-5.6,2.4c-2.3,0-4.2-0.8-5.6-2.4s-2.1-3.7-2.1-6.2v-0.3
			c0-2.5,0.7-4.5,2.1-6.2s3.3-2.5,5.6-2.5c2.3,0,4.2,0.8,5.6,2.5s2.2,3.7,2.2,6.2V209.1z M171.5,208.8c0-1.8-0.4-3.2-1.1-4.3
			s-1.8-1.7-3.3-1.7s-2.5,0.5-3.2,1.6s-1.1,2.5-1.1,4.3v0.3c0,1.8,0.4,3.2,1.1,4.3s1.8,1.6,3.2,1.6c1.4,0,2.5-0.5,3.3-1.6
			s1.1-2.5,1.1-4.3V208.8z"/>
		<path class="st11" d="M184,200.4c1.9,0,3.5,0.4,4.6,1.3s1.7,2.1,1.7,3.7c0,0.9-0.2,1.6-0.7,2.2s-1.1,1.1-2,1.5
			c1,0.3,1.7,0.8,2.2,1.5s0.7,1.5,0.7,2.6v0.9c0,0.4,0.1,0.7,0.2,0.9s0.4,0.3,0.7,0.4l0.4,0.1v2.1h-1.8c-1.1,0-1.9-0.3-2.4-0.9
			s-0.7-1.4-0.7-2.3v-1c0-0.8-0.2-1.5-0.7-2s-1.1-0.7-1.9-0.7h-2.8v4.5l1.8,0.4v2.1h-7.1v-2.1l1.8-0.4v-12.2l-1.8-0.4v-2.1h1.8H184z
			 M181.6,207.9h2.4c1,0,1.7-0.2,2.1-0.6s0.7-1,0.7-1.8s-0.2-1.4-0.7-1.8s-1.2-0.7-2.1-0.7h-2.4V207.9z"/>
		<path class="st11" d="M209.3,204.8L209.3,204.8l-4.6,12.6h-2.3l-4.5-12.6l-0.1,0l0.3,7.5v2.7l1.8,0.4v2.1h-7.1v-2.1l1.8-0.4v-12.2
			l-1.8-0.4v-2.1h1.8h4.5l4.3,12.6h0.1l4.4-12.6h6.3v2.1l-1.8,0.4v12.2l1.8,0.4v2.1h-7.1v-2.1l1.8-0.4v-2.7L209.3,204.8z"/>
		<path class="st11" d="M215.2,215.4l1.2-0.2l5.2-14.8h3.5l5.2,14.8l1.2,0.2v2.1h-5.8v-2.1l1.2-0.2l-0.8-2.3h-5.5l-0.8,2.3l1.2,0.2
			v2.1h-5.8V215.4z M221.4,210.3h3.9l-1.9-6h-0.1L221.4,210.3z"/>
		<path class="st11" d="M121.2,229.2v4.5h-2.6l-0.1-1.9h-3.1v12l1.8,0.4v2.1h-7.1v-2.1l1.8-0.4v-12h-3.1l-0.1,1.9H106v-4.5H121.2z"
			/>
		<path class="st11" d="M122.3,231.3v-2.1h7.1v2.1l-1.8,0.4v12.2l1.8,0.4v2.1h-7.1v-2.1l1.8-0.4v-12.2L122.3,231.3z"/>
		<path class="st11" d="M144.7,235h-2.5l-0.4-2.3c-0.3-0.3-0.8-0.6-1.3-0.8s-1.1-0.3-1.8-0.3c-1.5,0-2.6,0.5-3.4,1.6
			s-1.2,2.5-1.2,4.2v0.6c0,1.7,0.4,3.1,1.2,4.2s1.9,1.6,3.4,1.6c0.7,0,1.3-0.1,1.8-0.3s1-0.5,1.3-0.8l0.4-2.3h2.5v3.4
			c-0.7,0.8-1.6,1.4-2.6,1.9s-2.3,0.7-3.6,0.7c-2.3,0-4.2-0.8-5.6-2.4s-2.2-3.6-2.2-6.1v-0.6c0-2.5,0.7-4.5,2.2-6.1s3.3-2.4,5.6-2.4
			c1.3,0,2.5,0.2,3.6,0.7s1.9,1.1,2.6,1.9V235z"/>
		<path class="st11" d="M146.2,244.2l1.8-0.4v-12.2l-1.8-0.4v-2.1h7v2.1l-1.7,0.4v4.6h1.5l3.3-4.8l-1-0.1v-2.1h6.8v2.1l-1.9,0.3
			l-4.2,5.6l4.7,6.7l1.7,0.3v2.1h-6.8v-2.1l1.1-0.1l-3.3-4.9h-1.9v4.7l1.7,0.4v2.1h-7V244.2z"/>
		<path class="st11" d="M174.4,238.8h-5.8v4.9h5.5l0.2-2h2.6v4.7h-13.5v-2.1l1.8-0.4v-12.2l-1.8-0.4v-2.1h1.8h11.7v4.7h-2.6l-0.2-2
			h-5.5v4.3h5.8V238.8z"/>
		<path class="st11" d="M194,229.2v4.5h-2.6l-0.1-1.9h-3.1v12l1.8,0.4v2.1h-7.1v-2.1l1.8-0.4v-12h-3.1l-0.1,1.9h-2.6v-4.5H194z"/>
	</g>
</g>
<g>
	<g>
		<g>
			<g>
				<g>
					<path class="st11" d="M220.7,165.1v-10.9v-2.5v-65c0-5.8-4.7-10.5-10.5-10.5H89.8c-5.8,0-10.5,4.7-10.5,10.5v50.5v12.3v15.6
						H60.1v7.6c0,5.8,4.7,10.5,10.5,10.5h158.8c5.8,0,10.5-4.7,10.5-10.5v-7.6L220.7,165.1L220.7,165.1z M82.7,137.2V86.7
						c0-3.9,3.2-7.1,7.1-7.1h120.4c3.8,0,6.8,2.9,7.1,6.7l0,0v65.4v2.5v10.9H82.7v-15.6V137.2z M236.5,172.7c0,3.9-3.2,7.1-7.1,7.1
						H70.6c-3.9,0-7.1-3.2-7.1-7.1v-4.2h173.1v4.2H236.5z"/>
				</g>
				<g>
					<path class="st11" d="M93.5,158.4h113l0,0h3.7v-4.2v-2.5V87.3H93.5l0,0h-3.7v49.9v12.3v8.8L93.5,158.4L93.5,158.4z M93.5,149.5
						v-12.3V90.7h113v60.9v2.5v0.8h-113V149.5z"/>
				</g>
				<g class="st12">
					<g>
						<g>
							<g>
								<path class="st11" d="M98,105.7h5.6v4H98V105.7z"/>
							</g>
							<g>
								<path class="st11" d="M106.5,105.7h14.1v4h-14.1V105.7z"/>
							</g>
							<g>
								<path class="st11" d="M98,113.6h5.6v4H98V113.6z"/>
							</g>
							<g>
								<path class="st11" d="M106.5,113.6h14.1v4h-14.1V113.6z"/>
							</g>
							<g>
								<path class="st11" d="M98,121.5h5.6v4H98V121.5z"/>
							</g>
							<g>
								<path class="st11" d="M106.5,121.5h14.1v4h-14.1V121.5z"/>
							</g>
						</g>
						<g>
							<g>
								<path class="st11" d="M98,129.4h5.6v4H98V129.4z"/>
							</g>
							<g>
								<path class="st11" d="M106.5,129.4h14.1v4h-14.1V129.4z"/>
							</g>
							<g>
								<path class="st11" d="M98,137.4h5.6v4H98V137.4z"/>
							</g>
							<g>
								<path class="st11" d="M106.5,137.4h14.1v4h-14.1V137.4z"/>
							</g>
						</g>
					</g>
				</g>
				<g class="st12">
					<polygon class="st11" points="124.8,89.5 124.8,99.4 93.2,99.4 93.2,102.9 124.8,102.9 124.8,155.4 128.3,155.4 128.3,89.5 
											"/>
				</g>
			</g>
		</g>
	</g>
	<g>
		<g class="st12">
			<g>
				<g>
					<g>
						<path class="st11" d="M135.3,97h5.6v4h-5.6V97z"/>
					</g>
					<g>
						<path class="st11" d="M143.8,97h14.1v4h-14.1V97z"/>
					</g>
					<g>
						<path class="st11" d="M135.3,104.9h5.6v4h-5.6V104.9z"/>
					</g>
					<g>
						<path class="st11" d="M143.8,104.9h14.1v4h-14.1V104.9z"/>
					</g>
					<g>
						<path class="st11" d="M135.3,112.8h5.6v4h-5.6V112.8z"/>
					</g>
					<g>
						<path class="st11" d="M143.8,112.8h14.1v4h-14.1V112.8z"/>
					</g>
				</g>
				<g>
					<g>
						<path class="st11" d="M135.3,120.7h5.6v4h-5.6V120.7z"/>
					</g>
					<g>
						<path class="st11" d="M143.8,120.7h14.1v4h-14.1V120.7z"/>
					</g>
					<g>
						<path class="st11" d="M135.3,128.7h5.6v4h-5.6V128.7z"/>
					</g>
					<g>
						<path class="st11" d="M143.8,128.7h14.1v4h-14.1V128.7z"/>
					</g>
				</g>
			</g>
		</g>
		<g class="st12">
			<g>
				<g>
					<g>
						<path class="st11" d="M135.3,136.6h5.6v4h-5.6V136.6z"/>
					</g>
					<g>
						<path class="st11" d="M143.8,136.6h14.1v4h-14.1V136.6z"/>
					</g>
					<g>
						<path class="st11" d="M135.3,144.5h5.6v4h-5.6V144.5z"/>
					</g>
					<g>
						<path class="st11" d="M143.8,144.5h14.1v4h-14.1V144.5z"/>
					</g>
				</g>
			</g>
		</g>
	</g>
	<g>
		<g class="st12">
			<g>
				<g>
					<g>
						<path class="st11" d="M165,97h5.6v4H165V97z"/>
					</g>
					<g>
						<path class="st11" d="M173.5,97h14.1v4h-14.1V97z"/>
					</g>
					<g>
						<path class="st11" d="M165,104.9h5.6v4H165V104.9z"/>
					</g>
					<g>
						<path class="st11" d="M173.5,104.9h14.1v4h-14.1V104.9z"/>
					</g>
					<g>
						<path class="st11" d="M165,112.8h5.6v4H165V112.8z"/>
					</g>
					<g>
						<path class="st11" d="M173.5,112.8h14.1v4h-14.1V112.8z"/>
					</g>
				</g>
				<g>
					<g>
						<path class="st11" d="M165,120.7h5.6v4H165V120.7z"/>
					</g>
					<g>
						<path class="st11" d="M173.5,120.7h14.1v4h-14.1V120.7z"/>
					</g>
					<g>
						<path class="st11" d="M165,128.7h5.6v4H165V128.7z"/>
					</g>
					<g>
						<path class="st11" d="M173.5,128.7h14.1v4h-14.1V128.7z"/>
					</g>
				</g>
			</g>
		</g>
		<g class="st12">
			<g>
				<g>
					<g>
						<path class="st11" d="M165,136.6h5.6v4H165V136.6z"/>
					</g>
					<g>
						<path class="st11" d="M173.5,136.6h14.1v4h-14.1V136.6z"/>
					</g>
					<g>
						<path class="st11" d="M165,144.5h5.6v4H165V144.5z"/>
					</g>
					<g>
						<path class="st11" d="M173.5,144.5h14.1v4h-14.1V144.5z"/>
					</g>
				</g>
			</g>
		</g>
	</g>
</g>
</svg>
