<?xml version="1.0" encoding="utf-8"?>
<!-- Generator: Adobe Illustrator 23.0.4, SVG Export Plug-In . SVG Version: 6.00 Build 0)  -->
<svg version="1.1" id="Capa_1" xmlns="http://www.w3.org/2000/svg" xmlns:xlink="http://www.w3.org/1999/xlink" x="0px" y="0px"
	 viewBox="0 0 300 300" style="enable-background:new 0 0 300 300;" xml:space="preserve">
<style type="text/css">
	.st0{display:none;}
	.st1{display:inline;fill:#51C2D1;}
	.st2{display:inline;fill:#133B52;}
	.st3{display:inline;fill:#EE5455;}
	.st4{fill:#FACF48;}
	.st5{display:inline;fill:#6AEAB8;}
	.st6{display:inline;fill:#3AA5F7;}
	.st7{display:inline;fill:#F39843;}
	.st8{display:inline;fill:#EF6769;}
	.st9{display:inline;fill:#8D49DD;}
	.st10{display:inline;fill:#0D427A;}
	.st11{fill:#FFFFFF;}
	.st12{opacity:0.5;}
</style>
<g class="st0">
	<path class="st1" d="M253.9,56.8L177,12.3c-16.7-9.7-37.2-9.7-53.9,0L45.8,56.8C29.1,66.6,19,84.3,19,103.5v89.1
		c0,19.1,10.4,36.9,26.8,46.6l77.2,44.5c16.7,9.7,37.2,9.7,53.9,0l77.2-44.5c16.7-9.7,26.8-27.5,26.8-46.6v-89.1
		C281,84.3,270.6,66.2,253.9,56.8z"/>
</g>
<g class="st0">
	<path class="st2" d="M253.9,56.8L177,12.3c-16.7-9.7-37.2-9.7-53.9,0L45.8,56.8C29.1,66.6,19,84.3,19,103.5v89.1
		c0,19.1,10.4,36.9,26.8,46.6l77.2,44.5c16.7,9.7,37.2,9.7,53.9,0l77.2-44.5c16.7-9.7,26.8-27.5,26.8-46.6v-89.1
		C281,84.3,270.6,66.2,253.9,56.8z"/>
</g>
<g id="Capa_3" class="st0">
	<path class="st3" d="M253.9,56.8L177,12.3c-16.7-9.7-37.2-9.7-53.9,0L45.8,56.8C29.1,66.6,19,84.3,19,103.5v89.1
		c0,19.1,10.4,36.9,26.8,46.6l77.2,44.5c16.7,9.7,37.2,9.7,53.9,0l77.2-44.5c16.7-9.7,26.8-27.5,26.8-46.6v-89.1
		C281,84.3,270.6,66.2,253.9,56.8z"/>
</g>
<g id="Capa_4">
	<path class="st4" d="M253.9,58.8L177,14.3c-16.7-9.7-37.2-9.7-53.9,0L45.8,58.8C29.1,68.6,19,86.3,19,105.5v89.1
		c0,19.1,10.4,36.9,26.8,46.6l77.2,44.5c16.7,9.7,37.2,9.7,53.9,0l77.2-44.5c16.7-9.7,26.8-27.5,26.8-46.6v-89.1
		C281,86.3,270.6,68.2,253.9,58.8z"/>
</g>
<g id="Capa_5" class="st0">
	<path class="st5" d="M253.9,56.8L177,12.3c-16.7-9.7-37.2-9.7-53.9,0L45.8,56.8C29.1,66.6,19,84.3,19,103.5v89.1
		c0,19.1,10.4,36.9,26.8,46.6l77.2,44.5c16.7,9.7,37.2,9.7,53.9,0l77.2-44.5c16.7-9.7,26.8-27.5,26.8-46.6v-89.1
		C281,84.3,270.6,66.2,253.9,56.8z"/>
</g>
<g id="Capa_6" class="st0">
	<path class="st6" d="M253.9,56.8L177,12.3c-16.7-9.7-37.2-9.7-53.9,0L45.8,56.8C29.1,66.6,19,84.3,19,103.5v89.1
		c0,19.1,10.4,36.9,26.8,46.6l77.2,44.5c16.7,9.7,37.2,9.7,53.9,0l77.2-44.5c16.7-9.7,26.8-27.5,26.8-46.6v-89.1
		C281,84.3,270.6,66.2,253.9,56.8z"/>
</g>
<g id="Capa_7" class="st0">
	<path class="st7" d="M253.9,56.8L177,12.3c-16.7-9.7-37.2-9.7-53.9,0L45.8,56.8C29.1,66.6,19,84.3,19,103.5v89.1
		c0,19.1,10.4,36.9,26.8,46.6l77.2,44.5c16.7,9.7,37.2,9.7,53.9,0l77.2-44.5c16.7-9.7,26.8-27.5,26.8-46.6v-89.1
		C281,84.3,270.6,66.2,253.9,56.8z"/>
</g>
<g id="Capa_8" class="st0">
	<path class="st8" d="M253.9,56.8L177,12.3c-16.7-9.7-37.2-9.7-53.9,0L45.8,56.8C29.1,66.6,19,84.3,19,103.5v89.1
		c0,19.1,10.4,36.9,26.8,46.6l77.2,44.5c16.7,9.7,37.2,9.7,53.9,0l77.2-44.5c16.7-9.7,26.8-27.5,26.8-46.6v-89.1
		C281,84.3,270.6,66.2,253.9,56.8z"/>
</g>
<g id="Capa_9" class="st0">
	<path class="st9" d="M253.9,56.8L177,12.3c-16.7-9.7-37.2-9.7-53.9,0L45.8,56.8C29.1,66.6,19,84.3,19,103.5v89.1
		c0,19.1,10.4,36.9,26.8,46.6l77.2,44.5c16.7,9.7,37.2,9.7,53.9,0l77.2-44.5c16.7-9.7,26.8-27.5,26.8-46.6v-89.1
		C281,84.3,270.6,66.2,253.9,56.8z"/>
</g>
<g id="Capa_10" class="st0">
	<path class="st10" d="M253.9,56.8L177,12.3c-16.7-9.7-37.2-9.7-53.9,0L45.8,56.8C29.1,66.6,19,84.3,19,103.5v89.1
		c0,19.1,10.4,36.9,26.8,46.6l77.2,44.5c16.7,9.7,37.2,9.7,53.9,0l77.2-44.5c16.7-9.7,26.8-27.5,26.8-46.6v-89.1
		C281,84.3,270.6,66.2,253.9,56.8z"/>
</g>
<g>
	<g>
		<path class="st11" d="M95.9,212.4l1.2-0.2l5.2-14.8h3.5l5.2,14.8l1.2,0.2v2.1h-5.8v-2.1l1.2-0.2l-0.8-2.3h-5.5l-0.8,2.3l1.2,0.2
			v2.1h-5.8V212.4z M102.1,207.3h3.9l-1.9-6H104L102.1,207.3z"/>
		<path class="st11" d="M119.5,197.4v2.1l-1.8,0.4v8.9c0,1.1,0.3,2,0.9,2.5s1.4,0.8,2.5,0.8c1.1,0,1.9-0.3,2.5-0.8s0.9-1.4,0.9-2.5
			v-8.9l-1.8-0.4v-2.1h7.1v2.1l-1.8,0.4v8.9c0,1.9-0.6,3.4-1.9,4.4s-2.9,1.6-5,1.6c-2,0-3.7-0.5-4.9-1.6s-1.9-2.5-1.9-4.4v-8.9
			l-1.8-0.4v-2.1h1.8h3.4H119.5z"/>
		<path class="st11" d="M145.8,197.4v4.5h-2.6L143,200h-3.1v12l1.8,0.4v2.1h-7.1v-2.1l1.8-0.4v-12h-3.1l-0.1,1.9h-2.6v-4.5H145.8z"
			/>
		<path class="st11" d="M162.1,206.1c0,2.5-0.7,4.6-2.1,6.2s-3.3,2.4-5.6,2.4c-2.3,0-4.2-0.8-5.6-2.4s-2.1-3.7-2.1-6.2v-0.3
			c0-2.5,0.7-4.5,2.1-6.2s3.3-2.5,5.6-2.5c2.3,0,4.2,0.8,5.6,2.5s2.2,3.7,2.2,6.2V206.1z M158.7,205.8c0-1.8-0.4-3.2-1.1-4.3
			s-1.8-1.7-3.3-1.7s-2.5,0.5-3.2,1.6s-1.1,2.5-1.1,4.3v0.3c0,1.8,0.4,3.2,1.1,4.3s1.8,1.6,3.2,1.6c1.4,0,2.5-0.5,3.3-1.6
			s1.1-2.5,1.1-4.3V205.8z"/>
		<path class="st11" d="M163.5,212.4l1.8-0.4v-12.2l-1.8-0.4v-2.1h13.6v4.7h-2.6l-0.2-2h-5.6v4.7h6v2.6h-6v4.7l1.8,0.4v2.1h-7.1
			V212.4z"/>
		<path class="st11" d="M178.3,199.5v-2.1h7.1v2.1l-1.8,0.4v12.2l1.8,0.4v2.1h-7.1v-2.1l1.8-0.4v-12.2L178.3,199.5z"/>
		<path class="st11" d="M204.1,197.4v2.1l-1.8,0.4v14.6h-3.4L192,203l-0.1,0v9.1l1.8,0.4v2.1h-7.1v-2.1l1.8-0.4v-12.2l-1.8-0.4v-2.1
			h1.8h3.4l6.9,11.5l0.1,0v-9.1l-1.8-0.4v-2.1h5.2H204.1z"/>
		<path class="st11" d="M90,222.2c2,0,3.5,0.5,4.6,1.5s1.7,2.3,1.7,3.9c0,1.6-0.6,2.9-1.7,3.9s-2.7,1.5-4.6,1.5h-2.9v3.8l1.8,0.4
			v2.1h-7.1v-2.1l1.8-0.4v-12.2l-1.8-0.4v-2.1h1.8H90z M87.1,230.4H90c1,0,1.7-0.3,2.2-0.8s0.7-1.2,0.7-2c0-0.8-0.2-1.5-0.7-2
			s-1.2-0.8-2.2-0.8h-2.9V230.4z"/>
		<path class="st11" d="M105.1,222.2c1.9,0,3.5,0.4,4.6,1.3s1.7,2.1,1.7,3.7c0,0.9-0.2,1.6-0.7,2.2s-1.1,1.1-2,1.5
			c1,0.3,1.7,0.8,2.2,1.5s0.7,1.5,0.7,2.6v0.9c0,0.4,0.1,0.7,0.2,0.9s0.4,0.3,0.7,0.4l0.4,0.1v2.1H111c-1.1,0-1.9-0.3-2.4-0.9
			S108,237,108,236v-1c0-0.8-0.2-1.5-0.7-2s-1.1-0.7-1.9-0.7h-2.8v4.5l1.8,0.4v2.1h-7.1v-2.1l1.8-0.4v-12.2l-1.8-0.4v-2.1h1.8H105.1
			z M102.7,229.7h2.4c1,0,1.7-0.2,2.1-0.6s0.7-1,0.7-1.8s-0.2-1.4-0.7-1.8s-1.2-0.7-2.1-0.7h-2.4V229.7z"/>
		<path class="st11" d="M129.5,230.9c0,2.5-0.7,4.6-2.1,6.2s-3.3,2.4-5.6,2.4c-2.3,0-4.2-0.8-5.6-2.4s-2.1-3.7-2.1-6.2v-0.3
			c0-2.5,0.7-4.5,2.1-6.2s3.3-2.5,5.6-2.5c2.3,0,4.2,0.8,5.6,2.5s2.2,3.7,2.2,6.2V230.9z M126.1,230.6c0-1.8-0.4-3.2-1.1-4.3
			s-1.8-1.7-3.3-1.7s-2.5,0.5-3.2,1.6s-1.1,2.5-1.1,4.3v0.3c0,1.8,0.4,3.2,1.1,4.3s1.8,1.6,3.2,1.6c1.4,0,2.5-0.5,3.3-1.6
			s1.1-2.5,1.1-4.3V230.6z"/>
		<path class="st11" d="M130.3,237.2l1.4-0.3l4.5-6.3l-4.4-6.1l-1.4-0.3v-2.1h6.6v2.1l-1.4,0.2l2.6,4.2l2.6-4.2l-1.4-0.2v-2.1h6.6
			v2.1l-1.4,0.3l-4.4,6.1l4.6,6.3l1.5,0.3v2.1h-6.7v-2.1l1.4-0.1l-2.7-4.3l-2.8,4.3l1.4,0.1v2.1h-6.6V237.2z"/>
		<path class="st11" d="M147.4,224.3v-2.1h7.1v2.1l-1.8,0.4v12.2l1.8,0.4v2.1h-7.1v-2.1l1.8-0.4v-12.2L147.4,224.3z"/>
		<path class="st11" d="M172.2,226.6L172.2,226.6l-4.6,12.6h-2.3l-4.5-12.6l-0.1,0l0.3,7.5v2.7l1.8,0.4v2.1h-7.1v-2.1l1.8-0.4v-12.2
			l-1.8-0.4v-2.1h1.8h4.5l4.3,12.6h0.1l4.4-12.6h6.3v2.1l-1.8,0.4v12.2l1.8,0.4v2.1h-7.1v-2.1l1.8-0.4v-2.7L172.2,226.6z"/>
		<path class="st11" d="M178.3,224.3v-2.1h7.1v2.1l-1.8,0.4v12.2l1.8,0.4v2.1h-7.1v-2.1l1.8-0.4v-12.2L178.3,224.3z"/>
		<path class="st11" d="M201.7,222.2v4.5h-2.6l-0.1-1.9h-3.1v12l1.8,0.4v2.1h-7.1v-2.1l1.8-0.4v-12h-3.1l-0.1,1.9h-2.6v-4.5H201.7z"
			/>
		<path class="st11" d="M209.3,224.3l-1.4,0.2l2.6,5.6h0.1l2.6-5.6l-1.4-0.2v-2.1h6.5v2.1l-1.5,0.2l-4.6,8.8v3.6l1.8,0.4v2.1H207
			v-2.1l1.8-0.4v-3.8l-4.6-8.6l-1.4-0.2v-2.1h6.5V224.3z"/>
	</g>
</g>
<g>
	<g>
		<path class="st11" d="M220.7,165.1v-10.9v-2.5v-65c0-5.8-4.7-10.5-10.5-10.5H89.8c-5.8,0-10.5,4.7-10.5,10.5v50.5v12.3v15.6H60.1
			v7.6c0,5.8,4.7,10.5,10.5,10.5h158.8c5.8,0,10.5-4.7,10.5-10.5v-7.6H220.7z M82.7,137.2V86.7c0-3.9,3.2-7.1,7.1-7.1h120.4
			c3.8,0,6.8,2.9,7.1,6.7l0,0v65.4v2.5v10.9H82.7v-15.6V137.2z M236.5,172.7c0,3.9-3.2,7.1-7.1,7.1H70.6c-3.9,0-7.1-3.2-7.1-7.1
			v-4.2h173.1v4.2H236.5z"/>
		<path class="st11" d="M93.5,158.4h113l0,0h3.7v-4.2v-2.5V87.3H93.5l0,0h-3.7v49.9v12.3v8.8L93.5,158.4L93.5,158.4z M93.5,149.5
			v-12.3V90.7h113v60.9v2.5v0.8h-113V149.5z"/>
	</g>
</g>
<g>
	<g>
		<g>
			<g>
				<g class="st12">
					<g>
						<g>
							<g>
								<path class="st11" d="M98,105.7h5.6v4H98V105.7z"/>
							</g>
							<g>
								<path class="st11" d="M106.5,105.7h14.1v4h-14.1V105.7z"/>
							</g>
							<g>
								<path class="st11" d="M98,113.6h5.6v4H98V113.6z"/>
							</g>
							<g>
								<path class="st11" d="M106.5,113.6h14.1v4h-14.1V113.6z"/>
							</g>
							<g>
								<path class="st11" d="M98,121.5h5.6v4H98V121.5z"/>
							</g>
							<g>
								<path class="st11" d="M106.5,121.5h14.1v4h-14.1V121.5z"/>
							</g>
						</g>
						<g>
							<g>
								<path class="st11" d="M98,129.4h5.6v4H98V129.4z"/>
							</g>
							<g>
								<path class="st11" d="M106.5,129.4h14.1v4h-14.1V129.4z"/>
							</g>
							<g>
								<path class="st11" d="M98,137.4h5.6v4H98V137.4z"/>
							</g>
							<g>
								<path class="st11" d="M106.5,137.4h14.1v4h-14.1V137.4z"/>
							</g>
						</g>
					</g>
				</g>
				<g class="st12">
					<polygon class="st11" points="124.8,89.5 124.8,99.4 93.2,99.4 93.2,102.9 124.8,102.9 124.8,155.4 128.3,155.4 128.3,89.5 
											"/>
				</g>
			</g>
		</g>
	</g>
</g>
<g>
	<g class="st12">
		<g>
			<g>
				<g>
					<path class="st11" d="M136.2,97.5h5.6v4h-5.6V97.5z"/>
				</g>
				<g>
					<path class="st11" d="M144.7,97.5h14.1v4h-14.1V97.5z"/>
				</g>
				<g>
					<path class="st11" d="M136.2,105.4h5.6v4h-5.6V105.4z"/>
				</g>
				<g>
					<path class="st11" d="M144.7,105.4h14.1v4h-14.1V105.4z"/>
				</g>
				<g>
					<path class="st11" d="M136.2,113.3h5.6v4h-5.6V113.3z"/>
				</g>
				<g>
					<path class="st11" d="M144.7,113.3h14.1v4h-14.1V113.3z"/>
				</g>
			</g>
			<g>
				<g>
					<path class="st11" d="M136.2,121.2h5.6v4h-5.6V121.2z"/>
				</g>
				<g>
					<path class="st11" d="M144.7,121.2h14.1v4h-14.1V121.2z"/>
				</g>
				<g>
					<path class="st11" d="M136.2,129.2h5.6v4h-5.6V129.2z"/>
				</g>
				<g>
					<path class="st11" d="M144.7,129.2h14.1v4h-14.1V129.2z"/>
				</g>
			</g>
		</g>
	</g>
	<g class="st12">
		<g>
			<g>
				<g>
					<path class="st11" d="M136.2,137.1h5.6v4h-5.6V137.1z"/>
				</g>
				<g>
					<path class="st11" d="M144.7,137.1h14.1v4h-14.1V137.1z"/>
				</g>
			</g>
			<g>
				<g>
					<path class="st11" d="M136.2,145h5.6v4h-5.6V145z"/>
				</g>
				<g>
					<path class="st11" d="M144.7,145h14.1v4h-14.1V145z"/>
				</g>
			</g>
		</g>
	</g>
</g>
<g class="st12">
	<g>
		<path class="st11" d="M198.4,121.4c1,0,1.7-0.8,1.7-1.7V98.8c0-1-0.8-1.7-1.7-1.7h-29.5c-1,0-1.7,0.8-1.7,1.7v20.9
			c0,1,0.8,1.7,1.7,1.7H198.4z M170.6,100.5h26v17.4h-26V100.5z"/>
		<path class="st11" d="M174.1,104h4.8v3.5h-4.8V104z"/>
		<path class="st11" d="M182.4,104h10.8v3.5h-10.8V104z"/>
		<path class="st11" d="M174.1,111h19.1v3.5h-19.1V111z"/>
	</g>
</g>
</svg>
