<?xml version="1.0" encoding="utf-8"?>
<!-- Generator: Adobe Illustrator 23.0.4, SVG Export Plug-In . SVG Version: 6.00 Build 0)  -->
<svg version="1.1" id="Capa_1" xmlns="http://www.w3.org/2000/svg" xmlns:xlink="http://www.w3.org/1999/xlink" x="0px" y="0px"
	 viewBox="0 0 300 300" style="enable-background:new 0 0 300 300;" xml:space="preserve">
<style type="text/css">
	.st0{display:none;}
	.st1{display:inline;fill:#51C2D1;}
	.st2{display:inline;fill:#133B52;}
	.st3{display:inline;fill:#EE5455;}
	.st4{display:inline;fill:#FACF48;}
	.st5{display:inline;fill:#6AEAB8;}
	.st6{display:inline;fill:#3AA5F7;}
	.st7{display:inline;fill:#F39843;}
	.st8{fill:#EF6769;}
	.st9{display:inline;fill:#8D49DD;}
	.st10{display:inline;fill:#0D427A;}
	.st11{fill:#FFFFFF;}
	.st12{opacity:0.5;}
</style>
<g class="st0">
	<path class="st1" d="M253.9,56.8L177,12.3c-16.7-9.7-37.2-9.7-53.9,0L45.8,56.8C29.1,66.6,19,84.3,19,103.5v89.1
		c0,19.1,10.4,36.9,26.8,46.6l77.2,44.5c16.7,9.7,37.2,9.7,53.9,0l77.2-44.5c16.7-9.7,26.8-27.5,26.8-46.6v-89.1
		C281,84.3,270.6,66.2,253.9,56.8z"/>
</g>
<g class="st0">
	<path class="st2" d="M253.9,56.8L177,12.3c-16.7-9.7-37.2-9.7-53.9,0L45.8,56.8C29.1,66.6,19,84.3,19,103.5v89.1
		c0,19.1,10.4,36.9,26.8,46.6l77.2,44.5c16.7,9.7,37.2,9.7,53.9,0l77.2-44.5c16.7-9.7,26.8-27.5,26.8-46.6v-89.1
		C281,84.3,270.6,66.2,253.9,56.8z"/>
</g>
<g id="Capa_3" class="st0">
	<path class="st3" d="M253.9,56.8L177,12.3c-16.7-9.7-37.2-9.7-53.9,0L45.8,56.8C29.1,66.6,19,84.3,19,103.5v89.1
		c0,19.1,10.4,36.9,26.8,46.6l77.2,44.5c16.7,9.7,37.2,9.7,53.9,0l77.2-44.5c16.7-9.7,26.8-27.5,26.8-46.6v-89.1
		C281,84.3,270.6,66.2,253.9,56.8z"/>
</g>
<g id="Capa_4" class="st0">
	<path class="st4" d="M253.9,56.8L177,12.3c-16.7-9.7-37.2-9.7-53.9,0L45.8,56.8C29.1,66.6,19,84.3,19,103.5v89.1
		c0,19.1,10.4,36.9,26.8,46.6l77.2,44.5c16.7,9.7,37.2,9.7,53.9,0l77.2-44.5c16.7-9.7,26.8-27.5,26.8-46.6v-89.1
		C281,84.3,270.6,66.2,253.9,56.8z"/>
</g>
<g id="Capa_5" class="st0">
	<path class="st5" d="M253.9,56.8L177,12.3c-16.7-9.7-37.2-9.7-53.9,0L45.8,56.8C29.1,66.6,19,84.3,19,103.5v89.1
		c0,19.1,10.4,36.9,26.8,46.6l77.2,44.5c16.7,9.7,37.2,9.7,53.9,0l77.2-44.5c16.7-9.7,26.8-27.5,26.8-46.6v-89.1
		C281,84.3,270.6,66.2,253.9,56.8z"/>
</g>
<g id="Capa_6" class="st0">
	<path class="st6" d="M253.9,56.8L177,12.3c-16.7-9.7-37.2-9.7-53.9,0L45.8,56.8C29.1,66.6,19,84.3,19,103.5v89.1
		c0,19.1,10.4,36.9,26.8,46.6l77.2,44.5c16.7,9.7,37.2,9.7,53.9,0l77.2-44.5c16.7-9.7,26.8-27.5,26.8-46.6v-89.1
		C281,84.3,270.6,66.2,253.9,56.8z"/>
</g>
<g id="Capa_7" class="st0">
	<path class="st7" d="M253.9,56.8L177,12.3c-16.7-9.7-37.2-9.7-53.9,0L45.8,56.8C29.1,66.6,19,84.3,19,103.5v89.1
		c0,19.1,10.4,36.9,26.8,46.6l77.2,44.5c16.7,9.7,37.2,9.7,53.9,0l77.2-44.5c16.7-9.7,26.8-27.5,26.8-46.6v-89.1
		C281,84.3,270.6,66.2,253.9,56.8z"/>
</g>
<g id="Capa_8">
	<path class="st8" d="M253.9,58.8L177,14.3c-16.7-9.7-37.2-9.7-53.9,0L45.8,58.8C29.1,68.6,19,86.3,19,105.5v89.1
		c0,19.1,10.4,36.9,26.8,46.6l77.2,44.5c16.7,9.7,37.2,9.7,53.9,0l77.2-44.5c16.7-9.7,26.8-27.5,26.8-46.6v-89.1
		C281,86.3,270.6,68.2,253.9,58.8z"/>
</g>
<g id="Capa_9" class="st0">
	<path class="st9" d="M253.9,56.8L177,12.3c-16.7-9.7-37.2-9.7-53.9,0L45.8,56.8C29.1,66.6,19,84.3,19,103.5v89.1
		c0,19.1,10.4,36.9,26.8,46.6l77.2,44.5c16.7,9.7,37.2,9.7,53.9,0l77.2-44.5c16.7-9.7,26.8-27.5,26.8-46.6v-89.1
		C281,84.3,270.6,66.2,253.9,56.8z"/>
</g>
<g id="Capa_10" class="st0">
	<path class="st10" d="M253.9,56.8L177,12.3c-16.7-9.7-37.2-9.7-53.9,0L45.8,56.8C29.1,66.6,19,84.3,19,103.5v89.1
		c0,19.1,10.4,36.9,26.8,46.6l77.2,44.5c16.7,9.7,37.2,9.7,53.9,0l77.2-44.5c16.7-9.7,26.8-27.5,26.8-46.6v-89.1
		C281,84.3,270.6,66.2,253.9,56.8z"/>
</g>
<g>
	<g>
		<path class="st11" d="M94.3,200.4c1.9,0,3.5,0.4,4.6,1.3s1.7,2.1,1.7,3.7c0,0.9-0.2,1.6-0.7,2.2s-1.1,1.1-2,1.5
			c1,0.3,1.7,0.8,2.2,1.5s0.7,1.5,0.7,2.6v0.9c0,0.4,0.1,0.7,0.2,0.9s0.4,0.3,0.7,0.4l0.4,0.1v2.1h-1.8c-1.1,0-1.9-0.3-2.4-0.9
			s-0.7-1.4-0.7-2.3v-1c0-0.8-0.2-1.5-0.7-2s-1.1-0.7-1.9-0.7h-2.8v4.5l1.8,0.4v2.1h-7.1v-2.1l1.8-0.4v-12.2l-1.8-0.4v-2.1h1.8H94.3
			z M91.9,207.9h2.4c1,0,1.7-0.2,2.1-0.6s0.7-1,0.7-1.8s-0.2-1.4-0.7-1.8s-1.2-0.7-2.1-0.7h-2.4V207.9z"/>
		<path class="st11" d="M114.2,210h-5.8v4.9h5.5l0.2-2h2.6v4.7h-13.5v-2.1l1.8-0.4v-12.2l-1.8-0.4v-2.1h1.8h11.7v4.7H114l-0.2-2
			h-5.5v4.3h5.8V210z"/>
		<path class="st11" d="M126.2,200.4c2.1,0,3.8,0.7,5.2,2s2,3,2,5.1v2.8c0,2.1-0.7,3.8-2,5.1s-3.1,2-5.2,2h-7.7v-2.1l1.8-0.4v-12.2
			l-1.8-0.4v-2.1h1.8H126.2z M123.7,203v11.8h2.3c1.2,0,2.2-0.4,2.9-1.2s1-1.9,1-3.2v-2.8c0-1.3-0.3-2.4-1-3.2s-1.7-1.2-2.9-1.2
			H123.7z"/>
		<path class="st11" d="M148,205.9h-2.6l-0.4-2.3c-0.3-0.2-0.7-0.4-1.3-0.5s-1.2-0.2-1.8-0.2c-0.9,0-1.7,0.2-2.2,0.6
			s-0.8,0.9-0.8,1.5c0,0.6,0.3,1.1,0.8,1.4s1.5,0.8,2.8,1.2c1.9,0.5,3.3,1.2,4.3,2.1s1.5,2,1.5,3.4c0,1.5-0.6,2.6-1.7,3.5
			s-2.7,1.3-4.6,1.3c-1.4,0-2.6-0.2-3.7-0.6s-2-1-2.7-1.8v-3.6h2.6l0.4,2.4c0.3,0.3,0.8,0.5,1.4,0.7s1.2,0.3,2,0.3
			c0.9,0,1.7-0.2,2.1-0.6s0.7-0.9,0.7-1.5c0-0.7-0.2-1.2-0.7-1.6s-1.3-0.8-2.4-1.1c-2-0.6-3.6-1.3-4.6-2.1s-1.6-1.9-1.6-3.3
			c0-1.4,0.6-2.5,1.8-3.4s2.6-1.3,4.4-1.4c1.3,0,2.5,0.2,3.6,0.6s2,0.9,2.7,1.6V205.9z"/>
		<path class="st11" d="M149.4,215.4l1.2-0.2l5.2-14.8h3.5l5.2,14.8l1.2,0.2v2.1h-5.8v-2.1l1.2-0.2l-0.8-2.3h-5.5l-0.8,2.3l1.2,0.2
			v2.1h-5.8V215.4z M155.6,210.3h3.9l-1.9-6h-0.1L155.6,210.3z"/>
		<path class="st11" d="M166.8,217.5v-2.1l1.8-0.4v-12.2l-1.8-0.4v-2.1h1.8h3.4h1.8v2.1l-1.8,0.4v12h4.8l0.2-2.1h2.6v4.8H166.8z"/>
		<path class="st11" d="M186.9,200.4v2.1l-1.8,0.4v8.9c0,1.1,0.3,2,0.9,2.5s1.4,0.8,2.5,0.8c1.1,0,1.9-0.3,2.5-0.8s0.9-1.4,0.9-2.5
			v-8.9l-1.8-0.4v-2.1h7.1v2.1l-1.8,0.4v8.9c0,1.9-0.6,3.4-1.9,4.4s-2.9,1.6-5,1.6c-2,0-3.7-0.5-4.9-1.6s-1.9-2.5-1.9-4.4v-8.9
			l-1.8-0.4v-2.1h1.8h3.4H186.9z"/>
		<path class="st11" d="M205.8,200.4c2.1,0,3.8,0.7,5.2,2s2,3,2,5.1v2.8c0,2.1-0.7,3.8-2,5.1s-3.1,2-5.2,2h-7.7v-2.1l1.8-0.4v-12.2
			l-1.8-0.4v-2.1h1.8H205.8z M203.4,203v11.8h2.3c1.2,0,2.2-0.4,2.9-1.2s1-1.9,1-3.2v-2.8c0-1.3-0.3-2.4-1-3.2s-1.7-1.2-2.9-1.2
			H203.4z"/>
		<path class="st11" d="M83.3,242.2l1.2-0.2l5.2-14.8h3.5l5.2,14.8l1.2,0.2v2.1h-5.8v-2.1l1.2-0.2l-0.8-2.3h-5.5l-0.8,2.3l1.2,0.2
			v2.1h-5.8V242.2z M89.5,237.1h3.9l-1.9-6h-0.1L89.5,237.1z"/>
		<path class="st11" d="M106.8,227.2v2.1l-1.8,0.4v8.9c0,1.1,0.3,2,0.9,2.5s1.4,0.8,2.5,0.8c1.1,0,1.9-0.3,2.5-0.8s0.9-1.4,0.9-2.5
			v-8.9l-1.8-0.4v-2.1h7.1v2.1l-1.8,0.4v8.9c0,1.9-0.6,3.4-1.9,4.4s-2.9,1.6-5,1.6c-2,0-3.7-0.5-4.9-1.6s-1.9-2.5-1.9-4.4v-8.9
			l-1.8-0.4v-2.1h1.8h3.4H106.8z"/>
		<path class="st11" d="M125.8,227.2c2.1,0,3.8,0.7,5.2,2s2,3,2,5.1v2.8c0,2.1-0.7,3.8-2,5.1s-3.1,2-5.2,2h-7.7v-2.1l1.8-0.4v-12.2
			l-1.8-0.4v-2.1h1.8H125.8z M123.3,229.8v11.8h2.3c1.2,0,2.2-0.4,2.9-1.2s1-1.9,1-3.2v-2.8c0-1.3-0.3-2.4-1-3.2s-1.7-1.2-2.9-1.2
			H123.3z"/>
		<path class="st11" d="M134.6,229.3v-2.1h7.1v2.1l-1.8,0.4v12.2l1.8,0.4v2.1h-7.1v-2.1l1.8-0.4v-12.2L134.6,229.3z"/>
		<path class="st11" d="M158,227.2v4.5h-2.6l-0.1-1.9h-3.1v12l1.8,0.4v2.1h-7.1v-2.1l1.8-0.4v-12h-3.1l-0.1,1.9h-2.6v-4.5H158z"/>
		<path class="st11" d="M174.4,235.9c0,2.5-0.7,4.6-2.1,6.2s-3.3,2.4-5.6,2.4c-2.3,0-4.2-0.8-5.6-2.4s-2.1-3.7-2.1-6.2v-0.3
			c0-2.5,0.7-4.5,2.1-6.2s3.3-2.5,5.6-2.5c2.3,0,4.2,0.8,5.6,2.5s2.2,3.7,2.2,6.2V235.9z M171,235.6c0-1.8-0.4-3.2-1.1-4.3
			s-1.8-1.7-3.3-1.7s-2.5,0.5-3.2,1.6s-1.1,2.5-1.1,4.3v0.3c0,1.8,0.4,3.2,1.1,4.3s1.8,1.6,3.2,1.6c1.4,0,2.5-0.5,3.3-1.6
			s1.1-2.5,1.1-4.3V235.6z"/>
		<path class="st11" d="M183.4,227.2c1.9,0,3.5,0.4,4.6,1.3s1.7,2.1,1.7,3.7c0,0.9-0.2,1.6-0.7,2.2s-1.1,1.1-2,1.5
			c1,0.3,1.7,0.8,2.2,1.5s0.7,1.5,0.7,2.6v0.9c0,0.4,0.1,0.7,0.2,0.9s0.4,0.3,0.7,0.4l0.4,0.1v2.1h-1.8c-1.1,0-1.9-0.3-2.4-0.9
			s-0.7-1.4-0.7-2.3v-1c0-0.8-0.2-1.5-0.7-2s-1.1-0.7-1.9-0.7H181v4.5l1.8,0.4v2.1h-7.1v-2.1l1.8-0.4v-12.2l-1.8-0.4v-2.1h1.8H183.4
			z M181,234.7h2.4c1,0,1.7-0.2,2.1-0.6s0.7-1,0.7-1.8s-0.2-1.4-0.7-1.8s-1.2-0.7-2.1-0.7H181V234.7z"/>
		<path class="st11" d="M192.3,229.3v-2.1h7.1v2.1l-1.8,0.4v12.2l1.8,0.4v2.1h-7.1v-2.1l1.8-0.4v-12.2L192.3,229.3z M195.9,222.9
			h3.6l0,0.1l-3.2,3h-2.7L195.9,222.9z"/>
		<path class="st11" d="M200.5,242.2l1.2-0.2l5.2-14.8h3.5l5.2,14.8l1.2,0.2v2.1h-5.8v-2.1l1.2-0.2l-0.8-2.3h-5.5l-0.8,2.3l1.2,0.2
			v2.1h-5.8V242.2z M206.6,237.1h3.9l-1.9-6h-0.1L206.6,237.1z"/>
	</g>
</g>
<g>
	<g>
		<path class="st11" d="M220.7,165.1v-10.9v-2.5v-65c0-5.8-4.7-10.5-10.5-10.5H89.8c-5.8,0-10.5,4.7-10.5,10.5v50.5v12.3v15.6H60.1
			v7.6c0,5.8,4.7,10.5,10.5,10.5h158.8c5.8,0,10.5-4.7,10.5-10.5v-7.6H220.7z M82.7,137.2V86.7c0-3.9,3.2-7.1,7.1-7.1h120.4
			c3.8,0,6.8,2.9,7.1,6.7l0,0v65.4v2.5v10.9H82.7v-15.6V137.2z M236.5,172.7c0,3.9-3.2,7.1-7.1,7.1H70.6c-3.9,0-7.1-3.2-7.1-7.1
			v-4.2h173.1v4.2H236.5z"/>
		<path class="st11" d="M93.5,158.4h113l0,0h3.7v-4.2v-2.5V87.3H93.5l0,0h-3.7v49.9v12.3v8.8L93.5,158.4L93.5,158.4z M93.5,149.5
			v-12.3V90.7h113v60.9v2.5v0.8h-113V149.5z"/>
		<g class="st12">
			<g>
				<path class="st11" d="M100.3,96h5.6v4h-5.6V96z"/>
				<path class="st11" d="M108.8,96h14.1v4h-14.1V96z"/>
				<path class="st11" d="M100.3,103.9h5.6v4h-5.6V103.9z"/>
				<path class="st11" d="M108.8,103.9h14.1v4h-14.1V103.9z"/>
				<path class="st11" d="M100.3,111.8h5.6v4h-5.6V111.8z"/>
				<path class="st11" d="M108.8,111.8h14.1v4h-14.1V111.8z"/>
			</g>
			<g>
				<path class="st11" d="M100.3,124.5h5.6v4h-5.6V124.5z"/>
				<path class="st11" d="M108.8,124.5h14.1v4h-14.1V124.5z"/>
				<path class="st11" d="M100.3,132.5h5.6v4h-5.6V132.5z"/>
				<path class="st11" d="M108.8,132.5h14.1v4h-14.1V132.5z"/>
			</g>
			<g>
				<path class="st11" d="M197.9,120.3c1,0,1.7-0.8,1.7-1.7V97.7c0-1-0.8-1.7-1.7-1.7h-66.3c-1,0-1.7,0.8-1.7,1.7v20.9
					c0,1,0.8,1.7,1.7,1.7C131.6,120.3,197.9,120.3,197.9,120.3z M133.3,99.5h62.9v17.4h-62.9L133.3,99.5L133.3,99.5z"/>
				<path class="st11" d="M164.2,102.9h7v3.5h-7V102.9z"/>
				<path class="st11" d="M174.5,102.9h18.3v3.5h-18.3V102.9z"/>
				<path class="st11" d="M136.5,102.9h24.6v3.5h-24.6V102.9z"/>
				<path class="st11" d="M136.5,109.9h56.2v3.5h-56.2V109.9z"/>
			</g>
			<g>
				<path class="st11" d="M197.9,148.9c1,0,1.7-0.8,1.7-1.7v-20.9c0-1-0.8-1.7-1.7-1.7h-29.5c-1,0-1.7,0.8-1.7,1.7v20.9
					c0,1,0.8,1.7,1.7,1.7H197.9z M170.1,128h26v17.4h-26V128z"/>
				<path class="st11" d="M173.6,131.5h4.8v3.5h-4.8V131.5z"/>
				<path class="st11" d="M181.9,131.5h10.8v3.5h-10.8V131.5z"/>
				<path class="st11" d="M173.6,138.5h19.1v3.5h-19.1V138.5z"/>
			</g>
			<g>
				<path class="st11" d="M161.1,148.9c1,0,1.7-0.8,1.7-1.7v-20.9c0-1-0.8-1.7-1.7-1.7h-29.5c-1,0-1.7,0.8-1.7,1.7v20.9
					c0,1,0.8,1.7,1.7,1.7H161.1z M133.3,128h26v17.4h-26V128z"/>
				<path class="st11" d="M136.8,131.5h4.8v3.5h-4.8V131.5z"/>
				<path class="st11" d="M145.1,131.5h10.8v3.5h-10.8V131.5z"/>
				<path class="st11" d="M136.8,138.5h19.1v3.5h-19.1V138.5z"/>
			</g>
		</g>
	</g>
</g>
</svg>
