<?xml version="1.0" encoding="utf-8"?>
<!-- Generator: Adobe Illustrator 23.0.4, SVG Export Plug-In . SVG Version: 6.00 Build 0)  -->
<svg version="1.1" id="Capa_1" xmlns="http://www.w3.org/2000/svg" xmlns:xlink="http://www.w3.org/1999/xlink" x="0px" y="0px"
	 viewBox="0 0 300 300" style="enable-background:new 0 0 300 300;" xml:space="preserve">
<style type="text/css">
	.st0{display:none;}
	.st1{display:inline;fill:#51C2D1;}
	.st2{display:inline;fill:#133B52;}
	.st3{display:inline;fill:#EE5455;}
	.st4{display:inline;fill:#FACF48;}
	.st5{display:inline;fill:#6AEAB8;}
	.st6{fill:#3AA5F7;}
	.st7{display:inline;fill:#F39843;}
	.st8{display:inline;fill:#EF6769;}
	.st9{display:inline;fill:#8D49DD;}
	.st10{display:inline;fill:#0D427A;}
	.st11{fill:#FFFFFF;}
	.st12{opacity:0.5;}
</style>
<g class="st0">
	<path class="st1" d="M253.9,56.8L177,12.3c-16.7-9.7-37.2-9.7-53.9,0L45.8,56.8C29.1,66.6,19,84.3,19,103.5v89.1
		c0,19.1,10.4,36.9,26.8,46.6l77.2,44.5c16.7,9.7,37.2,9.7,53.9,0l77.2-44.5c16.7-9.7,26.8-27.5,26.8-46.6v-89.1
		C281,84.3,270.6,66.2,253.9,56.8z"/>
</g>
<g class="st0">
	<path class="st2" d="M253.9,56.8L177,12.3c-16.7-9.7-37.2-9.7-53.9,0L45.8,56.8C29.1,66.6,19,84.3,19,103.5v89.1
		c0,19.1,10.4,36.9,26.8,46.6l77.2,44.5c16.7,9.7,37.2,9.7,53.9,0l77.2-44.5c16.7-9.7,26.8-27.5,26.8-46.6v-89.1
		C281,84.3,270.6,66.2,253.9,56.8z"/>
</g>
<g id="Capa_3" class="st0">
	<path class="st3" d="M253.9,56.8L177,12.3c-16.7-9.7-37.2-9.7-53.9,0L45.8,56.8C29.1,66.6,19,84.3,19,103.5v89.1
		c0,19.1,10.4,36.9,26.8,46.6l77.2,44.5c16.7,9.7,37.2,9.7,53.9,0l77.2-44.5c16.7-9.7,26.8-27.5,26.8-46.6v-89.1
		C281,84.3,270.6,66.2,253.9,56.8z"/>
</g>
<g id="Capa_4" class="st0">
	<path class="st4" d="M253.9,56.8L177,12.3c-16.7-9.7-37.2-9.7-53.9,0L45.8,56.8C29.1,66.6,19,84.3,19,103.5v89.1
		c0,19.1,10.4,36.9,26.8,46.6l77.2,44.5c16.7,9.7,37.2,9.7,53.9,0l77.2-44.5c16.7-9.7,26.8-27.5,26.8-46.6v-89.1
		C281,84.3,270.6,66.2,253.9,56.8z"/>
</g>
<g id="Capa_5" class="st0">
	<path class="st5" d="M253.9,56.8L177,12.3c-16.7-9.7-37.2-9.7-53.9,0L45.8,56.8C29.1,66.6,19,84.3,19,103.5v89.1
		c0,19.1,10.4,36.9,26.8,46.6l77.2,44.5c16.7,9.7,37.2,9.7,53.9,0l77.2-44.5c16.7-9.7,26.8-27.5,26.8-46.6v-89.1
		C281,84.3,270.6,66.2,253.9,56.8z"/>
</g>
<g id="Capa_6">
	<path class="st6" d="M253.9,58.8L177,14.3c-16.7-9.7-37.2-9.7-53.9,0L45.8,58.8C29.1,68.6,19,86.3,19,105.5v89.1
		c0,19.1,10.4,36.9,26.8,46.6l77.2,44.5c16.7,9.7,37.2,9.7,53.9,0l77.2-44.5c16.7-9.7,26.8-27.5,26.8-46.6v-89.1
		C281,86.3,270.6,68.2,253.9,58.8z"/>
</g>
<g id="Capa_7" class="st0">
	<path class="st7" d="M253.9,56.8L177,12.3c-16.7-9.7-37.2-9.7-53.9,0L45.8,56.8C29.1,66.6,19,84.3,19,103.5v89.1
		c0,19.1,10.4,36.9,26.8,46.6l77.2,44.5c16.7,9.7,37.2,9.7,53.9,0l77.2-44.5c16.7-9.7,26.8-27.5,26.8-46.6v-89.1
		C281,84.3,270.6,66.2,253.9,56.8z"/>
</g>
<g id="Capa_8" class="st0">
	<path class="st8" d="M253.9,56.8L177,12.3c-16.7-9.7-37.2-9.7-53.9,0L45.8,56.8C29.1,66.6,19,84.3,19,103.5v89.1
		c0,19.1,10.4,36.9,26.8,46.6l77.2,44.5c16.7,9.7,37.2,9.7,53.9,0l77.2-44.5c16.7-9.7,26.8-27.5,26.8-46.6v-89.1
		C281,84.3,270.6,66.2,253.9,56.8z"/>
</g>
<g id="Capa_9" class="st0">
	<path class="st9" d="M253.9,56.8L177,12.3c-16.7-9.7-37.2-9.7-53.9,0L45.8,56.8C29.1,66.6,19,84.3,19,103.5v89.1
		c0,19.1,10.4,36.9,26.8,46.6l77.2,44.5c16.7,9.7,37.2,9.7,53.9,0l77.2-44.5c16.7-9.7,26.8-27.5,26.8-46.6v-89.1
		C281,84.3,270.6,66.2,253.9,56.8z"/>
</g>
<g id="Capa_10" class="st0">
	<path class="st10" d="M253.9,56.8L177,12.3c-16.7-9.7-37.2-9.7-53.9,0L45.8,56.8C29.1,66.6,19,84.3,19,103.5v89.1
		c0,19.1,10.4,36.9,26.8,46.6l77.2,44.5c16.7,9.7,37.2,9.7,53.9,0l77.2-44.5c16.7-9.7,26.8-27.5,26.8-46.6v-89.1
		C281,84.3,270.6,66.2,253.9,56.8z"/>
</g>
<g>
	<g>
		<path class="st11" d="M93.9,204.8L93.9,204.8l-4.6,12.6H87l-4.5-12.6l-0.1,0l0.3,7.5v2.7l1.8,0.4v2.1h-7.1v-2.1l1.8-0.4v-12.2
			l-1.8-0.4v-2.1h1.8h4.5l4.3,12.6h0.1l4.4-12.6h6.3v2.1l-1.8,0.4v12.2l1.8,0.4v2.1h-7.1v-2.1l1.8-0.4v-2.7L93.9,204.8z"/>
		<path class="st11" d="M99.9,215.4l1.2-0.2l5.2-14.8h3.5l5.2,14.8l1.2,0.2v2.1h-5.8v-2.1l1.2-0.2l-0.8-2.3h-5.5l-0.8,2.3l1.2,0.2
			v2.1h-5.8V215.4z M106.1,210.3h3.9l-1.9-6H108L106.1,210.3z"/>
		<path class="st11" d="M117.3,217.5v-2.1l1.8-0.4v-12.2l-1.8-0.4v-2.1h1.8h3.4h1.8v2.1l-1.8,0.4v12h4.8l0.2-2.1h2.6v4.8H117.3z"/>
		<path class="st11" d="M131.4,217.5v-2.1l1.8-0.4v-12.2l-1.8-0.4v-2.1h1.8h3.4h1.8v2.1l-1.8,0.4v12h4.8l0.2-2.1h2.6v4.8H131.4z"/>
		<path class="st11" d="M153.5,200.4c2,0,3.5,0.5,4.6,1.5s1.7,2.3,1.7,3.9c0,1.6-0.6,2.9-1.7,3.9s-2.7,1.5-4.6,1.5h-2.9v3.8l1.8,0.4
			v2.1h-7.1v-2.1l1.8-0.4v-12.2l-1.8-0.4v-2.1h1.8H153.5z M150.7,208.6h2.9c1,0,1.7-0.3,2.2-0.8s0.7-1.2,0.7-2c0-0.8-0.2-1.5-0.7-2
			s-1.2-0.8-2.2-0.8h-2.9V208.6z"/>
		<path class="st11" d="M161,217.5v-2.1l1.8-0.4v-12.2l-1.8-0.4v-2.1h1.8h3.4h1.8v2.1l-1.8,0.4v12h4.8l0.2-2.1h2.6v4.8H161z"/>
		<path class="st11" d="M174.8,215.4l1.2-0.2l5.2-14.8h3.5l5.2,14.8l1.2,0.2v2.1h-5.8v-2.1l1.2-0.2l-0.8-2.3h-5.5l-0.8,2.3l1.2,0.2
			v2.1h-5.8V215.4z M181,210.3h3.9l-1.9-6h-0.1L181,210.3z"/>
		<path class="st11" d="M205,200.4v1.7l-8.4,12.7h5.9l0.3-2.1h2.6l-0.3,4.7h-12.7v-1.8l8.3-12.6h-5.4l-0.3,2.1h-2.6l0.3-4.7H205z"/>
		<path class="st11" d="M206.4,215.4l1.2-0.2l5.2-14.8h3.5l5.2,14.8l1.2,0.2v2.1h-5.8v-2.1l1.2-0.2l-0.8-2.3h-5.5l-0.8,2.3l1.2,0.2
			v2.1h-5.8V215.4z M212.6,210.3h3.9l-1.9-6h-0.1L212.6,210.3z"/>
		<path class="st11" d="M96.9,244.3v-2.1l1.8-0.4v-12.2l-1.8-0.4v-2.1h1.8h3.4h1.8v2.1l-1.8,0.4v12h4.8l0.2-2.1h2.6v4.8H96.9z"/>
		<path class="st11" d="M126.3,235.9c0,2.5-0.7,4.6-2.1,6.2s-3.3,2.4-5.6,2.4c-2.3,0-4.2-0.8-5.6-2.4s-2.1-3.7-2.1-6.2v-0.3
			c0-2.5,0.7-4.5,2.1-6.2s3.3-2.5,5.6-2.5c2.3,0,4.2,0.8,5.6,2.5s2.2,3.7,2.2,6.2V235.9z M122.9,235.6c0-1.8-0.4-3.2-1.1-4.3
			s-1.8-1.7-3.3-1.7s-2.5,0.5-3.2,1.6s-1.1,2.5-1.1,4.3v0.3c0,1.8,0.4,3.2,1.1,4.3s1.8,1.6,3.2,1.6c1.4,0,2.5-0.5,3.3-1.6
			s1.1-2.5,1.1-4.3V235.6z"/>
		<path class="st11" d="M141.6,233h-2.5l-0.4-2.3c-0.3-0.3-0.8-0.6-1.3-0.8s-1.1-0.3-1.8-0.3c-1.5,0-2.6,0.5-3.4,1.6
			s-1.2,2.5-1.2,4.2v0.6c0,1.7,0.4,3.1,1.2,4.2s1.9,1.6,3.4,1.6c0.7,0,1.3-0.1,1.8-0.3s1-0.5,1.3-0.8l0.4-2.3h2.5v3.4
			c-0.7,0.8-1.6,1.4-2.6,1.9s-2.3,0.7-3.6,0.7c-2.3,0-4.2-0.8-5.6-2.4s-2.2-3.6-2.2-6.1v-0.6c0-2.5,0.7-4.5,2.2-6.1s3.3-2.4,5.6-2.4
			c1.3,0,2.5,0.2,3.6,0.7s1.9,1.1,2.6,1.9V233z"/>
		<path class="st11" d="M143,242.2l1.2-0.2l5.2-14.8h3.5l5.2,14.8l1.2,0.2v2.1h-5.8v-2.1l1.2-0.2l-0.8-2.3h-5.5l-0.8,2.3l1.2,0.2
			v2.1H143V242.2z M149.2,237.1h3.9l-1.9-6h-0.1L149.2,237.1z"/>
		<path class="st11" d="M160.4,244.3v-2.1l1.8-0.4v-12.2l-1.8-0.4v-2.1h1.8h3.4h1.8v2.1l-1.8,0.4v12h4.8l0.2-2.1h2.6v4.8H160.4z"/>
		<path class="st11" d="M185.5,236.8h-5.8v4.9h5.5l0.2-2h2.6v4.7h-13.5v-2.1l1.8-0.4v-12.2l-1.8-0.4v-2.1h1.8H188v4.7h-2.6l-0.2-2
			h-5.5v4.3h5.8V236.8z"/>
		<path class="st11" d="M202.8,232.7h-2.6l-0.4-2.3c-0.3-0.2-0.7-0.4-1.3-0.5s-1.2-0.2-1.8-0.2c-0.9,0-1.7,0.2-2.2,0.6
			s-0.8,0.9-0.8,1.5c0,0.6,0.3,1.1,0.8,1.4s1.5,0.8,2.8,1.2c1.9,0.5,3.3,1.2,4.3,2.1s1.5,2,1.5,3.4c0,1.5-0.6,2.6-1.7,3.5
			s-2.7,1.3-4.6,1.3c-1.4,0-2.6-0.2-3.7-0.6s-2-1-2.7-1.8v-3.6h2.6l0.4,2.4c0.3,0.3,0.8,0.5,1.4,0.7s1.2,0.3,2,0.3
			c0.9,0,1.7-0.2,2.1-0.6s0.7-0.9,0.7-1.5c0-0.7-0.2-1.2-0.7-1.6s-1.3-0.8-2.4-1.1c-2-0.6-3.6-1.3-4.6-2.1s-1.6-1.9-1.6-3.3
			c0-1.4,0.6-2.5,1.8-3.4s2.6-1.3,4.4-1.4c1.3,0,2.5,0.2,3.6,0.6s2,0.9,2.7,1.6V232.7z"/>
	</g>
</g>
<g>
	<g>
		<path class="st11" d="M220.7,165.1v-10.9v-2.5v-65c0-5.8-4.7-10.5-10.5-10.5H89.8c-5.8,0-10.5,4.7-10.5,10.5v50.5v12.3v15.6H60.1
			v7.6c0,5.8,4.7,10.5,10.5,10.5h158.8c5.8,0,10.5-4.7,10.5-10.5v-7.6H220.7z M82.7,137.2V86.7c0-3.9,3.2-7.1,7.1-7.1h120.4
			c3.8,0,6.8,2.9,7.1,6.7l0,0v65.4v2.5v10.9H82.7v-15.6V137.2z M236.5,172.7c0,3.9-3.2,7.1-7.1,7.1H70.6c-3.9,0-7.1-3.2-7.1-7.1
			v-4.2h173.1v4.2H236.5z"/>
		<path class="st11" d="M93.5,158.4h113l0,0h3.7v-4.2v-2.5V87.3H93.5l0,0h-3.7v49.9v12.3v8.8L93.5,158.4L93.5,158.4z M93.5,149.5
			v-12.3V90.7h113v60.9v2.5v0.8h-113V149.5z"/>
		<g class="st12">
			<g>
				<path class="st11" d="M100.3,96h5.6v4h-5.6V96z"/>
				<path class="st11" d="M108.8,96h14.1v4h-14.1V96z"/>
				<path class="st11" d="M100.3,103.9h5.6v4h-5.6V103.9z"/>
				<path class="st11" d="M108.8,103.9h14.1v4h-14.1V103.9z"/>
				<path class="st11" d="M100.3,111.8h5.6v4h-5.6V111.8z"/>
				<path class="st11" d="M108.8,111.8h14.1v4h-14.1V111.8z"/>
			</g>
			<g>
				<path class="st11" d="M100.3,124.5h5.6v4h-5.6V124.5z"/>
				<path class="st11" d="M108.8,124.5h14.1v4h-14.1V124.5z"/>
				<path class="st11" d="M100.3,132.5h5.6v4h-5.6V132.5z"/>
				<path class="st11" d="M108.8,132.5h14.1v4h-14.1V132.5z"/>
			</g>
			<g>
				<path class="st11" d="M197.9,120.3c1,0,1.7-0.8,1.7-1.7V97.7c0-1-0.8-1.7-1.7-1.7h-66.3c-1,0-1.7,0.8-1.7,1.7v20.9
					c0,1,0.8,1.7,1.7,1.7C131.6,120.3,197.9,120.3,197.9,120.3z M133.3,99.5h62.9v17.4h-62.9L133.3,99.5L133.3,99.5z"/>
				<path class="st11" d="M164.2,102.9h7v3.5h-7V102.9z"/>
				<path class="st11" d="M174.5,102.9h18.3v3.5h-18.3V102.9z"/>
				<path class="st11" d="M136.5,102.9h24.6v3.5h-24.6V102.9z"/>
				<path class="st11" d="M136.5,109.9h56.2v3.5h-56.2V109.9z"/>
			</g>
			<g>
				<path class="st11" d="M197.9,148.9c1,0,1.7-0.8,1.7-1.7v-20.9c0-1-0.8-1.7-1.7-1.7h-29.5c-1,0-1.7,0.8-1.7,1.7v20.9
					c0,1,0.8,1.7,1.7,1.7H197.9z M170.1,128h26v17.4h-26V128z"/>
				<path class="st11" d="M173.6,131.5h4.8v3.5h-4.8V131.5z"/>
				<path class="st11" d="M181.9,131.5h10.8v3.5h-10.8V131.5z"/>
				<path class="st11" d="M173.6,138.5h19.1v3.5h-19.1V138.5z"/>
			</g>
			<g>
				<path class="st11" d="M161.1,148.9c1,0,1.7-0.8,1.7-1.7v-20.9c0-1-0.8-1.7-1.7-1.7h-29.5c-1,0-1.7,0.8-1.7,1.7v20.9
					c0,1,0.8,1.7,1.7,1.7H161.1z M133.3,128h26v17.4h-26V128z"/>
				<path class="st11" d="M136.8,131.5h4.8v3.5h-4.8V131.5z"/>
				<path class="st11" d="M145.1,131.5h10.8v3.5h-10.8V131.5z"/>
				<path class="st11" d="M136.8,138.5h19.1v3.5h-19.1V138.5z"/>
			</g>
		</g>
	</g>
</g>
</svg>
