<?xml version="1.0" encoding="utf-8"?>
<!-- Generator: Adobe Illustrator 23.0.4, SVG Export Plug-In . SVG Version: 6.00 Build 0)  -->
<svg version="1.1" id="Capa_1" xmlns="http://www.w3.org/2000/svg" xmlns:xlink="http://www.w3.org/1999/xlink" x="0px" y="0px"
	 viewBox="0 0 300 300" style="enable-background:new 0 0 300 300;" xml:space="preserve">
<style type="text/css">
	.st0{display:none;}
	.st1{display:inline;fill:#51C2D1;}
	.st2{display:inline;fill:#133B52;}
	.st3{display:inline;fill:#EE5455;}
	.st4{display:inline;fill:#FACF48;}
	.st5{display:inline;fill:#6AEAB8;}
	.st6{display:inline;fill:#3AA5F7;}
	.st7{display:inline;fill:#F39843;}
	.st8{display:inline;fill:#EF6769;}
	.st9{fill:#8D49DD;}
	.st10{display:inline;fill:#0D427A;}
	.st11{fill:#FFFFFF;}
	.st12{opacity:0.5;}
	.st13{opacity:0.5;fill:#FFFFFF;}
</style>
<g class="st0">
	<path class="st1" d="M253.9,56.8L177,12.3c-16.7-9.7-37.2-9.7-53.9,0L45.8,56.8C29.1,66.6,19,84.3,19,103.5v89.1
		c0,19.1,10.4,36.9,26.8,46.6l77.2,44.5c16.7,9.7,37.2,9.7,53.9,0l77.2-44.5c16.7-9.7,26.8-27.5,26.8-46.6v-89.1
		C281,84.3,270.6,66.2,253.9,56.8z"/>
</g>
<g class="st0">
	<path class="st2" d="M253.9,56.8L177,12.3c-16.7-9.7-37.2-9.7-53.9,0L45.8,56.8C29.1,66.6,19,84.3,19,103.5v89.1
		c0,19.1,10.4,36.9,26.8,46.6l77.2,44.5c16.7,9.7,37.2,9.7,53.9,0l77.2-44.5c16.7-9.7,26.8-27.5,26.8-46.6v-89.1
		C281,84.3,270.6,66.2,253.9,56.8z"/>
</g>
<g id="Capa_3" class="st0">
	<path class="st3" d="M253.9,56.8L177,12.3c-16.7-9.7-37.2-9.7-53.9,0L45.8,56.8C29.1,66.6,19,84.3,19,103.5v89.1
		c0,19.1,10.4,36.9,26.8,46.6l77.2,44.5c16.7,9.7,37.2,9.7,53.9,0l77.2-44.5c16.7-9.7,26.8-27.5,26.8-46.6v-89.1
		C281,84.3,270.6,66.2,253.9,56.8z"/>
</g>
<g id="Capa_4" class="st0">
	<path class="st4" d="M253.9,56.8L177,12.3c-16.7-9.7-37.2-9.7-53.9,0L45.8,56.8C29.1,66.6,19,84.3,19,103.5v89.1
		c0,19.1,10.4,36.9,26.8,46.6l77.2,44.5c16.7,9.7,37.2,9.7,53.9,0l77.2-44.5c16.7-9.7,26.8-27.5,26.8-46.6v-89.1
		C281,84.3,270.6,66.2,253.9,56.8z"/>
</g>
<g id="Capa_5" class="st0">
	<path class="st5" d="M253.9,56.8L177,12.3c-16.7-9.7-37.2-9.7-53.9,0L45.8,56.8C29.1,66.6,19,84.3,19,103.5v89.1
		c0,19.1,10.4,36.9,26.8,46.6l77.2,44.5c16.7,9.7,37.2,9.7,53.9,0l77.2-44.5c16.7-9.7,26.8-27.5,26.8-46.6v-89.1
		C281,84.3,270.6,66.2,253.9,56.8z"/>
</g>
<g id="Capa_6" class="st0">
	<path class="st6" d="M253.9,56.8L177,12.3c-16.7-9.7-37.2-9.7-53.9,0L45.8,56.8C29.1,66.6,19,84.3,19,103.5v89.1
		c0,19.1,10.4,36.9,26.8,46.6l77.2,44.5c16.7,9.7,37.2,9.7,53.9,0l77.2-44.5c16.7-9.7,26.8-27.5,26.8-46.6v-89.1
		C281,84.3,270.6,66.2,253.9,56.8z"/>
</g>
<g id="Capa_7" class="st0">
	<path class="st7" d="M253.9,56.8L177,12.3c-16.7-9.7-37.2-9.7-53.9,0L45.8,56.8C29.1,66.6,19,84.3,19,103.5v89.1
		c0,19.1,10.4,36.9,26.8,46.6l77.2,44.5c16.7,9.7,37.2,9.7,53.9,0l77.2-44.5c16.7-9.7,26.8-27.5,26.8-46.6v-89.1
		C281,84.3,270.6,66.2,253.9,56.8z"/>
</g>
<g id="Capa_8" class="st0">
	<path class="st8" d="M253.9,56.8L177,12.3c-16.7-9.7-37.2-9.7-53.9,0L45.8,56.8C29.1,66.6,19,84.3,19,103.5v89.1
		c0,19.1,10.4,36.9,26.8,46.6l77.2,44.5c16.7,9.7,37.2,9.7,53.9,0l77.2-44.5c16.7-9.7,26.8-27.5,26.8-46.6v-89.1
		C281,84.3,270.6,66.2,253.9,56.8z"/>
</g>
<g id="Capa_9">
	<path class="st9" d="M253.9,58.8L177,14.3c-16.7-9.7-37.2-9.7-53.9,0L45.8,58.8C29.1,68.6,19,86.3,19,105.5v89.1
		c0,19.1,10.4,36.9,26.8,46.6l77.2,44.5c16.7,9.7,37.2,9.7,53.9,0l77.2-44.5c16.7-9.7,26.8-27.5,26.8-46.6v-89.1
		C281,86.3,270.6,68.2,253.9,58.8z"/>
</g>
<g id="Capa_10" class="st0">
	<path class="st10" d="M253.9,56.8L177,12.3c-16.7-9.7-37.2-9.7-53.9,0L45.8,56.8C29.1,66.6,19,84.3,19,103.5v89.1
		c0,19.1,10.4,36.9,26.8,46.6l77.2,44.5c16.7,9.7,37.2,9.7,53.9,0l77.2-44.5c16.7-9.7,26.8-27.5,26.8-46.6v-89.1
		C281,84.3,270.6,66.2,253.9,56.8z"/>
</g>
<g>
	<g>
		<path class="st11" d="M95.9,215.4l1.2-0.2l5.2-14.8h3.5l5.2,14.8l1.2,0.2v2.1h-5.8v-2.1l1.2-0.2l-0.8-2.3h-5.5l-0.8,2.3l1.2,0.2
			v2.1h-5.8V215.4z M102.1,210.3h3.9l-1.9-6H104L102.1,210.3z"/>
		<path class="st11" d="M119.5,200.4v2.1l-1.8,0.4v8.9c0,1.1,0.3,2,0.9,2.5s1.4,0.8,2.5,0.8c1.1,0,1.9-0.3,2.5-0.8s0.9-1.4,0.9-2.5
			v-8.9l-1.8-0.4v-2.1h7.1v2.1l-1.8,0.4v8.9c0,1.9-0.6,3.4-1.9,4.4s-2.9,1.6-5,1.6c-2,0-3.7-0.5-4.9-1.6s-1.9-2.5-1.9-4.4v-8.9
			l-1.8-0.4v-2.1h1.8h3.4H119.5z"/>
		<path class="st11" d="M145.8,200.4v4.5h-2.6L143,203h-3.1v12l1.8,0.4v2.1h-7.1v-2.1l1.8-0.4v-12h-3.1l-0.1,1.9h-2.6v-4.5H145.8z"
			/>
		<path class="st11" d="M162.1,209.1c0,2.5-0.7,4.6-2.1,6.2s-3.3,2.4-5.6,2.4c-2.3,0-4.2-0.8-5.6-2.4s-2.1-3.7-2.1-6.2v-0.3
			c0-2.5,0.7-4.5,2.1-6.2s3.3-2.5,5.6-2.5c2.3,0,4.2,0.8,5.6,2.5s2.2,3.7,2.2,6.2V209.1z M158.7,208.8c0-1.8-0.4-3.2-1.1-4.3
			s-1.8-1.7-3.3-1.7s-2.5,0.5-3.2,1.6s-1.1,2.5-1.1,4.3v0.3c0,1.8,0.4,3.2,1.1,4.3s1.8,1.6,3.2,1.6c1.4,0,2.5-0.5,3.3-1.6
			s1.1-2.5,1.1-4.3V208.8z"/>
		<path class="st11" d="M163.5,215.4l1.8-0.4v-12.2l-1.8-0.4v-2.1h13.6v4.7h-2.6l-0.2-2h-5.6v4.7h6v2.6h-6v4.7l1.8,0.4v2.1h-7.1
			V215.4z"/>
		<path class="st11" d="M178.3,202.5v-2.1h7.1v2.1l-1.8,0.4v12.2l1.8,0.4v2.1h-7.1v-2.1l1.8-0.4v-12.2L178.3,202.5z"/>
		<path class="st11" d="M204.1,200.4v2.1l-1.8,0.4v14.6h-3.4L192,206l-0.1,0v9.1l1.8,0.4v2.1h-7.1v-2.1l1.8-0.4v-12.2l-1.8-0.4v-2.1
			h1.8h3.4l6.9,11.5l0.1,0v-9.1l-1.8-0.4v-2.1h5.2H204.1z"/>
		<path class="st11" d="M110.9,231.6L110.9,231.6l-4.6,12.6H104l-4.5-12.6l-0.1,0l0.3,7.5v2.7l1.8,0.4v2.1h-7.1v-2.1l1.8-0.4v-12.2
			l-1.8-0.4v-2.1h1.8h4.5l4.3,12.6h0.1l4.4-12.6h6.3v2.1l-1.8,0.4v12.2l1.8,0.4v2.1h-7.1v-2.1l1.8-0.4v-2.7L110.9,231.6z"/>
		<path class="st11" d="M128.1,236.8h-5.8v4.9h5.5l0.2-2h2.6v4.7h-13.5v-2.1l1.8-0.4v-12.2l-1.8-0.4v-2.1h1.8h11.7v4.7h-2.6l-0.2-2
			h-5.5v4.3h5.8V236.8z"/>
		<path class="st11" d="M143.4,236.8h-5.8v4.9h5.5l0.2-2h2.6v4.7h-13.5v-2.1l1.8-0.4v-12.2l-1.8-0.4v-2.1h1.8h11.7v4.7h-2.6l-0.2-2
			h-5.5v4.3h5.8V236.8z"/>
		<path class="st11" d="M163,227.2v4.5h-2.6l-0.1-1.9h-3.1v12l1.8,0.4v2.1h-7.1v-2.1l1.8-0.4v-12h-3.1l-0.1,1.9h-2.6v-4.5H163z"/>
		<path class="st11" d="M164.1,229.3v-2.1h7.1v2.1l-1.8,0.4v12.2l1.8,0.4v2.1h-7.1v-2.1l1.8-0.4v-12.2L164.1,229.3z"/>
		<path class="st11" d="M189.9,227.2v2.1l-1.8,0.4v14.6h-3.4l-6.9-11.5l-0.1,0v9.1l1.8,0.4v2.1h-7.1v-2.1l1.8-0.4v-12.2l-1.8-0.4
			v-2.1h1.8h3.4l6.9,11.5l0.1,0v-9.1l-1.8-0.4v-2.1h5.2H189.9z"/>
		<path class="st11" d="M205.1,242.4c-0.6,0.5-1.4,1-2.4,1.5s-2.4,0.7-4,0.7c-2.3,0-4.2-0.8-5.6-2.3s-2.2-3.5-2.2-6v-0.6
			c0-2.6,0.7-4.6,2.1-6.2s3.3-2.4,5.6-2.4c1.3,0,2.6,0.2,3.7,0.6s2,1,2.8,1.7v3.4h-2.5l-0.5-2.3c-0.3-0.3-0.7-0.5-1.2-0.6
			s-1.1-0.2-1.8-0.2c-1.5,0-2.7,0.6-3.5,1.7s-1.2,2.5-1.2,4.3v0.6c0,1.7,0.4,3.1,1.2,4.2s2,1.6,3.5,1.6c0.7,0,1.2-0.1,1.7-0.2
			s0.8-0.3,1-0.4v-2.9l-2.4-0.2v-2.4h5.9V242.4z"/>
	</g>
</g>
<g>
	<g>
		<path class="st11" d="M220.7,165.1v-10.9v-2.5v-65c0-5.8-4.7-10.5-10.5-10.5H89.8c-5.8,0-10.5,4.7-10.5,10.5v50.5v12.3v15.6H60.1
			v7.6c0,5.8,4.7,10.5,10.5,10.5h158.8c5.8,0,10.5-4.7,10.5-10.5v-7.6H220.7z M82.7,137.2V86.7c0-3.9,3.2-7.1,7.1-7.1h120.4
			c3.8,0,6.8,2.9,7.1,6.7l0,0v65.4v2.5v10.9H82.7v-15.6V137.2z M236.5,172.7c0,3.9-3.2,7.1-7.1,7.1H70.6c-3.9,0-7.1-3.2-7.1-7.1
			v-4.2h173.1v4.2H236.5z"/>
		<path class="st11" d="M93.5,158.4h113l0,0h3.7v-4.2v-2.5V87.3H93.5l0,0h-3.7v49.9v12.3v8.8L93.5,158.4L93.5,158.4z M93.5,149.5
			v-12.3V90.7h113v60.9v2.5v0.8h-113V149.5z"/>
		<g class="st12">
			<g>
				<path class="st11" d="M195.9,96h5.6v4h-5.6V96z"/>
				<path class="st11" d="M195.9,103.9h5.6v4h-5.6V103.9z"/>
				<path class="st11" d="M195.9,111.8h5.6v4h-5.6V111.8z"/>
			</g>
			<g>
				<path class="st11" d="M195.9,124.5h5.6v4h-5.6V124.5z"/>
				<path class="st11" d="M195.9,132.5h5.6v4h-5.6V132.5z"/>
			</g>
		</g>
	</g>
</g>
<path class="st13" d="M129.4,146.5c0,1.2,0.9,2.1,2.1,2.1h37.1c1.2,0,2.1-0.9,2.1-2.1v-3.7c0-7.5-4.1-14.5-10.6-18.2l-1.8-1l1.4-1.5
	c2.3-2.5,3.6-5.7,3.6-9.1c0-3.5-1.4-6.9-3.8-9.4c-2.5-2.6-5.8-4-9.3-4c-7.3,0-13.4,6.1-13.4,13.4c0,3.4,1.3,6.6,3.8,9.1l1.5,1.5
	l-1.8,1c-6.6,3.7-10.8,10.7-10.8,18.1V146.5z M140.9,113.2c0-4.9,4.3-9.2,9.2-9.2c4.9,0,9,4.2,9,9.2c0,4.9-4,9-9,9
	C145.1,122.1,140.9,118,140.9,113.2z M133.6,142.8c0-9,7.6-16.6,16.6-16.6c9,0,16.3,7.4,16.3,16.6v1.6h-32.9V142.8z"/>
</svg>
