<?xml version="1.0" encoding="utf-8"?>
<!-- Generator: Adobe Illustrator 24.0.0, SVG Export Plug-In . SVG Version: 6.00 Build 0)  -->
<svg version="1.1" id="Capa_1" xmlns="http://www.w3.org/2000/svg" xmlns:xlink="http://www.w3.org/1999/xlink" x="0px" y="0px"
	 viewBox="0 0 300 300" style="enable-background:new 0 0 300 300;" xml:space="preserve">
<style type="text/css">
	.st0{display:none;}
	.st1{display:inline;fill:#51C2D1;}
	.st2{display:inline;fill:#133B52;}
	.st3{display:inline;fill:#EE5455;}
	.st4{display:inline;fill:#FACF48;}
	.st5{display:inline;fill:#6AEAB8;}
	.st6{display:inline;fill:#3AA5F7;}
	.st7{fill:#255CA5;}
	.st8{display:inline;fill:#EF6769;}
	.st9{display:inline;fill:#8D49DD;}
	.st10{display:inline;fill:#0D427A;}
	.st11{fill:#FFFFFF;}
	.st12{opacity:0.5;}
	.st13{enable-background:new    ;}
</style>
<g class="st0">
	<path class="st1" d="M253.9,56.8L177,12.3c-16.7-9.7-37.2-9.7-53.9,0L45.8,56.8C29.1,66.6,19,84.3,19,103.5v89.1
		c0,19.1,10.4,36.9,26.8,46.6l77.2,44.5c16.7,9.7,37.2,9.7,53.9,0l77.2-44.5c16.7-9.7,26.8-27.5,26.8-46.6v-89.1
		C281,84.3,270.6,66.2,253.9,56.8z"/>
</g>
<g class="st0">
	<path class="st2" d="M253.9,56.8L177,12.3c-16.7-9.7-37.2-9.7-53.9,0L45.8,56.8C29.1,66.6,19,84.3,19,103.5v89.1
		c0,19.1,10.4,36.9,26.8,46.6l77.2,44.5c16.7,9.7,37.2,9.7,53.9,0l77.2-44.5c16.7-9.7,26.8-27.5,26.8-46.6v-89.1
		C281,84.3,270.6,66.2,253.9,56.8z"/>
</g>
<g id="Capa_3" class="st0">
	<path class="st3" d="M253.9,56.8L177,12.3c-16.7-9.7-37.2-9.7-53.9,0L45.8,56.8C29.1,66.6,19,84.3,19,103.5v89.1
		c0,19.1,10.4,36.9,26.8,46.6l77.2,44.5c16.7,9.7,37.2,9.7,53.9,0l77.2-44.5c16.7-9.7,26.8-27.5,26.8-46.6v-89.1
		C281,84.3,270.6,66.2,253.9,56.8z"/>
</g>
<g id="Capa_4" class="st0">
	<path class="st4" d="M253.9,56.8L177,12.3c-16.7-9.7-37.2-9.7-53.9,0L45.8,56.8C29.1,66.6,19,84.3,19,103.5v89.1
		c0,19.1,10.4,36.9,26.8,46.6l77.2,44.5c16.7,9.7,37.2,9.7,53.9,0l77.2-44.5c16.7-9.7,26.8-27.5,26.8-46.6v-89.1
		C281,84.3,270.6,66.2,253.9,56.8z"/>
</g>
<g id="Capa_5" class="st0">
	<path class="st5" d="M253.9,56.8L177,12.3c-16.7-9.7-37.2-9.7-53.9,0L45.8,56.8C29.1,66.6,19,84.3,19,103.5v89.1
		c0,19.1,10.4,36.9,26.8,46.6l77.2,44.5c16.7,9.7,37.2,9.7,53.9,0l77.2-44.5c16.7-9.7,26.8-27.5,26.8-46.6v-89.1
		C281,84.3,270.6,66.2,253.9,56.8z"/>
</g>
<g id="Capa_6" class="st0">
	<path class="st6" d="M253.9,56.8L177,12.3c-16.7-9.7-37.2-9.7-53.9,0L45.8,56.8C29.1,66.6,19,84.3,19,103.5v89.1
		c0,19.1,10.4,36.9,26.8,46.6l77.2,44.5c16.7,9.7,37.2,9.7,53.9,0l77.2-44.5c16.7-9.7,26.8-27.5,26.8-46.6v-89.1
		C281,84.3,270.6,66.2,253.9,56.8z"/>
</g>
<g id="Capa_7">
	<path class="st7" d="M253.9,58.8L177,14.3c-16.7-9.7-37.2-9.7-53.9,0L45.8,58.8C29.1,68.6,19,86.3,19,105.5v89.1
		c0,19.1,10.4,36.9,26.8,46.6l77.2,44.5c16.7,9.7,37.2,9.7,53.9,0l77.2-44.5c16.7-9.7,26.8-27.5,26.8-46.6v-89.1
		C281,86.3,270.6,68.2,253.9,58.8z"/>
</g>
<g id="Capa_8" class="st0">
	<path class="st8" d="M253.9,56.8L177,12.3c-16.7-9.7-37.2-9.7-53.9,0L45.8,56.8C29.1,66.6,19,84.3,19,103.5v89.1
		c0,19.1,10.4,36.9,26.8,46.6l77.2,44.5c16.7,9.7,37.2,9.7,53.9,0l77.2-44.5c16.7-9.7,26.8-27.5,26.8-46.6v-89.1
		C281,84.3,270.6,66.2,253.9,56.8z"/>
</g>
<g id="Capa_9" class="st0">
	<path class="st9" d="M253.9,56.8L177,12.3c-16.7-9.7-37.2-9.7-53.9,0L45.8,56.8C29.1,66.6,19,84.3,19,103.5v89.1
		c0,19.1,10.4,36.9,26.8,46.6l77.2,44.5c16.7,9.7,37.2,9.7,53.9,0l77.2-44.5c16.7-9.7,26.8-27.5,26.8-46.6v-89.1
		C281,84.3,270.6,66.2,253.9,56.8z"/>
</g>
<g id="Capa_10" class="st0">
	<path class="st10" d="M253.9,56.8L177,12.3c-16.7-9.7-37.2-9.7-53.9,0L45.8,56.8C29.1,66.6,19,84.3,19,103.5v89.1
		c0,19.1,10.4,36.9,26.8,46.6l77.2,44.5c16.7,9.7,37.2,9.7,53.9,0l77.2-44.5c16.7-9.7,26.8-27.5,26.8-46.6v-89.1
		C281,84.3,270.6,66.2,253.9,56.8z"/>
</g>
<g>
	<g>
		<path class="st11" d="M220.7,165.1v-10.9v-2.5v-65c0-5.8-4.7-10.5-10.5-10.5H89.8c-5.8,0-10.5,4.7-10.5,10.5v50.5v12.3v15.6H60.1
			v7.6c0,5.8,4.7,10.5,10.5,10.5h158.8c5.8,0,10.5-4.7,10.5-10.5v-7.6L220.7,165.1L220.7,165.1z M82.7,137.2V86.7
			c0-3.9,3.2-7.1,7.1-7.1h120.4c3.8,0,6.8,2.9,7.1,6.7l0,0v65.4v2.5v10.9H82.7v-15.6V137.2z M236.5,172.7c0,3.9-3.2,7.1-7.1,7.1
			H70.6c-3.9,0-7.1-3.2-7.1-7.1v-4.2h173.1v4.2H236.5z"/>
		<path class="st11" d="M93.5,158.4h113l0,0h3.7v-4.2v-2.5V87.3H93.5l0,0h-3.7v49.9v12.3v8.8L93.5,158.4L93.5,158.4z M93.5,149.5
			v-12.3V90.7h113v60.9v2.5v0.8h-113V149.5z"/>
		<g class="st12">
			<g>
				<path class="st11" d="M100.3,96h5.6v4h-5.6V96z"/>
				<path class="st11" d="M108.8,96h14.1v4h-14.1V96z"/>
				<path class="st11" d="M100.3,103.9h5.6v4h-5.6V103.9z"/>
				<path class="st11" d="M108.8,103.9h14.1v4h-14.1V103.9z"/>
				<path class="st11" d="M100.3,111.8h5.6v4h-5.6V111.8z"/>
				<path class="st11" d="M108.8,111.8h14.1v4h-14.1V111.8z"/>
			</g>
			<g>
				<path class="st11" d="M100.3,124.5h5.6v4h-5.6V124.5z"/>
				<path class="st11" d="M108.8,124.5h14.1v4h-14.1V124.5z"/>
				<path class="st11" d="M100.3,132.5h5.6v4h-5.6V132.5z"/>
				<path class="st11" d="M108.8,132.5h14.1v4h-14.1V132.5z"/>
			</g>
			<g>
				<path class="st11" d="M197.9,120.3c1,0,1.7-0.8,1.7-1.7V97.7c0-1-0.8-1.7-1.7-1.7h-66.3c-1,0-1.7,0.8-1.7,1.7v20.9
					c0,1,0.8,1.7,1.7,1.7C131.6,120.3,197.9,120.3,197.9,120.3z M133.3,99.5h62.9v17.4h-62.9L133.3,99.5L133.3,99.5z"/>
				<path class="st11" d="M164.2,102.9h7v3.5h-7V102.9z"/>
				<path class="st11" d="M174.5,102.9h18.3v3.5h-18.3V102.9z"/>
				<path class="st11" d="M136.5,102.9h24.6v3.5h-24.6V102.9z"/>
				<path class="st11" d="M136.5,109.9h56.2v3.5h-56.2V109.9z"/>
			</g>
			<g>
				<path class="st11" d="M197.9,148.9c1,0,1.7-0.8,1.7-1.7v-20.9c0-1-0.8-1.7-1.7-1.7h-29.5c-1,0-1.7,0.8-1.7,1.7v20.9
					c0,1,0.8,1.7,1.7,1.7H197.9z M170.1,128h26v17.4h-26V128z"/>
				<path class="st11" d="M173.6,131.5h4.8v3.5h-4.8V131.5z"/>
				<path class="st11" d="M181.9,131.5h10.8v3.5h-10.8V131.5z"/>
				<path class="st11" d="M173.6,138.5h19.1v3.5h-19.1V138.5z"/>
			</g>
			<g>
				<path class="st11" d="M161.1,148.9c1,0,1.7-0.8,1.7-1.7v-20.9c0-1-0.8-1.7-1.7-1.7h-29.5c-1,0-1.7,0.8-1.7,1.7v20.9
					c0,1,0.8,1.7,1.7,1.7H161.1z M133.3,128h26v17.4h-26V128z"/>
				<path class="st11" d="M136.8,131.5h4.8v3.5h-4.8V131.5z"/>
				<path class="st11" d="M145.1,131.5h10.8v3.5h-10.8V131.5z"/>
				<path class="st11" d="M136.8,138.5h19.1v3.5h-19.1V138.5z"/>
			</g>
		</g>
	</g>
</g>
<g>
	<g class="st13">
		<path class="st11" d="M122.8,200.4c1.6,0,2.8,0.3,3.7,0.9s1.3,1.5,1.3,2.7c0,0.6-0.2,1.2-0.5,1.7c-0.3,0.5-0.8,0.8-1.4,1.1
			c0.8,0.2,1.4,0.5,1.8,1.1c0.4,0.6,0.6,1.2,0.6,1.9c0,1.3-0.4,2.2-1.3,2.9c-0.8,0.7-2,1-3.6,1h-6.6v-1.6l1.4-0.3v-9.6l-1.4-0.3
			v-1.6h1.4H122.8z M120.9,206h1.9c0.7,0,1.3-0.1,1.6-0.4c0.4-0.3,0.6-0.7,0.6-1.3c0-0.6-0.2-1.1-0.6-1.4c-0.4-0.3-1-0.4-1.7-0.4
			h-1.8V206z M120.9,207.8v3.8h2.5c0.7,0,1.2-0.2,1.6-0.5c0.4-0.3,0.6-0.8,0.6-1.4c0-0.7-0.2-1.2-0.5-1.5c-0.3-0.3-0.8-0.5-1.5-0.5
			H120.9z"/>
		<path class="st11" d="M129.2,212.1l1.4-0.3v-9.6l-1.4-0.3v-1.6h5.4v1.6l-1.4,0.3v3.6h1.2l2.6-3.7l-0.8-0.1v-1.6h5.3v1.6l-1.4,0.2
			l-3.3,4.4l3.7,5.3l1.3,0.2v1.6h-5.3v-1.6l0.8-0.1l-2.6-3.9h-1.5v3.7l1.4,0.3v1.6h-5.4V212.1z"/>
		<path class="st11" d="M157.3,204.6h-2l-0.3-1.8c-0.2-0.1-0.6-0.3-1-0.4c-0.4-0.1-0.9-0.2-1.4-0.2c-0.7,0-1.3,0.2-1.7,0.5
			c-0.4,0.3-0.6,0.7-0.6,1.2c0,0.5,0.2,0.8,0.6,1.1c0.4,0.3,1.1,0.6,2.2,0.9c1.5,0.4,2.6,0.9,3.3,1.6c0.8,0.7,1.1,1.6,1.1,2.6
			c0,1.1-0.5,2-1.4,2.7c-0.9,0.7-2.1,1-3.6,1c-1.1,0-2-0.2-2.9-0.5c-0.9-0.3-1.6-0.8-2.1-1.4v-2.8h2.1l0.3,1.9
			c0.3,0.2,0.6,0.4,1.1,0.5c0.5,0.1,1,0.2,1.5,0.2c0.7,0,1.3-0.1,1.7-0.4c0.4-0.3,0.6-0.7,0.6-1.2c0-0.5-0.2-0.9-0.5-1.2
			c-0.4-0.3-1-0.6-1.9-0.9c-1.6-0.5-2.8-1-3.6-1.6c-0.8-0.6-1.2-1.5-1.2-2.6c0-1.1,0.5-2,1.4-2.6c0.9-0.7,2.1-1,3.5-1.1
			c1,0,2,0.2,2.8,0.5c0.8,0.3,1.5,0.7,2.1,1.2V204.6z"/>
		<path class="st11" d="M164.9,200.4c1.5,0,2.7,0.4,3.6,1.2c0.9,0.8,1.3,1.8,1.3,3.1c0,1.3-0.4,2.3-1.3,3.1
			c-0.9,0.8-2.1,1.2-3.6,1.2h-2.3v3l1.4,0.3v1.6h-5.5v-1.6l1.4-0.3v-9.6l-1.4-0.3v-1.6h1.4H164.9z M162.7,206.8h2.3
			c0.7,0,1.3-0.2,1.7-0.6c0.4-0.4,0.6-0.9,0.6-1.6c0-0.6-0.2-1.2-0.6-1.6s-0.9-0.6-1.7-0.6h-2.3V206.8z"/>
		<path class="st11" d="M168.4,212.1l1-0.1l4.1-11.6h2.7l4,11.6l1,0.1v1.6h-4.5v-1.6l0.9-0.2l-0.6-1.8h-4.3l-0.6,1.8l0.9,0.2v1.6
			h-4.5V212.1z M173.3,208.1h3.1l-1.5-4.7h-0.1L173.3,208.1z"/>
	</g>
	<g class="st13">
		<path class="st11" d="M72.8,234.6l1-0.1l4.1-11.6h2.7l4,11.6l1,0.1v1.6H81v-1.6l0.9-0.2l-0.6-1.8H77l-0.6,1.8l0.9,0.2v1.6h-4.5
			V234.6z M77.6,230.6h3.1l-1.5-4.7h-0.1L77.6,230.6z"/>
		<path class="st11" d="M96.9,234.7c-0.4,0.4-1.1,0.8-1.9,1.2c-0.8,0.3-1.9,0.5-3.1,0.5c-1.8,0-3.3-0.6-4.4-1.8
			c-1.1-1.2-1.7-2.8-1.7-4.7v-0.5c0-2,0.6-3.6,1.7-4.9c1.1-1.3,2.6-1.9,4.4-1.9c1,0,2,0.2,2.9,0.5c0.9,0.3,1.6,0.8,2.2,1.3v2.7h-2
			l-0.4-1.8c-0.2-0.2-0.6-0.4-1-0.5c-0.4-0.1-0.9-0.2-1.4-0.2c-1.2,0-2.1,0.4-2.7,1.3c-0.6,0.9-1,2-1,3.4v0.5c0,1.4,0.3,2.4,1,3.2
			c0.6,0.8,1.5,1.2,2.7,1.2c0.5,0,1,0,1.3-0.1s0.6-0.2,0.8-0.3v-2.3l-1.9-0.1v-1.9h4.6V234.7z"/>
		<path class="st11" d="M106.8,230.3h-4.5v3.8h4.3l0.1-1.6h2v3.6H98.2v-1.6l1.4-0.3v-9.6l-1.4-0.3v-1.6h1.4h9.1v3.7h-2.1l-0.1-1.6
			h-4.3v3.3h4.5V230.3z"/>
		<path class="st11" d="M123.8,222.9v1.6l-1.4,0.3v11.4h-2.7l-5.4-9l-0.1,0v7.1l1.4,0.3v1.6h-5.5v-1.6l1.4-0.3v-9.6l-1.4-0.3v-1.6
			h1.4h2.7l5.4,9l0.1,0v-7.1l-1.4-0.3v-1.6h4.1H123.8z"/>
		<path class="st11" d="M130.7,222.9c1.6,0,3,0.5,4,1.6c1.1,1,1.6,2.4,1.6,4v2.2c0,1.6-0.5,3-1.6,4s-2.4,1.6-4,1.6h-6v-1.6l1.4-0.3
			v-9.6l-1.4-0.3v-1.6h1.4H130.7z M128.8,224.9v9.2h1.8c1,0,1.7-0.3,2.3-1c0.5-0.6,0.8-1.5,0.8-2.5v-2.2c0-1-0.3-1.9-0.8-2.5
			c-0.5-0.6-1.3-1-2.3-1H128.8z"/>
		<path class="st11" d="M136.9,234.6l1-0.1l4.1-11.6h2.7l4,11.6l1,0.1v1.6h-4.5v-1.6l0.9-0.2l-0.6-1.8h-4.3l-0.6,1.8l0.9,0.2v1.6
			h-4.5V234.6z M141.7,230.6h3.1l-1.5-4.7h-0.1L141.7,230.6z"/>
		<path class="st11" d="M163.4,226.3L163.4,226.3l-3.6,9.9H158l-3.6-9.8l-0.1,0l0.3,5.8v2.1l1.4,0.3v1.6h-5.5v-1.6l1.4-0.3v-9.6
			l-1.4-0.3v-1.6h1.4h3.5l3.4,9.8h0.1l3.4-9.8h4.9v1.6l-1.4,0.3v9.6l1.4,0.3v1.6h-5.5v-1.6l1.4-0.3v-2.1L163.4,226.3z"/>
		<path class="st11" d="M168.2,224.5v-1.6h5.5v1.6l-1.4,0.3v9.6l1.4,0.3v1.6h-5.5v-1.6l1.4-0.3v-9.6L168.2,224.5z"/>
		<path class="st11" d="M183.3,230.3h-4.5v3.8h4.3l0.1-1.6h2v3.6h-10.5v-1.6l1.4-0.3v-9.6l-1.4-0.3v-1.6h1.4h9.1v3.7h-2.1l-0.1-1.6
			h-4.3v3.3h4.5V230.3z"/>
		<path class="st11" d="M200.3,222.9v1.6l-1.4,0.3v11.4h-2.7l-5.4-9l-0.1,0v7.1l1.4,0.3v1.6h-5.5v-1.6l1.4-0.3v-9.6l-1.4-0.3v-1.6
			h1.4h2.7l5.4,9l0.1,0v-7.1l-1.4-0.3v-1.6h4.1H200.3z"/>
		<path class="st11" d="M212.9,222.9v3.6h-2.1l-0.1-1.5h-2.5v9.4l1.4,0.3v1.6h-5.5v-1.6l1.4-0.3v-9.4h-2.4l-0.1,1.5h-2v-3.6H212.9z"
			/>
		<path class="st11" d="M225.7,229.6c0,2-0.6,3.6-1.7,4.8c-1.1,1.3-2.6,1.9-4.4,1.9c-1.8,0-3.3-0.6-4.4-1.9s-1.7-2.9-1.7-4.8v-0.2
			c0-1.9,0.6-3.6,1.7-4.8s2.6-1.9,4.4-1.9c1.8,0,3.3,0.6,4.4,1.9c1.1,1.3,1.7,2.9,1.7,4.8V229.6z M223,229.4c0-1.4-0.3-2.5-0.9-3.4
			c-0.6-0.9-1.4-1.3-2.5-1.3c-1.1,0-2,0.4-2.5,1.3c-0.6,0.9-0.8,2-0.8,3.4v0.2c0,1.4,0.3,2.5,0.8,3.4c0.6,0.9,1.4,1.3,2.5,1.3
			c1.1,0,2-0.4,2.5-1.3s0.9-2,0.9-3.4V229.4z"/>
	</g>
</g>
</svg>
