<?xml version="1.0" encoding="utf-8"?>
<!-- Generator: Adobe Illustrator 23.0.4, SVG Export Plug-In . SVG Version: 6.00 Build 0)  -->
<svg version="1.1" id="Capa_1" xmlns="http://www.w3.org/2000/svg" xmlns:xlink="http://www.w3.org/1999/xlink" x="0px" y="0px"
	 viewBox="0 0 300 300" style="enable-background:new 0 0 300 300;" xml:space="preserve">
<style type="text/css">
	.st0{display:none;}
	.st1{display:inline;fill:#51C2D1;}
	.st2{display:inline;fill:#133B52;}
	.st3{display:inline;fill:#EE5455;}
	.st4{display:inline;fill:#FACF48;}
	.st5{fill:#6AEAB8;}
	.st6{display:inline;fill:#3AA5F7;}
	.st7{display:inline;fill:#F39843;}
	.st8{display:inline;fill:#EF6769;}
	.st9{display:inline;fill:#8D49DD;}
	.st10{display:inline;fill:#0D427A;}
	.st11{fill:#FFFFFF;}
	.st12{opacity:0.5;}
</style>
<g class="st0">
	<path class="st1" d="M253.9,56.8L177,12.3c-16.7-9.7-37.2-9.7-53.9,0L45.8,56.8C29.1,66.6,19,84.3,19,103.5v89.1
		c0,19.1,10.4,36.9,26.8,46.6l77.2,44.5c16.7,9.7,37.2,9.7,53.9,0l77.2-44.5c16.7-9.7,26.8-27.5,26.8-46.6v-89.1
		C281,84.3,270.6,66.2,253.9,56.8z"/>
</g>
<g class="st0">
	<path class="st2" d="M253.9,56.8L177,12.3c-16.7-9.7-37.2-9.7-53.9,0L45.8,56.8C29.1,66.6,19,84.3,19,103.5v89.1
		c0,19.1,10.4,36.9,26.8,46.6l77.2,44.5c16.7,9.7,37.2,9.7,53.9,0l77.2-44.5c16.7-9.7,26.8-27.5,26.8-46.6v-89.1
		C281,84.3,270.6,66.2,253.9,56.8z"/>
</g>
<g id="Capa_3" class="st0">
	<path class="st3" d="M253.9,56.8L177,12.3c-16.7-9.7-37.2-9.7-53.9,0L45.8,56.8C29.1,66.6,19,84.3,19,103.5v89.1
		c0,19.1,10.4,36.9,26.8,46.6l77.2,44.5c16.7,9.7,37.2,9.7,53.9,0l77.2-44.5c16.7-9.7,26.8-27.5,26.8-46.6v-89.1
		C281,84.3,270.6,66.2,253.9,56.8z"/>
</g>
<g id="Capa_4" class="st0">
	<path class="st4" d="M253.9,56.8L177,12.3c-16.7-9.7-37.2-9.7-53.9,0L45.8,56.8C29.1,66.6,19,84.3,19,103.5v89.1
		c0,19.1,10.4,36.9,26.8,46.6l77.2,44.5c16.7,9.7,37.2,9.7,53.9,0l77.2-44.5c16.7-9.7,26.8-27.5,26.8-46.6v-89.1
		C281,84.3,270.6,66.2,253.9,56.8z"/>
</g>
<g id="Capa_5">
	<path class="st5" d="M253.9,58.8L177,14.3c-16.7-9.7-37.2-9.7-53.9,0L45.8,58.8C29.1,68.6,19,86.3,19,105.5v89.1
		c0,19.1,10.4,36.9,26.8,46.6l77.2,44.5c16.7,9.7,37.2,9.7,53.9,0l77.2-44.5c16.7-9.7,26.8-27.5,26.8-46.6v-89.1
		C281,86.3,270.6,68.2,253.9,58.8z"/>
</g>
<g id="Capa_6" class="st0">
	<path class="st6" d="M253.9,56.8L177,12.3c-16.7-9.7-37.2-9.7-53.9,0L45.8,56.8C29.1,66.6,19,84.3,19,103.5v89.1
		c0,19.1,10.4,36.9,26.8,46.6l77.2,44.5c16.7,9.7,37.2,9.7,53.9,0l77.2-44.5c16.7-9.7,26.8-27.5,26.8-46.6v-89.1
		C281,84.3,270.6,66.2,253.9,56.8z"/>
</g>
<g id="Capa_7" class="st0">
	<path class="st7" d="M253.9,56.8L177,12.3c-16.7-9.7-37.2-9.7-53.9,0L45.8,56.8C29.1,66.6,19,84.3,19,103.5v89.1
		c0,19.1,10.4,36.9,26.8,46.6l77.2,44.5c16.7,9.7,37.2,9.7,53.9,0l77.2-44.5c16.7-9.7,26.8-27.5,26.8-46.6v-89.1
		C281,84.3,270.6,66.2,253.9,56.8z"/>
</g>
<g id="Capa_8" class="st0">
	<path class="st8" d="M253.9,56.8L177,12.3c-16.7-9.7-37.2-9.7-53.9,0L45.8,56.8C29.1,66.6,19,84.3,19,103.5v89.1
		c0,19.1,10.4,36.9,26.8,46.6l77.2,44.5c16.7,9.7,37.2,9.7,53.9,0l77.2-44.5c16.7-9.7,26.8-27.5,26.8-46.6v-89.1
		C281,84.3,270.6,66.2,253.9,56.8z"/>
</g>
<g id="Capa_9" class="st0">
	<path class="st9" d="M253.9,56.8L177,12.3c-16.7-9.7-37.2-9.7-53.9,0L45.8,56.8C29.1,66.6,19,84.3,19,103.5v89.1
		c0,19.1,10.4,36.9,26.8,46.6l77.2,44.5c16.7,9.7,37.2,9.7,53.9,0l77.2-44.5c16.7-9.7,26.8-27.5,26.8-46.6v-89.1
		C281,84.3,270.6,66.2,253.9,56.8z"/>
</g>
<g id="Capa_10" class="st0">
	<path class="st10" d="M253.9,56.8L177,12.3c-16.7-9.7-37.2-9.7-53.9,0L45.8,56.8C29.1,66.6,19,84.3,19,103.5v89.1
		c0,19.1,10.4,36.9,26.8,46.6l77.2,44.5c16.7,9.7,37.2,9.7,53.9,0l77.2-44.5c16.7-9.7,26.8-27.5,26.8-46.6v-89.1
		C281,84.3,270.6,66.2,253.9,56.8z"/>
</g>
<g>
	<g>
		<path class="st11" d="M93.9,204.8L93.9,204.8l-4.6,12.6H87l-4.5-12.6l-0.1,0l0.3,7.5v2.7l1.8,0.4v2.1h-7.1v-2.1l1.8-0.4v-12.2
			l-1.8-0.4v-2.1h1.8h4.5l4.3,12.6h0.1l4.4-12.6h6.3v2.1l-1.8,0.4v12.2l1.8,0.4v2.1h-7.1v-2.1l1.8-0.4v-2.7L93.9,204.8z"/>
		<path class="st11" d="M99.9,215.4l1.2-0.2l5.2-14.8h3.5l5.2,14.8l1.2,0.2v2.1h-5.8v-2.1l1.2-0.2l-0.8-2.3h-5.5l-0.8,2.3l1.2,0.2
			v2.1h-5.8V215.4z M106.1,210.3h3.9l-1.9-6H108L106.1,210.3z"/>
		<path class="st11" d="M117.3,217.5v-2.1l1.8-0.4v-12.2l-1.8-0.4v-2.1h1.8h3.4h1.8v2.1l-1.8,0.4v12h4.8l0.2-2.1h2.6v4.8H117.3z"/>
		<path class="st11" d="M131.4,217.5v-2.1l1.8-0.4v-12.2l-1.8-0.4v-2.1h1.8h3.4h1.8v2.1l-1.8,0.4v12h4.8l0.2-2.1h2.6v4.8H131.4z"/>
		<path class="st11" d="M153.5,200.4c2,0,3.5,0.5,4.6,1.5s1.7,2.3,1.7,3.9c0,1.6-0.6,2.9-1.7,3.9s-2.7,1.5-4.6,1.5h-2.9v3.8l1.8,0.4
			v2.1h-7.1v-2.1l1.8-0.4v-12.2l-1.8-0.4v-2.1h1.8H153.5z M150.7,208.6h2.9c1,0,1.7-0.3,2.2-0.8s0.7-1.2,0.7-2c0-0.8-0.2-1.5-0.7-2
			s-1.2-0.8-2.2-0.8h-2.9V208.6z"/>
		<path class="st11" d="M161,217.5v-2.1l1.8-0.4v-12.2l-1.8-0.4v-2.1h1.8h3.4h1.8v2.1l-1.8,0.4v12h4.8l0.2-2.1h2.6v4.8H161z"/>
		<path class="st11" d="M174.8,215.4l1.2-0.2l5.2-14.8h3.5l5.2,14.8l1.2,0.2v2.1h-5.8v-2.1l1.2-0.2l-0.8-2.3h-5.5l-0.8,2.3l1.2,0.2
			v2.1h-5.8V215.4z M181,210.3h3.9l-1.9-6h-0.1L181,210.3z"/>
		<path class="st11" d="M205,200.4v1.7l-8.4,12.7h5.9l0.3-2.1h2.6l-0.3,4.7h-12.7v-1.8l8.3-12.6h-5.4l-0.3,2.1h-2.6l0.3-4.7H205z"/>
		<path class="st11" d="M206.4,215.4l1.2-0.2l5.2-14.8h3.5l5.2,14.8l1.2,0.2v2.1h-5.8v-2.1l1.2-0.2l-0.8-2.3h-5.5l-0.8,2.3l1.2,0.2
			v2.1h-5.8V215.4z M212.6,210.3h3.9l-1.9-6h-0.1L212.6,210.3z"/>
		<path class="st11" d="M141.2,242.4c-0.6,0.5-1.4,1-2.4,1.5s-2.4,0.7-4,0.7c-2.3,0-4.2-0.8-5.6-2.3s-2.2-3.5-2.2-6v-0.6
			c0-2.6,0.7-4.6,2.1-6.2s3.3-2.4,5.6-2.4c1.3,0,2.6,0.2,3.7,0.6s2,1,2.8,1.7v3.4h-2.5l-0.5-2.3c-0.3-0.3-0.7-0.5-1.2-0.6
			s-1.1-0.2-1.8-0.2c-1.5,0-2.7,0.6-3.5,1.7s-1.2,2.5-1.2,4.3v0.6c0,1.7,0.4,3.1,1.2,4.2s2,1.6,3.5,1.6c0.7,0,1.2-0.1,1.7-0.2
			s0.8-0.3,1-0.4v-2.9l-2.4-0.2v-2.4h5.9V242.4z"/>
		<path class="st11" d="M142.9,244.3v-2.1l1.8-0.4v-12.2l-1.8-0.4v-2.1h1.8h3.4h1.8v2.1l-1.8,0.4v12h4.8l0.2-2.1h2.6v4.8H142.9z"/>
		<path class="st11" d="M156.8,242.2l1.2-0.2l5.2-14.8h3.5l5.2,14.8l1.2,0.2v2.1h-5.8v-2.1l1.2-0.2l-0.8-2.3h-5.5l-0.8,2.3l1.2,0.2
			v2.1h-5.8V242.2z M163,237.1h3.9l-1.9-6h-0.1L163,237.1z"/>
	</g>
</g>
<g>
	<g>
		<path class="st11" d="M220.7,165.1v-10.9v-2.5v-65c0-5.8-4.7-10.5-10.5-10.5H89.8c-5.8,0-10.5,4.7-10.5,10.5v50.5v12.3v15.6H60.1
			v7.6c0,5.8,4.7,10.5,10.5,10.5h158.8c5.8,0,10.5-4.7,10.5-10.5v-7.6H220.7z M82.7,137.2V86.7c0-3.9,3.2-7.1,7.1-7.1h120.4
			c3.8,0,6.8,2.9,7.1,6.7l0,0v65.4v2.5v10.9H82.7v-15.6V137.2z M236.5,172.7c0,3.9-3.2,7.1-7.1,7.1H70.6c-3.9,0-7.1-3.2-7.1-7.1
			v-4.2h173.1v4.2H236.5z"/>
		<path class="st11" d="M93.5,158.4h113l0,0h3.7v-4.2v-2.5V87.3H93.5l0,0h-3.7v49.9v12.3v8.8L93.5,158.4L93.5,158.4z M93.5,149.5
			v-12.3V90.7h113v60.9v2.5v0.8h-113V149.5z"/>
		<g>
			<g class="st12">
				<g>
					<path class="st11" d="M196.7,96h5.6v4h-5.6V96z"/>
					<path class="st11" d="M196.7,103.9h5.6v4h-5.6V103.9z"/>
					<path class="st11" d="M196.7,111.8h5.6v4h-5.6V111.8z"/>
				</g>
			</g>
			<g class="st12">
				<g>
					<path class="st11" d="M196.7,119.7h5.6v4h-5.6V119.7z"/>
					<path class="st11" d="M196.7,127.6h5.6v4h-5.6V127.6z"/>
				</g>
			</g>
		</g>
		<g>
			<g class="st12">
				<g>
					<path class="st11" d="M96.8,96h5.6v4h-5.6V96z"/>
					<path class="st11" d="M96.8,103.9h5.6v4h-5.6V103.9z"/>
					<path class="st11" d="M96.8,111.8h5.6v4h-5.6V111.8z"/>
				</g>
			</g>
			<g class="st12">
				<g>
					<path class="st11" d="M96.8,119.7h5.6v4h-5.6V119.7z"/>
					<path class="st11" d="M96.8,127.6h5.6v4h-5.6V127.6z"/>
				</g>
			</g>
		</g>
	</g>
</g>
<g class="st12">
	<path class="st11" d="M160.4,105.8h2.4c1.3,0,2.4-1.1,2.4-2.4v-2.4c0-1.3-1.1-2.4-2.4-2.4h-2.4c-1.3,0-2.4,1.1-2.4,2.4v2.4
		C158,104.7,159.1,105.8,160.4,105.8z M160.4,100.9h2.4l0,2.4h-2.4V100.9z"/>
	<path class="st11" d="M184.2,99.7h-14.6c-1.1-3.5-4.3-6.1-8-6.1s-6.9,2.5-8,6.1h-15h-7.3h-14.1c-1.6,0-2.9,1.3-2.9,2.9v6.8v7.3v17
		v7.3v6.8c0,1.6,1.3,2.9,2.9,2.9h14.1h7.3h23h7.3h15.3c1.6,0,2.9-1.3,2.9-2.9v-45.1C187.1,101,185.8,99.7,184.2,99.7z M161.6,96.1
		c2.9,0,5.3,2.2,5.9,5.1c0.1,0.2,0.1,0.5,0.1,0.7c0,0,0,0,0,0c0,0.2,0,0.5,0,0.7c0,2.3-2.7,6-4.9,8.6c0,0,0,0,0,0
		c-0.4,0.5-0.8,0.9-1.1,1.2c-0.3-0.3-0.7-0.8-1.1-1.2c0,0,0,0,0,0c-2.4-2.8-4.9-6.5-4.9-8.6c0-0.5,0.1-1,0.2-1.4
		C156.3,98.3,158.8,96.1,161.6,96.1z M159.2,113.4C159.2,113.4,159.2,113.4,159.2,113.4c0.2,0.3,0.4,0.5,0.6,0.6
		c0.4,0.4,0.7,0.7,0.9,0.9c0.1,0.1,0.1,0.1,0.1,0.1c0,0,0,0,0,0l0,0c0,0,0,0,0,0c0.2,0.2,0.5,0.4,0.9,0.4c0.3,0,0.6-0.1,0.9-0.4
		c0,0,0,0,0,0c0.2-0.2,0.8-0.8,1.6-1.7c1.4,0.4,2.4,1.3,2.4,2c0,1.1-2.1,2.4-4.8,2.4c-2.8,0-4.8-1.3-4.8-2.4
		C156.8,114.7,157.8,113.9,159.2,113.4z M153.2,102.6c0,2.7,2.3,6.2,4.4,8.8c-2,0.9-3.2,2.3-3.2,4c0,2.7,3.2,4.8,7.3,4.8
		c4.1,0,7.3-2.1,7.3-4.8c0-1.7-1.2-3.1-3.2-4c0.1-0.1,0.1-0.2,0.2-0.3c0.5-0.6,0.9-1.2,1.3-1.8c1.5-2.2,2.8-4.7,2.8-6.7
		c0-0.2,0-0.3,0-0.5h14.1c0.2,0,0.4,0.2,0.4,0.4v21.4h-44.8v-21.8h13.3C153.2,102.3,153.2,102.5,153.2,102.6z M117.3,102.1h12.9v6.1
		h-13.3v-5.6C116.8,102.3,117,102.1,117.3,102.1z M116.8,117.9h13.3v14.5h-13.3V117.9z M116.8,147.7v-5.6h13.3v6.1h-12.9
		C117,148.2,116.8,148,116.8,147.7z M160.4,148.2h-20.6v-14.5h20.6V148.2z M162.9,148.2v-15.7c0-0.7-0.5-1.2-1.2-1.2h-23
		c-0.7,0-1.2,0.5-1.2,1.2v15.7h-4.8v-7.3c0-0.7-0.5-1.2-1.2-1.2h-14.5v-4.8h14.5c0.7,0,1.2-0.5,1.2-1.2v-17c0-0.7-0.5-1.2-1.2-1.2
		h-14.5v-4.8h14.5c0.7,0,1.2-0.5,1.2-1.2v-7.3h4.8v23c0,0.7,0.5,1.2,1.2,1.2h46v4.8h-15.7c-0.7,0-1.2,0.5-1.2,1.2v15.7H162.9z
		 M184.2,148.2h-14.1v-14.5h14.5v14.1C184.7,148,184.5,148.2,184.2,148.2z"/>
</g>
</svg>
