<?xml version="1.0" encoding="utf-8"?>
<!-- Generator: Adobe Illustrator 23.0.4, SVG Export Plug-In . SVG Version: 6.00 Build 0)  -->
<svg version="1.1" id="Capa_1" xmlns="http://www.w3.org/2000/svg" xmlns:xlink="http://www.w3.org/1999/xlink" x="0px" y="0px"
	 viewBox="0 0 300 300" style="enable-background:new 0 0 300 300;" xml:space="preserve">
<style type="text/css">
	.st0{display:none;}
	.st1{display:inline;fill:#51C2D1;}
	.st2{fill:#133B52;}
	.st3{display:inline;fill:#EE5455;}
	.st4{display:inline;fill:#FACF48;}
	.st5{display:inline;fill:#6AEAB8;}
	.st6{display:inline;fill:#3AA5F7;}
	.st7{display:inline;fill:#F39843;}
	.st8{display:inline;fill:#EF6769;}
	.st9{display:inline;fill:#8D49DD;}
	.st10{display:inline;fill:#0D427A;}
	.st11{enable-background:new    ;}
	.st12{fill:#FFFFFF;}
	.st13{opacity:0.5;}
</style>
<g class="st0">
	<path class="st1" d="M253.9,56.8L177,12.3c-16.7-9.7-37.2-9.7-53.9,0L45.8,56.8C29.1,66.6,19,84.3,19,103.5v89.1
		c0,19.1,10.4,36.9,26.8,46.6l77.2,44.5c16.7,9.7,37.2,9.7,53.9,0l77.2-44.5c16.7-9.7,26.8-27.5,26.8-46.6v-89.1
		C281,84.3,270.6,66.2,253.9,56.8z"/>
</g>
<g>
	<g>
		<path class="st2" d="M253.9,58.8L177,14.3c-16.7-9.7-37.2-9.7-53.9,0L45.8,58.8C29.1,68.6,19,86.3,19,105.5v89.1
			c0,19.1,10.4,36.9,26.8,46.6l77.2,44.5c16.7,9.7,37.2,9.7,53.9,0l77.2-44.5c16.7-9.7,26.8-27.5,26.8-46.6v-89.1
			C281,86.3,270.6,68.2,253.9,58.8z"/>
	</g>
</g>
<g id="Capa_3" class="st0">
	<path class="st3" d="M253.9,56.8L177,12.3c-16.7-9.7-37.2-9.7-53.9,0L45.8,56.8C29.1,66.6,19,84.3,19,103.5v89.1
		c0,19.1,10.4,36.9,26.8,46.6l77.2,44.5c16.7,9.7,37.2,9.7,53.9,0l77.2-44.5c16.7-9.7,26.8-27.5,26.8-46.6v-89.1
		C281,84.3,270.6,66.2,253.9,56.8z"/>
</g>
<g id="Capa_4" class="st0">
	<path class="st4" d="M253.9,56.8L177,12.3c-16.7-9.7-37.2-9.7-53.9,0L45.8,56.8C29.1,66.6,19,84.3,19,103.5v89.1
		c0,19.1,10.4,36.9,26.8,46.6l77.2,44.5c16.7,9.7,37.2,9.7,53.9,0l77.2-44.5c16.7-9.7,26.8-27.5,26.8-46.6v-89.1
		C281,84.3,270.6,66.2,253.9,56.8z"/>
</g>
<g id="Capa_5" class="st0">
	<path class="st5" d="M253.9,56.8L177,12.3c-16.7-9.7-37.2-9.7-53.9,0L45.8,56.8C29.1,66.6,19,84.3,19,103.5v89.1
		c0,19.1,10.4,36.9,26.8,46.6l77.2,44.5c16.7,9.7,37.2,9.7,53.9,0l77.2-44.5c16.7-9.7,26.8-27.5,26.8-46.6v-89.1
		C281,84.3,270.6,66.2,253.9,56.8z"/>
</g>
<g id="Capa_6" class="st0">
	<path class="st6" d="M253.9,56.8L177,12.3c-16.7-9.7-37.2-9.7-53.9,0L45.8,56.8C29.1,66.6,19,84.3,19,103.5v89.1
		c0,19.1,10.4,36.9,26.8,46.6l77.2,44.5c16.7,9.7,37.2,9.7,53.9,0l77.2-44.5c16.7-9.7,26.8-27.5,26.8-46.6v-89.1
		C281,84.3,270.6,66.2,253.9,56.8z"/>
</g>
<g id="Capa_7" class="st0">
	<path class="st7" d="M253.9,56.8L177,12.3c-16.7-9.7-37.2-9.7-53.9,0L45.8,56.8C29.1,66.6,19,84.3,19,103.5v89.1
		c0,19.1,10.4,36.9,26.8,46.6l77.2,44.5c16.7,9.7,37.2,9.7,53.9,0l77.2-44.5c16.7-9.7,26.8-27.5,26.8-46.6v-89.1
		C281,84.3,270.6,66.2,253.9,56.8z"/>
</g>
<g id="Capa_8" class="st0">
	<path class="st8" d="M253.9,56.8L177,12.3c-16.7-9.7-37.2-9.7-53.9,0L45.8,56.8C29.1,66.6,19,84.3,19,103.5v89.1
		c0,19.1,10.4,36.9,26.8,46.6l77.2,44.5c16.7,9.7,37.2,9.7,53.9,0l77.2-44.5c16.7-9.7,26.8-27.5,26.8-46.6v-89.1
		C281,84.3,270.6,66.2,253.9,56.8z"/>
</g>
<g id="Capa_9" class="st0">
	<path class="st9" d="M253.9,56.8L177,12.3c-16.7-9.7-37.2-9.7-53.9,0L45.8,56.8C29.1,66.6,19,84.3,19,103.5v89.1
		c0,19.1,10.4,36.9,26.8,46.6l77.2,44.5c16.7,9.7,37.2,9.7,53.9,0l77.2-44.5c16.7-9.7,26.8-27.5,26.8-46.6v-89.1
		C281,84.3,270.6,66.2,253.9,56.8z"/>
</g>
<g id="Capa_10" class="st0">
	<path class="st10" d="M253.9,56.8L177,12.3c-16.7-9.7-37.2-9.7-53.9,0L45.8,56.8C29.1,66.6,19,84.3,19,103.5v89.1
		c0,19.1,10.4,36.9,26.8,46.6l77.2,44.5c16.7,9.7,37.2,9.7,53.9,0l77.2-44.5c16.7-9.7,26.8-27.5,26.8-46.6v-89.1
		C281,84.3,270.6,66.2,253.9,56.8z"/>
</g>
<g>
	<g class="st11">
		<path class="st12" d="M66,225.3l1.3-0.2l5.4-15.5h3.6l5.4,15.5l1.3,0.2v2.1H77v-2.1l1.2-0.2l-0.8-2.4h-5.8l-0.8,2.4l1.2,0.2v2.1
			H66V225.3z M72.5,220h4.1l-2-6.3h-0.1L72.5,220z"/>
		<path class="st12" d="M90.6,209.7v2.1l-1.9,0.4v9.3c0,1.2,0.3,2,0.9,2.6c0.6,0.6,1.5,0.9,2.6,0.9c1.1,0,2-0.3,2.6-0.9s1-1.5,1-2.6
			v-9.3l-1.9-0.4v-2.1h7.4v2.1l-1.9,0.4v9.3c0,2-0.7,3.5-2,4.6c-1.3,1.1-3,1.6-5.2,1.6c-2.1,0-3.8-0.5-5.1-1.6c-1.3-1.1-2-2.6-2-4.6
			v-9.3l-1.9-0.4v-2.1h1.9h3.6H90.6z"/>
		<path class="st12" d="M118,209.7v4.7h-2.7l-0.1-2h-3.3V225l1.9,0.4v2.1h-7.4v-2.1l1.9-0.4v-12.5H105l-0.1,2h-2.7v-4.7H118z"/>
		<path class="st12" d="M135.1,218.7c0,2.6-0.7,4.8-2.2,6.5s-3.4,2.6-5.8,2.6c-2.4,0-4.3-0.8-5.8-2.6c-1.5-1.7-2.2-3.9-2.2-6.5v-0.3
			c0-2.6,0.7-4.7,2.2-6.4c1.5-1.7,3.4-2.6,5.8-2.6c2.4,0,4.4,0.9,5.9,2.6c1.5,1.7,2.2,3.9,2.2,6.4V218.7z M131.5,218.4
			c0-1.8-0.4-3.3-1.1-4.5c-0.8-1.1-1.9-1.7-3.4-1.7c-1.5,0-2.6,0.6-3.4,1.7c-0.7,1.1-1.1,2.6-1.1,4.5v0.3c0,1.9,0.4,3.4,1.1,4.5
			c0.7,1.1,1.9,1.7,3.4,1.7c1.5,0,2.6-0.6,3.4-1.7s1.1-2.7,1.1-4.5V218.4z"/>
		<path class="st12" d="M136.5,225.3l1.9-0.4v-12.8l-1.9-0.4v-2.1h14.1v4.9h-2.7l-0.2-2.1h-5.8v4.9h6.2v2.7h-6.2v4.9l1.9,0.4v2.1
			h-7.4V225.3z"/>
		<path class="st12" d="M151.9,211.8v-2.1h7.4v2.1l-1.9,0.4V225l1.9,0.4v2.1h-7.4v-2.1l1.9-0.4v-12.8L151.9,211.8z"/>
		<path class="st12" d="M178.8,209.7v2.1l-1.9,0.4v15.3h-3.6l-7.2-12l-0.1,0v9.4l1.9,0.4v2.1h-7.4v-2.1l1.9-0.4v-12.8l-1.9-0.4v-2.1
			h1.9h3.6l7.2,12l0.1,0v-9.4l-1.9-0.4v-2.1h5.5H178.8z"/>
		<path class="st12" d="M199.6,215.4h-2.7l-0.5-2.4c-0.3-0.2-0.8-0.4-1.4-0.5s-1.2-0.2-1.9-0.2c-1,0-1.7,0.2-2.3,0.6
			c-0.5,0.4-0.8,0.9-0.8,1.6c0,0.6,0.3,1.1,0.8,1.5s1.5,0.8,2.9,1.2c2,0.5,3.4,1.3,4.5,2.2c1,0.9,1.5,2.1,1.5,3.5
			c0,1.5-0.6,2.7-1.8,3.6c-1.2,0.9-2.8,1.3-4.8,1.3c-1.4,0-2.7-0.2-3.8-0.7c-1.1-0.4-2.1-1.1-2.8-1.9v-3.7h2.8l0.4,2.5
			c0.4,0.3,0.8,0.5,1.5,0.7c0.6,0.2,1.3,0.3,2.1,0.3c1,0,1.7-0.2,2.2-0.6c0.5-0.4,0.8-0.9,0.8-1.6c0-0.7-0.2-1.2-0.7-1.6
			c-0.5-0.4-1.3-0.8-2.5-1.2c-2.1-0.6-3.7-1.3-4.8-2.2c-1.1-0.8-1.6-2-1.6-3.4c0-1.4,0.6-2.6,1.8-3.5c1.2-0.9,2.8-1.4,4.6-1.4
			c1.4,0,2.6,0.2,3.7,0.6c1.1,0.4,2.1,1,2.8,1.7V215.4z"/>
		<path class="st12" d="M217.5,218.7c0,2.6-0.7,4.8-2.2,6.5s-3.4,2.6-5.8,2.6c-2.4,0-4.3-0.8-5.8-2.6c-1.5-1.7-2.2-3.9-2.2-6.5v-0.3
			c0-2.6,0.7-4.7,2.2-6.4s3.4-2.6,5.8-2.6c2.4,0,4.4,0.9,5.9,2.6c1.5,1.7,2.2,3.9,2.2,6.4V218.7z M213.9,218.4
			c0-1.8-0.4-3.3-1.1-4.5s-1.9-1.7-3.4-1.7s-2.6,0.6-3.4,1.7c-0.7,1.1-1.1,2.6-1.1,4.5v0.3c0,1.9,0.4,3.4,1.1,4.5
			c0.7,1.1,1.9,1.7,3.4,1.7c1.5,0,2.6-0.6,3.4-1.7c0.8-1.1,1.1-2.7,1.1-4.5V218.4z"/>
		<path class="st12" d="M232.4,215.4h-2.7l-0.5-2.4c-0.3-0.2-0.8-0.4-1.4-0.5s-1.2-0.2-1.9-0.2c-1,0-1.7,0.2-2.3,0.6
			c-0.5,0.4-0.8,0.9-0.8,1.6c0,0.6,0.3,1.1,0.8,1.5s1.5,0.8,2.9,1.2c2,0.5,3.4,1.3,4.5,2.2c1,0.9,1.5,2.1,1.5,3.5
			c0,1.5-0.6,2.7-1.8,3.6c-1.2,0.9-2.8,1.3-4.8,1.3c-1.4,0-2.7-0.2-3.8-0.7c-1.1-0.4-2.1-1.1-2.8-1.9v-3.7h2.8l0.4,2.5
			c0.4,0.3,0.8,0.5,1.5,0.7c0.6,0.2,1.3,0.3,2.1,0.3c1,0,1.7-0.2,2.2-0.6c0.5-0.4,0.8-0.9,0.8-1.6c0-0.7-0.2-1.2-0.7-1.6
			c-0.5-0.4-1.3-0.8-2.5-1.2c-2.1-0.6-3.7-1.3-4.8-2.2c-1.1-0.8-1.6-2-1.6-3.4c0-1.4,0.6-2.6,1.8-3.5c1.2-0.9,2.8-1.4,4.6-1.4
			c1.4,0,2.6,0.2,3.7,0.6c1.1,0.4,2.1,1,2.8,1.7V215.4z"/>
	</g>
</g>
<g>
	<g>
		<g>
			<path class="st12" d="M220.7,165.1v-10.9v-2.5v-65c0-5.8-4.7-10.5-10.5-10.5H89.8c-5.8,0-10.5,4.7-10.5,10.5v50.5v12.3v15.6H60.1
				v7.6c0,5.8,4.7,10.5,10.5,10.5h158.8c5.8,0,10.5-4.7,10.5-10.5v-7.6L220.7,165.1L220.7,165.1z M82.7,137.2V86.7
				c0-3.9,3.2-7.1,7.1-7.1h120.4c3.8,0,6.8,2.9,7.1,6.7l0,0v65.4v2.5v10.9H82.7v-15.6V137.2z M236.5,172.7c0,3.9-3.2,7.1-7.1,7.1
				H70.6c-3.9,0-7.1-3.2-7.1-7.1v-4.2h173.1v4.2H236.5z"/>
		</g>
		<g>
			<path class="st12" d="M93.5,158.4h113l0,0h3.7v-4.2v-2.5V87.3H93.5l0,0h-3.7v49.9v12.3v8.8L93.5,158.4L93.5,158.4z M93.5,149.5
				v-12.3V90.7h113v60.9v2.5v0.8h-113V149.5z"/>
		</g>
		<g class="st13">
			<g>
				<g>
					<g>
						<path class="st12" d="M98,105.7h5.6v4H98V105.7z"/>
					</g>
					<g>
						<path class="st12" d="M106.5,105.7h14.1v4h-14.1V105.7z"/>
					</g>
					<g>
						<path class="st12" d="M98,113.6h5.6v4H98V113.6z"/>
					</g>
					<g>
						<path class="st12" d="M106.5,113.6h14.1v4h-14.1V113.6z"/>
					</g>
					<g>
						<path class="st12" d="M98,121.5h5.6v4H98V121.5z"/>
					</g>
					<g>
						<path class="st12" d="M106.5,121.5h14.1v4h-14.1V121.5z"/>
					</g>
				</g>
				<g>
					<g>
						<path class="st12" d="M98,129.4h5.6v4H98V129.4z"/>
					</g>
					<g>
						<path class="st12" d="M106.5,129.4h14.1v4h-14.1V129.4z"/>
					</g>
					<g>
						<path class="st12" d="M98,137.4h5.6v4H98V137.4z"/>
					</g>
					<g>
						<path class="st12" d="M106.5,137.4h14.1v4h-14.1V137.4z"/>
					</g>
				</g>
			</g>
		</g>
		<g class="st13">
			<polygon class="st12" points="124.8,89.5 124.8,99.4 93.2,99.4 93.2,102.9 124.8,102.9 124.8,155.4 128.3,155.4 128.3,89.5 			
				"/>
		</g>
	</g>
</g>
<g class="st13">
	<path class="st12" d="M197.2,146.3c0,0.4-0.3,0.7-0.7,0.7l-3.7,0l-10.3-10.3l3.1-3.1c0.3-0.3,0.4-0.6,0.4-1c0-0.4-0.1-0.7-0.4-1
		c-0.5-0.5-1.4-0.5-1.9,0l-3.1,3.1l-10.1-10.1l5-5l2.6,2.6c0.6,0.6,1.6,0.6,2.1,0c0.3-0.3,0.4-0.7,0.4-1.1s-0.2-0.8-0.4-1.1
		l-2.6-2.6l16.2-16.2l2.7,0c0.4,0,0.7,0.3,0.7,0.7v6.2l0,0.3l0.5,0.2c0.7,0.3,1.3,0.7,1.9,1.2l0.6,0.5V102c0-2-1.7-3.7-3.7-3.7
		l-43.9,0l0.2,0.5c0.3,0.7,0.6,1.5,0.8,2.2l0.1,0.3l16.6,0l-11.6,11.6l-4.1-4.1c-0.5-0.5-1.4-0.5-1.9,0c-0.3,0.3-0.4,0.6-0.4,1
		c0,0.4,0.1,0.7,0.4,1l8.5,8.5l-6.8,6.8l-5.5-5.5c-0.5-0.5-1.4-0.5-1.9,0c-0.3,0.3-0.4,0.6-0.4,1c0,0.4,0.1,0.7,0.4,1l2.9,2.9
		l-11.5,11.4v-15.6l-3-5.1v30.2c0,2,1.7,3.7,3.7,3.7l57.5,0c2,0,3.7-1.7,3.7-3.7v-16l-3,5.1V146.3z M182.9,108.3l-7.1-7.1l14.1,0
		L182.9,108.3z M160.6,114.8l12.4-12.4l7.9,7.9l-12.4,12.4L160.6,114.8z M171.4,147l-15.3,0l-4.1-4.1l7.6-7.6L171.4,147z
		 M156.2,127.9l6.8-6.8l8.8,8.8l-6.8,6.8L156.2,127.9z M166.9,138.6l6.8-6.8l4.9,4.9l-6.8,6.8L166.9,138.6z M150.1,141l-6.1-6.1
		l7.6-7.6l6.1,6.1L150.1,141z M138.3,140.6l3.8-3.8l10.2,10.2l-13.3,0c-0.4,0-0.7-0.3-0.7-0.7V140.6z M173.8,145.5l6.8-6.8l8.3,8.3
		l-13.6,0L173.8,145.5z"/>
	<path class="st12" d="M141.8,120.7c1,0,1.9-0.5,2.4-1.3l0,0l0.2-0.3c0.2-0.3,0.4-0.8,1-1.7c2.5-4.2,5.2-8.7,5.3-8.9
		c0.7-1.4,1.1-3,1.1-4.5c0-0.7-0.1-1.4-0.3-2.3c-0.3-1.4-0.8-2.5-1.5-3.5l-0.2-0.2c-0.2-0.2-0.4-0.5-0.6-0.7l-0.1-0.1
		c-0.1-0.1-0.2-0.2-0.3-0.4c-1.9-1.9-4.4-2.9-7-2.9l-0.2,0c-5.4,0.1-9.8,4.5-9.9,9.9c0,1.6,0.4,3.1,1.1,4.6l6.5,10.9
		C140,120.2,140.9,120.7,141.8,120.7z M134.6,103.9c0-3.9,3.2-7.1,7.1-7.1c0,0,0.1,0,0.1,0c1.9,0,3.7,0.7,5.1,2.1
		c0.5,0.5,0.9,1,1.2,1.6c0.6,1.1,0.9,2.3,0.9,3.5c0,1.1-0.3,2.2-0.8,3.2l-6.4,10.8l-6.4-10.8C134.9,106.2,134.6,105.1,134.6,103.9z"
		/>
	<path class="st12" d="M141.8,107.7c2.1,0,3.8-1.7,3.8-3.8s-1.7-3.8-3.8-3.8c-2.1,0-3.8,1.7-3.8,3.8S139.7,107.7,141.8,107.7z
		 M140.4,103.9c0-0.8,0.7-1.5,1.5-1.5c0.8,0,1.5,0.7,1.5,1.5s-0.7,1.5-1.5,1.5C141,105.3,140.4,104.7,140.4,103.9z"/>
	<path class="st12" d="M200.4,112.8c-1-1.1-2-1.8-3.1-2.4l-0.1-0.1c-1.3-0.6-2.8-0.9-4.2-0.9l-0.2,0c-5.4,0.1-9.8,4.5-9.9,9.9
		c0,1.6,0.4,3.2,1.1,4.6c0.1,0.1,4.4,7.4,5.6,9.4l0.8,1.4c0.5,0.9,1.5,1.4,2.5,1.4s2-0.5,2.5-1.4l6.5-11c0.7-1.4,1-2.9,1-4.3
		C202.9,117,202,114.6,200.4,112.8z M200.1,119.4c0,1.1-0.3,2.2-0.8,3.2l-6.4,10.8l-6.4-10.7c-0.5-1-0.8-2.1-0.8-3.3
		c0-3.9,3.2-7.1,7.1-7.1h0c0.1,0,0.1,0,0.2,0c1.9,0,3.6,0.7,5,2.1C199.3,115.6,200.1,117.5,200.1,119.4z M197,110.7
		C197,110.7,197,110.7,197,110.7L197,110.7L197,110.7z"/>
	<path class="st12" d="M192.9,115.4c-2.1,0-3.8,1.7-3.8,3.8s1.7,3.8,3.8,3.8s3.8-1.7,3.8-3.8S195,115.4,192.9,115.4z M194.4,119.2
		c0,0.8-0.7,1.5-1.5,1.5s-1.5-0.7-1.5-1.5s0.7-1.5,1.5-1.5S194.4,118.4,194.4,119.2z"/>
</g>
</svg>
