<?xml version="1.0" encoding="utf-8"?>
<!-- Generator: Adobe Illustrator 23.0.4, SVG Export Plug-In . SVG Version: 6.00 Build 0)  -->
<svg version="1.1" id="Capa_1" xmlns="http://www.w3.org/2000/svg" xmlns:xlink="http://www.w3.org/1999/xlink" x="0px" y="0px"
	 viewBox="0 0 300 300" style="enable-background:new 0 0 300 300;" xml:space="preserve">
<style type="text/css">
	.st0{fill:#51C2D1;}
	.st1{enable-background:new    ;}
	.st2{fill:#FFFFFF;}
	.st3{display:none;}
	.st4{display:inline;fill:#133B52;}
	.st5{display:inline;fill:#EE5455;}
	.st6{display:inline;fill:#FACF48;}
	.st7{display:inline;fill:#6AEAB8;}
	.st8{display:inline;fill:#3AA5F7;}
	.st9{display:inline;fill:#F39843;}
	.st10{display:inline;fill:#EF6769;}
	.st11{display:inline;fill:#8D49DD;}
	.st12{display:inline;fill:#0D427A;}
	.st13{opacity:0.5;}
</style>
<g>
	<path class="st0" d="M253.9,58.8L177,14.3c-16.7-9.7-37.2-9.7-53.9,0L45.8,58.8C29.1,68.6,19,86.3,19,105.5v89.1
		c0,19.1,10.4,36.9,26.8,46.6l77.2,44.5c16.7,9.7,37.2,9.7,53.9,0l77.2-44.5c16.7-9.7,26.8-27.5,26.8-46.6v-89.1
		C281,86.3,270.6,68.2,253.9,58.8z"/>
</g>
<g class="st1">
	<path class="st2" d="M97.4,215.7h-2.6l-0.4-2.4c-0.4-0.3-0.8-0.6-1.3-0.8c-0.5-0.2-1.2-0.3-1.9-0.3c-1.5,0-2.7,0.6-3.6,1.7
		c-0.8,1.1-1.3,2.6-1.3,4.4v0.6c0,1.8,0.4,3.3,1.2,4.4s2,1.7,3.5,1.7c0.7,0,1.3-0.1,1.9-0.3c0.6-0.2,1-0.5,1.3-0.8l0.4-2.4h2.6v3.5
		c-0.7,0.8-1.6,1.5-2.7,2c-1.1,0.5-2.4,0.7-3.7,0.7c-2.4,0-4.3-0.8-5.9-2.5c-1.5-1.7-2.3-3.8-2.3-6.4v-0.6c0-2.6,0.8-4.7,2.3-6.4
		s3.5-2.5,5.9-2.5c1.4,0,2.6,0.2,3.7,0.8c1.1,0.5,2,1.2,2.7,2V215.7z"/>
	<path class="st2" d="M107,209.7c2,0,3.6,0.5,4.7,1.4s1.7,2.2,1.7,3.8c0,0.9-0.2,1.7-0.7,2.3c-0.5,0.7-1.2,1.2-2.1,1.6
		c1,0.3,1.8,0.8,2.3,1.5c0.5,0.7,0.7,1.6,0.7,2.7v0.9c0,0.4,0.1,0.7,0.2,0.9c0.2,0.2,0.4,0.3,0.8,0.4l0.4,0.1v2.1h-1.8
		c-1.2,0-2-0.3-2.5-0.9c-0.5-0.6-0.7-1.4-0.7-2.4v-1c0-0.9-0.2-1.5-0.7-2c-0.5-0.5-1.1-0.8-1.9-0.8h-2.9v4.7l1.9,0.4v2.1H99v-2.1
		l1.9-0.4v-12.8l-1.9-0.4v-2.1h1.9H107z M104.5,217.5h2.5c1,0,1.7-0.2,2.2-0.6c0.5-0.4,0.7-1,0.7-1.8s-0.2-1.4-0.7-1.9
		c-0.5-0.5-1.2-0.7-2.2-0.7h-2.5V217.5z"/>
	<path class="st2" d="M133.4,214.3L133.4,214.3l-4.8,13.1h-2.4l-4.7-13.1l-0.1,0l0.3,7.8v2.8l1.9,0.4v2.1h-7.4v-2.1l1.9-0.4v-12.8
		l-1.9-0.4v-2.1h1.9h4.7l4.5,13.1h0.1l4.6-13.1h6.6v2.1l-1.9,0.4V225l1.9,0.4v2.1h-7.4v-2.1l1.9-0.4v-2.8L133.4,214.3z"/>
	<path class="st2" d="M153.8,209.7c2.1,0,3.7,0.4,4.9,1.2s1.8,2,1.8,3.7c0,0.8-0.2,1.6-0.7,2.2c-0.4,0.6-1.1,1.1-1.9,1.5
		c1.1,0.2,1.9,0.7,2.4,1.5c0.5,0.7,0.8,1.6,0.8,2.6c0,1.7-0.6,3-1.7,3.9c-1.1,0.9-2.7,1.3-4.8,1.3h-8.7v-2.1l1.9-0.4v-12.8l-1.9-0.4
		v-2.1h1.9H153.8z M151.4,217.1h2.6c1,0,1.7-0.2,2.2-0.6s0.8-1,0.8-1.7c0-0.8-0.3-1.4-0.8-1.8s-1.3-0.6-2.3-0.6h-2.4V217.1z
		 M151.4,219.6v5.1h3.3c0.9,0,1.7-0.2,2.2-0.6s0.7-1,0.7-1.8c0-0.9-0.2-1.5-0.6-2c-0.4-0.5-1.1-0.7-2-0.7H151.4z"/>
	<path class="st2" d="M169.6,209.7v2.1l-1.9,0.4v9.3c0,1.2,0.3,2,0.9,2.6c0.6,0.6,1.5,0.9,2.6,0.9c1.1,0,2-0.3,2.6-0.9s1-1.5,1-2.6
		v-9.3l-1.9-0.4v-2.1h7.4v2.1l-1.9,0.4v9.3c0,2-0.7,3.5-2,4.6c-1.3,1.1-3,1.6-5.2,1.6c-2.1,0-3.8-0.5-5.1-1.6c-1.3-1.1-2-2.6-2-4.6
		v-9.3l-1.9-0.4v-2.1h1.9h3.6H169.6z M171.5,205.2h3.8l0,0.1l-3.4,3.2h-2.9L171.5,205.2z"/>
	<path class="st2" d="M181.3,211.8v-2.1h7.4v2.1l-1.9,0.4v5.1h7.2v-5.1l-1.9-0.4v-2.1h1.9h3.6h1.9v2.1l-1.9,0.4V225l1.9,0.4v2.1
		h-7.4v-2.1l1.9-0.4v-4.9h-7.2v4.9l1.9,0.4v2.1h-7.4v-2.1l1.9-0.4v-12.8L181.3,211.8z"/>
	<path class="st2" d="M217.1,218.7c0,2.6-0.7,4.8-2.2,6.5s-3.4,2.6-5.8,2.6c-2.4,0-4.3-0.8-5.8-2.6c-1.5-1.7-2.2-3.9-2.2-6.5v-0.3
		c0-2.6,0.7-4.7,2.2-6.4s3.4-2.6,5.8-2.6c2.4,0,4.4,0.9,5.9,2.6c1.5,1.7,2.2,3.9,2.2,6.4V218.7z M213.5,218.4c0-1.8-0.4-3.3-1.1-4.5
		s-1.9-1.7-3.4-1.7s-2.6,0.6-3.4,1.7c-0.7,1.1-1.1,2.6-1.1,4.5v0.3c0,1.9,0.4,3.4,1.1,4.5c0.7,1.1,1.9,1.7,3.4,1.7
		c1.5,0,2.6-0.6,3.4-1.7c0.8-1.1,1.1-2.7,1.1-4.5V218.4z"/>
</g>
<g class="st3">
	<path class="st4" d="M253.9,56.8L177,12.3c-16.7-9.7-37.2-9.7-53.9,0L45.8,56.8C29.1,66.6,19,84.3,19,103.5v89.1
		c0,19.1,10.4,36.9,26.8,46.6l77.2,44.5c16.7,9.7,37.2,9.7,53.9,0l77.2-44.5c16.7-9.7,26.8-27.5,26.8-46.6v-89.1
		C281,84.3,270.6,66.2,253.9,56.8z"/>
</g>
<g id="Capa_3" class="st3">
	<path class="st5" d="M253.9,56.8L177,12.3c-16.7-9.7-37.2-9.7-53.9,0L45.8,56.8C29.1,66.6,19,84.3,19,103.5v89.1
		c0,19.1,10.4,36.9,26.8,46.6l77.2,44.5c16.7,9.7,37.2,9.7,53.9,0l77.2-44.5c16.7-9.7,26.8-27.5,26.8-46.6v-89.1
		C281,84.3,270.6,66.2,253.9,56.8z"/>
</g>
<g id="Capa_4" class="st3">
	<path class="st6" d="M253.9,56.8L177,12.3c-16.7-9.7-37.2-9.7-53.9,0L45.8,56.8C29.1,66.6,19,84.3,19,103.5v89.1
		c0,19.1,10.4,36.9,26.8,46.6l77.2,44.5c16.7,9.7,37.2,9.7,53.9,0l77.2-44.5c16.7-9.7,26.8-27.5,26.8-46.6v-89.1
		C281,84.3,270.6,66.2,253.9,56.8z"/>
</g>
<g id="Capa_5" class="st3">
	<path class="st7" d="M253.9,56.8L177,12.3c-16.7-9.7-37.2-9.7-53.9,0L45.8,56.8C29.1,66.6,19,84.3,19,103.5v89.1
		c0,19.1,10.4,36.9,26.8,46.6l77.2,44.5c16.7,9.7,37.2,9.7,53.9,0l77.2-44.5c16.7-9.7,26.8-27.5,26.8-46.6v-89.1
		C281,84.3,270.6,66.2,253.9,56.8z"/>
</g>
<g id="Capa_6" class="st3">
	<path class="st8" d="M253.9,56.8L177,12.3c-16.7-9.7-37.2-9.7-53.9,0L45.8,56.8C29.1,66.6,19,84.3,19,103.5v89.1
		c0,19.1,10.4,36.9,26.8,46.6l77.2,44.5c16.7,9.7,37.2,9.7,53.9,0l77.2-44.5c16.7-9.7,26.8-27.5,26.8-46.6v-89.1
		C281,84.3,270.6,66.2,253.9,56.8z"/>
</g>
<g id="Capa_7" class="st3">
	<path class="st9" d="M253.9,56.8L177,12.3c-16.7-9.7-37.2-9.7-53.9,0L45.8,56.8C29.1,66.6,19,84.3,19,103.5v89.1
		c0,19.1,10.4,36.9,26.8,46.6l77.2,44.5c16.7,9.7,37.2,9.7,53.9,0l77.2-44.5c16.7-9.7,26.8-27.5,26.8-46.6v-89.1
		C281,84.3,270.6,66.2,253.9,56.8z"/>
</g>
<g id="Capa_8" class="st3">
	<path class="st10" d="M253.9,56.8L177,12.3c-16.7-9.7-37.2-9.7-53.9,0L45.8,56.8C29.1,66.6,19,84.3,19,103.5v89.1
		c0,19.1,10.4,36.9,26.8,46.6l77.2,44.5c16.7,9.7,37.2,9.7,53.9,0l77.2-44.5c16.7-9.7,26.8-27.5,26.8-46.6v-89.1
		C281,84.3,270.6,66.2,253.9,56.8z"/>
</g>
<g id="Capa_9" class="st3">
	<path class="st11" d="M253.9,56.8L177,12.3c-16.7-9.7-37.2-9.7-53.9,0L45.8,56.8C29.1,66.6,19,84.3,19,103.5v89.1
		c0,19.1,10.4,36.9,26.8,46.6l77.2,44.5c16.7,9.7,37.2,9.7,53.9,0l77.2-44.5c16.7-9.7,26.8-27.5,26.8-46.6v-89.1
		C281,84.3,270.6,66.2,253.9,56.8z"/>
</g>
<g id="Capa_10" class="st3">
	<path class="st12" d="M253.9,56.8L177,12.3c-16.7-9.7-37.2-9.7-53.9,0L45.8,56.8C29.1,66.6,19,84.3,19,103.5v89.1
		c0,19.1,10.4,36.9,26.8,46.6l77.2,44.5c16.7,9.7,37.2,9.7,53.9,0l77.2-44.5c16.7-9.7,26.8-27.5,26.8-46.6v-89.1
		C281,84.3,270.6,66.2,253.9,56.8z"/>
</g>
<g>
	<g>
		<path class="st2" d="M220.7,165.1v-10.9v-2.5v-65c0-5.8-4.7-10.5-10.5-10.5H89.8c-5.8,0-10.5,4.7-10.5,10.5v50.5v12.3v15.6H60.1
			v7.6c0,5.8,4.7,10.5,10.5,10.5h158.8c5.8,0,10.5-4.7,10.5-10.5v-7.6L220.7,165.1L220.7,165.1z M82.7,137.2V86.7
			c0-3.9,3.2-7.1,7.1-7.1h120.4c3.8,0,6.8,2.9,7.1,6.7l0,0v65.4v2.5v10.9H82.7v-15.6V137.2z M236.5,172.7c0,3.9-3.2,7.1-7.1,7.1
			H70.6c-3.9,0-7.1-3.2-7.1-7.1v-4.2h173.1v4.2H236.5z"/>
		<path class="st2" d="M93.5,158.4h113l0,0h3.7v-4.2v-2.5V87.3H93.5l0,0h-3.7v49.9v12.3v8.8L93.5,158.4L93.5,158.4z M93.5,149.5
			v-12.3V90.7h113v60.9v2.5v0.8h-113V149.5z"/>
		<g class="st13">
			<g>
				<g>
					<path class="st2" d="M100.3,95.7h5.6v4h-5.6V95.7z"/>
					<path class="st2" d="M108.8,95.7h14.1v4h-14.1V95.7z"/>
					<path class="st2" d="M100.3,103.6h5.6v4h-5.6V103.6z"/>
					<path class="st2" d="M108.8,103.6h14.1v4h-14.1V103.6z"/>
					<path class="st2" d="M100.3,111.5h5.6v4h-5.6V111.5z"/>
					<path class="st2" d="M108.8,111.5h14.1v4h-14.1V111.5z"/>
				</g>
				<g>
					<path class="st2" d="M100.3,119.4h5.6v4h-5.6V119.4z"/>
					<path class="st2" d="M108.8,119.4h14.1v4h-14.1V119.4z"/>
					<path class="st2" d="M100.3,127.4h5.6v4h-5.6V127.4z"/>
					<path class="st2" d="M108.8,127.4h14.1v4h-14.1V127.4z"/>
				</g>
				<g>
					<path class="st2" d="M100.3,135.3h5.6v4h-5.6V135.3z"/>
					<path class="st2" d="M108.8,135.3h14.1v4h-14.1V135.3z"/>
					<path class="st2" d="M100.3,143.3h5.6v4h-5.6V143.3z"/>
					<path class="st2" d="M108.8,143.3h14.1v4h-14.1V143.3z"/>
				</g>
			</g>
			<g>
				<path class="st2" d="M197.9,150.3c1,0,1.7-0.8,1.7-1.7V97.4c0-1-0.8-1.7-1.7-1.7h-66.3c-1,0-1.7,0.8-1.7,1.7v51.2
					c0,1,0.8,1.7,1.7,1.7C131.6,150.3,197.9,150.3,197.9,150.3z M133.3,99.2h62.9v47.7h-62.9L133.3,99.2L133.3,99.2z"/>
				<path class="st2" d="M164.8,103.9c10.6,0,19.2,8.6,19.2,19.2s-8.6,19.2-19.2,19.2s-19.2-8.6-19.2-19.2S154.2,103.9,164.8,103.9
					 M164.8,101.9c-11.7,0-21.2,9.5-21.2,21.2s9.5,21.2,21.2,21.2c11.7,0,21.2-9.5,21.2-21.2S176.4,101.9,164.8,101.9L164.8,101.9z"
					/>
				<path class="st2" d="M164.8,110.3c7,0,12.8,5.7,12.8,12.8c0,7-5.7,12.8-12.8,12.8c-7,0-12.8-5.7-12.8-12.8
					C152,116,157.7,110.3,164.8,110.3 M164.8,108.3c-8.2,0-14.8,6.6-14.8,14.8s6.6,14.8,14.8,14.8c8.2,0,14.8-6.6,14.8-14.8
					S172.9,108.3,164.8,108.3L164.8,108.3z"/>
				<g>
					<path class="st2" d="M164.8,116.9c3.4,0,6.1,2.8,6.1,6.1s-2.8,6.1-6.1,6.1s-6.1-2.8-6.1-6.1S161.4,116.9,164.8,116.9
						 M164.8,114.9c-4.5,0-8.1,3.6-8.1,8.1c0,4.5,3.6,8.1,8.1,8.1c4.5,0,8.1-3.6,8.1-8.1C172.9,118.5,169.3,114.9,164.8,114.9
						L164.8,114.9z"/>
				</g>
				<circle class="st2" cx="185.1" cy="124.6" r="3.4"/>
				<circle class="st2" cx="154.2" cy="132.2" r="3.4"/>
				<circle class="st2" cx="164.5" cy="116.4" r="3.4"/>
			</g>
		</g>
	</g>
</g>
</svg>
